<?xml version="1.0" encoding="UTF-8"?>
<svg id="Layer_1" xmlns="http://www.w3.org/2000/svg" version="1.1" viewBox="0 0 312.92 289.53">
  <!-- Generator: Adobe Illustrator 29.4.0, SVG Export Plug-In . SVG Version: 2.1.0 Build 152)  -->
  <defs>
    <style>
      .st0 {
        fill: #fff;
      }

      .st1 {
        display: none;
      }
    </style>
  </defs>
  <g class="st1">
    <path class="st0" d="M280.72,91.39c2.15.06,4.05,1.94,5.88,3.01,7.36,4.32,15.05,9.32,19.78,16.58,1.8,2.77,2.32,4.67,3.21,8.04.11.4,1,.63,1.07,1,.34,1.79-.26,4.13,0,6.03.31,2.32,1.49,4.39,1.07,8.04-3.35,29.3-8.19,53.9-26.73,79.38-12.64,17.38-29.31,30.62-48.11,41.2.33,8.47-7.08,16.01-14.43,20.6-9.64,6.01-22.1,9.21-33.14,11.05-30.81,5.14-67.83,5.05-95.15-10.05-5.49-3.03-9.84-6.17-13.36-11.55-.66-1.01-3.06-4.36-3.21-5.02-.27-1.18.32-2.94,0-4.02-.65-2.2-5.45-3.58-6.95-4.52C23.22,221.48-.36,173.04,2.75,120.02c1.63-.81.74-2.17,1.07-3.01.59-1.51,3.3-5.68,4.28-7.03,4.57-6.33,11.18-10.7,17.64-14.57,11.89-7.13,24.75-12.41,37.42-16.08,17-4.92,34.65-6.75,52.39-10.05,1.1-.21,2.54.13,3.74,0l-4.28-8.54c-2.5-4.84-4.93-9.48-6.41-15.07-.11-.4-1-.63-1.07-1-.18-.92-.18-3.1,0-4.02.07-.37.93-.59,1.07-1,.2-.6-.19-1.38,0-2.01.05-.18,2.26-2.28,2.67-2.51.23-.13.74.14,1.07,0,.46-.2.69-.92,1.07-1,1.67-.35,8.79-.26,10.69,0,.4.05.65.93,1.07,1,8.66,1.63,17.23,3.4,25.66,5.02,1.09.21,2.55-.13,3.74,0-.16-1.45.24-3.14,0-4.52-.91-5.3-3.68-11.69-4.28-17.08-.25-2.32-.4-7.93,0-10.05.06-.29,1.82-1.44,1.07-3.01l3.74-3.52c2.89-.37,5.2-1.47,8.55-1,.4.06.65.93,1.07,1,6.24,1.18,11.74,2.3,18.17,4.02,1.28.34,4.07,1.67,5.35,2.01,20.42,5.4,40.05,9.57,59.87,15.07,2.98.83,7.05,1.42,9.62,3.01.56.35,3.67,3.28,3.74,3.52.3.99-.53,2.19,1.07,3.01l-1.07,5.02-13.9,14.07,4.81,2.51c10.42,4.48,25.27,7.82,35.28,14.07.79.5,4.37,3.83,4.81,4.52.14.22-.15.69,0,1,.21.44.98.65,1.07,1,.21.87.21,4.15,0,5.02-.09.36-.86.57-1.07,1-.15.31.14.79,0,1-2.64,4.17-9.26,5.53-11.76,9.55ZM255.06,31.1c-1.76.53-2.04-.79-2.67-1-5.83-1.97-12.13-2.54-18.17-4.02-21.75-5.31-42.6-11.62-65.22-17.08-2.05-.5-3.1-.63-5.35-1-.5-.08-1.73-1.66-4.28-1-.18.05-2.62,2.34-2.67,2.51-.34,1.16-.2,6.52,0,8.04.88,6.7,3.94,14.47,5.35,21.1.22,1.03-.14,2.39,0,3.52,1.55.15,3.34-.22,4.81,0s6.19,1.88,7.48,2.01c2.9.29,6.14-.2,9.09,0-2.62-3.57.05-6.87,0-10.55,2.16-4.18,5.89-6.42,11.23-5.53.4.07.64.91,1.07,1,13.51,3.14,23.73,12.03,36.35,17.08l8.55,3.01,15.5-15.57-1.07-2.51ZM286.06,80.33l1.07-4.52c-.94-.68-1.75-1.96-2.67-2.51-.24-.15-.8.15-1.07,0-16.53-9.35-34.32-12.91-51.32-20.1-12.01-5.08-22.65-12.74-34.21-17.08-.62-.23-2.81-1.93-3.21-2.01-5.28-1.1-6.52,4.51-5.88,8.54,3.08,19.49,2.12,42.15,3.21,62.3.26,4.83-.19,9.74,0,14.57,1.72-1.41,3.2-.68,4.81-1,.42-.08.67-.95,1.07-1,6.45-.89,12.56.85,18.17,2.01l6.41,3.01c.54-1.13,1.83-.83,2.14-1,1.07-.61,2.08-2.26,3.21-3.01,17.62-11.86,34.36-23.52,52.39-35.17,1.28-.82,3.33-2.52,4.28-3.01.51-.26,1.4.19,1.6,0ZM183.43,51.2c-1.72.55-2.25-.94-2.67-1-4.06-.67-9.63-.33-13.9-1-14.13-2.23-28.41-5.64-42.76-8.04-.41-.07-.68-.96-1.07-1-4.88-.57-10.72-.95-8.55,5.02,2.22,6.11,6.04,11.48,9.09,17.58,6.75,13.53,12.01,29.37,18.17,43.2.6,1.34,2.55,2.84,2.14,4.52,1.19-.13,2.65.21,3.74,0,3.02-.58,7.3-2.62,10.69-3.01,3.57-.42,5.39.71,7.48,1,2.24.32,4.99-.83,6.41,1h2.14l10.16-11.55v-43.2l-1.07-3.52ZM122.49,75.31c-1.2.13-2.65-.21-3.74,0-14.19,2.75-28.83,3.71-42.76,7.03-8.94,2.13-18.9,5.36-27.8,9.04-12.24,5.07-24.75,10.7-32.61,20.6-3.36,4.23-3.96,4.78-5.35,10.05-.11.4-1,.63-1.07,1-.34,1.79.23,4.12,0,6.03,1.62,2.25,2.76,4.71,4.28,7.03,9.77,14.94,38.54,25.25,55.06,29.64,3.45.92,7.28,1.2,10.69,2.01.59.14,1.79,1.77,3.74,1l-5.88-7.03c-13.28-2.75-27.16-7.22-39.56-14.07-6.54-3.61-14.88-10.53-17.64-17.58-.22-.56.2-1.37,0-2.01-.12-.41-1-.63-1.07-1-.23-1.24-.23-4.79,0-6.03.07-.37.95-.6,1.07-1,.19-.64-.22-1.45,0-2.01,7.24-18.49,37.88-27.37,55.06-31.65,14.22-3.54,28.98-5.85,43.83-8.04,1.48-.22,3.26.14,4.81,0l-1.07-3.01ZM106.99,92.39c6.93-.67,14.87.49,21.92,0l-3.21-9.04c-1.2.13-2.65-.21-3.74,0-13.03,2.52-26.66,3.21-39.56,6.03-14.22,3.11-29.47,8.1-42.76,16.08-.79.48-3.65,1.55-4.28,2.01-4.41,3.22-7.06,6.78-9.09,11.55-.18.43-.98.64-1.07,1-.52,2.21.37,5.61,0,8.04l3.21,4.52c-.28-1.66.45-3.05,1.07-4.52.93-2.19,1.87-3.17,3.21-5.02,6.12-8.45,11.81-11.88,21.92-14.57,6.91-1.84,14.59-2.07,21.38-4.02,5.65-1.62,12.17-6.81,18.17-9.04,4.02-1.49,7.72-1.44,11.76-2.01.4-.06.68-.97,1.07-1ZM187.71,174.78c1.9-.16,4.04.23,5.88,0,17.19-2.18,35-4.74,51.32-9.04,14.74-3.89,30.68-9.81,43.83-19.09,5.2-3.67,10.53-7.64,13.36-13.56.2-.42.92-.62,1.07-1,.33-.84-.56-2.21,1.07-3.01.72-6.04-1.02-10.08-4.28-15.07-4.81-7.36-12.54-11.55-19.78-16.58l-6.41-3.01-2.67,2.51c1.01,1.1,2.45,1.78,3.74,2.51,2.1,1.19,5.69,2.71,7.48,4.02,3.77,2.75,9.7,9.67,11.23,13.56.33.84-.56,2.21,1.07,3.01.54,5.85-.21,9.3-3.21,14.07-9.75,15.5-34.25,22.51-50.78,26.63-11.4,2.84-24.35,5.85-36.35,7.03-2.89.29-6.62-.89-8.55,1l-8.02,6.03ZM185.57,121.53v-14.07l-9.09,8.04c-2.09.6-2.91-.95-3.21-1-4.16-.7-11.78-1.5-16.04-1-2.98.35-7.7,2.29-10.69,3.01s-5.57.58-8.55,1c-.4.06-.67.95-1.07,1-3.36.47-5.67-.64-8.55-1l-4.81-3.52c1.31-1.84,3.89-1.85,5.88-1.51.41.07.66.93,1.07,1,2.69.46,4.49-.57,6.95-1,.26-1.64-.41-3.07-1.07-4.52-.32-.71-1.78-2.28-2.14-3.01-.3-.61-.37-2.91-1.07-4.02-.53-.84-1.98-1.63-2.67-2.51-7.23.5-15.36-.69-22.45,0-.39.04-.67.95-1.07,1-5.76.81-10.7,1.16-16.04,4.02-.75.4-1.4,1.62-2.14,2.01-11.49,6.06-20.44,5.83-32.07,9.04-3.29.91-6.75,1.48-9.62,3.01-.61.33-2.8,1.73-3.21,2.01-3.4,2.39-6.61,6.92-8.02,10.55-.71,1.84-.64,2.32-1.07,4.02-.1.39-.97.61-1.07,1-.69,2.79,1.45,4.93,3.74,6.53,8.42,5.87,21.44,9.27,31,12.06.67.2,1.68,1.72,3.74,1l-1.07-3.01c5.45.05,8.9,4.07,11.76,7.54.17.21-.17.79,0,1,4.51,5.56,12.28,10.05,16.04,16.08,2.16,7.38,3.99,14.05,3.21,22.1-.36,3.77-1.46,8.85-2.14,13.06-.06.38-1.03.64-1.07,1-.21,1.93-.34,6.27,0,8.04.07.37.95.6,1.07,1,.19.64-.22,1.45,0,2.01.25.62,1.84,2.34,2.14,3.01.24.54-.19,1.33,0,1.51.2.19,1.1-.26,1.6,0,.74.39,1.59,1.86,2.14,2.01.67.18,1.5-.19,2.14,0,.44.13.66.92,1.07,1,2.42.53,2.99-.45,4.28-1,.33-.14.84.13,1.07,0,2.1-1.17,3.54-3.92,4.81-5.53-.89-1.86,1.02-3.72,1.07-4.02.31-1.99.21-5.94,0-8.04-.15-1.44-2-6.6-2.14-8.04-.33-3.42-.5-10.83,0-14.07.06-.37.98-.61,1.07-1,.21-.91-.24-2.18,0-3.01.06-.22,2-3.83,2.14-4.02.58-.83,5.07-5.07,5.88-5.53.23-.13.74.14,1.07,0,.46-.2.69-.92,1.07-1,1.12-.24,6.36-.24,7.48,0,.38.08.61.81,1.07,1,.33.14.84-.13,1.07,0,2.52,1.41,3.8,4.13,4.81,6.53s.64,2.76,1.07,5.02c.07.38,1,.62,1.07,1,.27,1.54-.33,3.58,0,5.02.22.94,2.75,2.98,2.14,4.52,2.34.37,4.12,1.48,6.95,1,.42-.07.95-1.56,2.67-1-.47-1.67,1.64-3.25,2.14-4.52.9-2.29,1.48-5.64,2.14-8.04.39-1.44.63-3.63,1.07-5.02.15-.48,1.64-1.32,2.14-2.01.17-.24-.16-.8,0-1,.7-.91,2.77-2.84,3.74-3.52.51-.35,2.44-1.57,3.21-2.01,2.5-1.41,5.94-1.34,8.55-2.01,7.91-2.03,13.47-12.04,21.38-14.07.9-.23,2.26.21,3.21,0,.42-.09.65-.91,1.07-1,1.83-.41,3.68-.07,4.81,1.51l-4.28,3.52c2.6-.19,5.47.27,8.02,0,15.62-1.63,42.86-9.03,57.73-17.08,2.05-1.11,4.45-4.18,6.95-4.02-.34-2.29.48-5.44,0-7.54-.36-1.58-3.25-4.65-4.28-6.03-3.6-4.83-12.34-10.06-18.71-12.56-.6-.23-1.5.23-2.14,0-.6-.21-2.81-1.93-3.21-2.01-.93-.19-2.18.13-3.21,0l-17.64,13.56,3.74,1.51c3.43.41,7.17-2.98,10.16.5-1.44.65-.58,2.18-1.6,2.51-1.24.4-1.72.86-2.14,1-.91.31-2.35-.53-3.21,1-14.38,1.61-23.81-10.06-38.49-8.04-2.43.33-7.05,2.51-9.62,3.01-1.44.28-4.61.92-5.35,1-3.01.35-6.52-.25-9.62,0l-5.88-2.01c.2-5.15,9.06-2.42,13.36-3.01.31-.04,1.8-1.77,3.74-1ZM287.13,131.58c.56-3.33,2.8-6.11,2.14-9.55-.07-.37-.95-.6-1.07-1-.19-.64.22-1.45,0-2.01-1.06-2.7-3.78-5.74-5.35-8.04-.44-.65-10.56-7.6-12.29-8.54-1.17-.63-3.42-.77-4.28-2.01-3.96,1.22-7.3,3.68-10.16,6.53l14.43,6.53c6.61,4.47,10.92,8.37,14.43,15.57.42.87.35,2.39,2.14,2.51ZM10.23,143.63c.17,2.12-.25,4.46,0,6.53.63,5.13,2.94,11.13,4.28,16.08,22.15,81.75,106.33,114.16,187.63,93.95,47.75-11.87,81.57-43.24,95.69-87.92,3.02-9.54,3.77-15.99,5.35-26.12.03-.2,2.49-2.48.53-3.52l-8.55,8.04c-26.36,20.27-79.39,29.06-112.26,31.15-3.87.25-7.87-.18-11.76,0l-2.67,3.52c-.64,4.52-2.19,8.7-3.21,13.06-1.37,1.83-3.6,5.25-5.88,6.53-.23.13-.74-.14-1.07,0-.46.2-.69.92-1.07,1-1.2.25-7.35.25-8.55,0-.38-.08-.61-.81-1.07-1-.33-.14-.84.13-1.07,0-.65-.37-4.42-3.91-4.81-4.52-.73-1.15-.73-2.89-1.07-4.02-.46-1.52-1.84-4.61-2.14-6.03-.25-1.21.28-2.86,0-4.02-.09-.36-.86-.57-1.07-1-.15-.31.14-.79,0-1-2.27-3.59-7.24-3.5-9.62,0-1.23,1.8-1.58,4.2-2.14,6.03-.12.41-1,.63-1.07,1-.51,2.69-.29,10.08,0,13.06.14,1.43,2,6.61,2.14,8.04.23,2.33.34,6.83,0,9.04-.06.37-.98.61-1.07,1-.21.91.24,2.18,0,3.01-.1.33-2.97,5.7-3.21,6.03-1.72,2.44-4.22,3.5-6.95,4.52-.46.17-.68.92-1.07,1-1.25.26-6.14.23-7.48,0-.4-.07-.63-.89-1.07-1-.69-.19-1.56.22-2.14,0-.42-.16-.63-.81-1.07-1-.33-.14-.84.13-1.07,0-2.79-1.56-5.86-5.73-6.95-8.54-.16-.42-.96-.62-1.07-1-.24-.84.21-2.1,0-3.01-.09-.39-1.01-.63-1.07-1-.37-2.36-.27-7.58,0-10.05.45-4.06,2.8-9.89,3.21-14.07.61-6.26-.3-9.89-2.14-15.07-.22-.62.24-1.45,0-2.01-.17-.39-.86-.59-1.07-1-.16-.32.14-.8,0-1-1.35-1.99-2.47-1.13-3.74-1.51-.44-.13-.67-.93-1.07-1-1.27-.25-3.04.26-4.28,0-19.04-3.98-39.55-10.4-57.73-20.1l-15.5-12.06ZM205.35,160.72c-.69,0-.69,1,0,1s.69-1,0-1ZM229.4,258.18c-2.07.22-3.96,1.28-5.88,2.01-41.76,15.86-92.51,16.21-134.71,0-.73-.28-2.42-1.45-3.21-2.01-.8-.16-.74,1.07-.53,1.51,2.2,4.64,6.14,7.28,10.16,10.55,31.74,15.5,71.17,16.36,104.77,7.03,10.1-2.8,21.83-7.35,27.26-15.57.47-.71,2.4-3.3,2.14-3.52Z"/>
    <path class="st0" d="M26.27,165.74l1.07,4.52c12.08,28.95,31.88,55.36,61.47,70.84l4.81,5.02-6.95-2.01c-.76-.51-1.43-1.65-2.14-2.01-31-15.94-51.47-41.38-60.4-72.85-.51-1.78-.56-4.33,2.14-3.52Z"/>
    <path class="st0" d="M235.82,239.09l9.09-9.04c18.1-13.42,31.36-33.94,39.02-53.75l4.81-10.55.53,6.53c-7.08,25.51-23.52,48.68-47.58,64.81l-5.88,2.01Z"/>
    <path class="st0" d="M111.8,107.46l-4.81,3.01-7.48,2.01c-1.74,1.95-4.18,2.41-5.88,4.52-.16.2.18.76,0,1-.49.68-2,1.55-2.14,2.01-.72,2.47.33,5.22,2.67,6.53.23.13.74-.14,1.07,0,.46.2.69.92,1.07,1,1.23.26,2.97-.22,4.28,0,.41.07.68.96,1.07,1,3.63.42,8.34-.57,11.76,0,.4.07.63.89,1.07,1,6.4,1.72,6.63,4.18,11.76,7.03,4.45,2.47,10.19,4.61,14.97,2.01l10.16.5-3.74,2.51c-2.24-.25-5.84,1.78-7.48,2.01-2.28.31-9.59.36-11.76,0-.39-.07-.63-.87-1.07-1-.64-.19-1.47.18-2.14,0-.5-.13-1.41-1.54-2.14-2.01-2.35-1.5-8.05-6.7-9.62-7.03-3.11-.65-8.24.41-11.76,0-.39-.05-.66-.94-1.07-1-1.31-.22-3.02.25-4.28,0-.4-.08-.64-.89-1.07-1-1.2-.32-3.05-.32-4.28-1-.59-.33-3.39-2.97-3.74-3.52-.14-.22.15-.69,0-1-.21-.44-.98-.65-1.07-1-.23-.97-.23-5.05,0-6.03.09-.37.89-.58,1.07-1,.99-2.34,1.44-3.89,3.74-5.53,1.06-.76,6.04-3.52,7.48-4.02,2.48-.86,5.73-1.18,8.55-2.01,1.97-.58,2.96,1.3,4.81,1Z"/>
    <path class="st0" d="M231.54,148.66c-.35-3.35,2.24-2.5,3.74-3.01,5.62-1.94,11.16-3.33,17.11-6.03l4.81-4.52c-.32-2.14.46-5.09,0-7.03-.12-.5-3.02-3.69-2.14-4.52,2.25-.46,4.2.81,5.35,2.51.15.23-.16.75,0,1,1.57,2.49,2.77,3.77,2.14,7.03-.06.3-1.81,1.43-1.07,3.01-1.43,1.99-3.5,5.04-5.88,6.53-.51.32-8.09,3.9-8.55,4.02-3.06.78-6.63,1.34-9.62,2.01-2.42.54-3.77-.92-5.88-1Z"/>
    <path class="st0" d="M153.49,151.67c-1.45-1.16-.13-1.93,1.6-2.01,2.88-.13,6.84-.28,9.62,0,.39.04.67.95,1.07,1,4.01.56,7.42-.89,10.69-2.01,4.51-1.54,7.9-4,12.83-4.02,2.09,0,3.44-.4,4.81,1.51l-4.81,2.51c-4.27-.26-10.39,5.31-13.9,6.03-3.21.65-8.26-.47-11.76,0l-10.16-3.01Z"/>
    <path class="st0" d="M104.32,179.81c-.18-1.44.26-3.18,0-4.52-.07-.37-.94-.6-1.07-1-1.11-3.65-2.45-6.62-5.88-9.55-1.99-.3-10.78-7.01-11.23-8.54-.42-1.42.28-3.88,0-5.53,1.17.34,2.45,1.62,3.21,2.51,4.55,5.38,6.19,4.97,11.23,8.54.75.53,4.7,5.17,4.81,5.53.19.63-.2,1.41,0,2.01.57,1.69,1.73,4.39,2.14,6.03.57,2.29-.26,4.81-3.21,4.52Z"/>
    <path class="st0" d="M180.22,162.73l-3.74,4.02c-3.99,1.45-8.17,2.89-11.76,5.02-2.11,1.26-3.15,6.02-5.88,7.03l1.07-6.53c1.93-1.06,2.08-3.53,3.74-4.52,2.66-1.58,5.77-2.12,8.55-4.02l8.02-1Z"/>
    <path class="st0" d="M222.99,136.6c-1.82-.23-4.22.34-5.88,0-.93-.19-4.3-2.75-5.35-3.01-1.61-.41-4.58-.69-6.41-1s-3.41.66-4.81-1.51c1.4-1.99,2.76-1.41,4.81-1.51,5.59-.27,5.4.43,9.62,2.01.89.33,1.68.36,3.21,1,1.82.77,5.15.99,4.81,4.02Z"/>
    <path class="st0" d="M65.83,118.52c-.49,2.21-3.5,2.29-4.81,3.01-1.53.84-4.34,2.3-5.35,3.01-1.91,1.36-2.5,2.96-3.74,4.52l.53,7.54-3.74-4.52v-2.51l2.14,2.01-1.07-4.52c.12-.38.89-.58,1.07-1,.29-.69.76-2.56,1.07-3.01,1.81-2.67,6.5-4.01,9.62-5.02l4.28.5Z"/>
    <path class="st0" d="M111.8,226.03c-3.28.25-5.6.25-7.48-2.51-.15-.23.16-.75,0-1-.41-.65-2.06-2.69-2.14-3.01-.76-3.32-.28-9.26,2.67-11.55,1.22,1.27.27,3.87.53,5.53.06.38,1,.62,1.07,1,.54,2.84.13,5.16,2.14,8.04.82,1.17,2.85,2.01,3.21,3.52Z"/>
    <polygon class="st0" points="67.97 143.63 66.36 145.64 62.62 144.64 65.29 142.63 67.97 143.63"/>
    <path class="st0" d="M261.47,83.35l2.14-4.52c-1.31-1.78-4.69-1.49-4.28-4.52,7.3-1.07,11.36,2.64,6.41,8.54l-4.28.5Z"/>
    <path class="st0" d="M204.81,54.21c-.14.14.32,1.98-1.07,2.51,1.42.84.98,1.69,1.07,3.01.06.9.43,3.49-1.6,2.51-1.86-.89-2.53-3.31-3.74-4.52v-2.01c1.79-3.15,4.6-6.88,8.55-3.01-.6,1.57-3.09,1.38-3.21,1.51Z"/>
    <path class="st0" d="M219.78,108.47h2.14c-.12-1.55-.29-4.46,1.6-5.02,2.07-.62,2.6,2.66,3.74,3.52l-2.67,4.52c-2.78.34-5.07-.21-4.81-3.01Z"/>
    <path class="st0" d="M237.95,92.39h3.21v-4.02c3.66-.72,5.58,2.2,3.74,5.02-1.06,1.63-2.97,1.83-4.28,3.01l-2.67-4.02Z"/>
    <path class="st0" d="M210.69,79.33l2.14,2.01c.89-1.45,3.14-2.72,3.74-.5,1.07,3.95-2.4,6.05-5.88,3.52-2.19-1.59-2.38-3.3,0-5.02Z"/>
    <polygon class="st0" points="230.47 67.27 235.28 67.27 236.88 70.79 231 72.3 229.4 69.78 230.47 67.27"/>
    <polygon class="st0" points="203.74 100.43 204.81 102.94 203.21 104.45 200.54 104.45 200.54 101.94 203.74 100.43"/>
    <path class="st0" d="M143.34,77.32c1.53,1.2,2.53,2.1.53,3.52l2.67,2.51c1.5-1.87,2.46-.93,3.74.5.85,2.85-5.01,2.76-6.95,2.51-2.68-.34-3.7-3.21-3.74-5.53l3.74-3.52Z"/>
    <path class="st0" d="M166.32,96.41l4.28-1v-4.02c1.96-.23,3.1-.05,4.28,1.51v4.02l-2.67,2.51h-4.28l-1.6-3.01Z"/>
    <path class="st0" d="M129.44,49.19c1.85-.69,8.84,1.02,8.02,3.52-.95,2.89-4.2.04-5.88.5-.79.22-1.63,2.48-3.21,2.01l-1.6-2.51,2.67-3.52Z"/>
    <path class="st0" d="M157.77,63.25l-1.07,4.02c4.83-.24,1.19,3.98-2.67,3.01-3.7-.93-.88-8.51,3.74-7.03Z"/>
    <path class="st0" d="M172.2,56.22l3.74,3.52c-3.34,3.8-7.79-.38-3.74-3.52Z"/>
    <path class="st0" d="M180.22,80.33h-3.21v-4.02c2.7-.24,3.6,1.6,3.21,4.02Z"/>
    <path class="st0" d="M175.95,18.04c.28,3.26-1.98,2.54-3.74,3.01-1.46.39-1.68,3.36-3.21,4.02l-2.67-2.51c-.31-1.02,2.68-5.25,3.74-5.53,2.33-.61,3.81.97,5.88,1Z"/>
    <path class="st0" d="M234.75,32.11c3.1-.45,4.56.28,6.41,2.51.04,1.63.47,4.87-1.6,5.53-2.94.93-2.38-3.59-2.67-4.52-.26-.85-2.87-1.57-2.14-3.52Z"/>
    <polygon class="st0" points="209.09 25.07 209.09 27.58 207.48 29.09 204.81 27.58 206.42 25.07 209.09 25.07"/>
  </g>
  <g class="st1">
    <path d="M500.53-169.09c-.18,1.77-1.13,4.56-1.59,6.36-2.89,11.26-11.98,23.91-24.1,26.75-.52.12-1.27-.08-1.85,0-.28,1.03.67,1.24,1.06,1.85,2.63,4.14,5.58,9.74,6.89,14.3.06.22.49.33.53.53.08.43.1,1.75,0,2.12-.07.24-1.69,1.29-1.85,1.32-1.7.37-4.45-.24-6.36,0-.91.11-3.06.78-4.24,1.06-3.47.84-7.51,2.32-11.12,2.65-9.93.9-21.35-2.94-26.22-11.92-1.42-2.45-2.99-5.05-3.18-7.68h-7.94l-.53-4.24c-1.08.15-2.08-.35-2.91-1.06l-6.36-2.12,1.32,2.38c-.14.98.2,2.29,0,3.18-.04.2-.45.31-.53.53-.91,2.54-1.6,2.82-3.18,4.77-2.3,2.83-4.6,5.15-7.68,7.15-2.26,1.47-4.28,2.08-6.89,2.65-.21.05-.33.5-.53.53-.81.13-1.82-.12-2.65,0-.2.03-.33.49-.53.53-1.48.27-2.26-.48-2.65-.53-2.87-.35-4.17-.39-6.89-1.06-6.01-1.49-12.22-3.69-18.01-6.36-4.22-1.95-9-5.27-11.39-9.27-.73-1.23-1.15-2.93-1.59-4.24-3.83-11.51-.5-23.6,8.74-32.04l3.97-2.91c-.1-2.99.13-6.01,0-9,0-.18-.52-.35-.53-.53-.18-4.46-.6-12.84,0-16.95.03-.2.48-.32.53-.53.1-.48-.12-1.15,0-1.59.18-.67,1.21-1.57,1.59-2.12,1.66-2.38,2.76-3.32,5.03-5.03,4.71-3.53,10.11-6.04,15.36-9,11.84-6.68,23.33-13.5,35.49-19.07,2.05-.94,2.43-1.12,4.77-1.59.21-.04.33-.5.53-.53.89-.13,2.79-.11,3.71,0,.19.02.33.49.53.53,1.95.35,3.49.62,5.3,1.06,12.04,2.94,24.15,6.14,36.02,9.53,4.1,1.17,11.37,2.7,14.83,5.3,1.02.76,1.9,2.08,2.91,2.91l1.06,3.18c.11,1.91-.16,3.94,0,5.83.65,7.84-.14,17.79-.53,25.95-.13,2.72.1,5.49,0,8.21.85.29,1.12-.49,1.32-.53,2.54-.43,4.93-.55,7.42-1.06.2-.04.31-.47.53-.53l2.38,1.32c-.21,2.91.29,6.15,0,9ZM435.38-176.5v31.51c1.2-.99,2.53-1.51,3.97-2.12,1.82-.77,4.57-1.9,6.36-2.12.94-.12,4.85.18,5.03,0,.07-.59-.11-1.31,0-1.85.34-1.69,1.04-3.66,1.59-5.3,1.98-5.94,4.8-9.76,9.8-13.51.89-.67,1.82-1.37,2.65-2.12l5.3-2.65c.31-.11.74.11,1.06,0,3.95-1.32,7.96-1.98,12.18-2.65.73-.12,1.62.08,2.38,0,.08-1.12-.12-2.35,0-3.44.63-5.63.91-12.88,1.06-18.54.11-4.43.44-10.57,0-14.83-.02-.19-.5-.33-.53-.53-.12-.82.16-1.89,0-2.65-.04-.17-.86-1.25-1.06-1.59-.08-.14.08-.41,0-.53-.18-.29-1.04-1.14-1.32-1.32-3.2-2.05-8.25-3.21-11.65-4.24-13.01-3.92-26.44-7.37-39.72-10.59-.63-.15-2.66-1-3.18-1.06-1.05-.13-3.78-.17-4.77,0-.2.04-.32.48-.53.53-3.16.78-4.62,1.74-7.42,3.18-13.94,7.17-28.35,15.08-41.84,23.3-.92.56-2.33,1.02-3.18,1.59l-5.03,4.77c1.97.14,4.15-.2,6.09,0,8.23.85,18.7,5.81,27.01,8.47s16.77,4.18,24.89,6.89c2.46.82,3.16,1.15,5.3,2.65.12.09.42-.08.53,0,2,1.5,3.14,3.78,3.97,6.09.35.96.32,1.17.53,2.12.05.21.5.33.53.53ZM364.94-200.34v23.3c0,.1.94.94.53,1.85.94.41,1.64-.49,1.85-.53.84-.15,2.23-.48,2.65-.53,2.98-.37,6.36.94,9,1.59,6.87,1.67,14.25,4.18,20.66,7.94,4.38,2.57,7.16,5.44,8.74,10.33.07.22.48.33.53.53.14.61-.11,1.47,0,2.12.04.2.51.34.53.53.32,2.57.02,6.69-.53,9-.06.24-.82.46-.53,1.32l14.04,4.77c3-.09,5.74.71,7.68-1.85.09-.12-.08-.44,0-.53.81-.94,1.82-1.73,2.65-2.65v-32.31l-1.06-3.71-3.97-4.5c-6.78-3.13-13.74-3.88-20.66-5.83-11.65-3.27-23.13-8.76-34.96-11.12-.21-.04-.33-.5-.53-.53-1.77-.26-3.99.19-5.83,0l-.79.79ZM470.34-150.82h11.39c.27,0,3.11-1.1,3.97-1.32.53-.14,1.59-.58,1.06.53-.46.97-3.17,1.48-3.97,2.38-3.74.47-8.71.96-12.71.53-.19-.02-.33-.5-.53-.53-.82-.12-1.79.08-2.65,0-.85,1.38-3.31,2.03-3.97,3.44-.5,1.05,1.17.71,1.32,1.32,2.11.75,9.55.85,12.18.53.19-.02.33-.5.53-.53.96-.16,2.04.39,2.65-.53l.79,1.06c-1.05.1-1.93.7-2.91,1.06-.54.2-2.27,1-2.65,1.06-1.15.17-6.37-.23-6.62,0-.22.91.35,1.05.79,1.59,1.11,1.33,1.86,1.93,3.71,1.59.2-.04.32-.48.53-.53,2.36-.52,5.29-1.38,7.42-2.65,8.2-4.89,14.34-15.42,16.15-24.1.54-2.61.38-5.16.53-7.94.04-.68-.18-1.13.53-1.59-.7-.99-2.24.24-2.38.26-5.59.85-11.3.82-16.95,1.59-1.5.21-3.79,1.15-5.3,1.59-10.2,3-16.7,9.52-18.8,19.86-.04.21-.5.33-.53.53-.14.89.09,1.98,0,2.91l3.71,1.06c.14-1.61-.19-3.46,0-5.03.02-.19.49-.33.53-.53.59-3.31,1.14-6.28,3.18-9,.47-.63,1.4-1.49,2.12-1.85.13.87-.2,1.62-.53,2.38-1.28,3.03-2.5,5.39-3.18,8.47l.26,6.62c1.2-1.72,4.01-2.78,5.03-4.5.06-.11.52-1,.53-1.06.2-.88-.14-2.2,0-3.18.23-1.59,1.58-3.96,1.59-5.83,1.56-2.74,2.75-5.43,5.03-7.68.69.01,2-1.41,1.85.26-1.36,1.31-2.62,3-3.18,4.77l-2.65,6.89-.26,3.97c.8-.33,1.44-1.19,2.12-1.59,1.85-1.09,3.59-2.08,5.3-3.18,1.39-.89,1.4-3.57,1.85-5.03s1.64-3.15,2.12-4.77l4.5-4.5c.78.51.14,1.33-.26,1.85-1.48,1.94-2.61,3.7-3.71,5.83l-.79,3.97,15.09-12.18c.24,1.22-.15,1.36-.79,2.12-2.5,2.94-5.79,5.55-8.47,7.94-.83.75-1.56,1.62-2.38,2.38l4.5-.26c1.06-.66,2.49-1.06,3.71-1.59.3-.13,3.24-2.09,2.38-.26-.66,1.41-4.03,2.89-5.56,3.44-3.3,1.19-5.92.75-9,1.59-.64.18-5.63,3.65-6.36,4.24-.65.52-1.49,1.37-1.85,2.12ZM372.36-173.06h-3.97c-14.25,4.71-20.64,20.77-16.15,34.16l2.65,4.77,2.91,2.91-.79-2.38c-2.34-4.57-3.34-10.82-2.65-16.42.02-.19.49-.33.53-.53.36-2,.42-2.86,1.06-4.77,2.46-7.39,7.61-14.47,15.09-16.68l1.32-1.06ZM380.83-171.47c-1.1.35-1.96-.83-2.91-.53-1.82.57-3.6.58-5.3,1.06-4.58,1.3-9.86,6-12.45,10.33-.85,1.42-2.91,6.08-3.18,7.42-.13.63.11,1.47,0,2.12-.04.2-.51.34-.53.53-.26,2.12-.26,7.41,0,9.53.02.19.49.33.53.53.21,1.16.1,2.55.53,3.71.56,1.51,3.57,6.53,4.77,7.42.57.42,1.4.53,1.85,1.32l-1.32-2.91c-3.26-6.12-3.31-13.43-1.59-20.13.69-2.68,1.19-4.31,2.65-6.89,3.16-5.59,8.82-11.47,15.09-12.98.66-.16,1.96.49,1.85-.53ZM387.19-169.35c-1.42.04-2.43-.81-3.97-.53-.2.04-.33.5-.53.53-1.99.29-3.85.26-5.83,1.06-5.31,2.14-10.91,9.35-12.98,14.57-.68,1.71-.76,3.63-1.06,5.3-.04.2-.51.34-.53.53-.26,2.12-.26,7.41,0,9.53.02.19.49.33.53.53.12.65-.13,1.49,0,2.12.04.2.47.32.53.53,1.08,3.8,2.68,6.39,5.83,9,.62.51,1.21.87,1.85,1.32l-2.91-5.56c-1.95-6.1-2.71-12.33-1.06-18.54,1.21-4.56,5.63-12.14,9.27-15.09,2.16-1.75,6.41-4.14,9-4.77.66-.16,1.96.49,1.85-.53ZM394.6-166.71c-1.04.29-1.55-.44-2.38-.53-1.29-.14-4.06-.18-5.3,0-.2.03-.32.49-.53.53-1.01.2-2.16.26-3.18.53-11.32,6.01-16.33,18.36-14.57,30.45.03.2.49.32.53.53.45,2.24.99,3.74,1.59,5.83.12.42,3.3,4.53,3.97,5.03.11.08.41-.09.53,0,.71.5,2.09,2.14,2.91,1.32-1.67-1.6-2.92-3.57-3.71-5.83-3.11-6.13-2.5-13.43-.53-19.6.81-2.55,1.68-5.11,3.18-7.42,2.05-3.15,5.85-6.66,9.27-8.21,1.78-.81,3.92-1.79,5.83-2.12.72-.13,2.43.51,2.38-.53ZM390.36-148.7c-.77,1.55-1.59,3.04-2.12,4.5-.35.97-.32,1.17-.53,2.12-.05.21-.5.33-.53.53-.14.95-.14,3.29,0,4.24.02.16.97,1.14.53,2.12,1.43,2.84,3.8,4.04,7.15,3.44.2-.04.31-.47.53-.53.34-.1.76.11,1.06,0,4.7-1.74,8.12-7.8,9.27-12.45.05-.21.49-.33.53-.53.14-.8-.12-1.83,0-2.65.03-.2.5-.33.53-.53.1-.65.1-2,0-2.65-.03-.2-.5-.33-.53-.53-.12-.82.14-1.85,0-2.65-.04-.2-.47-.31-.53-.53-.1-.34.11-.76,0-1.06-.17-.45-1.38-2.87-1.59-3.18-.37-.55-2.89-3.08-3.44-3.44-.22-.14-1.23-.4-1.59-.53-.22-.08-.33-.47-.53-.53-.44-.12-1.11.1-1.59,0-.21-.05-.33-.5-.53-.53-.95-.14-3.29-.14-4.24,0-.2.03-.32.49-.53.53-1.01.2-2.16.26-3.18.53-10.99,5.62-15.94,18.71-13.51,30.45.04.2.47.32.53.53.55,1.94,1.03,2.95,2.12,4.77.97,1.63,1.41,2.38,2.91,3.44.56.4,1.03,1.22,1.59,1.59.2.13,1.93.99,2.12,1.06.45.16,1.16-.28,1.59.53,9.54,1.15,17.84-4.74,22.51-12.45.41-.68,2.02-2.58.26-2.38-.55.78-1.34,1.64-1.85,2.38-2.7,3.91-4.22,6.38-9.27,8.21-.22.08-.33.47-.53.53-.44.12-1.11-.1-1.59,0-.21.05-.33.5-.53.53-.76.11-2.42.11-3.18,0-.2-.03-.32-.49-.53-.53-1.01-.2-2.16-.26-3.18-.53-.34-.78-1.37-.9-1.59-1.06-1.19-.87-3.27-3.34-3.97-4.5-.55-.91-.78-2.6-1.06-3.71-.05-.21-.49-.33-.53-.53-.25-1.42-.22-6.98,0-8.47.03-.2.49-.32.53-.53.89-4.45,2.6-7.54,5.3-11.12.74-.98,4.49-3.58,5.56-3.97.45-.16,1.16.28,1.59-.53h5.3c2.63,1.45,4.02,2.79,5.03,5.56.08.22.47.33.53.53.12.44-.1,1.11,0,1.59.05.21.5.33.53.53.17,1.19.15,4.07,0,5.3-.02.19-.49.33-.53.53-.11.65.13,1.5,0,2.12-.04.19-.9,1.26-1.06,1.59-.12.26.1.71,0,1.06-.06.19-1.88,2.88-2.12,3.18-.5.65-2.3,2.51-2.91,2.91-.22.15-1.23.39-1.59.53-.23.09-.34.49-.53.53-.56.12-3.15.13-3.71,0-.19-.04-.3-.43-.53-.53-.16-.07-.42.07-.53,0-1.25-.74-1.88-2.18-2.38-3.44-.09-.23-.49-.34-.53-.53-.15-.67-.13-3.51,0-4.24.04-.2.47-.31.53-.53.1-.34-.11-.77,0-1.06.08-.21.43-.31.53-.53.08-.16-.07-.41,0-.53.62-1.04,2.07-1.75,2.91-2.38,1.81-.23,3.08.8,4.24,2.12.61-.47,1.05-1.05.79-1.85-.07-.21-.46-.32-.53-.53-.1-.31.1-.73,0-1.06-.24-.84-2.4-1.5-2.91-2.38l-4.77-1.59h-1.06c-1.65,1.55-2.6,3.52-3.44,5.56-.64,1.56-.72,2.01-1.06,3.71-.04.21-.5.33-.53.53-.14.99-.21,6.13,0,6.89.19.68,2.26,1.9,2.91,2.38l-1.32-4.5c.08-.85-.12-1.83,0-2.65.03-.2.49-.33.53-.53.11-.65-.13-1.5,0-2.12.04-.18,1.46-2.98,1.59-3.18.33-.5,2.65-2.88,3.18-2.38ZM392.48-144.46c.26.86-.96,1.95-1.06,2.38-.34,1.54-.11,5.18,1.32,6.09.11.07.36-.08.53,0,.23.11.34.49.53.53.41.09,1.71.09,2.12,0,.19-.04.3-.43.53-.53.16-.07.42.07.53,0,.44-.26,3.12-2.96,3.44-3.44.25-.38,2.07-4,2.12-4.24.13-.61-.11-1.47,0-2.12.04-.2.51-.34.53-.53.1-.83.1-2.35,0-3.18-.02-.19-.49-.33-.53-.53-.11-.65.13-1.5,0-2.12-.04-.17-.86-1.25-1.06-1.59-.08-.14.08-.42,0-.53-.23-.34-1.53-1.66-1.85-1.85-.11-.07-.37.08-.53,0-.22-.1-.32-.45-.53-.53-.42-.17-1.17.28-1.59-.53l-3.18.53-2.91,1.59c.06.88.86.85,1.32,1.06,1.6.73,3.51,1.2,4.77,2.12.35.26,2.34,2.22,2.38,2.38.1.33-.1.74,0,1.06.07.22.5.34.53.53.1.55.13,2.72,0,3.18-.03.13-1.73,1.82-1.85,1.85-.36.1-2.29.1-2.65,0-.63-.17-1.39-2.24-2.91-1.59ZM477.76-119.04c.15-.89-.24-1.6-.53-2.38-2.17-5.84-7.61-14.74-12.45-18.8-1.91-1.61-5.58-3.89-7.94-4.77-.88-.33-2.25-.34-3.18-.53-.21-.04-.33-.5-.53-.53-1.57-.23-5.8-.2-7.42,0-.19.02-.33.49-.53.53-1.16.21-2.55.1-3.71.53-2.93,1.08-7.01,3.95-9,6.36-.45.54-1.01.68-.79,1.59h4.5c.74-.61,1.38-1.57,2.12-2.12,2.76-2.04,5.75-3.06,9-3.71.21-.04.33-.5.53-.53,1.77-.26,3.99.19,5.83,0l.79,1.06c-1.03-.27-1.54.42-2.38.53-3.89.52-5.88.73-9.53,2.65-.82.43-1.82.92-2.65,1.59-.56.44-.95.81-.79,1.59.93.09,2.01-.13,2.91,0,.54.08,1.76.36,2.65.53.2.04.33.49.53.53,2.52.46,3.84-1.39,5.83-2.12.62-.23,3.26-.99,3.71-1.06,2.3-.34,6.45-.05,8.47.53.19.05.82.72.79,1.06-.28.23-5.45-.14-6.62,0-1.84.23-4.34,1.46-6.36,1.59l-1.32,1.06,8.21,2.65c3.7-.62,8.14-2.11,11.65,0,.21.12.33.39.53.53l-.53,1.06-1.59-.53-6.09.26,9.8,5.56,2.91,3.18-10.33-5.3-6.89-2.65,1.32,3.44c1.55,1.54,2.47,3.29,4.24,4.77.44.37,1.23.34,1.59,1.06.48.95-.83.94-1.32.79-3.68-1.07-6.65-6.44-8.21-9.8-.17-.37-.8-.45-.53-1.32l-4.5-1.59-3.97-.53c.55,2.55,1.8,4.91,3.18,7.15,1,1.62,2.63,3.43,4.24,4.77.44.36,1.25.36,1.59,1.06.53,1.11-.53.67-1.06.53-4.39-1.17-7.87-6.55-9.53-10.59-.22-.54-.34-2.01-.53-2.65-.46-1.55-2.44-1.14-3.44-1.32-.2-.04-.33-.5-.53-.53-.91-.12-1.97.08-2.91,0-.2,2.48,1.39,4.49,2.12,6.62,1.14,2.04,3.37,3.47,4.77,5.3.4.53,1.05,1.34.26,1.85-1.79-1.24-3.66-2.19-5.03-3.97-2.24-2.92-3.09-5.84-4.24-9-.11-.31-.81-.45-.53-1.32-1.95.28-3.35-.81-5.3-.53-.05.86.98.37,1.59,1.32,1.48,2.31,2,5.83,3.71,8.47,2.46,3.79,6.26,6.73,10.33,8.21.88.32,2.37.87,3.18,1.06.6.14,1.47-.12,2.12,0,.2.04.34.51.53.53,6.6.82,14.14-1.41,20.13-2.65.83-.17,2.96-.97,3.71-1.06,1.08-.13,2.33.09,3.44,0ZM408.37-137.58l-1.85-.53-4.24,5.3c-1.63.73-2.9,2.49-4.77,3.18-.45.16-1.16-.28-1.59.53-1.68-.17-3.69.24-5.3,0-.5-.07-3-.81-3.71-1.06-.31-.11-1.32-1.19-1.85-.79.68,1.04,1.35,2.17,2.38,2.91.11.08.4-.09.53,0,.36.25.81.99,1.06,1.06.33.1.74-.1,1.06,0,.22.07.34.5.53.53.89.16,5,.18,5.83,0,.38-.08,2.08-1.27,2.65-1.59,3.62-2.04,5.77-4.7,8.47-7.94.45-.54,1.01-.68.79-1.59Z"/>
    <path d="M437.5-183.65c-.21-.98.54-1.26,1.06-1.85,2.77-3.16,5.61-5.02,8.74-7.15,10.73-7.33,23.08-13.74,33.37-21.19.39-.28,3.22-2.91,3.44-2.65l-1.06,2.91c-1.63,1.92-3.73,3.12-5.56,4.5-10.95,8.26-23.84,15.21-35.49,22.77-.6.39-3.87,3.24-4.5,2.65Z"/>
    <path d="M378.71-208.55l1.85-2.12c10.81-6.19,21.7-12.44,32.84-18.54l6.62-3.18c.17,1.26-.99,1.6-1.85,2.12-10.63,6.4-21.88,12.43-32.84,18.54l-6.62,3.18Z"/>
    <path d="M456.04-201.13c-.16-.82.47-1.42,1.06-1.85,5.17-3.79,10.97-6.97,16.15-10.86.12-.09.42.08.53,0,.52-.41,3.9-3.7,3.97-3.97.32-1.16-.51-1.89-.53-2.91,2.28.18,2.28,2.15,2.12,3.97l-5.56,5.03-17.74,10.59Z"/>
    <path d="M484.11-208.55c-.42.93.51,1.68.53,1.85.49,3.42.14,10.06,0,13.77,0,.18-.52.35-.53.53-.12,2.77.22,5.75,0,8.47-.07.9.07,1.56-1.06,1.85l-.26-2.65c-.96-3.56.15-8.05.26-11.39.13-3.87-.19-7.79,0-11.65.04-.86.44-1.51,1.06-.79Z"/>
    <path d="M398.31-197.96l-5.03-1.06c-4.76-1.94-9.65-3.47-14.83-4.77l-1.85-2.12,5.03,1.06c4.65,1.9,9.61,3.19,14.3,5.3.76.34,2.11.47,2.38,1.59Z"/>
    <path d="M441.21-182.6c.38,1.27-.76,2.11-1.06,2.91-.79,2.14-1.38,6.64-1.59,9-.12,1.37.07,2.84,0,4.24-.04.86-.45,1.52-1.06.79-.16-1.59.22-3.5,0-5.03-.03-.2-.48-.32-.53-.53-.31-1.32.5-1.91.53-2.12.4-2.7-.1-4.85,1.59-7.42l2.12-1.85Z"/>
    <path d="M438.03-188.95c.2,1.23-.49,1.24-1.32,1.59-1.32.55-3.78,1.18-5.03-.26-.25-1.28,1.04-.79,1.85-.79.69,0,1.45.07,2.12,0,.84-.09,1.35-.81,2.38-.53Z"/>
    <path d="M430.09-158.76c-.61.72-1.02.07-1.06-.79-.11-2.28.14-4.61,0-6.89-.01-.19-.52-.34-.53-.53-.21-2.87-.04-5.7-.53-8.47-.03-.19-.46-.31-.53-.53-.1-.31.09-.73,0-1.06-.06-.19-1.58-1.89-1.85-2.38l-1.59-1.06c-1.16-.53-3.52-.92-3.44-2.65l3.44.53c.65.68,2.1,1.18,2.65,1.59,1.53,1.16,1.77,2.99,2.91,4.5.95,3.18.17,6.72.53,10.06.02.19.5.33.53.53.24,1.61-.46,2.56-.53,3.18-.14,1.26.1,2.68,0,3.97Z"/>
    <path d="M367.06-195.04c.04-.19.43-.3.53-.53.07-.16-.07-.42,0-.53.15-.25,1.73-1.82,1.85-1.85.52-.15,1.15.26,1.59-.53h1.06l2.38,1.32c-.65.64-2.09.08-2.91.26-.19.04-.3.43-.53.53-.16.07-.42-.07-.53,0-.21.12-1.3,1.23-1.32,1.32-.1.33.1.74,0,1.06-.07.22-.5.34-.53.53-.57,3.19.57,7.94,0,11.12-.04.2-.47.32-.53.53-.25.95.7,2.2-1.06,1.85v-15.09Z"/>
    <path d="M430.09-150.82c-1.39-.41-1.1-1.77-1.06-2.91.04-1.02-.24-1.69.79-2.38l.79,1.85-.53,3.44Z"/>
    <path d="M380.3-147.64l-1.06,4.5c-.25,5.62-.19,10.02,2.65,14.83.84.92,1.83,1.72,2.65,2.65.52.6,1.27.88,1.06,1.85-1.02.26-1.24-.64-1.85-1.06-1.6-1.1-2.95-2.18-3.97-3.97-.56-.98-.74-2.22-1.06-3.18-.07-.22-.47-.32-.53-.53-.12-.43.1-1.1,0-1.59-.04-.21-.5-.33-.53-.53-.57-3.88.35-8.22,1.06-11.65l1.59-1.32Z"/>
  </g>
  <g class="st1">
    <path d="M92.6,42.4c3.24-.92,5.76-3.84,9.14-5.42,3.76-1.76,5.57-2.28,9.67-3.25,5.98-1.42,12.37-2.73,18.27-5.42,2.88-1.31,5.68-2.6,8.06-4.88-.6-1.5,1.91-2.41,2.15-3.25.19-.68-.2-1.52,0-2.17.14-.45,1-.69,1.07-1.08.79-4.48-1.64-7.66-2.15-11.93l2.69-2.71c3.4.34,7.48-.48,10.75,0,.76.11,4.28,1.77,5.37,2.17,8.42,3.07,12.7,6.78,17.74,13.55,3.36,4.51,5.78,9.56,10.21,13.55,1.88-.13,5.08,2.95,6.45,3.25,4.31.94,9.77.96,13.97,2.17,1.83.53,9.85,4.1,11.82,5.42,4.4,2.95,7.58,8.96,10.75,13.01,1.89.6,4.75.63,6.45,1.08,3.1.84,6.59,2.26,9.67,3.25,21.45,6.91,52.07,16.2,63.95,37.41,1.69,3.02,3.09,5.82,4.3,8.67-.62,9.48.84,19.93,0,29.27-.82,9.04-4,19.62-6.45,28.19-10.63,37.17-33.86,67.99-67.72,87.82-1.37,15.44-14.34,22.29-27.41,28.73-9.91,2.39-19.49,6.6-29.02,7.59-21.6,2.25-48.17,1.57-67.72-4.34-8.2-2.48-19.96-7.41-26.87-13.01-2.19-1.77-5.74-5.93-6.99-8.13-2.13-3.77-2.22-7.15-3.22-10.84-.3-1.1-4.92-3.17-5.91-3.79-30.69-19.17-51.53-48.61-61.81-84.03-3.71-12.78-6.48-26.22-7.52-40.12-.23-3.08-.31-7.82,0-10.84.04-.39,1.01-.68,1.07-1.08.25-1.69-.29-3.79,0-5.42.07-.41.97-.65,1.07-1.08,1.08-4.39,2.73-8.5,5.37-11.93,6-7.77,15.11-13.39,23.11-17.89,15.38-8.66,30.81-12.84,46.22-17.35.89-.26,2.31.25,3.22,0,.41-.11,3.61-2.19,3.76-2.71,1.54-5.42,4.19-7.65,6.45-12.47ZM218.36,84.69l5.37-11.38c-.5-3.55.7-8.67,0-11.93-.17-.77-2.57-4.26-3.22-5.42s-1.51-3.32-2.15-4.34c-1.01-1.6-2.35-1.38-2.69-1.63-1.14-.81-2.1-2.49-3.22-3.25-.45-.3-2.55-.78-3.22-1.08-6.03-2.74-13-3.28-19.35-5.42-.66-.22-1.53.23-2.15,0-2.15-.8-8.76-5.1-10.21-7.05-2.37-3.17-4.28-7.61-6.45-10.84-3.86-5.75-9.36-9.17-15.59-12.47l-5.91-1.08,5.37,9.22c1.09,5.53,1.3,11.27,1.07,17.35-1.64.87-.74,2.34-1.07,3.25-.81,2.22-6.06,9.86-8.06,11.38-.21.16-.82-.18-1.07,0-2.77,1.95-5.19,4.69-8.6,5.42l-10.75,4.34c-.8.17-.74-1.15-.54-1.63,1.11-2.54,10.57-7.45,13.44-9.22.27-.17.84.16,1.07,0,1.22-.82,7.26-6.91,8.06-8.13.28-.42,2-3.94,2.15-4.34.33-.91-.56-2.38,1.07-3.25v-10.84l-1.07-3.25-3.22-3.79c-.41,5.87-4.25,12.99-9.14,16.26-8.08,5.42-20.56,6.9-29.02,9.76-.66.22-1.53-.23-2.15,0-2.3.86-4.58,3.01-6.45,4.34-.25.18-.85-.17-1.07,0-2.05,1.53-5.95,6.83-6.99,9.22-.27.62.28,1.6,0,2.17-.86,1.74-2.27,3.69-3.22,5.42-.34.62-.06,1.71-1.61,2.71-.21.14-.73-.16-1.07,0-.46.21-.68.97-1.07,1.08-.9.25-2.27-.23-3.22,0-4.18,1-8.52,2.62-12.9,3.25-3.05,2.31-7.85,4.55-10.21,8.13-.51.78-2.93,5.71-3.22,6.51-.33.91.56,2.38-1.07,3.25v8.13c1.11-.33,1.21-.91,2.69-1.08,7.11-.84,10.28.9,16.12,3.25,8.69,3.5,16.36,10.26,25.8,13.01l4.84,3.25c-2.23-.22-4.84.32-6.99,0-4.61-.68-11.84-5.33-16.12-7.59-2.38-1.26-5.15-3.28-7.52-4.34-2.11-.94-3.49-.67-5.37-1.08-.42-.09-.68-1.03-1.07-1.08-2.29-.34-9.63-.39-11.82,0-1.2.22-4.38,2.67-6.45,2.17l-10.21,7.05c.6,1.51-1.9,2.4-2.15,3.25-.44,1.51-.69,3.85-1.07,5.42-.11.43-1,.68-1.07,1.08-.34,1.93.23,4.45,0,6.51,1.69,1.4,3.14,3.6,4.84,4.88,9.82,7.44,29.4,12.37,40.85,15.18,45.39,11.12,98.77,11.3,145.11,2.17,15.45-3.04,29.34-6.52,44.07-13.01,1.3-.57,6.05-3.35,7.52-4.34.56-.37,3.69-3.54,3.76-3.79.19-.68-.2-1.52,0-2.17.14-.45,1-.69,1.07-1.08.18-.99.18-3.35,0-4.34-.07-.41-.98-.66-1.07-1.08-.21-.98.24-2.35,0-3.25-.07-.24-2.01-4.13-2.15-4.34-.74-1.13-5.87-6.3-6.99-7.05-1.77-1.18-4.36-1.16-5.91-3.79s-1.21-8.51-2.15-11.93c-.09-.33-2.83-4.89-3.22-5.42-2.54-3.42-9.77-10.02-13.44-11.38-.9-.34-2.36.57-3.22-1.08h-12.9c-2.07,1.02-1.23,2.94-1.61,3.79-.68,1.51-2.57,5.51-3.22,6.51-.85,1.29-5.8,6.42-7.52,4.88ZM52.83,77.1c.2-.2-.28-1.11,0-1.63.59-1.08,3.45-2.29,2.69-3.79l-19.35,8.67c-7.99,5.19-16.36,10.55-22.03,18.97-.5.74-2.01,1.66-2.15,2.17-.2.72.25,1.63,0,2.17-.33.7-2.06,2.85-2.15,3.25-.3,1.36-.26,7.2,0,8.67.07.4.95.64,1.07,1.08.7,2.49.67,2.9,2.15,5.42,11.24,19.18,42.51,29.11,61.81,34.15,11.53,3.01,24.44,6.31,36.55,7.59,52.36,5.55,109.47,2.92,155.86-16.26,8.15-3.37,17.82-7.4,24.72-13.01,3.83-3.11,7.64-7.66,10.21-11.38.91-1.32,2.58-2.7,3.22-4.34.34-.86-.57-2.39,1.07-3.25v-7.59c-1.47-1.98-1.94-5.31-3.22-7.59-8.03-14.21-37.64-28.4-52.13-33.07-4.37-1.41-10.62-3.66-15.05-4.34-8.97-1.36-8.42,4.63-1.07,3.25,3.91-.73,6.27-.98,10.75,0,1.97.43,5.1,2.32,7.52,2.17,4,2.08,7.79,6.79,11.82,8.67,5.21,2.43,10.1,5.17,15.05,8.67,5.03,3.56,9.91,7.13,13.44,12.47.25.38,2.09,4.1,2.15,4.34.24.9-.21,2.27,0,3.25.09.43,1.02.68,1.07,1.08.24,1.66.28,6.01,0,7.59-.07.4-.95.64-1.07,1.08-.2.7.22,1.56,0,2.17-2.58,7.02-10.45,13.89-16.66,17.89-24.45,15.75-61.62,20.39-90.29,22.77-39.74,3.3-78.35,1.38-115.01-8.67-10.66-2.92-19.73-5.34-30.1-10.84-4.33-2.3-10.1-5.53-13.97-8.67-3.07-2.49-7.86-8.96-9.14-12.47-.22-.61.2-1.47,0-2.17-.12-.44-1-.68-1.07-1.08-.28-1.61-.32-8.26,0-9.76.08-.36,2.86-5.88,3.22-6.51,4.17-7.04,15.66-15.64,23.11-18.97.59-.27,1.53.26,2.15,0,.74-.31,2.48-1.86,3.22-2.17.58-.24,1.42.19,1.61,0ZM49.61,84.69c-4.61.83-7.91,3.95-11.29,6.51-.24.18-.86-.17-1.07,0-3.47,2.72-9.88,9.72-11.29,13.55-.22.61.2,1.47,0,2.17-.12.44-1,.68-1.07,1.08-.56,3.09.96,4.93,1.07,7.59l2.69,3.79,1.61-8.13c2.55-3.64,5.34-8.84,9.14-11.38,1.76-1.18,5.72-2.08,7.52-3.25.57-.37,1.03-1.17,1.61-1.63.27-3.44-.86-7.22,1.07-10.3ZM287.16,119.39l3.22-3.79c.12-2.66,1.63-4.5,1.07-7.59-.07-.4-.95-.64-1.07-1.08-.2-.7.22-1.56,0-2.17-2.37-6.46-11.76-13.96-17.2-17.35-.99-.62-2.18-1.06-3.22-1.63l1.07,9.22c3.57,3.74,8.53,5.32,11.82,9.76,1.78,2.4,2.43,4.78,3.22,7.59.13.44,1,.68,1.07,1.08.31,1.78-.21,4.08,0,5.96ZM305.43,131.31l-12.36,10.84c-10.42,6.15-21.68,12.25-33.32,16.26-56.98,19.66-146.11,19.29-203.15,0-10.58-3.58-28.22-11.68-36.55-18.43-3.59-2.91-6.23-7.25-10.21-9.76-.31,1.71.88,2.11,1.07,3.79,1.21,10.56,2.56,17.41,5.37,27.11,13.99,48.23,46.01,81.2,92.98,94.87,12.36,3.6,26.37,6.76,39.77,7.59,11.36.71,21.87-.84,32.25-2.17,14.63-1.87,26.6-4.94,40.85-9.76,23.62-11.5,44.09-26.88,58.58-48.25,11.62-17.14,22.59-44.51,24.72-63.97.28-2.58-.2-5.5,0-8.13ZM231.26,254.92c-.93-.85-3.94,1.81-4.84,2.17-42.79,17.06-95.36,17.75-137.58-1.08l-3.76-.54c1.36.82,1.52,3.39,2.15,4.34,5.05,7.61,24.74,15.97,32.78,17.89,8.72,2.08,16.49,2.48,25.8,3.25.39.03.69,1.06,1.07,1.08,11.63.79,22.75-.56,33.32-2.17,9.99-1.52,19.73-2.59,29.02-6.51,7.48-3.15,15.85-8.09,19.89-14.64.47-.76,2.41-3.56,2.15-3.79Z"/>
    <path d="M94.75,239.74l-.54,2.17h-2.15c-5.52-3.02-10.89-6.3-16.12-9.76-23.32-15.41-39.02-38.24-48.91-63.43l-2.15-13.55,4.3,5.96c10.21,33.56,33.21,58.21,61.81,76.44,1.24.79,1.67,2.74,3.76,2.17Z"/>
    <path d="M237.71,234.32c-.32-1.68.94-2.9,2.15-3.79,22-16.26,39.25-42.52,47.29-68.31l4.3-7.05c-.19,1.91.28,4.14,0,5.96-.06.41-.99.67-1.07,1.08-5.02,26.27-24.1,54.48-46.76,68.85-1.74,1.1-3.3,3.56-5.91,3.25Z"/>
    <path d="M259.21,104.21c-1.93.11-3.48.11-5.37-.54-3.07-1.05-7.57-4.15-10.21-4.88-4.16-1.14-12.5-1.67-17.2-1.08-.39.05-.66,1.01-1.07,1.08-2.32.42-3.15.45-5.37,1.08-15.23,4.36-26.94,14.39-42.99,18.43-8.43,2.12-19.37,3.37-29.02,2.17-3.37-.42-12.73-3.04-16.12-4.34-1.3-.5-2.98-2.59-4.84-2.17-.26-1.88,2.48-1.08,3.76-1.08,3.44,0,7.43.49,10.75,1.08,2.33.42,7.52,1.99,9.67,2.17,23.59,1.94,41.11-9.57,61.27-19.52,6.22-4.21,13.7-3.13,20.42-4.34.3-.05,1.13-1.73,3.22-1.08.44.14.68,1.01,1.07,1.08,1.31.24,3.03-.26,4.3,0,.41.08.65.97,1.07,1.08,5.24,1.36,10.72,2.89,14.51,7.05,1.09,1.2,2.55,1.82,2.15,3.79Z"/>
    <path d="M44.23,119.39l3.76-4.34c2.17-1.37,4.27-.68,6.45-1.08.41-.08.66-1.01,1.07-1.08,3-.55,4.27.88,5.37,1.08,1.3.24,3.03-.27,4.3,0,.41.09.64.96,1.07,1.08,7.02,2.02,9.35,4.95,15.05,8.67,9.31,6.08,19.43,11.72,30.1,14.1,8.36,1.86,18.32,2.18,26.87,3.25,3.81.48,5.81-.64,8.6-1.08,2-.32,3.6-.17,4.84,1.63-1.41,2.34-3.01,1.29-4.84,1.63-9.31,1.7-25.11,1.95-34.4,0-8.31-1.75-21.2-6.83-29.02-11.93-3.47-2.27-7.27-6.31-10.75-8.67-5.8-3.95-13.16-6.06-20.42-5.42l-8.06,2.17Z"/>
    <path d="M157.1,98.78l-2.69,3.25c-5.04.33-9.61,1.65-15.05,1.08-.39-.04-.67-1.02-1.07-1.08-5.42-.82-10.77-1.11-16.12-3.25-9.66-3.86-19.24-12.63-29.02-16.26-2.35-.87-5.18-.66-7.52-1.08-.41-.07-.67-1.02-1.07-1.08-1.32-.2-4.05-.2-5.37,0-.4.06-.66,1.01-1.07,1.08-2.46.44-4.98.35-7.52,1.08-.93.27-3.66,4-5.91,3.25-.63-.64,1.63-4.74,2.69-5.42.28-.18.86.16,1.07,0,.72-.52,1.66-2.03,2.15-2.17.67-.19,1.51.21,2.15,0,.44-.14.67-1,1.07-1.08,1.26-.26,2.98.24,4.3,0,.41-.07.68-1.03,1.07-1.08,1.68-.21,4.77-.21,6.45,0,.39.05.66,1.01,1.07,1.08,1.32.24,3.03-.26,4.3,0,1.67.34,8.95,3.3,10.75,4.34,9.3,5.36,18.55,11.96,29.02,15.18,1.41.43,9.07,2.17,9.67,2.17h16.66Z"/>
    <path d="M123.78,72.76l4.84,1.08c1.54.91,3.88,2.65,5.37,3.25,12.98,5.24,33.06,4.14,45.14-1.08,3.04-.17,4.48-2.94,6.45-4.34.34-.24,1.67-.03,2.69-1.63.15-.24-.16-.79,0-1.08,1.48-2.68,2.83-4.06,2.15-7.59-1.29-.95-2.53-3.05-3.76-3.79-.19-.11-2.03-1.05-2.15-1.08-1.82-.57-4.49,1.47-3.76-2.17,4.84-.33,10.4-.2,11.82,4.88,1.43,1.38,1.53,6.59,1.07,8.67-.09.4-.89.62-1.07,1.08-.29.73-.78,2.8-1.07,3.25-.67,1.02-4.9,5.29-5.91,5.96-.51.34-8.13,4.21-8.6,4.34-.9.25-2.27-.23-3.22,0-.42.1-.66.99-1.07,1.08-1.23.28-2.98-.24-4.3,0-.41.07-.68,1.04-1.07,1.08-11.56,1.44-23.92-.28-34.4-3.25-3.56-2.63-7.73-3.95-9.14-8.67Z"/>
    <path d="M186.66,132.4c.74-.11,4.33-1.83,5.37-2.17,4.63-1.49,8.74-2.7,12.9-5.42,7.2-4.72,10.45-7.85,19.35-10.84,5.02-1.68,10.02-3.07,16.12-2.17.4.06.65.99,1.07,1.08,1.52.35,3.19-.74,4.3,1.08l-1.07,2.17c-.92-1.45-1.84-1.02-3.22-1.08-5.11-.23-9.53.89-13.97,2.17-11.89,3.42-21.67,14-33.32,17.35-.79.23-4.06,1.05-4.3,1.08-6.96,1.03-12.28.28-19.35,0l-2.69-3.25c5.87-.61,13.15.84,18.81,0Z"/>
    <path d="M267.81,111.8c-.26,2.21.37,4.96,0,7.05-.03.18-.76,2.15-1.07,3.25-.14.51-1.65,1.43-2.15,2.17-.17.26.16.86,0,1.08-2.71,3.76-7.59,5.6-11.29,8.13-5.83,1.77-12.15.45-18.27,1.08-1.57.16-8,1.55-9.67,2.17-2.89,1.07-6.71,4.16-9.67,5.42-1.55.66-3.08,1.35-4.84,1.08-.3-1.83,1.41-3.36,2.69-4.34.51-.39,2.31-1.57,3.22-2.17,4.51-2.95,8.53-4.23,13.97-5.42,5.27-1.15,10.82-1.1,16.12-2.17,2.42-.49,5.66-.29,7.52-2.17,2.68-.56,5.36-2.67,6.99-4.88,1.33-1.82,3.23-5.22,3.22-7.59l3.22-2.71Z"/>
    <path d="M181.82,93.36l4.84-3.25c3.5.2,6.78-1.93,9.67-3.25,6.77-3.09,11.12-7.2,14.51-13.55l1.07-10.84-2.15-4.34-4.3-6.51c0-.93,2.14-.71,2.69-.54.33.1,4.42,4.24,4.84,4.88.14.21,2.08,4.1,2.15,4.34.24.9-.21,2.27,0,3.25.09.43,1.02.68,1.07,1.08.2,1.33.2,4.09,0,5.42-.06.4-.98.66-1.07,1.08-.21.98.24,2.35,0,3.25-.11.41-.91.64-1.07,1.08-1.41,3.92-4.65,8.8-8.06,11.38-.41.31-2.61,1.81-3.22,2.17-3.21,1.85-7.63,2.39-10.75,4.34h-10.21Z"/>
    <path d="M138.82,40.23c1.05.95-2.95,4.88-3.76,5.42-1.15.77-8.72,4.14-9.67,4.34-4.15.87-9.01.72-12.9,2.17-.42.15-.63.88-1.07,1.08-.69.32-2.73.77-3.22,1.08-2.25,1.44-2.75,4.38-4.84,5.96.68,1.89-.84,2.6-1.07,3.25-.58,1.59.34,4.17-3.22,3.79.3-2.15-.43-5.08,0-7.05.09-.4.89-.62,1.07-1.08,1.35-3.41,2.75-7.1,5.91-9.22.23-.15.79.17,1.07,0,.82-.49,2.54-1.91,3.22-2.17.6-.22,1.46.2,2.15,0,6.95-1.99,13.71-2.71,20.42-5.42,1.22-.49,5.43-2.6,5.91-2.17Z"/>
    <path d="M162.47,58.67c-1.31-1.32,3.19-7.2,4.3-8.13,1.37-4.82,1.14-9.77,1.07-15.18l-3.22-7.59c1.17-1.55,3.45-.26,4.3,1.08.15.24-.16.79,0,1.08.45.82,1.9,2.56,2.15,3.25.2.54,1.04,3.07,1.07,3.25.32,1.81.36,10.26,0,11.93-.09.4-.89.62-1.07,1.08-1.72,4.35-3.2,8.76-8.6,9.22Z"/>
  </g>
  <g>
    <path class="st0" d="M6.45,288.98c.61-1.77-1.03-2.33-1.11-2.76-.92-5.38.26-13.9,0-19.87-.02-.38-1.09-.72-1.11-1.1-.45-12.11.33-24.31,0-36.43,2.83-2.19,6.5-4.59,8.85-7.73,2.13-2.83,3.42-6.41,4.43-9.93.13-.45,1.02-.69,1.11-1.1.27-1.3-.24-3.06,0-4.42.08-.42,1.06-.7,1.11-1.1.22-1.73.22-4.9,0-6.62-.05-.41-1.03-.68-1.11-1.1-.24-1.35.28-3.14,0-4.42-.09-.4-.92-.63-1.11-1.1-.32-.8-.75-2.69-1.11-3.31-.43-.74-1.66-1.41-2.21-2.21-.18-.26.17-.88,0-1.1-1.82-2.4-4.93-3.69-7.19-4.97-.86-.49-.97-1.62-2.77-1.1.84-2-1.06-3.54-1.11-3.86-1.07-7.22.71-16.7,0-24.28-.04-.4-1.06-.7-1.11-1.1-.26-2.08.18-4.47,0-6.62,2-1.16,2.15-3.88,3.87-4.97,8.61-5.44,20.82-19.11,28.77-26.49,3.52-3.27,9.92-11.21,13.28-13.25.36-.22,2.96-1.21,3.32-1.1,1.07,1.83,2.85.76,4.43,1.1.43.1.69,1.03,1.11,1.1,1.32.24,3.01-.16,4.43,0,.74-.98,2.16-1.81,2.77-2.76.16-.25-.17-.82,0-1.1,3.14-5.27,3.68-10.2,3.32-16.56l29.32-27.04,13.28,3.31,7.19-8.28c1.33-5.69,2.88-11.12,2.21-17.66L148.62,1.98c7.58.45,15.74-.61,23.23,0,.4.03.7,1.06,1.11,1.1,36.78,3.86,79.86,15.3,110.64,38.63,3.65,2.76,16.06,13.43,18.25,17.11.14.24-.16.77,0,1.1.21.46.93.67,1.11,1.1-.5,2.17,1.9,5.13,2.21,6.62.27,1.31-.3,3.16,0,4.42,10.53,44.42,8.2,90.54-3.32,133.56-.25.95.27,2.4,0,3.31-.13.43-.96.66-1.11,1.1-.42,1.31.53,2.46-1.66,3.86-.22.14-.76-.16-1.11,0-.46.21-.68.93-1.11,1.1-1.18.47-4.22.67-5.53,1.1-20.67,6.85-41.78,12.19-63.06,17.66-.95.24-4.82,2.1-5.53,2.21-7.22,1.05-7.72-2.1-12.17-3.31-.92-.25-4.14-1.06-4.43-1.1-6.38-.93-12.14,1.07-17.7,2.21-1.76.84-3.05,2.35-4.43,3.31-.26.18-.89-.17-1.11,0-3.33,2.51-3.18,5.49-4.98,8.28-.75,1.16-4.03,3.6-4.98,3.86s-2.4-.27-3.32,0c-2.53.73-5.08,1.48-7.74,2.21-49.43,13.44-99.15,25.94-149.36,37.53-.42.1-1.12,1.74-3.32,1.1l-2.77-1.1ZM293,60.49c-2.72-3.34-6.13-7.17-9.4-9.93-29.49-24.93-82.88-39.44-119.49-41.95-4.01-.27-8.15.2-12.17,0l-23.79,21.52c2.99,2.42,4.16,4.29,5.53,7.73.19.47,1.02.7,1.11,1.1.28,1.28.28,7.54,0,8.83-.08.36-1.79,2.6-2.21,3.31-.17.29.16.87,0,1.1-1.76,2.65-6.3,6.45-9.4,7.17-5.12,3.49-12.33,1.87-18.81,2.21l-6.64-2.21-21.57,20.42c-.39,1.99,3.14,4.86,3.32,5.52.41,1.49-.77,3.4,1.11,4.42l-4.43,10.49c-2.29-.4-3.32,1.9-4.98,3.31-4.77.85-8.15,2.96-13.28,2.21-.41-.06-.68-1.02-1.11-1.1-1.61-.32-3.34.72-4.43-1.1l-33.74,32.56,13.83-2.76c16.74-6.28,34.76-9.23,52-14.35.58-.17.95-1.7,2.77-1.1-.04-3.34,2.28-7.89,4.98-9.93.4-.3,2.63-.6,3.32-2.21l6.64-2.21h9.96l8.85,4.42c9.43-1.8,18.47-4.15,27.66-6.62,9.41-2.53,19.34-4.93,28.77-7.73.58-.17.95-1.7,2.77-1.1v-8.28l10.51-8.28c5.81-1.27,12.13-3.18,18.81-2.21.41.06.68,1.02,1.11,1.1,3.95.79,7.35,1.23,11.06,3.31.74.41,1.43,1.64,2.21,2.21.92-1.65,2.19-.8,3.32-1.1,18.36-4.89,35.84-11.59,54.21-15.45l11.62-3.31ZM127.04,37.31c-1.28-1.5-2.12-.13-2.21,1.66s.32,4.05,0,5.52c-.17.81-1.63,3.47-2.21,5.52-.26.92-2.97,1.73-2.21,3.86.34.36,7.47-5.11,7.74-6.07.31-1.08-.55-2.4,1.11-3.31l-2.21-7.17ZM221.08,228.27c1.24-.15,2.74.23,3.87,0,.29-.06,2.05-.76,3.32-1.1,20.97-5.67,41.56-12.06,63.06-17.66l3.87-2.76c.15-1.06-.22-2.37,0-3.31.37-1.59,1.86-5.05,2.21-6.62,9.03-40.51,10.11-85.95,1.11-126.94-.12-.53-1.96-1.87-1.11-3.86-1.45,1.24-2.66.77-3.87,1.1-19.27,5.25-39.08,12-58.64,16.56l-6.64,2.21c-3.03,2.08-1.09,6.17-1.66,9.38-.07.41-.98.65-1.11,1.1-.55,1.93-1.05,4.88-2.21,6.62-2.83,4.26-8.09,7.54-12.72,9.38-.47.19-.7,1.01-1.11,1.1-1.53.34-10.63.33-12.17,0-.73-.16-4.42-2.63-5.53-3.31-.28-.17-.86.16-1.11,0-1.85-1.22-6.63-6.61-7.19-8.28-.23-.68.13-1.88,0-2.76-2.13-.79-3.18.89-3.87,1.1-4.61,1.42-9.69,2.04-14.38,3.31-12.22,3.32-25.33,7.12-37.62,11.04-.66.21-1.52-.2-2.21,0-2.68.77-1.25,5.99-1.66,8.28-.03.19-.94,2.88-1.11,3.31-.66,1.65-2.36,3.04-3.32,4.42-.18.26.17.88,0,1.1-2.07,2.79-4.14,3.76-7.19,4.97-.47.19-.7,1.01-1.11,1.1-1.42.31-9.65.32-11.06,0-.39-.09-.63-.89-1.11-1.1-.35-.16-.87.14-1.11,0-.76-.46-1.42-1.65-2.21-2.21-.26-.18-.88.17-1.11,0-2.98-2.2-3.57-4.14-4.98-7.17-.35-.76-1.66-.94-1.11-2.76h-.55c-.91,1.66-2.23.79-3.32,1.1-23.09,6.62-46.26,12.78-69.7,18.77-.44.11-.68,1-1.11,1.1-1.08.26-2.65-.16-3.87,0v27.6c2.26.26,5.06-.38,7.19,0,1.38.24,4.52,2.74,6.64,2.21,2.33.93,3.63,2.94,5.53,4.42.24.19.9-.17,1.11,0,3.52,2.88,5.38,6.47,7.19,10.49.7,1.56.67,1.78,1.11,3.31.13.45,1.03.69,1.11,1.1.3,1.66-.26,3.8,0,5.52.07.45,1.75,1.67,1.11,4.42-.1.44-1.05.7-1.11,1.1-.26,1.72.3,3.86,0,5.52-.07.41-.98.65-1.11,1.1-.61,2.13-1.05,4.59-2.21,6.62-.64,1.11-2.68,1.71-2.21,3.31l-10.51,8.28c-2.84.39-6.42,2.74-8.85,3.31-1.08.26-2.65-.16-3.87,0l1.11,48.57c1.8.6,2.26-.99,2.77-1.1,49.86-11.6,99.1-24.43,148.25-37.53.95-.25,2.41.27,3.32,0,.44-.13.66-.96,1.11-1.1.93-.3,3.32.25,3.87-1.66.2-.69-.21-1.55,0-2.21.15-.45,1.02-.69,1.11-1.1.27-1.31-.28-3.12,0-4.42.23-1.04,3.53-6.27,4.43-7.73,1.69-2.75,6.49-8.56,9.4-10.49.43-.28,4.02-2.06,4.43-2.21.93-.34,2.43.58,3.32-1.1h11.06l5.53,2.21c4.28,4.42,9.61,8.24,10.51,14.35ZM219.98,93.6l1.11-6.07-2.77-3.86-4.43-2.21-9.4-1.1,6.08,3.31,7.19,7.17,2.21,2.76ZM190.66,83.67l-4.98,4.97c.57.76,1.99,2.69,2.21,3.31.65,1.85.64,4.95,1.11,6.62.04.13.98,2,1.11,2.21,1.55,2.61,4.55,3.92,7.19,4.97.47.19.7,1.01,1.11,1.1,1.37.3,8.58.3,9.96,0,.36-.08,2.61-1.79,3.32-2.21.29-.17.87.16,1.11,0,3.02-2,4.53-4.67,3.87-8.28-.07-.41-.96-.65-1.11-1.1-.21-.66.2-1.52,0-2.21-.21-.73-5.87-6.17-7.19-6.07-2.29-2.24-5.93-1.69-8.85-2.21-.42-.08-.7-1.05-1.11-1.1-2.43-.3-5.24.21-7.74,0ZM72.83,88.08l-1.66,7.73c.75-.68,2.62-3.25,2.77-3.86.2-.84.67-4.25-1.11-3.86ZM104.36,109.06c-.44.08-2.32,2.01-4.43,1.1l-7.19,7.17c1.98,1.23.7,3.63,1.11,5.52.08.36,1.79,2.6,2.21,3.31.17.28-.16.85,0,1.1,1.45,2.26,3.76,2.94,6.08,3.86.47.19.7,1.01,1.11,1.1,3.41.75,5.13-.65,7.74-2.21.28-.17.86.16,1.11,0,2.4-1.53,2.84-3.77,3.87-6.07.7-1.56.67-1.78,1.11-3.31.13-.45,1.03-.69,1.11-1.1.57-3.2.14-6.55-2.77-8.28-.33-.2-1.65.14-2.21-1.1-3.23.32-5.39-1.74-8.85-1.1ZM20.83,181.91c-.9.97,2.83,4.83,3.32,6.07.92,2.31.69,5.37,1.11,7.73.08.42,1.06.7,1.11,1.1.27,2.22.27,6.61,0,8.83-.05.4-1.03.68-1.11,1.1-.66,3.73-.92,7.13-2.21,11.04l-4.98,8.28,10.51-7.17c.96-2.3,2.31-3.86,3.32-6.62.17-.46.99-.68,1.11-1.1.25-.92-.22-2.31,0-3.31.09-.43,1.05-.7,1.11-1.1.26-1.79.26-5.94,0-7.73-.06-.41-1.01-.67-1.11-1.1-.22-1,.25-2.39,0-3.31-.13-.48-1.77-2.56-2.21-3.31-.17-.29.16-.87,0-1.1-.88-1.33-9.16-9.13-9.96-8.28ZM213.34,227.17c.45-1.89-.72-2.19-1.66-3.31-.87-1.05-3.47-3.85-4.43-4.42-.24-.14-.76.16-1.11,0-.48-.22-.71-1.02-1.11-1.1-1.43-.32-9.61-.31-11.06,0-.36.08-2.61,1.79-3.32,2.21-.29.17-.87-.16-1.11,0-2.87,1.9-6.29,6.51-8.3,9.38l8.3-3.86c5.44-.34,10.73-1.83,16.6-1.1.41.05.68,1.03,1.11,1.1,2.09.35,4.01-.63,6.08,1.1Z"/>
    <path class="st0" d="M111,175.29c2.19-.39,11.09-.39,13.28,0,.41.07.65.96,1.11,1.1.66.21,1.52-.2,2.21,0,.52.15,1.46,1.7,2.21,2.21.26.18.88-.17,1.11,0,2.8,2.03,3.76,4.96,6.08,7.17l2.21,5.52v13.25c-1.69.89-.76,2.38-1.11,3.31-.84,2.27-3.06,4.68-4.43,6.62-.18.26.17.88,0,1.1-1.83,2.43-7.03,6.93-9.4,8.28-5.52,3.14-12.18,3.57-18.81,3.31l-11.06-5.52-4.98-7.17c-.57-4.78-1.88-10.2-1.11-15.45.06-.41,1.01-.67,1.11-1.1.22-1-.25-2.39,0-3.31.52-1.91,3.23-4.92,4.43-6.62,3.36-4.78,5.45-6.4,10.51-9.38,2.57-1.52,2.99-1.49,5.53-2.21.45-.13.7-1.03,1.11-1.1ZM116.53,179.7c-1.23,1.98-3.64.69-5.53,1.1-.51.11-7.13,3.96-7.74,4.42-4.21,3.15-5.76,7.38-8.3,11.59.77,1.73-1.05,2.99-1.11,3.31-.24,1.36-.3,7.73,0,8.83.07.26,3.36,3.56,3.87,3.86.24.14.76-.16,1.11,0,.48.22.71,1.02,1.11,1.1,1.58.35,9.34.31,11.06,0,.41-.07.65-.96,1.11-1.1.66-.21,1.52.2,2.21,0,.52-.15,1.46-1.7,2.21-2.21.26-.18.88.17,1.11,0,1.23-.89,5.3-4.89,6.08-6.07,1.54-2.31,2.62-6.4,3.32-8.83.13-.45,1.03-.69,1.11-1.1.24-1.36.24-5.26,0-6.62-.07-.4-.96-.65-1.11-1.1-.21-.66.2-1.52,0-2.21-.08-.26-3.61-3.79-3.87-3.86-1.49-.41-3.4.76-4.43-1.1h-2.21ZM98.28,217.23c1.17,3.28,5.33,2.62,7.19,4.42l13.28-1.1c1.73-.82,2.98-2.3,4.43-3.31,1.61-1.12,3.32-1.65,4.98-3.86.18-.23-.18-.86,0-1.1.75-1.02,4.28-5,4.43-5.52.2-.69-.21-1.55,0-2.21.15-.46,1.03-.7,1.11-1.1.4-2.24.2-7.45,0-9.93-.18-2.14-.91-3.07-1.11-4.97-1.95-.25-1.05,2.5-1.11,3.86-.13,3.1-.1,6.11-1.11,8.83-.19.51-2.03,4.15-2.21,4.42-.78,1.16-2.49,2.14-3.32,3.31-.16.23.18.82,0,1.1-1.04,1.63-2.42,1.41-2.77,1.66-2.02,1.42-3.51,4.24-6.64,4.42-3.3,2.32-7.77,2.52-12.17,2.21-2.17-.15-3.06-.92-4.98-1.1Z"/>
    <path class="st0" d="M191.76,130.03c2.06-.37,10.11-.37,12.17,0,.41.07.65.96,1.11,1.1.66.21,1.52-.2,2.21,0,.52.15,1.46,1.7,2.21,2.21.26.18.88-.17,1.11,0,.9.65,3.3,3,3.87,3.86.16.24-.17.81,0,1.1.44.75,2.08,2.83,2.21,3.31.25.92-.22,2.31,0,3.31.09.43,1.05.7,1.11,1.1.2,1.36.2,4.16,0,5.52-.06.41-1.02.68-1.11,1.1-.42,2.09-.55,4.5-1.11,6.62-3.81,5-6.76,10.28-12.72,12.69l-4.43,2.21c-3.92-.57-9.7.79-13.28,0-.4-.09-.64-.92-1.11-1.1-3.36-1.33-6.08-3.03-8.3-6.07-.17-.23.18-.84,0-1.1-.51-.75-2.06-1.69-2.21-2.21-.2-.69.21-1.55,0-2.21-.15-.46-1.03-.7-1.11-1.1-.32-1.8-.32-8.14,0-9.93.06-.32,1.88-1.58,1.11-3.31,2.6-4.67,4.86-9.31,9.4-12.69.22-.17.84.18,1.11,0,1.37-.95,2.77-2.65,4.43-3.31.6-.24,1.5.2,2.21,0,.45-.13.7-1.03,1.11-1.1ZM201.17,136.65c-2.57-.54-5.26-1.76-8.3-1.1-.25.05-3.95,1.94-4.43,2.21-1.12.63-1.72,2.67-3.32,2.21l-6.08,8.28c.77,1.73-1.05,2.99-1.11,3.31-.25,1.4-.28,6.41,0,7.73.17.8,2.58,3.12,2.21,4.42,3.77,4.91,7.73,5.52,13.83,4.97,3.75-3.41,6.59-6.91,8.3-11.59.17-.46.99-.68,1.11-1.1.25-.92-.22-2.31,0-3.31.09-.43,1.05-.7,1.11-1.1.22-1.5.26-5.18,0-6.62-.07-.41-.98-.65-1.11-1.1-.2-.71.23-1.59,0-2.21-.52-1.4-2.7-3.14-2.21-4.97ZM205.59,164.25c-.45-2.52,2.25-3.36,3.32-4.97.28-.42,2.06-4.01,2.21-4.42.23-.62-.2-1.5,0-2.21.13-.45,1.03-.69,1.11-1.1.61-3.39-.77-5.91-1.11-8.83l-4.98-4.97,1.66,4.97v13.25l-2.21,4.42v3.86Z"/>
    <path class="st0" d="M248.19,160.94c1.36-.24,5.28-.24,6.64,0,.32.06,1.58,1.87,3.32,1.1,1.62,2.14,4.61,2.66,6.08,4.97.16.25-.17.82,0,1.1.42.71,2.14,2.95,2.21,3.31.35,1.63.31,9.28,0,11.04-.07.4-.96.65-1.11,1.1-.21.66.2,1.52,0,2.21-.15.52-1.7,1.46-2.21,2.21-.18.26.17.87,0,1.1-1.53,2.1-4.39,3.96-6.08,6.07-4.19,1.7-8.15,2.71-13.28,2.21-.88-1.69-2.44-.76-3.32-1.1-.43-.17-.65-.89-1.11-1.1-.34-.16-.87.14-1.11,0-2.36-1.4-4.67-5.17-6.08-7.17.63-2.91-1.78-4.85-1.11-7.73.14-.61,1.99-2.24,1.11-4.42,3.09-6.36,6.77-10.37,12.72-13.8,1.74.77,3-1.05,3.32-1.1ZM249.85,185.22c-.17-2.39,2.49-3.99,3.32-6.07.24-.6-.2-1.49,0-2.21.13-.45,1.03-.69,1.11-1.1.24-1.32-.16-3,0-4.42-1.61-1-.75-4.43-2.77-4.97-3.46-.93-5.38,1.66-7.74,3.31-.26.18-.89-.17-1.11,0-2.3,1.74-2.94,3.5-3.87,6.07-.17.46-.99.68-1.11,1.1-.41,1.49.76,3.39-1.11,4.42.55,1.8,1.76,6.59,3.87,7.17.9.25,2.27-.17,3.32,0l6.08-3.31ZM246.53,191.84c5.68.4,9.73-3.29,13.28-7.17l2.21-8.83c-1.7-1.99-1.31-5.31-3.87-7.17l.55,8.28c-1.69.88-.76,2.39-1.11,3.31-.26.7-1.72,2.47-2.21,3.31-1.3,2.2-3.14,5.57-6.08,6.07l-2.77,2.21Z"/>
    <path class="st0" d="M63.43,155.42c1.29-.28,7.58-.28,8.85,0,.39.09.63.89,1.11,1.1.34.16.87-.14,1.11,0,.61.36,3.51,3.26,3.87,3.86.14.24-.16.76,0,1.1.22.48,1.02.71,1.11,1.1.31,1.38.27,7.33,0,8.83-.06.32-1.88,1.58-1.11,3.31-2.15,1.62-2.66,4.6-4.98,6.07-.25.16-.82-.17-1.11,0-.71.42-2.96,2.13-3.32,2.21-1.29.28-7.58.28-8.85,0-.39-.09-.63-.89-1.11-1.1-.34-.16-.87.14-1.11,0-.61-.36-3.51-3.26-3.87-3.86-.14-.24.16-.76,0-1.1-.22-.47-.99-.7-1.11-1.1-.41-1.48.77-3.4-1.11-4.42l2.21-8.83c1.72-1.31,3.29-3.85,4.98-4.97.24-.16.81.17,1.11,0,.71-.42,2.96-2.13,3.32-2.21ZM68.41,160.94c-2.8-1.08-9.33,2.79-9.96,4.97-.2.69.21,1.55,0,2.21-.14.45-1.01.68-1.11,1.1-.58,2.49.5,3.09,1.11,4.42.16.34-.14.87,0,1.1,1.49,2.5,3.85,3.19,6.64,2.76-.81-2.09,1.93-2.9,2.21-3.86.32-1.12,1.07-3.13,1.11-3.31.49-2.75-.35-6.47,0-9.38ZM66.19,177.49c4.36-.07,5.23-3.44,7.74-6.07-.39-3.1,1.28-7.15-1.66-9.38l-.55,8.28-5.53,7.17Z"/>
    <path class="st0" d="M263.68,104.64c2.42-.54,6.18.38,8.85,0l4.98,4.97c.34,2.93,1.71,5.44,1.11,8.83-.07.4-.96.65-1.11,1.1-.21.66.2,1.52,0,2.21-.12.41-5.43,5.68-6.08,6.07-.24.14-.76-.16-1.11,0-.48.22-.71,1.02-1.11,1.1-8.78,1.96-15.44-5.16-13.83-13.8,1.69-.88.76-2.44,1.11-3.31.17-.43.9-.65,1.11-1.1.16-.34-.14-.86,0-1.1.36-.6,3.27-3.5,3.87-3.86.24-.14.76.16,1.11,0,.48-.22.71-1.02,1.11-1.1ZM269.76,112.37l-1.66-3.31c-1.97,1.56-4.42,1.07-6.08,3.86-.14.24.16.77,0,1.1-.21.46-.94.68-1.11,1.1-.35.9.58,2.43-1.11,3.31,2.06,3.63,3.39,5.8,8.3,4.97.82-1.3,4.72-4.04,4.98-4.97.43-1.56-.29-4.26,0-6.07h-3.32Z"/>
    <path class="st0" d="M68.41,244.83c-.21.21-1.14-.29-1.66,0-.76.42-1.65,2.05-2.21,2.21-.9.25-2.27-.18-3.32,0-.43.07-.74,1.1-1.11,1.1s-.68-1.03-1.11-1.1c-2.36-.4-5.51-.11-7.19-2.76-.14-.22.16-.76,0-1.1-.21-.46-.93-.67-1.11-1.1-.35-.87.59-2.44-1.11-3.31l2.21-6.62c1.24-4.45,6.22-5.94,10.51-7.17,1.02,1.87,2.94.69,4.43,1.1.26.07,3.56,3.35,3.87,3.86.14.24-.16.76,0,1.1.22.48,1.02.71,1.11,1.1.41,1.84-.29,4.59,0,6.62-.64,1.64-2.59,3.11-3.32,4.42-.29.52.21,1.45,0,1.66ZM61.21,230.48l-6.08,4.97c-.4,3.42.01,5.13,2.77,7.17,5.99.51,9.05-3.86,8.3-9.38l-4.98-2.76Z"/>
    <path class="st0" d="M160.23,198.47l7.19,2.21c2.92-2.17,6.18-6.41,2.21-8.83-1.07-.65-2.29,1.13-1.66-3.31,3.94-.8,5.35,1.32,7.74,3.86v6.62c-3.13,3.19-5.81,6.68-10.51,6.07-2.73-1.46-4.74-3.01-4.98-6.62Z"/>
    <path class="st0" d="M153.6,144.38l-3.32-4.42c-1.08-.96-4.98,2.94-5.53,3.86-.14.24.16.76,0,1.1-.22.47-.99.7-1.11,1.1-.25.91.21,2.29,0,3.31-.09.43-1.51.75-1.11,2.21.12.44,1.01.68,1.11,1.1.42,1.8.84,6.06-2.21,4.97.55-1.8-2.01-4.06-2.21-4.97-.24-1.08-.24-5.54,0-6.62.09-.4.92-.63,1.11-1.1,1.49-3.74,2.93-5.61,6.08-8.28h5.53l1.66,7.73Z"/>
    <path class="st0" d="M202.28,35.1c.21.21-.29,1.13,0,1.66.42.76,2.06,1.65,2.21,2.21.26.93.24,6.68,0,7.73-.09.39-.89.63-1.11,1.1-.16.34.14.87,0,1.1-.44.74-3.05,3.27-3.87,3.86-.29.21-3.12,2.15-3.32,2.21-1.54.45-3.93.71-5.53,1.1-.44.11-.69,1.03-1.11,1.1-2.57.45-14.03.46-16.6,0-.41-.07-.65-.96-1.11-1.1-.66-.21-1.52.2-2.21,0-.52-.15-1.46-1.7-2.21-2.21-.26-.18-.88.17-1.11,0-.82-.59-3.43-3.12-3.87-3.86-.14-.24.16-.76,0-1.1-.22-.48-1.02-.71-1.11-1.1-.22-.97-.22-4.55,0-5.52.09-.4.92-.63,1.11-1.1,1.12-2.81,2.3-5.4,4.98-7.17.29-.19,3.9-2.01,4.43-2.21,2.41-.89,5.33-.68,7.74-1.1.42-.08.7-1.05,1.11-1.1,1.73-.22,4.91-.22,6.64,0,.41.05.68,1.03,1.11,1.1,1.35.24,3.12-.27,4.43,0,.42.09.66.98,1.11,1.1.72.2,1.61-.24,2.21,0,1.67.66,3.31,2.69,4.43,3.31.52.29,1.45-.21,1.66,0ZM181.81,33.99c-.41.06-.68,1.03-1.11,1.1-1.36.24-3.14-.28-4.43,0-.8.17-3.12,2.57-4.43,2.21l-4.43,5.52,9.96-5.52h13.28l8.3,2.76-7.19-4.97c-3.52.04-6.06-1.68-9.96-1.1ZM179.6,41.72c-.41.06-.67,1.01-1.11,1.1-1.78.39-3.64-.03-5.53,1.1-1.36.81-3.43,2.88-4.98,3.86.86.54,2.13,2.58,2.77,2.76.69.2,1.55-.21,2.21,0,2.47.79,3.14.66,5.53,1.1,1.14.21,2.44,1.67,5.53,1.1.42-.08.68-1.03,1.11-1.1,2.5-.46,5.14-.36,7.74-1.1.41-.12,3.94-3.28,4.98-3.86.24-2.3-1.7-2.27-2.77-2.76-2.27-1.04-2.42-.66-4.43-1.1-.43-.1-.7-1.04-1.11-1.1-2.18-.32-7.78-.32-9.96,0Z"/>
    <path class="st0" d="M127.6,71.53c1.26-.23,5.46-.26,6.64,0,.4.09.64.92,1.11,1.1.76.3,2.82.79,3.32,1.1,2.53,1.61,4.29,5.35,3.87,8.28l-7.19,7.17c-2.05-.92-4.09,1.06-4.43,1.1-1.51.22-5.2.26-6.64,0-.41-.07-.66-.98-1.11-1.1-.72-.2-1.61.24-2.21,0-.43-.17-.65-.89-1.11-1.1-.35-.16-.89.14-1.11,0-1.55-.99-1.28-1.93-1.66-2.76-.62-1.34-1.68-1.92-1.11-4.42.09-.39.89-.63,1.11-1.1.16-.34-.14-.87,0-1.1.4-.67,4.3-4.57,4.98-4.97.24-.14.77.16,1.11,0,.46-.21.67-.93,1.11-1.1.6-.24,1.5.2,2.21,0,.45-.13.7-1.03,1.11-1.1ZM137,82.56l-.55-3.31c-4.7-4.1-10.56-2.18-14.94,1.66-1.22,4.84,7.44,4.54,10.51,3.86.91-.2,3.18-2.75,4.98-2.21Z"/>
    <path class="st0" d="M240.44,50.55l5.53,1.1c2.26,2.3,4.7,3.58,3.87,7.17-.09.39-.89.63-1.11,1.1-.16.35.14.88,0,1.1-.42.67-3.44,2.67-3.87,2.76-1.29.28-9.96.3-11.06,0-.26-.07-3.8-3.6-3.87-3.86-.66-2.38.53-3.15,1.11-4.42.16-.35-.14-.88,0-1.1.42-.67,3.44-2.67,3.87-2.76,1.9-.41,4.3.87,5.53-1.1ZM234.36,59.38c2.01-.83,3.84,1.43,4.98,1.1.45-.13.69-1.02,1.11-1.1,1.82-.37,3.53.75,4.98-1.66-2-2.78-5.45-1.36-8.3-1.66l-2.77,3.31Z"/>
  </g>
  <g class="st1">
    <path d="M345.75,271.5c.09-.09.49.13.72,0,.31-.17,3.4-3.26,3.6-3.6.09-.14-.06-.72.48-.96-.04-1.52.77-2.68.48-4.32-.03-.18-.43-.29-.48-.48-.17-.7-.28-1.73-.48-2.4-.04-.15-2.01-2.12-2.16-2.16-.41-.11-1.03.11-1.44,0-.11-.03-1.65-1.57-1.68-1.68-.29-1.04.1-3.45,0-4.8-.14-1.84-.86-4.89-.96-6.72-.14-2.55.1-5.13,0-7.68,7.04-6.88,13.81-14.03,20.88-20.88,4.17-4.04,9.13-8.57,13.44-12.48,1.04-.94,4.61-5.13,5.76-4.8.38.74,1.07.33,1.44.48.28.11,1.27.92,1.44.96.47.1,2.95.11,3.36,0,.11-.03,1.65-1.57,1.68-1.68.09-.3-.09-.67,0-.96.06-.2.45-.3.48-.48.16-.91.14-3.85,0-4.8-.03-.17-.79-.78-.48-1.92,3.39-2.98,6.42-6.97,9.84-9.84.09-.08.38.08.48,0,.48-.39,1.64-1.84,1.92-1.92.3-.09.67.09.96,0,.2-.06.3-.45.48-.48.65-.12,2.19-.09,2.88,0,8.27,1.03,16.55,1.52,24.48,3.36,10.87,2.53,26.54,8.49,35.52,15.84.9.74,4.58,4.26,5.04,5.04.06.1-.07.33,0,.48.09.21.44.31.48.48.12.55-.1,1.33,0,1.92.03.18.46.3.48.48.17,1.35-.11,2.93,0,4.32.95,11.55,1.37,23.17.48,35.04-.38,5.02-1.84,10.56-2.4,15.36-.12,1.03.2,2.45,0,3.36-.04.17-.39.27-.48.48-.07.15.06.38,0,.48-.13.23-.97,1.07-1.2,1.2-.1.06-.33-.07-.48,0-.2.09-.29.41-.48.48-1.03.41-2.73.6-3.84.96-5.53,1.78-11.33,3.7-16.8,5.28-1.5.43-2.92.63-4.32.96-.19.04-.29.44-.48.48-1.62.38-3.13-1.11-4.32-1.44-.9-.25-2.41-.27-3.36-.48-.19-.04-.3-.45-.48-.48-.44-.08-1.48-.08-1.92,0-.18.03-.3.45-.48.48-.58.11-1.36-.12-1.92,0-.18.04-.28.4-.48.48-1.17.46-2.96,1.08-3.6,2.16s-.25,2.04-.48,2.88c-.18.66-1.73,1.23-2.16,1.68-5.98,1.42-11.87,3.18-17.76,4.8-17.49,4.8-34.98,9.4-52.8,13.44-1.34.3-3.63,1.27-4.8,1.44-.89.13-1.96-.09-2.88,0l-1.2-1.68c-.29-6.31.39-12.94,0-19.2-.01-.17-.47-.31-.48-.48-.09-1.21-.19-3.71,0-4.8.03-.17.39-.27.48-.48.11-.26-.08-.64,0-.72ZM468.63,202.86c-.5-.83-1.41-1.8-2.16-2.4-15.6-12.53-37.93-16.66-57.12-18.72-1.07-.11-2.27.08-3.36,0l-8.88,8.4,1.92,2.88.96,3.36c-.73.38-.33,1.04-.48,1.44-.11.31-.74,1.07-.96,1.44-.08.13.07.38,0,.48-.49.73-1.59,1.41-2.16,2.16l-4.32,1.92c-2.53.1-4.9-.02-7.2-.48-.18-.04-.29-.43-.48-.48h-.48c-2.13,2.03-4.1,4.23-6.24,6.24-4.41,4.13-9.6,8.75-13.92,12.96s-8.31,8.19-12.24,12.48l71.28-18.72.72-.72c-.57-.37-.63-1.27-.48-1.92.04-.18.42-.28.48-.48.09-.29-.09-.66,0-.96.05-.18,2.31-2.42,2.64-2.64,1.09-.72,3-1.11,4.32-1.44.19-.05.3-.45.48-.48,1-.18,2.32.15,3.36,0,.19-.03.73-.76,1.92-.48.19.04.3.45.48.48,1.56.23,3.26.06,4.8.48.55.15,3.13,1.92,3.36,1.92,2.09-.99,4.48-1.29,6.72-1.92,3.5-.99,7.14-2.15,10.56-3.36l6.48-1.44ZM396.15,198.06l.48-3.84-.48,1.68v2.16ZM349.59,276.06v18.48c.54-.06,1.19.1,1.68,0,15.21-3.13,31.11-7.97,46.08-12,8.02-2.16,16.57-4.85,24.48-6.72.47-.11,1.15.07,1.68,0l.96-4.56c1.69-3.37,3.03-4.93,6.48-6.48.2-.09.29-.41.48-.48.4-.15,1.06.25,1.44-.48h4.8c.38.73,1.06.33,1.44.48.99.4,4,2.69,4.56,3.6.07.11-.07.35,0,.48.21.37.7.42.48,1.2.91.35,1.44-.42,1.68-.48.73-.18,1.21-.27,1.92-.48,6.49-1.9,12.99-3.78,19.2-5.76.29-.09.66.09.96,0,1.09-.31.59-2.22.72-3.12.34-2.26,1.1-4.94,1.44-7.2,2.06-13.7,1.85-29.31.48-43.2-.09-.92.04-1.93,0-2.88-.02-.53.02-1.06-.72-.72-1.31.61-3.08,1.1-4.32,1.44-6.06,1.67-12.23,2.99-18.24,4.8-.29.09-.76.82-1.68.48.26,1.56-.65,2.8-1.44,4.08-.93,1.51-2.02,2.66-3.6,3.6-.36.22-2.72,1.4-2.88,1.44-.4.11-1-.1-1.44,0-.19.04-.3.45-.48.48-2.19.32-4.26-.27-6.24-.48l-4.8-3.36c-.44.82-1.29.29-1.92.48-18.97,5.59-37.61,10.46-56.64,15.36-5.38,1.38-10.89,3.04-16.32,4.32-.41.1-.98-.06-1.44,0l-.72.72c.09,1.59-.12,3.22,0,4.8.13,1.71.81,4.52.96,6.24.11,1.33-.08,2.74,0,4.08,2.76-.31,4.67.51,6.96,1.92.12.07.37-.07.48,0,1.56,1.04,2.5,2.85,3.12,4.56.07.2.43.3.48.48.11.4-.1,1,0,1.44.04.19.45.3.48.48.09.59.09,1.81,0,2.4-.03.18-.44.29-.48.48-.18.91-.24,1.96-.48,2.88-1.06,1.05-1.77,2.7-3.12,3.6-.35.23-3.63,1.87-3.84,1.92-.68.15-1.65-.1-2.4,0l-.72,1.2c.05.19.44.3.48.48ZM427.83,217.26c.94-.29,1.12.65,1.68.96.33.18,1.81.94,1.92.96.66.15,3.1.11,3.84,0,.18-.03.29-.44.48-.48.44-.09,1.04.11,1.44,0,.61-.17,1.43-1.1,1.92-1.44.11-.08.38.07.48,0,.92-.69,1.72-1.89,2.64-2.64-.11-1.04.79-1.76.48-2.88-.19-.69-2.16-1.03-2.64-1.68-2.12-.07-3.96-.76-6.24-.48-.18.02-.3.45-.48.48-.59.1-1.37-.13-1.92,0-.19.04-.29.44-.48.48-.43.1-1.04-.11-1.44,0-.11.03-1.81.89-1.92.96-.87.55-1.11,1.48-1.68,2.16v.96l1.44.72.48,1.92ZM355.35,259.02l-1.92-.96.96,2.64c.52,2.94.53,5.4-.48,8.16-.1.28-1.11,1.54-.96,1.68.88.19,1.14-.48,1.68-.96.96-.84,1.57-1.64,2.16-2.64.15-1.27.74-2.37.48-3.84-.03-.18-.42-.28-.48-.48-.09-.31.1-.7,0-.96-.28-.71-1.15-1.4-1.44-1.92-.13-.23.09-.62,0-.72ZM431.91,268.14c2.25-.26,4.89.19,7.2,0l.48-.48-2.4-.96h-3.36l-3.6,1.44c.12,1.33,1.56.01,1.68,0Z"/>
    <path d="M416.55,231.18h3.84c.38.73,1.06.33,1.44.48.19.07.28.39.48.48.15.07.38-.06.48,0,.32.19,2.45,2.32,2.64,2.64.06.1-.07.33,0,.48.09.21.43.3.48.48.11.4-.1,1,0,1.44.04.19.45.3.48.48.11.73.13,2.66,0,3.36-.03.18-.42.28-.48.48-.09.31.1.69,0,.96-.64,1.73-2.54,4.37-4.08,5.52-.1.07-.37-.08-.48,0-.6.41-1.2,1.15-1.92,1.44-.26.1-.65-.09-.96,0-.2.06-.3.45-.48.48-.75.13-4.11.15-4.8,0-.18-.04-.28-.4-.48-.48-.32-.13-1.24-.35-1.44-.48-.45-.3-2.34-2.19-2.64-2.64-.07-.1.08-.35,0-.48-.18-.31-.93-1.28-.96-1.44-.14-.67-.13-3.61,0-4.32.02-.14.82-.69.48-1.44,1.1-1.83,1.77-3.67,3.6-5.04.1-.07.37.08.48,0,.34-.24.64-.78.96-.96,1.01-.57,2.48-.78,3.36-1.44ZM416.55,234.06c-.18.03-.28.42-.48.48-.29.09-.66-.09-.96,0-.22.06-.63.74-.96.96-.11.08-.38-.07-.48,0-1.28.93-2.12,2.16-2.64,3.6-.07.2-.43.3-.48.48-.11.4.1,1.01,0,1.44-.08.33-.76.73-.48,1.92.04.18.42.29.48.48.09.31-.1.7,0,.96.07.19.39.28.48.48.07.15-.06.38,0,.48.24.4.89.78,1.2,1.2,1.79.27,2.45-.14,3.84-.96.13-.08.38.07.48,0,.5-.33,2.79-2.62,3.12-3.12.13-.2.35-1.12.48-1.44.08-.2.44-.3.48-.48.13-.58.13-3.74,0-4.32-.04-.17-.39-.27-.48-.48-.07-.15.06-.38,0-.48-.75-1.26-2.21-1.45-3.6-1.2ZM414.87,247.5c1.94.25,3.44-.4,5.04-.96,1.45-1.37,2.43-2.19,3.12-4.08.07-.2.43-.3.48-.48.11-.4-.1-1.01,0-1.44.04-.19.44-.29.48-.48.28-1.19-.58-1.82-.48-2.88l-1.68-2.16.24,5.52c-.72.4-.34.97-.48,1.44-.06.22-.74.63-.96.96-.08.11.07.38,0,.48-.78,1.07-2.85,3.19-4.08,3.12l-1.68.96Z"/>
    <path d="M449.67,221.58c.55-.1,2.37-.11,2.88,0,.18.04.28.4.48.48,1.34.53,2.7.99,3.6,2.16-.16.56.88,1.57.96,1.92.14.67.13,3.61,0,4.32-.03.18-.42.28-.48.48-.09.31.1.7,0,.96-.07.19-.39.28-.48.48-.07.15.06.38,0,.48-.22.37-2.24,2.38-2.64,2.64-.13.08-1.69.88-1.92.96-.27.1-.65-.09-.96,0-.2.06-.3.45-.48.48-1.47.26-2.57-.33-3.84-.48-.64-.39-3.41-2.47-3.6-3.12-.09-.3.09-.67,0-.96-.06-.2-.45-.3-.48-.48-.12-.66-.13-3.23,0-3.84.04-.18.4-.28.48-.48.14-.35.33-1.17.48-1.44.16-.29,1.51-2.05,1.68-2.16.14-.09.4.06.48,0,.81-.67,1.42-1.53,2.4-1.92.26-.1.65.09.96,0,.2-.06.3-.45.48-.48ZM451.83,224.46l-1.2-.48-2.4.96-2.64,2.64c-.11,1.25-.8,2.42-.48,3.84.04.17.39.27.48.48.07.15-.06.38,0,.48.52.87,1.51,1.11,2.16,1.68h.48c.4-.72.97-.34,1.44-.48.15-.04,2.01-1.9,2.16-2.16.06-.1-.07-.33,0-.48.09-.2.41-.29.48-.48.1-.26-.09-.65,0-.96.06-.2.45-.3.48-.48.09-.49.1-1.95,0-2.4-.09-.39-1.2-1.38-.96-2.16ZM450.87,234.06c1.26-.04,3.24-1.63,3.84-2.64.06-.1-.07-.33,0-.48.09-.21.44-.31.48-.48.12-.51.12-3.87,0-4.32-.09-.34-1.38-1.21-1.68-1.68-.38.45.68,1.49.72,1.68.11.52.1,2.33,0,2.88-.03.18-.42.28-.48.48-.09.31.1.69,0,.96-.18.5-1.06,1.29-.96,1.92l-1.92,1.68Z"/>
    <path d="M377.67,266.22c.57-.13,3.75-.13,4.32,0,.17.04.27.39.48.48.15.07.38-.06.48,0,.29.17,1.99,1.87,2.16,2.16.06.1-.07.33,0,.48.09.21.43.3.48.48.11.4-.1,1.01,0,1.44.04.18.77.5.48,1.44-.06.2-.44.3-.48.48-.1.43.11,1.04,0,1.44-.05.18-.39.27-.48.48-.07.15.06.38,0,.48-.19.32-2.32,2.45-2.64,2.64-.1.06-.33-.07-.48,0-.2.09-.29.41-.48.48-.26.1-.65-.09-.96,0-.2.06-.3.45-.48.48-1.47.26-2.57-.33-3.84-.48-.77-.57-2.08-1.22-2.64-2.16-.06-.1.07-.33,0-.48-.09-.2-.41-.29-.48-.48-.1-.26.09-.65,0-.96-.06-.19-.44-.3-.48-.48-.32-1.35.98-2.86.96-4.32,1.03-.74,2.14-2.53,3.12-3.12.1-.06.33.07.48,0,.21-.09.31-.44.48-.48ZM380.31,268.62c-.66.1-1.6-.15-2.16,0-.15.04-2.01,1.91-2.16,2.16-.06.1.07.33,0,.48-.09.2-.4.29-.48.48-.15.38.26,1.06-.48,1.44l.48,1.92,1.68,1.2c1.79-.37,2.79-1.72,3.6-3.12l.48-2.4-.96-2.16ZM380.31,276.3c.47.43,2.8-1.87,2.88-2.16.14-.47-.24-1.04.48-1.44v-.96l-1.2-2.16-.24,4.08-1.92,2.64Z"/>
    <path d="M385.35,241.74c.57-.12,2.75-.11,3.36,0,.18.03.28.42.48.48.29.09.66-.09.96,0,.67.19,1.75,2.12,2.16,2.64.05,1.18.73,1.99.48,3.36-.03.18-.42.28-.48.48-.09.31.1.69,0,.96-.07.19-.39.28-.48.48-.14.3-.35,1.24-.48,1.44-.23.34-1.34,1.45-1.68,1.68-.1.07-.35-.08-.48,0-.31.18-1.28.93-1.44.96-.56.12-3.29.12-3.84,0-.17-.04-.27-.39-.48-.48-.15-.07-.38.06-.48,0-.29-.17-1.99-1.87-2.16-2.16-.06-.1.07-.33,0-.48-.09-.21-.44-.31-.48-.48-.12-.55-.11-2.76,0-3.36.03-.18.42-.28.48-.48.09-.29-.09-.66,0-.96.06-.22.74-.63.96-.96.08-.11-.07-.38,0-.48.28-.39,1.3-1.43,1.68-1.68.1-.07.35.08.48,0,.31-.18,1.28-.93,1.44-.96ZM386.79,244.14c-.4.72-.97.34-1.44.48-.11.03-1.55,1.46-1.68,1.68-.06.1.07.33,0,.48-.09.21-.44.31-.48.48-.25,1.13.13,4.24,1.2,4.56.45.13,1.03-.25,1.44.48,3.51-.96,4.52-2.92,4.08-6.48l-2.16-1.68h-.96Z"/>
    <path d="M444.39,248.46c1.79-.49,5.19.16,5.52,2.16.64.53.67,2.52.48,3.36-.04.17-.39.27-.48.48-.07.15.06.38,0,.48-.17.29-1.87,1.99-2.16,2.16-.1.06-.33-.07-.48,0-.21.09-.31.44-.48.48-1.83.41-4.65-.24-5.04-2.16-.64-.53-.67-2.51-.48-3.36.07-.3,1.07-1.29.96-1.92l2.16-1.68ZM444.15,255.18l1.68.48c.48-.48,1.97-1.02,2.16-1.68.13-.47-.24-1.04.48-1.44l-2.16-2.16c-.63.77-1.51.18-2.16,1.2-.06.1.07.33,0,.48-.1.21-.44.31-.48.48-.25,1.08.42,1.66.48,2.64Z"/>
    <path d="M408.39,258.54l2.4.48c1.34,1.11,2.43,3.1,1.2,4.56-.58,1.89-3.34,3.54-5.04,2.16-1.75-.39-2.92-3.14-1.68-4.56-.14-.47,1.4-2.08,1.68-2.16.47-.14,1.04.24,1.44-.48ZM410.07,260.94c-1.87-.41-4,1.28-2.16,2.88l1.68-.24.48-.48v-2.16Z"/>
    <path d="M468.15,210.06l.96,4.56-.96,1.44.96,2.88c-1.48,2.21,1.34,4.92-.96,7.2l.48,3.12h-1.44c-.08-.69.12-1.52,0-2.16-.03-.14-.75-.48-.48-1.44.08-.27.89-.7.96-.96.37-1.33-.8-3.02-.48-4.8.26-1.47.31-4.88,0-6.24-.17-.74.11-1.83,0-2.64l-1.44.48v-1.2l.72-.72,1.68.48Z"/>
    <path d="M463.83,260.94v.96c-1.22-.13-2.13.06-3.12.48-1.09-.75-1.47-.25-1.2-1.92l2.16.48c.71-.72,2.63-1.39,3.12-2.16.06-.1-.07-.33,0-.48.1-.21.44-.31.48-.48.4-1.77-.45-5.09,0-6.72.09-.34,1.33-1.09,1.44-1.44.18-.59-.19-1.45.96-1.68-.13.79.19,1.96,0,2.64-.14.5-1.27.57-.96,2.4.03.18.48.32.48.48s-.45.3-.48.48c-.21,1.28.27,3.14,0,4.32-.04.17-.39.27-.48.48-.07.15.06.38,0,.48-.38.64-1.67,1.83-2.4,1.68Z"/>
    <path d="M352.47,283.98l.96,2.16c-1.14.86-.21,1.74,0,2.4.28.89-.62,1.33-.48,2.16.62.63,2.55-1.09,2.88-1.68.13-.23-.09-.63,0-.72s.49.13.72,0c.34-.19,1.56-1.44,1.92-1.44l.96.96,1.68.72c-.95,1.25-1.84.8-2.64-.24l-.96.48c-1.49,1.57-2.17,3.68-4.8,3.36l-1.2-1.68.48-1.92c-.72-.55-.65-1.91-.24-2.64l-.24-1.68.96-.24Z"/>
    <path d="M351.51,251.34l-.96-.72c.32-.62.33-1.39.48-1.92.06-.2.45-.3.48-.48.39-2.17-.8-2.28-.96-2.88-.18-.65.33-1.48-.48-1.92l.48-1.68c2.07-.02,1.24,1.8,1.44,3.12.03.18.46.31.48.48.12,1.07-.08,2.27,0,3.36l-.96,2.64Z"/>
    <path d="M465.27,211.5c-1,.32-1.78-.75-2.64-.48-.2.06-.3.44-.48.48-.43.1-1.04-.11-1.44,0-.26.07-.69.88-.96.96-.29.08-.72.12-1.2.24-.99.26-1.21.48-1.92-.48l6-2.64c1.25-.29,2.62.46,2.64,1.92Z"/>
    <path d="M364.47,236.94c.36,1.79-1.75.33-2.4,1.68.85.66.62,1.54-.24,2.16l-1.68-.96v1.44l-2.4.48.96-.96c.05-1.28,1.53-2.67,2.88-2.4l.72-1.44h2.16Z"/>
    <path d="M459.03,260.46l-.48,1.92c-.09.09-.49-.13-.72,0-.42.23-1.35,1.32-1.92,1.44-.85.18-1.75-.3-2.64.48l1.2-2.4,1.44.48c.64-.79,1.1-1.15,2.16-.96l.96-.96Z"/>
    <path d="M376.95,234.06c.39,1.67-1.61.77-2.64.96-.17.03-.8.84-1.68.48v1.2l-1.44,1.2v-2.16c1.48-1.95,3.42-1.76,5.76-1.68Z"/>
    <path d="M370.71,284.94v.96l2.4-.48c.06,1.76-1.12,1.26-2.16,1.44-.18.03-.32.48-.48.48-.14,0-1.65-1.24-2.4,0l-1.2-1.2,3.84-1.2Z"/>
    <path d="M465.75,217.26l.96.24-.72.72-1.68-.48c-.41-1.38,1.17-2.58,0-3.6l1.2-1.68.24,1.68-.48.48.96.96-.48,1.68Z"/>
    <path d="M362.07,246.54l-1.2,2.88c-1.17-.82-.62-2.18-.72-3.36h1.2l.72-1.44h1.68c.26.3-.29,1.16-.48,1.44-.09.14-.34.4-.48.48-.23.13-.63-.09-.72,0Z"/>
    <path d="M357.27,238.86l-1.2,1.44c-.96-.2-1.33.3-1.92.96l-2.16.48.24-1.44c1.76.01,3.07-1.84,5.04-1.44Z"/>
    <path d="M464.31,249.42c-2.21,0-2.06,3.33-4.32,2.88l.96-.96c.02-.73.56-2.01,1.2-2.4.35-.22.98.42.72-.96l1.44,1.44Z"/>
    <polygon points="355.35 277.26 354.87 279.42 355.83 280.38 353.67 281.1 352.95 279.9 353.67 278.7 355.35 277.26"/>
    <path d="M360.15,280.62l-1.44,2.64v1.2h-2.4l1.44-.96c-.34-1.51.57-3.16,2.4-2.88Z"/>
    <path d="M464.31,254.22l-.48,2.16c-.93,1.31-1.84,1.34-3.36,1.2.16-.53.77-1.09,1.2-1.44.08-.06.34.09.48,0,.87-.55.69-2.13,2.16-1.92Z"/>
    <path d="M365.91,286.86c.17,2.42-1.62,2.48-2.88.72l2.88-.72Z"/>
    <path d="M468.15,242.22l-1.2,2.88c-1.09-.87-.69-.79-.24-1.68.34-.67.28-1.41,1.44-1.2Z"/>
    <path d="M366.87,239.34l-2.4,2.88c-.63-.99,1.82-3.41,2.4-2.88Z"/>
    <path d="M368.31,236.94v.96h-2.4v-1.44c1.04-.26,1.51.53,2.4.48Z"/>
    <path d="M459.03,259.98l-2.4-.48c.12-2.36,2.28-1.38,2.4.48Z"/>
    <path d="M356.31,245.58c-1.07.27-1.24-.39-.96-1.2.1-.3,1.45-1.49,1.92-1.68l-.96,2.88Z"/>
    <path d="M452.31,264.3l-2.4-.48,1.2-1.44c.57.64,1.38,1.01,1.2,1.92Z"/>
    <path d="M355.35,247.02l-.48,2.4-1.44-1.2c.64-.57,1.01-1.38,1.92-1.2Z"/>
    <polygon points="363.03 282.54 362.31 283.98 361.11 283.26 361.83 282.54 363.03 282.54"/>
    <path d="M369.27,240.3l-.48,1.44h-.96c-.14-.91.53-1.58,1.44-1.44Z"/>
    <path d="M420.87,192.3c1.34-.24,1.91.39,2.4.48.58.11,1.35-.12,1.92,0,.27.06,1.51.78,1.92.96.97.44,2.04.67,2.64,1.68.06.1-.07.33,0,.48.09.21.44.31.48.48.1.46.1,2.42,0,2.88-.04.17-.39.27-.48.48-.07.15.06.38,0,.48-.17.29-1.37,1.47-1.68,1.68-.95.63-2.74,1.13-3.84,1.44-.19.06-.3.44-.48.48-.57.12-1.33-.1-1.92,0-.18.03-.3.46-.48.48-2.55.31-4.9-.62-7.2-.96-.54-.78-2.88-1.79-3.12-2.64-.14-.47.24-1.04-.48-1.44v-.96c.06-.18.4-.28.48-.48.49-1.22.99-2.34,2.16-3.12.28-.19,2.47-1.29,2.88-1.44.27-.1.65.09.96,0,.2-.06.3-.45.48-.48.86-.15,1.97.11,2.88,0,.18-.02.3-.45.48-.48ZM427.35,199.98c.09-.09-.13-.49,0-.72.25-.44,1.17-.76.96-1.44l-1.2-1.68c-.63.11-1.62-.89-1.92-.96-2.4-.53-6.35.26-8.64.48-1.4,1.04-2.85,1.47-3.6,3.12.64.31,1.21-.86,1.68-1.2.54-.39,2.28-1.26,2.88-1.44.38-.11,1,.09,1.44,0,.19-.04.3-.45.48-.48,1.72-.25,3.3.18,4.8.48l1.2.96c-2.88.16-6.11-.59-8.4.96l-2.64,2.16c.87,1.41,1.57.95,2.64,1.2.19.04.3.45.48.48.99.15,3.3.13,4.32,0,.18-.02.3-.45.48-.48.59-.1,1.36.12,1.92,0,.41-.09,1.84-1.21,2.4-1.44.26-.11.64.08.72,0Z"/>
    <path d="M381.99,211.02c1.17-.17,2.62.12,3.84,0l4.08,2.16.96,2.88c-.72.4-.34.97-.48,1.44-.03.11-1.43,1.51-1.68,1.68-.16.1-2.72,1.4-2.88,1.44-.4.11-1-.09-1.44,0-.19.04-.3.45-.48.48-.78.11-2.58.11-3.36,0-.14-.02-1.03-.88-1.92-.48-.77-.57-2.08-1.22-2.64-2.16-.06-.1.07-.33,0-.48-.26-.58-.73-.84-.48-1.92.04-.18.42-.28.48-.48.09-.29-.09-.66,0-.96.04-.15,1.87-1.97,2.16-2.16.1-.07.35.08.48,0,.33-.19,1.23-.9,1.44-.96.4-.11,1,.09,1.44,0,.19-.04.3-.45.48-.48ZM377.91,217.26l3.6-2.88c1.52.05,2.68-.78,4.32-.48l2.16.72c-1.57-1.75-3.85-1.1-6-1.2-.54.66-1.69.54-2.4.96-.86.51-1.93,1.76-1.68,2.88ZM387.99,216.3c-.76.14-.94-.39-1.68-.48-1.87-.22-3.64.1-5.28.48l-1.68,1.68c.63.95,1.24.67,2.16.72,2.27.12,2.91.15,4.8-.96.12-.07.37.07.48,0,.39-.24,1.05-.97,1.2-1.44Z"/>
    <path d="M462.39,201.42l-4.56-1.92c-6.75-4.36-14.28-7.04-22.08-9.6l-1.2-1.44,5.52.96c6.31,2.47,14.49,5.28,20.16,9.6.74.56,1.66,1.6,2.16,2.4Z"/>
    <path d="M426.87,186.54c.12.82-1.12.49-1.68.48-4.95-.1-10.18-2.11-15.36-1.92l-1.68-.72c.64-.94,2.13-.87,3.12-.72,4.35.66,9.27.79,13.44,1.92.48.13,1.36,1.19,2.16.96Z"/>
  </g>
</svg>