<?xml version="1.0" encoding="UTF-8"?>
<svg id="Layer_1" xmlns="http://www.w3.org/2000/svg" version="1.1" viewBox="0 0 180.48 158.86">
  <!-- Generator: Adobe Illustrator 29.4.0, SVG Export Plug-In . SVG Version: 2.1.0 Build 152)  -->
  <defs>
    <style>
      .st0 {
        fill: #003677;
      }
    </style>
  </defs>
  <path class="st0" d="M44.09,158.67c-1.22,0-2.14-.04-2.66-.1-1.1-.14-1.96-.6-2.79-1.03-.81-.43-1.57-.83-2.52-.97-.25-.04-.51-.05-.79-.05-.58,0-1.14.08-1.68.16h-.06c-.52.08-1.01.15-1.5.15-.26,0-.49-.02-.71-.06-.59-.1-9.9-4.68-10.37-5.11-.43-.41-.7-1.01-.96-1.59-.27-.6-.55-1.21-1.02-1.7-.85-.9-2.05-1.89-3.32-2.94-1.66-1.37-3.37-2.78-4.27-3.95-.15-.2-.41-.54-.74-.97l-.45-.59c-1.28-1.68-3.42-4.5-3.61-4.82-.56-1-.6-2-.65-3.05-.03-.8-.06-1.62-.33-2.46-.34-1.11-1.27-2.82-2.25-4.64-1.11-2.04-2.26-4.15-2.47-5.25-.35-1.78.06-4.06.42-6.07.27-1.54.53-2.99.46-4.13-.06-.86-.37-1.59-.7-2.36-.41-.96-.83-1.96-.65-3.16.19-1.33.82-2.21,1.42-3.06.45-.64.92-1.3,1.23-2.14.44-1.23.54-2.66.64-4.05.1-1.31.19-2.54.54-3.38.26-.6,7.5-11.24,8.51-12.5,2.95-3.63,10.93-10.78,15.11-11.59.19-.04.37-.05.57-.05.4,0,.79.08,1.17.15.38.07.81.16,1.25.16.14,0,.29,0,.43-.03,1.48-.2,2.79-.41,3.94-.6h.05c2.45-.4,4.38-.71,6.33-.71,2.99,0,5.93.77,10.14,2.64,1.49.66,2.4,1.62,3.29,2.55.68.72,1.33,1.4,2.18,1.87.56.31,1.14.45,1.75.59.69.16,1.41.33,2.1.79,1.05.68,1.44,1.56,1.81,2.4.26.59.51,1.15.94,1.62.43.47,1.08.8,1.76,1.16.74.38,1.5.78,2,1.35.43.49.8,1.29,1.18,2.14.8,1.77,1.63,3.59,3.43,3.69h.17c4.74,0,19.14-9.67,22.66-12.75,1.2-1.05,10.73-10.84,10.96-12.08.09-.51-.3-1.17-.95-2.21-.41-.65-.87-1.39-1.03-1.9-1.22-4-1.27-5.96-1.35-9.52l-.03-1.03c-.1-4.25.01-15.75.91-19.01.25-.92.8-1.58,1.39-2.29.52-.63,1.06-1.27,1.42-2.12.71-1.69,1.2-3.11,1.63-4.36,1.32-3.82,2.12-6.12,6.86-10.01,1.5-1.23,4.8-3,7.72-4.57,1.4-.75,2.83-1.52,3.84-2.12.41-.25.64-.63.89-1.04.3-.5.64-1.07,1.41-1.32,1.33-.43,2.7-.64,4.2-.64,2.23,0,4.39.45,6.67.92h.06c1.23.27,2.49.53,3.77.72l.38.06c7.22,1.05,10.21,1.48,17.04,5.39,5.43,3.1,8.89,6.07,13.23,11.33,1.19,1.46,1.27,2.48,1.35,3.67.06.77.11,1.57.45,2.56.27.8.96,1.56,1.63,2.3.49.54.99,1.09,1.24,1.58,3.67,6.94,1.53,26.44-1.02,34.35-.42,1.3-1.29,2.14-2.21,3.03-.75.73-1.52,1.48-2.07,2.5-.58,1.1-.81,2.13-1.04,3.13-.19.85-.37,1.66-.76,2.37-.39.7-12,9.94-13.74,11.07-1,.66-9.26,4.39-9.62,4.49-2.36.67-4.58,1.11-7.71,1.11-2.2,0-4.68-.22-7.58-.68-.91-.15-2.14-.78-3.21-1.33-1.11-.57-2.15-1.11-2.91-1.18h0c-1,0-3.33,2.45-8.8,8.46-1.77,1.94-3.29,3.61-3.97,4.24-4.64,4.25-10.87,8.86-16.28,12.02-1.18.69-3.12,1.56-5.01,2.4-3.03,1.36-6.17,2.76-7.41,3.9-.98.89-.54,2.21-.08,3.6.3.89.6,1.81.55,2.65-.33,5.58-2.45,13.46-6.43,18.46-1.18,1.5-12.97,11.76-14.05,11.98-2.63.57-3.09.8-4.01,1.26-.49.25-1.1.55-2.33,1.04-1.85.74-10.26,1.28-15.03,1.28ZM35.76,154.28c.08,0,.16,0,.24.01.78.07,1.67.56,2.62,1.08,1.26.7,2.57,1.41,4.03,1.47h.23c2.82,0,15.02-1.09,16.64-1.76,8.35-3.54,13.81-7.93,19.49-15.67.42-.8.51-1.33.29-1.68-.13-.22-.34-.34-.6-.34-.32,0-.7.21-1.15.64-.39.25-.94.47-1.45.57-.54.11-1.14.35-1.7.68-.6.37-1.25.94-1.91,1.72-.78.9-1.34,1.38-1.73,1.47-.06.01-.13.02-.21.02-.29,0-.64-.1-1.01-.2-.48-.14-.98-.28-1.52-.28-.07,0-.15,0-.22,0-.57.05-1.05.25-1.52.45-.4.17-.77.33-1.11.33-.26,0-.62-.08-1.12-.68.18.03.36.04.54.04.8,0,1.43-.28,2.03-.55.42-.19.82-.37,1.27-.45.3,0,.55.08.82.16.36.11.76.24,1.19.24h.15c.12,0,.25,0,.38-.09,2.54-1.64,4.52-3.12,6.25-4.68,1.63-1.46,3.05-3.22,4.35-5.36.42-.68.98-1.34,1.52-1.98.8-.93,1.85-2.38,1.85-4.17,0-1.39-1.16-4.81-2.9-4.81-.49,0-.98.25-1.45.73-.77.79-.75,2.09-.72,3.35.01.69.02,1.4-.1,1.95-1.14,5.05-7.78,10.54-12.91,10.67-4.29,0-16.98-5.77-19.97-9.08-1.26-1.39-2.14-3.24-3-5.02-.89-1.86-1.74-3.61-2.98-4.93-.89-.95-2.13-1.68-3.33-2.38-1.05-.62-2.14-1.26-2.92-2.01-6.45-6.18-9.87-18.42-7.79-27.87.94-4.28,3.46-9.86,10.08-12.08,2.2-.74,4.37-1.11,6.47-1.11,7.56,0,13.71,4.87,19.24,10.14.52.5.98,1.18,1.42,1.83,1.01,1.49,2.04,3.04,4.1,3.04.15,0,.31,0,.47-.03l.59-.07-.13-.59c-.65-2.85-2.43-4.25-4.16-5.6-.65-.51-1.33-1.04-1.93-1.64-.34-.35-.57-.89-.79-1.42-.3-.72-.61-1.46-1.26-1.95-.63-.49-1.54-.71-2.49-.95-.86-.21-1.75-.44-2.37-.84-.65-.43-1.01-.99-1.35-1.53-.3-.47-.58-.91-1.02-1.3-.98-.82-12.12-4.46-13.15-4.46s-1.73.55-2.44,1.08c-.55.41-1.08.8-1.65.88-.29.05-.74.07-1.39.07-.71,0-1.55-.03-2.5-.06-.89-.03-1.81-.07-2.6-.07-.93,0-1.54.05-1.93.15-.44.13-6.66,3.76-6.94,3.98-2.41,1.88-13.4,16.84-14.62,19.56-.45,1.01-.45,2.15-.45,3.35,0,.92,0,1.87-.22,2.74-.22.88-.96,1.79-1.6,2.6-.72.9-1.35,1.68-1.43,2.49-.08.85.28,1.69.67,2.58.3.7.62,1.43.7,2.15.14,1.26-.1,3.23-.33,5.13-.27,2.2-.52,4.28-.24,5.48.14.58.59.99.99,1.36.22.2.47.43.52.57.45,1.27.87,2.5,1.28,3.68l.04.1c2.51,7.34,4.49,13.14,10.84,19.05.41.38.95.66,1.52.94.71.36,1.45.73,1.97,1.31.36.41.64,1.02.91,1.62.37.82.76,1.67,1.41,2.17.46.35,9,4.67,9.58,4.71.08,0,.15,0,.23,0,.59,0,1.13-.16,1.7-.34.55-.16,1.11-.33,1.68-.33ZM42.91,74.43c-7.86,0-11.6,4.6-13.35,8.46-3.74,8.26-1.72,20.92,4.5,28.23,1.35,1.58,2.92,2.5,4.44,3.39,1.2.7,2.32,1.36,3.18,2.28,1.09,1.17,1.86,2.81,2.67,4.55,1.01,2.16,2.05,4.4,3.87,6.18,3.19,3.13,13.32,7.5,18.94,7.5.46,0,.89-.03,1.26-.09,3.94-.64,8.85-5.92,9.38-10.1.09-.66,0-1.1-.25-1.4-.13-.15-.36-.32-.74-.32-.21,0-.45.06-.72.17-.78.34-2.05,2-3.38,3.76-.8,1.05-2.12,2.78-2.83,3.4-.02-4.74,4.9-8.35,9.21-10.98,3.77-2.3,7.57-4.16,11.23-5.96,5.77-2.84,11.74-5.77,17.52-10.36,4.79-3.79,8.83-8.56,12.73-13.16,3.86-4.55,7.5-8.85,11.69-12.1,1.16-.9,2.4-1.52,3.61-2.12,2.49-1.24,4.84-2.4,6.13-5.77.35-.9.53-1.86.71-2.79.22-1.16.45-2.36,1-3.38.68-1.24,2.28-2.45,3.7-3.52,1.14-.86,2.11-1.6,2.45-2.25.65-1.23.82-3.16.98-5.02.11-1.3.23-2.64.51-3.62.32-1.14.99-2.18,1.63-3.2.79-1.24,1.61-2.53,1.84-4.01.65-4.21-1.16-18.54-3.17-22.42-1.89-3.64-4.36-4.39-6.76-5.11-1.31-.39-2.66-.8-3.91-1.7-.44-.32-.74-.77-1.07-1.24-.49-.71-1-1.45-1.99-1.89-1.03-.45-2.22-.68-3.54-.68-4.68,0-9.76,2.86-11.73,4.09-11.63,7.27-12.79,20.6-12.31,33.92.02.43.01.87,0,1.29,0,.07,0,.16-.01.28-.06,1.51-.04,2.46.29,2.8.1.1.22.16.36.16l.1-.02c.15-.06,1.54-1.26,1.62-3.13.01-.22.06-.56.13-.98.08-.5.18-1.1.24-1.75.15-1.51.61-6.1,1.42-6.12.06,0,.1.01.15.08.91,1.17-.15,7.21-.78,9.78-4.27,17.23-23,33.25-37.91,38.21-4.09,1.37-8.11,2.09-11.61,2.09-4.95,0-11.45-1.49-14.49-8.54,1.4.58,2.46,1.52,3.57,2.51,1.31,1.17,2.66,2.37,4.73,3.24,1.25.51,2.95,1.12,3.99,1.12.53,0,.89-.15,1.1-.47.2-.3.2-.69.01-1.14-1.48-3.47-13.5-11.4-17.27-11.94-1.07-.15-2.11-.23-3.09-.23ZM133.21,87.21c1.02,0,2.05.31,3.05.6,1,.3,1.94.58,2.88.58.14,0,.27,0,.41,0,.96-.04,1.74-.43,2.42-.77.53-.27,1.03-.52,1.5-.53.49,0,.93.13,1.39.27.6.18,1.22.36,1.96.36.43,0,.86-.06,1.29-.2.47-.14,7.29-3.35,7.78-3.63,1.28-.74,13.57-9.95,14.11-10.72.6-.89.67-1.82.73-2.72.05-.62.09-1.2.3-1.73.69-1.73,1.66-3.18,2.69-4.72,1.57-2.36,3.19-4.79,4.09-8.52,1.5-6.29,1.03-17.99.11-24.01-.36-2.3-7.64-14.33-9.32-16.3-3.77-4.45-15.85-10.44-21.16-11.69-.71-.17-1.52-.25-2.55-.25-.68,0-1.38.03-1.95.06h-.11c-.6.03-1.22.06-1.82.06-.52,0-.97-.02-1.37-.06-1.01-.1-1.88-.37-2.72-.62-1.11-.34-2.15-.65-3.46-.65-1.19,0-2.44.28-3.82.85-1.81.75-3.8,2.42-5.56,3.9-1.23,1.03-2.39,2.01-3.32,2.54-.52.29-1.09.43-1.7.58-.73.18-1.48.36-2.2.82-5.77,3.63-11.36,17.79-11.82,24.77-.06.82-.13,1.73-.2,2.69-.34,4.35-.77,9.75-.27,13.23.26,1.86,1.4,5.62,2.23,7.32l.15.31h.34c.51-.03.94-.25,1.28-.67,1.71-2.09.65-9.37-.05-14.19-.23-1.56-.41-2.79-.41-3.32-.1-8.68,2.97-20.26,10.08-26.56,3.36-2.99,11.11-7.16,16.11-7.16.38,0,.73.02,1.06.07,2.06.3,3.35,1.41,4.71,2.6.88.76,1.79,1.55,2.93,2.14,1.27.66,2.39,1.04,3.38,1.38,2.15.73,3.85,1.3,5.87,4.23,3.3,4.78,5.68,20.65,3.91,26.12-.32.97-.98,2.11-1.61,3.22-.8,1.37-1.62,2.79-1.86,4.01-.2,1.01-.19,1.99-.19,2.94,0,1.05.02,2.13-.26,3.23-.54,2.13-2.12,3.31-3.65,4.45-1.25.93-2.42,1.81-3.15,3.15-.66,1.23-1.02,2.53-1.4,3.92-.54,1.96-1.09,3.98-2.57,5.72-1.16,1.36-2.91,2.24-4.61,3.09-1.95.98-3.97,1.99-5.3,3.78-.11.53-.04.86.23,1.14.57.58,1.78.7,2.7.7,1.53,0,3.59-.36,4.26-.93.42-.37.54-.94.66-1.49.07-.34.17-.76.31-.9.2-.19.63-.3,1.14-.42.77-.19,1.64-.4,2.33-1.07.84-.81,1.28-2.36,1.67-3.72.27-.95.53-1.84.8-2.11.21-.21.71-.35,1.29-.52,1.11-.32,2.5-.72,3.3-2,.65-1.03.69-2.15.73-3.22.04-1,.07-1.94.6-2.75.37-.59,1.09-.92,1.79-1.24.91-.42,1.77-.82,2.06-1.74.19-.63.17-1.33.15-2-.02-.61-.04-1.24.1-1.75.14-.53.44-1.02.73-1.5.32-.52.61-1.02.76-1.58.13-.51.03-.98-.08-1.47-.12-.57-.25-1.16.05-1.83.13-.24,2.9-3.56,3.64-4.33.32.12.37.24.38.27.12.45-1.21,1.76-1.78,2.31-.84.82-1.36,1.35-1.47,1.83-.14.63.04,1.23.21,1.81.14.45.28.92.22,1.32-.06.45-.43.91-.79,1.36-.38.47-.77.95-.91,1.53-.2.79-.18,1.58-.15,2.34.03.72.05,1.41-.12,2.02-.23.86-1.29,1.5-2.21,2.06-.83.5-1.61.98-1.92,1.64-.4.85-.42,1.72-.43,2.64-.02,1.09-.04,2.22-.83,3.28-.62.82-1.48,1.09-2.31,1.34-.71.21-1.38.42-1.91.93-.67.65-.92,1.64-1.17,2.61-.16.64-.33,1.3-.61,1.79-.73,1.26-1.57,1.65-2.46,2.06-.52.24-1.06.49-1.58.91-.49.39-.77.85-1.05,1.29-.34.54-.65,1.06-1.38,1.44-.92.5-2.6.84-4.08.84-.28,0-.53-.01-.75-.04-.56-.07-1.11-.34-1.65-.61-.59-.29-1.15-.57-1.72-.57-1.05,0-1.72.89-2.15,2.87l-.03.14.09.13c.09.08,2.47,1.3,4.2,1.3.11,0,.23,0,.33-.02.16-.02.32-.02.48-.02Z"/>
  <path class="st0" d="M64.68,120.71c1.79-2.06,4.64-3,7.41-3.9,1.34-.44,2.6-.85,3.76-1.38,13.37-6.22,22.86-12.57,33.84-20.8.11-.08.22-.18.33-.28.23-.21.44-.44.67-.68.7-.75,1.5-1.6,2.51-1.67-.46.89-1.29,1.52-2.1,2.15-.36.27-.7.54-1.01.82-13.01,11.86-27.87,20.28-45.4,25.74Z"/>
  <path class="st0" d="M67.27,108.57c2.58,2.19,16.06-1.34,25.41-9.28l.04-.03.1-.11c-.08.18-.88,1.5-2,2.43-.29.22-.63.43-1,.71-4.34,3.22-13.37,8.69-19.72,8.69-.53,0-1.03-.04-1.49-.11-2.46-.37-4.94-3.22-2.58-5.2,3.24-2.71,7.09-4.51,10.88-6.28.22-.1.45-.21.67-.31,3.43-1.6,6.69-3.55,9.74-5.8l9.61-7.09c-8.82,12-34.03,18.68-29.66,22.38Z"/>
  <path class="st0" d="M97.87,79.56c-.14-.83.46-1.22,1.1-1.62.31-.2,3.71-3.34,4.9-4.69,7.16-8.07,11.39-11.67,17.07-25.34.28-.28.44-.12.27.53-3.12,13.39-21,30.83-23.34,31.13Z"/>
  <path class="st0" d="M143.95,52.9c-.3-1,.4-1.52.91-1.9.15-.11.29-.21.37-.31,4.82-9.64,5.23-13.92,2.37-24.22l-.06-.2c-.35-1.13-.31-1.41-.26-1.47.02,0,.12.02.36.2,4.94,7.69,4.11,18.66-2.03,26.01-.16.19-.31.42-.45.65-.33.52-.67,1.05-1.22,1.23Z"/>
  <path class="st0" d="M121.04,80.87c-.07-.05-.12-.11-.14-.18-.08-.27.22-.73.44-1.06.1-.15,10.25-14.84,17.84-17.37.41-.14.73-.19.97-.19.16,0,.35.05.3.09-.78.56-4.21,2.56-8.64,6.48-2.36,2.09-4.35,4.55-6.25,6.95-1.42,1.79-2.89,3.64-4.52,5.29Z"/>
  <path class="st0" d="M46.25,116.14c-1.13-.85-2.3-1.66-3.44-2.45-5.53-3.83-10.75-7.45-11.39-14.99-.02-.2-.04-.38-.06-.54-.05-.39-.08-.7,0-.8.05-.06.19-.09.4-.09.14,0,.31.01.51.04.3,3.48,1.72,6.82,3.99,9.43.34.38,1.36,1.16,2.65,2.15,2.86,2.18,7.19,5.46,7.34,7.02,0,.09,0,.17-.02.24Z"/>
  <path class="st0" d="M118.28,26.31c-.24-.74.06-1.25.35-1.74.14-.23.26-.44.34-.68,1.52-4.56,6.3-8.53,10.89-9.03l.36-.04c.4-.05.8-.1,1.17-.1.83,0,1.32.28,1.59.92-6.08.52-10.32,3.23-13.72,8.75-.2.33-.31.72-.41,1.06-.17.6-.27.86-.53.86-.01,0-.02,0-.03,0Z"/>
  <path class="st0" d="M59.46,129.92c-2.84,0-5.78-1.66-6.83-3.78.62.25,1.21.5,1.77.74,1.93.83,3.6,1.54,5.5,1.54,1.21,0,2.47-.3,3.82-.91-.96,2.08-3.05,2.4-4.26,2.4Z"/>
  <path class="st0" d="M31.32,86.74c-.12-1.19.42-2.64,1.52-4.02,1.47-1.86,3.58-3.11,5.23-3.11.72,0,1.34.23,1.85.67-1.95.19-4.05,1.08-5.56,2.4-.79.69-1.26,1.49-1.72,2.25-.39.67-.77,1.3-1.33,1.8Z"/>
  <path class="st0" d="M104.86,88.16c-.11-.02-.45-.16-.5-.23-.86-1.33.26-2.24,2.89-6.08.13-.19,3.38-4.59,4.84-6.79,1.25-1.88,2.49-3.75,3.72-5.65,1.21-1.87,2.38-3.77,3.5-5.71.57-.99,1.12-1.98,1.65-2.99.4-.75.69-1.86,1.25-2.55.09-.12.28-.06.3.09.19,1.55-.77,3.47-1.42,4.76l-.28.54c-2.2,4.46-5.24,8.55-8.03,12.61-1.6,2.34-7.75,9.74-7.52,10.61.39,1.5,10.79-7.42,14.61-11.87,3.19-3.72,6.8-6.89,5.85-12.01l-.04-.2.2.04c.58.12,1.01.61,1.07,1.2.6,6.26-7.97,13.83-8.04,13.9-3.88,3.68-12.38,10.64-14.05,10.31Z"/>
  <path class="st0" d="M115.71,34.15c0-.35-.02-.72-.05-1.11-.09-1.41-.18-2.87.91-3.54,0,.35.02.73.04,1.13.09,1.4.17,2.85-.91,3.51Z"/>
  <path class="st0" d="M62.81,95.99c-5.06,0-9.72-.97-13.11-2.72l-.13-.07c-.69-.35-2.14-1.09-2.31-1.9-.04-.2,0-.38.11-.58,4.81,2.56,10.19,3.86,15.99,3.86,5.29,0,10.82-1.13,15.97-3.27.24-.2.4-.33.51-.37l.27-.24c.38-.39.78-.78,1.3-.78.07,0,.15,0,.22.02-.25.66-.93,1.1-1.55,1.5l-.28.18c-4.07,2.74-10.42,4.38-16.99,4.38Z"/>
  <path class="st0" d="M32.48,118.54c-.51,0-1.06-.71-1.5-1.28-.31-.4-.58-.74-.83-.87-.42-.2-.94-.31-1.5-.43-1.17-.25-2.39-.5-2.9-1.62-.43-.95-.57-2.65-.71-4.45-.14-1.71-.28-3.49-.7-4.75-.39-1.18-1.18-2.03-1.87-2.77-.6-.65-1.17-1.26-1.38-1.98-.24-.82-.05-1.54.16-2.3.17-.62.34-1.26.26-1.96-.08-.72-.54-1.35-.98-1.95-.48-.65-.97-1.33-1.02-2.13-.05-.99.47-1.68.98-2.35.41-.54.8-1.05.89-1.69.1-.65-.08-1.26-.26-1.91-.21-.77-.44-1.56-.19-2.45.11-.41.51-.82.93-1.26.49-.52,1.06-1.1,1.31-1.84.32-.94.49-1.84.66-2.71.51-2.64.88-4.55,4.93-4.55.28,0,.58,0,.9.03,0,.88-.65,1.1-1.74,1.39-.95.26-2.04.55-2.53,1.65-.35.78-.35,1.61-.34,2.41,0,.63,0,1.23-.15,1.79-.17.62-.69,1.23-1.19,1.83-.53.63-1.03,1.22-1.17,1.84-.17.79.02,1.47.2,2.13.15.54.29,1.04.22,1.57-.07.52-.42,1.07-.79,1.65-.49.77-1,1.56-.92,2.42.05.6.44,1.22.84,1.88.45.73.92,1.49.99,2.29.05.64-.13,1.3-.31,1.94-.19.68-.38,1.33-.24,1.9.11.45.55.95,1.11,1.58.88.99,2.08,2.34,2.45,4.17.2.98.19,2.22.19,3.41,0,1.59-.01,3.1.44,4.02.14.28.75.58,2.01,1.18,1.74.83,4.38,2.09,4.57,3.19.04.25-.05.48-.28.7-.17.17-.34.25-.51.25Z"/>
  <path class="st0" d="M55.34,140.17c-.21,0-.41-.01-.59-.05-.86-.16-1.42-.72-1.96-1.27-.38-.38-.73-.73-1.15-.91-.64-.27-1.45-.49-2.31-.73-2.2-.61-4.69-1.3-5.62-3.04-.33-.61-.47-1.44-.6-2.25-.14-.87-.29-1.77-.68-2.46-.42-.75-1.06-1.21-1.74-1.7-1.09-.79-2.23-1.61-2.69-3.74-.17-.75-.06-.89-.06-.89.27,0,1.04.81,2.27,2.38.23.29.31.4.36.44.51.43,1.17.69,1.75.92.45.18.87.34,1.05.53.54.57.7,1.49.89,2.55.33,1.86.74,4.17,3.56,5.38.92.4,1.72.47,2.43.53.51.04.99.08,1.44.25,1.28.46,1.72.78,2.04,1.01.58.42.84.61,4.08.86l.25.02c.89.06,3.26.21,3.81,1.04.09.14.12.29.1.46-.35-.08-.72-.12-1.14-.12-.97,0-2.01.22-3.01.42-.91.19-1.76.37-2.49.37Z"/>
  <path class="st0" d="M14.12,127.59c-1.54,0-3.36-.52-3.73-1.66.2-1.17-.24-2.74-.66-4.27-.5-1.82-.97-3.53-.32-4.41.33-.43.92-.64,1.83-.64.13,0,.27,0,.41.01-1.7,2.2-.81,3.09-.02,3.87.35.35.69.68.79,1.12.11.46-.08,1.02-.27,1.55-.2.57-.39,1.1-.26,1.58.19.72.89.89,1.51,1.04.5.12.96.23,1.15.58.14.26.13.66-.03,1.2-.13,0-.27.01-.42.01Z"/>
  <path class="st0" d="M42.72,149.09c-.57-.11-1.16.07-1.72.13-.48.06-.93.11-1.32.11-.24,0-.43-.02-.59-.06-1.18-.28-2.37-1.5-2.45-2.5-.04-.58.29-1.06.95-1.39.39,1.64.99,2.4,1.86,2.4.51,0,1.04-.28,1.5-.53.38-.2.74-.4,1.01-.4.29.02.58.21.89.41.39.25.78.52,1.21.52.74,0,1.28-.74,1.73-2.4.63.33,1.04.76.97,1.25-.34,2.23-2.58,2.75-4.05,2.45Z"/>
  <path class="st0" d="M29.01,146.98c-.72,0-1.53-.8-2.38-1.66-.33-.33-.67-.67-1.02-.97-.28-.24-.66-.36-1.03-.47-.49-.15-.95-.29-1.21-.68-.55-.83-.84-2.27-.37-3.17.26-.49.7-.73,1.33-.73-.2,1.75-.14,2.64.2,3.02.21.24.48.26.67.26.13,0,.26-.01.41-.03.15-.02.31-.03.49-.03.33,0,.6.07.85.22.21.12.37.47.54.83.34.72.75,1.61,1.89,1.61.41,0,.87-.12,1.4-.35-.55,1.44-1.13,2.14-1.79,2.14Z"/>
  <path class="st0" d="M12.43,96.16c-.52.77-1.63.78-1.02,2.96-6.24.44.73-6.68,2.31-6.65,2.17.03-1.02,3.29-1.29,3.69Z"/>
  <path class="st0" d="M28.59,128.98c-1.68,0-3.68-.49-4.26-2.17-.32-.94.34-2.19,1.18-2.56.22.41.34.87.46,1.33.32,1.15.51,1.84,2.28,1.84,1.4,0,2.2,1.57.33,1.56Z"/>
  <path class="st0" d="M17.33,106.45c.62.57-1.57,2.25-1.37,3.61.03.22,4.09,2.4.38,2.41-4.45,0-1.42-8.25.99-6.02Z"/>
  <path class="st0" d="M32.09,137.54c-2.42-.02-2.6-1.56-2.6-2.03,0-.88.54-1.72,1.09-1.72.14,0,.29.06.43.16h0s0,.12.02.22c.07.42.19,1.12.66,1.44.17.12.51.17,1.08.25.63.09,1.69.23,1.8.57.04.12-.05.3-.26.52-.15.07-1.98.59-2.22.6Z"/>
  <path class="st0" d="M56.39,149.07c-.66,0-1.3-.33-1.85-.94l.54-.17c1.46-.47,2.74-1.37,3.7-2.57h0c.34.56.34,1.31-.02,2.03-.4.83-1.29,1.66-2.37,1.66Z"/>
  <path class="st0" d="M161.24,41.44c.17-1.21-.51-2.48-1.12-3.62-.45-.85-.89-1.65-.82-2.21.05-.51.45-1,.84-1.48.47-.58.96-1.19.89-1.88-.04-.38-.28-.76-.53-1.16-.23-.37-.47-.75-.53-1.12-.96-5.25-2.96-10.62-4.47-14.2-.21-.5-.21-1.21-.21-1.83,0-.62,0-1.15-.2-1.45-.22-.34-.99-.51-2.33-.77-.94-.19-2-.4-2.46-.69-.3-.19-.5-.6-.71-1.04-.26-.54-.53-1.1-1.06-1.36-.65-.32-1.28-.36-1.76-.36-.23,0-.47.01-.7.02-.22.01-.45.02-.67.02-.19,0-.39,0-.58-.03-.81-.1-1.02-.3-1.01-.4.03-.42,1.59-1.2,2.93-1.2,1.82.02,2.58.81,3.37,1.65.44.46.9.94,1.54,1.31.5.28,1.09.4,1.65.5.51.1,1,.19,1.42.4,1.75.88,1.93,1.87,2.17,3.13.11.58.23,1.23.52,1.94,1.03,2.53,1.11,3.5,1.2,4.52.05.65.11,1.33.4,2.43.21.79.74,1.89,1.36,3.16,1,2.05,2.23,4.6,2.34,6.5.06,1.02-.44,1.63-.93,2.22-.33.4-.63.78-.75,1.26-.16.67.15,1.47.48,2.32.52,1.36,1.02,2.65-.28,3.42Z"/>
  <path class="st0" d="M171,44.94c-.06-.69.38-1.1.9-1.57.41-.37.83-.75.99-1.31.23-.8-1.09-6.33-1.38-6.87-.14-.26-.47-.39-.82-.53-.72-.29-1.18-.54-1.02-1.31.22-.01.45-.02.69-.02,1.16,0,1.88.27,2.34.88.22.35,1.88,5.47,1.93,5.95.15,1.48-.21,2.83-.98,3.7-.63.71-1.54,1.08-2.61,1.08h-.03Z"/>
  <path class="st0" d="M152.87,79.36c-.47,0-.84-.15-1.11-.44-.4-.44-.57-1.19-.51-2.24.58.04.91.29,1.22.53.32.25.66.5,1.11.5.32,0,.66-.13,1.04-.38l4.87-5.1c.14.96-.27,2.17-1.19,3.44-1.5,2.07-3.89,3.7-5.44,3.7Z"/>
  <path class="st0" d="M162.76,63.48c-.31,0-.54-.09-.62-.25-.11-.2,0-.55.28-.97.34-.51.71-.91,1.04-1.26,1.18-1.28,1.71-2.07-.2-4.42.35-.13.68-.19.97-.19.89,0,1.34.58,1.56,1.07.63,1.38.29,3.6-.76,4.86-.67.8-1.64,1.17-2.27,1.17Z"/>
  <path class="st0" d="M165.74,22.91c-.18-2.14-.36-3.42-2.27-3.42-.25,0-.53.02-.85.07.45-.85,1.05-1.29,1.74-1.29,1.33,0,2.66,1.62,2.77,2.89.08.9-.41,1.51-1.38,1.75Z"/>
  <path class="st0" d="M164.91,72.29c-.1,0-.2,0-.31-.03-.13-.02-.48-.07-.42-.76.1-1.31,1.62-3.59,2.39-3.59.06,0,.11.02.16.06.5.41.59,1.51.22,2.55-.4,1.11-1.16,1.77-2.04,1.77Z"/>
  <path class="st0" d="M172.48,55.65c-.16,0-.37-.01-.58-.03-.25-.02-.51-.04-.74-.04h-.07c.11-.8-.24-2.21-.5-3.27-.12-.46-.25-.99-.24-1.1.16-.1.38-.2.6-.2.73,0,1.42.99,1.78,1.98.42,1.16.39,2.25-.07,2.65,0,0-.08,0-.17,0Z"/>
</svg>