<?xml version="1.0" encoding="UTF-8"?>
<svg id="Layer_1" xmlns="http://www.w3.org/2000/svg" version="1.1" viewBox="0 0 180.48 158.86">
  <!-- Generator: Adobe Illustrator 29.4.0, SVG Export Plug-In . SVG Version: 2.1.0 Build 152)  -->
  <defs>
    <style>
      .st0 {
        fill: #003677;
      }
    </style>
  </defs>
  <path class="st0" d="M94.19,157.78c-15.36,0-31.46-1-42.01-2.62-16.38-2.49-37.97-8.3-36.44-29.81v-.08s-.1-.12-.1-.12l-.16-.02c-.18,0-.47.11-1,.33-.9.37-2.26.93-3.53.93-.98,0-1.73-.33-2.28-1-1.98-2.42-.51-4.77.47-6.33.45-.72.78-1.24.71-1.64-.11-.63-.75-1.15-1.49-1.76-1.16-.95-2.61-2.14-2.61-4.2,0-3.14,2.29-3.8,4.21-3.8,1.17,0,2.52.26,3.78.72l.62.23-.41-.52c-.82-1.03-.37-4.1-.1-5.93.19-1.32.22-1.59.09-1.74-.07-.09-.22-.1-.61-.13-.67-.05-1.91-.16-2.34-.82-2.48-3.87,2.77-10.11,5.55-12.37.84-.68,2.38-1.39,3.39-1.86.77-.35.95-.45,1.03-.54.1-.15.06-.39-.18-1.56-.28-1.36-.76-3.64-.38-4.35l.23-.45-.46.19c-.99.41-1.82,1.06-2.61,1.69-.94.74-1.83,1.44-2.98,1.8-.92.28-1.83.43-2.71.43-2.1,0-3.71-.82-4.11-2.09-.41-1.31.55-2.93,2.66-4.44l.5-.36-.79.03c-3.26,0-8.25-3.76-9.7-7.31-.51-1.25-.81-3.04.64-4.51.55-.56,1.21-.83,2-.83,1.06,0,2.23.49,3.26.93.9.38,1.74.74,2.42.74.48,0,.86-.18,1.12-.54.32-.43-.1-1.24-.73-2.47-1.13-2.2-2.67-5.21-.23-6.97.55-.39,1.14-.59,1.81-.59,1.08,0,2.14.5,2.91.87.52.25.89.42,1.17.42.11,0,.21-.03.28-.09l.09-.08-.03-.12c-2.38-9.16,3.54-20.41,9.88-27.87C38.99,10.74,63.75.92,91.25.92c17.98,0,35.18,4.18,48.45,11.78,12.82,7.33,27.09,22.17,28.13,37.43.07,1.1-.24,3.28-.53,5.2-.38,2.58-.6,4.18-.34,4.61.44.72,1.02,1.06,1.77,1.06.86,0,1.82-.43,2.93-.94,1.33-.6,2.83-1.28,4.4-1.28.92,0,1.77.23,2.59.7,1.01.58,1.57,1.23,1.65,1.93.15,1.28-1.22,2.59-2.33,3.65-.7.67-1.25,1.19-1.32,1.62-.09.53.41,1.22.99,2.02.8,1.11,1.72,2.36,1.33,3.44-.31.86-1.44,1.53-3.38,2.01-.56.14-1.62.16-2.39.18-.95.02-1.13.03-1.23.12-.22.22-.19.75-.09,1.84.17,1.9.42,4.78-1.3,5.84-.52.32-1.09.48-1.71.48-1.85,0-3.79-1.41-5.2-2.45-.87-.64-1.5-1.09-1.91-1.09-.1,0-.19.03-.26.08-1.39,3.56-.7,4.15.98,5.13.58.34,1.23.72,1.93,1.35l.26.23c2.04,1.82,4.35,3.88,4.4,6.71.01.74-.16,1.47-.33,2.17-.17.69-.32,1.34-.29,1.94,0,.05,1.46,6.02,1.79,6.35l.05.05h.11c.1,0,.21-.05.42-.14.38-.18,1.02-.48,1.74-.48.78,0,1.49.36,2.09,1.09,1.22,1.45.83,2.69.48,3.77-.2.62-.38,1.21-.23,1.74.21.72,1.11,1.01,1.98,1.28.57.18,1.16.37,1.52.66.69.59,1.03,1.21,1.01,1.86-.06,1.51-2.06,2.93-3.13,3.69-.65.46-.83.6-.84.78,0,.21.18.43.46.77.81.97,2.33,2.77.41,5.9-.94,1.53-2.04,2.3-3.28,2.3h0c-1.08,0-2.03-.57-2.6-.92-.32-.2-.47-.28-.6-.28h-.06l-.09.05c-.22.17-.38,1.06-.85,4.23-.34,2.32-.72,4.94-1.11,6.05-1.49,4.32-4.83,8.6-8.95,11.45-13.63,9.45-46.31,10.86-64.57,10.86ZM18.53,123.9c-.2,0-.42.02-.66.07l-.14.03v.14c-2.04,26.12,30.81,28.94,46.6,30.29,9.8.84,19.68,1.27,29.37,1.27,13.76,0,26.47-.86,37.75-2.54,9.51-1.42,29.3-4.38,34.28-18.75.58-1.65,2.3-8.87.79-11.04-.28-.41-.66-.61-1.13-.61-.49,0-1.08.24-1.76.7-.67.46-1.05,1.19-1.45,1.96-.35.67-.7,1.35-1.26,1.87-1.01.94-2,1.39-3.02,1.39h0c-1.28,0-2.54-.7-3.87-1.44-.54-.3-1.1-.61-1.68-.89l-.38-.18.13.41c1.11,3.46.99,8.78-1.11,11.7-1.06,1.47-2.52,2.22-4.33,2.22-.14,0-.29,0-.44-.01-2.2-.15-5.01-2.65-5.45-4.86-.26-1.3-.14-3.03-.03-4.7.1-1.54.21-3.12.03-4.43l-.03-.2-.19.04c-1.19.26-2.41,1.22-3.58,2.16-1.31,1.04-2.55,2.03-3.68,2.03-.8,0-1.72-.67-2.69-1.38-1.24-.91-2.65-1.94-4.27-1.94-.53,0-1.07.11-1.58.34-.22.18-.11.44.18,1.11.67,1.57,2.07,4.83-.56,6.5-.9.57-1.72.86-2.46.86-1.87,0-2.98-1.89-3.88-3.4-.59-1.01-1.1-1.88-1.74-2.07-.24-.07-.47-.1-.69-.1-.9,0-1.52.56-2.17,1.15-.72.65-1.46,1.32-2.68,1.32-.38,0-.79-.07-1.22-.2-1.04-.31-1.45-1.22-1.9-2.18-.49-1.05-.99-2.15-2.35-2.42-.42-.09-.82-.13-1.24-.13-1.39,0-2.64.48-3.84.95-1.15.45-2.35.91-3.71.97h0c-.93,0-2.4-.36-3.82-.7-1.28-.31-2.49-.6-3.11-.6-.24,0-.4.05-.49.14-.13.14-.11.36-.06.77.09.91-.22,2.65-1.85,3.98-.93.77-4.88,2.34-7.57,2.64-3.25.36-6.48-2.47-7.43-3.86-.27-.41-.29-1.18-.3-1.63v-.07s-.11-.11-.11-.11h-.11c-.19-.01-.43.21-1.16.9-1.22,1.15-3.25,3.07-4.79,3.07-2.22-.04-2.4-1.12-2.61-2.37-.13-.79-.27-1.61-.97-2.12-.81-.6-1.99-.68-3.03-.68-.24,0-1.48.02-1.48.02l-.12.18-.43,8.86c-.27,2.82-3.12,5.09-6.06,5.09-.37,0-.72-.03-1.04-.1-1.71-.35-2.99-1.19-3.79-2.48-2.18-3.48-.68-9.63.31-13.71l.32-1.35-.2-.03c-.22-.03-.43-.04-.63-.04-2.31,0-3.55,1.73-4.74,3.4-1.24,1.74-2.53,3.54-5.07,3.54-.09,0-.19,0-.29,0-3.36-.17-4.39-2.78-5.13-4.69-.43-1.1-.77-1.97-1.43-2.16-.17-.05-.34-.07-.51-.07-1.02,0-1.96.85-2.87,1.68-.86.78-1.75,1.59-2.64,1.59-.59,0-1.16-.36-1.72-1.09-.34-.45-.54-1.05-.73-1.64-.38-1.16-.77-2.36-2.26-2.36ZM24.04,93.08c6.2.04,8.24,3.37,10.61,7.23.66,1.07,1.33,2.17,2.13,3.25,1.45,1.97,2.94,3.67,4.39,5.31,4.3,4.9,8.01,9.13,7.53,17.36-.05.84-.31,2.04-.62,3.43-.8,3.65-1.79,8.19.01,10.47.72.91,1.84,1.37,3.33,1.37,1.06-.01,1.88-.37,2.5-1.06,2.16-2.41,1.62-8.36,1.19-13.14-.17-1.92-.33-3.58-.25-4.62.78-10.77,6.08-17.89,16.7-22.4,6.62-2.82,16.3-6.57,23.86-6.57,1.28,0,2.48.11,3.56.32,1.98.39,3.94,1.47,5.84,2.52,2.18,1.2,4.25,2.34,6.27,2.44.16,0,.32.01.48.01,2.19,0,3.97-.82,5.86-1.68,1.94-.89,3.95-1.81,6.49-1.81,1.25,0,2.52.22,3.88.66,6.38,2.09,14.97,15.88,15.54,22.96.07.91-.07,2.56-.24,4.48-.42,4.85-1.01,11.49,1.15,13.87.54.6,1.23.9,2.05.9.11,0,.23,0,.34-.02,1.22-.12,2.18-.63,2.84-1.52,2.07-2.79.91-8.78.06-13.16-.32-1.64-.59-3.05-.63-3.95-.25-6.37,1.68-9.39,3.73-12.59,1.25-1.95,2.54-3.97,3.34-6.82.45-1.59.69-3.06.91-4.36.52-3.06.83-4.91,2.96-4.91,1.41,0,3.61.81,6.93,2.56l.17.09.08-.18c.27-.63.04-1.51-.68-2.62-1.61-2.48-5.17-5.34-6.28-5.34-.12,0-.22.03-.3.09-.07.06-.1.14-.15.32-.11.38-.34,1.17-1.06,1.72-4.15,3.24-11.26,4.89-21.13,4.89-12.95,0-26.32-2.84-30.11-3.71-.79-.18-2.67-.78-4.65-1.41-3.08-.98-5.13-1.62-5.59-1.62-.23.02-.91.36-2.66,1.25-1.53.78-3.26,1.66-3.99,1.92-8.68,3.11-24.31,6.24-39.68,6.24-11.04,0-19.87-1.66-25.55-4.8-.65-.36-1.73-1.32-2.69-2.17-1.2-1.06-1.64-1.43-1.86-1.43-1.71.14-6.84,5.76-8.08,8.84-.38.94-.4,1.62-.05,2.02l.09.1.12-.06c1.15-.52,2.26-1.18,3.34-1.81,2.41-1.42,4.9-2.88,7.91-2.88h.08ZM69.81,120.66c-.62,0-1.2.38-1.55.67-.23.19-.36.48-.3.78.12.7.71,1.94,3.29,2.01,1.08.03,2.09.29,2.65.98.75.93.48,2.01.2,3.15-.25,1.03-.6,2.14,0,3.09,4.37,6.99,11.8.87,12.02.69.57-.47.76-1.54.97-2.78.4-2.34.86-4.99,3.93-4.99.32,0,.67.03,1.04.09l.18.03.02-.19c.03-.26-.02-.46-.15-.61-.21-.24-.56-.27-.82-.27-.21,0-.43.02-.65.04-.19.02-.37.04-.52.04-.57-.02-2.12-.08-3.24-.08-1.24,0-1.3.06-1.37.13-.08.1-.09.23-.11.72-.03.75-.09,2.14-.58,3.09-.51,1.02-2.53,2.91-3.82,3.65.28-.68.81-1.34,1.33-1.98.59-.73,1.2-1.49,1.47-2.31.27-.84.36-1.62.28-2.46l-.02-.24-.22.09c-1.11.45-2.18.66-3.29.66-2.03,0-3.71-1.23-5.6-1.99-1.91-.77-2.89-2-5.14-2ZM116.05,127.97c.87,0,1.68.35,2.46,1.07.52.48.86,1.28,1.18,2.05.56,1.35,1.15,2.74,2.78,2.74.18,0,.38-.02.59-.06l.09-.02.04-.08c1.24-2.27,0-3.94-1.22-5.56-.74-.99-1.51-2.02-1.66-3.16-.18-1.31.11-2.42.86-3.28.9-1.05,2.43-1.65,4.19-1.65.66,0,1.31.09,1.94.25.36.09.67.36.7.59.02.21-.18.37-.36.47-.3.16-.92.22-1.58.27-1.27.11-2.84.25-3.54,1.24-.38.54-.46,1.27-.23,2.18.16.65.52.98,1.05.98.53,0,1.13-.33,1.67-.62.33-.18.64-.35.83-.38.22-.04.44-.06.66-.06,1.9,0,3.86,1.36,5.59,2.56.48.33.93.65,1.36.92l.31.2-.03-.37c-.06-.69-.17-1.31-.28-1.89-.35-1.97-.58-3.27,1.39-5.02l.36-.33h-.49c-1.71,0-3.47-.93-5.16-1.83-1.71-.91-3.32-1.76-4.88-1.76h-.16c-1.89.07-2.87,1.23-3.9,2.47-.9,1.07-1.82,2.18-3.45,2.61-.57.15-1.11.22-1.66.22s-1.06-.07-1.54-.15c-.46-.07-.9-.13-1.37-.13-.13,0-.27,0-.41.02-.81.08-1.44.38-2.12.71-.9.43-1.84.88-3.34.88-.45,0-.94-.04-1.45-.12-2.8-.45-3.41-2.69-3.94-4.67-.42-1.55-.81-3.01-2.3-3.01-.08,0-.17,0-.26.01-.67.07-1.11.28-1.34.64-.38.56-.16,1.35.05,2.11.12.45.25.91.23,1.28-.12,2.31-1.74,3.43-3.31,4.51-.39.27-.77.53-1.12.81-.08.06-.21.12-.35.18-.33.15-.7.32-.76.66-.04.24.07.49.35.78.24.23,3.39.64,4.25.64.09,0,.17,0,.23-.01.96-.11,1.85-.5,2.79-.91,1.24-.54,2.52-1.1,4.11-1.1.29,0,.59.02.89.06,3.05.4,4.04,2.4,4.7,3.73.32.64.55,1.11.93,1.2h.02c.48,0,.96-.38,1.61-.91,1.03-.82,2.43-1.95,3.96-1.95ZM64.23,130.29c.14.97,1.02,1.65,1.98,1.51l.9-.12.03-.13c.33.03,1.68-1.15,2.86-1.98,1.64-1.16,2.4-2.2,2.48-2.79.02-.14-.02-.27-.1-.38-.3-.37-.74-.56-1.3-.56-.88,0-1.95.43-3.09.89-1.11.45-2.26.91-3.16.91h0c-.26,0-.5-.04-.69-.12l-.29-.12.41,2.88ZM28.45,123.72c2.41,0,3.28,1.75,4.12,3.45.77,1.55,1.56,3.15,3.54,3.15.24,0,.5-.02.78-.08,1.59-.28,2.33-1.67,3.05-3.01.5-.93.98-1.82,1.71-2.35.72-.52,1.53-.7,2.32-.88.93-.21,1.9-.43,2.67-1.2l.05-.05v-.08c0-1.17-4.61-1.69-5.8-1.69-.21,0-.39.01-.51.03-1.16.2-1.7,1.06-2.21,1.9-.48.76-.93,1.49-1.85,1.62l1.75-3.52s-.69.02-.88.02c-.52,0-1.05-.02-1.6-.04-.56-.02-1.12-.04-1.69-.04-2.19,0-4.64.3-6.22,2.49l-.24.33.41-.04c.21-.02.41-.03.6-.03ZM57.46,122.63c-.23,0-.42.08-.56.23-.31,1.99-.18,3.12.39,3.78.57.67,1.53.76,2.48.76.5,0,1.07-.03,1.69-.06l1.12-.06-.13-.26c-.42-.83-3.5-4.39-4.99-4.39ZM134.56,123.58c-.28.77.13,2.6.33,3.37.04.16.23.21.35.1.8-.75,2.22-1.82,3.23-2.27.81-.37,1.41-.46,1.84-.53,1.28-.2,1.27-.43,1.02-4.24v-.2s-4.55.67-4.55.67c0,0-1.85,2.06-2.23,3.1ZM150.91,118.25c-.45,4.29,1.44,6.89,5.95,8.19.34.1.66.15.96.15,1.54,0,2.31-1.28,3.06-2.52.81-1.34,1.65-2.73,3.49-2.73.22,0,.45.02.69.06l.66.11-2.07-1.74c.32-.18.66-.26,1.02-.26,1.44,0,3.04,1.39,4.45,2.61,1.29,1.12,2.51,2.17,3.54,2.17.09,0,.17,0,.26-.02.81-.15,2.24-1.85,2.32-2.76.08-.86-.41-1.57-.88-2.25-.57-.82-1.15-1.68-.83-2.87.2-.74.94-1.22,1.66-1.68.91-.58,1.84-1.18,1.76-2.34v-.19s-.2.02-.2.02c-.08,0-.15,0-.23,0-1.1,0-2.4-.6-3.24-1.5-.42-.45-.91-1.18-.86-2.06.01-.2.13-.59.25-1.01.31-1.06.69-2.38.25-2.98-.15-.2-.38-.31-.67-.31-.5,0-1.21.3-2.17.9-1.24.79-1.43,1.83-1.63,2.84-.1.55-.21,1.11-.48,1.66-.12.24-.4.69-.73,1.23-1.46,2.37-1.65,3.42-1.53,3.5,1.17.73,4.58,2.6,5.08,3.83.04.1.08.23.06.33-.83-.32-1.75-.84-2.72-1.4-1.42-.82-2.9-1.66-4.17-1.86-.36-.06-2.71-.1-4.2-.1-.68,0-1.21,0-1.34.02-.61.07-1.41.58-2.32,1.16-1.3.83-2.78,1.77-4.16,1.77-.28,0-.55-.04-.8-.12l-.21-.07-.02.22ZM18.13,122.02c2.99.14,4.09,2.22,4.68,3.33.26.48.4.75.64.75h.08l.05-.06c.54-.56,1.03-1.2,1.5-1.82,1.23-1.63,2.4-3.18,4.53-3.42h.07s.05-.06.05-.06c.29-.3.29-.58.24-.76-.22-.77-1.83-1.27-2.77-1.49-1.22-.3-2.34-.45-3.41-.45-2.61,0-4.57.86-7.04,1.96-.5.22-1.01.45-1.56.68l1.33-1.34-2.02-.51,6.19-2.01-.36-.21c-1.72-.99-2.68-2.28-3.6-3.53-1.35-1.81-2.52-3.38-5.6-3.38-.35,0-.73.02-1.13.07-1.26.14-1.97.48-2.17,1.04-.34.96.88,2.21,2.17,3.55.88.91,1.8,1.85,1.91,2.48.29,1.72-.31,2.42-.9,3.1-.38.43-.76.88-.88,1.56-.17,1.08-.08,1.81.28,2.24.24.29.6.43,1.07.43.93,0,2.2-.56,3.44-1.11,1.16-.51,2.36-1.04,3.15-1.04h.08ZM60.89,122.93c-.2-.03,1.62,2.64,4.8,2.56.53-.01.89-.16,1.07-.47.24-.44.09-1.1-.47-2.03l-.07-.12s-1.45.61-5.33.06ZM70.12,119.07c1.51.07,3.05.92,4.54,1.74,1.58.87,3.21,1.76,4.85,1.77h0c1.39,0,3.01-.46,4.58-.9,1.47-.41,2.98-.84,4.24-.88h.22c.89,0,1.79.17,2.66.34.89.17,1.81.35,2.74.35.38,0,.74-.03,1.09-.09l.16-.03-.04-.9c-.13-2.89-.27-5.89,3.07-6.2.27-.02.52-.04.75-.04,3.15,0,3.73,2.12,4.3,4.17.48,1.74.97,3.53,3.11,3.65.08,0,.15,0,.22,0,1.16,0,2.17-.49,3.15-.96.86-.42,1.68-.81,2.53-.84h.01c.58,0,1.01.12,1.47.25.49.14,1.01.28,1.6.28.28,0,.55-.03.84-.1,1.13-.26,1.93-1.2,2.79-2.19,1.08-1.25,2.3-2.66,4.41-2.97.45-.07.89-.1,1.3-.1,1.97,0,3.29.72,4.68,1.48,1.14.63,2.33,1.27,3.9,1.48.51.07,1.03.1,1.57.1,1.24,0,2.38-.17,3.59-.36.7-.11,1.4-.21,2.13-.28h.07s.05-.05.05-.05c1.38-1.42-6.89-13.99-6.98-14.12-1.36-1.92-2.65-3.74-5.2-4.9-1.6-.73-3.11-1.09-4.63-1.09-2.3,0-4.29.84-6.22,1.65-1.94.82-3.95,1.67-6.3,1.67-.28,0-.57-.01-.86-.04-2.08-.18-4.12-1.28-6.1-2.34-1.38-.74-2.8-1.51-4.22-1.95-2.1-.66-4.07-.98-6.03-.98-3.75,0-7.04,1.18-10.84,2.54-.87.31-1.76.63-2.7.95-10.87,3.71-21.15,7.22-23.18,20.81v.08s.03.06.03.06c.89,1.43,6.01,1.62,6.75,1.62.97-.09,1.68-.92,2.47-1.43.96-.62,1.96-1.26,3.24-1.26h.19ZM41.07,118.78c1.65,0,2.99.26,4.2.83l.3.14-.05-.33c-.42-2.92-2.35-4.88-4.22-6.79-.81-.83-1.58-1.61-2.22-2.45-1.01-1.33-1.96-2.84-2.96-4.43-3.24-5.13-6.59-10.44-12.19-10.44-1.55,0-3.21.42-4.96,1.26-2.05.98-3.24,3.09-3.35,5.93-.19,4.72,2.54,10.4,5.97,12.39,1.54.9,2.67.99,3.87,1.1.72.06,1.47.13,2.33.38.72.21,1.53.71,2.31,1.19.93.57,1.88,1.16,2.78,1.35.72.15,1.51.23,2.4.23.96,0,1.95-.09,2.9-.17.95-.08,1.93-.17,2.89-.17ZM159.14,93.31l-.03.15c-.19.97-.29,2.01-.39,3.02-.13,1.33-.27,2.7-.6,3.92-.61,2.18-1.86,4.2-3.07,6.15-1.76,2.83-3.59,5.77-3.55,9.35v.07s.05.05.05.05c.07.08.18.12.32.12.6,0,1.99-.77,3.46-1.59,1.1-.61,2.23-1.24,2.68-1.32.35-.06.72-.09,1.11-.09s.79.03,1.16.06c.35.03.69.05,1.02.05,1.4,0,2.62-.48,4-2.84,2.58-4.41,3.01-9.91,1.04-13.39-1.37-2.43-3.79-3.71-7.01-3.71h-.18ZM22.97,83.15c-.12,3.89,1.61,4.65,4.48,5.91l.31.14c5.86,2.6,14.24,3.97,24.23,3.97,12.07,0,25.62-2.01,35.35-5.25l6.87-3.26-.28-.18c-2.23-1.43-4.26-2.1-6.37-2.1-1.98,0-3.81.56-5.92,1.22-1.31.41-2.66.82-4.19,1.15-8.83,1.87-18.59,2.89-27.49,2.89-6.72,0-12.79-.57-18.03-1.7-2.16-.46-4.23-1.25-6.23-2.02-.83-.32-1.66-.64-2.5-.93l-.24-.08v.25ZM92.8,75.7c-.18.44-.05.88.09,1.35.12.41.24.83.19,1.3-.06.53-.35,1.02-.62,1.49-.3.51-.58,1-.57,1.52.01.76,8.72,3.39,11.39,4.18,10.83,3.17,22.53,4.98,32.1,4.98,7.43,0,13.71-1.04,18.68-3.09,3.35-1.38,4.52-2.07,4.8-6.34l.02-.32-.28.14c-5.66,2.76-12.44,4.1-20.72,4.1-4.59,0-9.54-.4-15.58-1.26-9.72-1.39-19.56-4.13-29.25-8.15l-.17-.07-.07.17ZM27.04,75.98c-1.12,0-2.95.67-3.9,1.67-.42.45-.63.92-.61,1.39.27,3.52,15.35,5.75,15.51,5.77,3.98.49,8.15.74,12.39.74,8.69,0,18-1.05,27.67-3.11l.18-.04-.04-.18c-.25-1.17-1.31-1.34-2.2-1.35h0c-1.61,0-3.86.56-6.24,1.16-2.15.54-4.37,1.09-6.07,1.23-.77.06-1.61.09-2.57.09-1.05,0-2.1-.03-3.16-.07-1.06-.03-2.11-.07-3.16-.07-.61,0-1.22.01-1.82.04-.02-.06-.03-.14-.03-.23.06-1.45,2.79-5.58,3.56-6.22l.21-.18-.25-.13c-.3-.15-.6-.23-.89-.23-.95,0-1.68.77-2.45,1.6-.52.55-1.05,1.12-1.65,1.42-1.1.55-6.46,2.74-7.5,2.98-1.16.28-2.59.43-4.13.43-3.27,0-7.66-.71-10.17-2.69-1.66-1.31-1.68-2.65-1.69-3.3,0-.24,0-.37-.09-.46-.18-.18-.48-.28-.91-.28ZM95.11,70.85c-.7,0-1.28.63-1.75,1.92l-.03.09.06.08c1.24,1.71,13.01,5.17,13.13,5.21,10.43,3.04,21.36,4.71,30.75,4.71,4.63,0,8.94-.4,12.8-1.18,4.29-.87,7.33-2.28,9.31-4.3l.12-.12-.11-.13c-2.27-2.63-8.63-7.46-10.82-4.29-.52.75,4.72,1.74,3.96,4.55-.8,2.95-11.45,3.54-15.42,3.54-.38,0-.69,0-.93-.02h-.16c-3.97-.18-9.4-.41-10.92-4.45-.37-.98-.45-1.77-.51-2.41-.15-1.51-.33-2.19-2.98-2.59l-.21-.03v.21c-.1,4.64-1.66,6.78-5.07,6.92h-.18c-3.33,0-14.49-3.61-17.37-5.2-.48-.26-.97-.72-1.45-1.16-.76-.7-1.48-1.36-2.21-1.36ZM68.63,74.44c-1.14.65-3.92.99-6.38,1.29-1.93.23-3.59.44-4.14.76-.38.24-2.96,4.23-3.03,5.05v.09s.09.17.09.17c1.12.12,2.16.15,3.22.15,5.35,0,10.69-.93,15.85-1.82l.52-.09-.02-.18c-.16-1.19-.62-1.77-1.41-1.77-.6,0-1.3.33-2.05.68-.8.38-1.63.77-2.37.77-.39,0-.71-.11-.99-.34-.42-.34-.65-.72-.7-1.16-.11-1.01.76-2.09,1.28-2.74.33-.41.44-.56.42-.71v-.08s-.09-.08-.09-.08l-.1-.07-.1.06ZM83.84,79.24c-.91,0-2.01.79-2.44,1.77l-.14.31,4.04-.68-.06-.2c-.23-.77-.73-1.2-1.41-1.2ZM29.45,77.69c2.39,2.34,5.97,3.63,10.09,3.63,2.89,0,5.81-.65,8.22-1.84l.16-.08-.08-.17c-1.67-3.45-3.49-5.06-5.75-5.06-1.55,0-3.16.73-4.85,1.51-1.96.89-3.98,1.82-6.23,1.82-.47,0-.94-.04-1.4-.12l-.59-.11.43.42ZM156.77,69.09c-.98,0-1.99.33-2.98.64-.75.24-1.45.47-2.13.56,0,0-.85.05-.68.09,9.43,2.38,14.57,10.57,17.88,10.26l.08.03.07-.05c1.34-.9,1.04-2.3.77-3.53-.15-.7-.3-1.36-.16-1.89.76-2.93,4.62-3.2,7.17-3.38l.36-.03-.24-.28c-1.69-1.98-2.4-3.47-2.27-4.85.13-1.41,1.15-2.79,3.4-4.62l.16-.13-.14-.15c-.72-.73-1.49-1.09-2.33-1.09-1.15,0-2.26.68-3.33,1.33-1.02.62-1.99,1.21-2.93,1.21-1.64,0-3.04-1.1-4.39-2.16-.35-.28-.7-.55-1.04-.79l-.17-.12-.1.18c-.5.9-.63,1.6-.4,2.15.35.85,1.45,1.16,2.72,1.53.58.17,1.18.34,1.74.57.29.13.57.14.79.15.2,0,.87,1.11-.56,1.04-1.03-.05-2.11-.48-3.16-.94-.92-.41-1.8-.8-2.55-.8-.88,0-1.48.53-1.84,1.64-.44,1.36-.42,2.39.08,3.14.85,1.29,2.91,1.56,4.91,1.62,2.29.07,2.3.99,1.97.99-.62,0-1.27.03-1.91.07-.65.03-1.29.07-1.92.07-.88,0-1.57-.07-2.17-.21-.65-.15-1.22-.57-1.81-1.02-.73-.55-1.49-1.11-2.47-1.21-.14-.01-.28-.02-.42-.02ZM3.44,65.02c-.76,0-1.05.38-1.17.71-.51,1.44,1.58,4.7,2.53,5.48.74.61,1.98,1.01,3.3,1.44,1.9.61,3.86,1.24,4.25,2.52.23.76-.1,1.69-1.02,2.85-.1.13-.29.19-.45.32-2.52,2.04.24,1.75.3,1.74.47-.05.9-1.05,1.19-1.4.56-.66,1.16-1.18,1.55-1.98.51-1.04.6-2.17.62-3.31.02-1.51.04-2.43,1.97-2.69.99-.13,1.86-.19,2.67-.19,3.19,0,4.73,1.02,6.51,2.21,1.07.71,2.28,1.52,3.99,2.18.81.32,1.6.47,2.39.47,1.89,0,3.51-.91,5.08-1.78,1.59-.89,3.23-1.81,5.18-1.81.3,0,.61.02.93.07,1.86.27,2.92,1.76,3.86,3.07.79,1.11,1.54,2.15,2.65,2.26.09,0,.17.01.25.01,1.48,0,2.25-1.23,2.94-2.31.32-.51.62-.99.98-1.34,2.12-2.08,3.38-2.25,4.8-2.25.27,0,3.33.34,3.69.48.28.11-.25.94-1.25.83-3.62-.38-4.3.81-4.3.81-.85,1.18,6,.91,9.34.09,2.43-.55,2.71-1.65,3.69-1.66h.25s-.08-.24-.08-.24c-.33-.97-1.19-1.44-2.63-1.44-.99,0-2.11.21-3.19.41-.68.13-1.33.25-1.9.31-1.66-1.17-1.87-2.2-2.1-3.28-.14-.68-.29-1.39-.78-2.17-.59-.95-1.3-1.44-2.11-1.44-1.96,0-4.04,2.84-5.44,5.23-.15.26-.2.51-.24.71-.07.35-.09.45-.44.45-.12,0-.27-.02-.44-.05.01-2.14,1.36-3.67,2.67-5.14.47-.54.97-1.09,1.38-1.66l.21-.29h-.36c-2.99,0-5.23,1.94-7.4,3.81-.84.73-1.64,1.42-2.47,2-.1-.18-.13-.39-.09-.62.3-1.64,4.05-3.92,5.65-4.89.64-.39.87-.53.94-.62.21-.26.29-.51.24-.75-.1-.46-.66-.74-1.21-1-.33-.16-.66-.32-.79-.49-.23-.29-.45-.76-.69-1.27-.44-.93-.85-1.8-1.42-1.89-.04,0-.11-.01-.19-.01-.96,0-5.43.64-5.99,1.19-.54.52-.47,1.54-.38,2.82.16,2.31.37,5.47-2.95,7.63-1.18.77-2.55,1.16-4.08,1.16s-3.06-.37-4.62-1.07c-1.27-.56-2.43-1.89-3.46-3.07-1.09-1.24-2.02-2.31-2.94-2.4-.9,0-2.64,1.29-4.66,2.79-1.86,1.38-3.77,2.8-4.88,3.11-.08-.14-.11-.29-.08-.45.14-.97,1.98-2.26,3.6-3.4,1.46-1.03,2.72-1.92,3-2.65l.07-.18-.18-.06c-.65-.21-1.4-.26-2.12-.3-1.35-.08-2.64-.15-3.39-1.26.91.26,2.01.37,3.48.37.7,0,1.41-.03,2.11-.05.67-.02,1.33-.05,1.96-.05,1.18,0,2.04.09,2.69.28.9.27,1.64,1.35,2.36,2.39.51.74.98,1.43,1.52,1.87,1.51,1.21,3.63,1.94,5.66,1.94,1.72,0,3.17-.54,4.08-1.51.82-.88,1.19-2.06,1.1-3.52-.03-.48-.12-1.93-1.17-1.93-.8,0-1.88.88-3.03,1.81-1.16.95-2.36,1.92-3.28,2.02,1.31-1.74,2.84-3.25,4.42-4.4l.12-.09-.06-.14c-.3-.65-.93-.73-1.45-.73-.17,0-.35.01-.52.02-.15,0-.3.02-.44.02-.46-.01-.83-.02-1.2-.02-1.23,0-2.44.05-3.64.11-1.2.05-2.4.11-3.62.11-1.52,0-2.82-.08-4.08-.25-3.76-.53-7.27-3.85-10.63-4.23-.81-.09-1.26.99-1.26,1.46,0,.69.5,2.01.84,2.91.72,1.95,2.18,4.25,1.3,5.69-.46.74-2.68,1.96-5.9.37-.52-.25-.95-.6-1.48-.71-.24-.05-.45-.07-.64-.07ZM84.15,77.15c.58.03,1.39.61,2.25,1.21,1.04.73,2.11,1.49,3.02,1.49.74,0,1.28-.5,1.6-1.48.31-.95.08-1.79-.16-2.66-.39-1.42-.79-2.88,1.05-5.14,1.98-2.43,5.1-2.64,7.85-2.83,2.35-.16,4.57-.31,5.75-1.8.81-1.01,1.07-2.55.79-4.71.48.05.84.23,1.07.53.7.91.29,2.84-.01,4.26-.24,1.12-.36,1.76-.18,2.09.3.53,3.86,2.66,5.44,2.66.23,0,.42-.04.57-.13l.1-.06v-.12c-.13-.94-.66-1.73-1.18-2.5-.53-.79-1.07-1.6-1.16-2.56-.08-.88.28-1.76.58-2.46.26-.62.45-1.07.29-1.39-.28-.66-3.21-3.21-3.91-3.4-.15-.04-.31-.06-.47-.06-1.31,0-2.78,1.35-4.2,2.67-.97.89-1.88,1.73-2.63,2.04-.76.31-1.51.46-2.28.46-2.11,0-3.97-1.16-5.93-2.38-1.57-.98-3.19-1.99-4.98-2.37l-.22-.05v.22c-.02.85.13,1.61.28,2.34.2,1,.4,1.94.18,3.08-.22,1.17-.84,1.91-1.44,2.63-1.01,1.22-1.89,2.27-.17,4.75.47.66,1.03,1.04,1.58,1.41.46.3.89.59,1.2,1.02-.37.09-.71.14-1.03.14-1.91,0-2.64-1.63-3.34-3.2-.41-.92-.8-1.79-1.42-2.24-.28-.19-5.03-2.35-5.3-2.41-.73-.14-1.47-.21-2.26-.21s-1.55.07-2.28.13c-.66.06-1.29.12-1.9.12-1.56,0-3.29-.32-5.43-2.66-.94-1.03-2.64-3.24-2.3-4.21.08-.25.31-.41.67-.48.72.57,1.35,1.44,2.02,2.35,1.01,1.38,2.05,2.81,3.5,3.27.42.13.87.2,1.39.2.75,0,1.53-.13,2.34-.27.84-.15,1.71-.3,2.58-.3.33,0,.66.02,1,.07.91.14,1.75.62,2.64,1.13,1.06.61,2.15,1.23,3.36,1.23.34,0,.67-.05,1-.15,2.49-.73,1.79-4.33,1.32-6.71-.08-.4-.15-.77-.19-1.07v-.07s-.11-.09-.11-.09l-.17-.03c-.31,0-.89.29-1.98.85-1.67.85-4.19,2.15-6.01,2.15h0c-.97,0-1.62-.36-1.99-1.1-.69-1.38.15-2.46,1.03-3.61.38-.49.77-1,1.02-1.53l.14-.29-26.81,2.41.04.2c.52,2.66,3.01,3.14,5.42,3.6,1.43.27,2.77.53,3.72,1.21,1.09.78,1.71,2.32,2.25,3.68.48,1.2.89,2.24,1.56,2.58.19.1.4.15.65.15.51,0,1.1-.2,1.73-.42.77-.26,1.64-.56,2.54-.56.66,0,1.25.16,1.81.48,2.98,1.71,1.8,4.84,1.09,6.71-.31.82-.48,1.28-.3,1.52l.11.14.14-.1c.75-.53,1.43-.78,2.09-.78,1.37,0,2.39,1.14,3.29,2.15.66.74,1.24,1.38,1.88,1.55.1.03.21.04.32.04.68,0,1.42-.5,2.22-1.02.92-.61,1.95-1.3,3.02-1.3h.16ZM125.2,72.86c.95,5.67,5.82,6.82,12.65,6.79,1.18,0,2.31-.08,3.05-.13.1,0,10.42-1.06,10.35-2.87v-.07s-.05-.05-.05-.05c-1.19-1.3-2.12-1.9-2.92-1.9-.84,0-1.42.66-2.03,1.35-.58.66-1.2,1.56-2.21,1.71-4.56.71-6.77-1.36-7.99-2.53-.92-.88-1.71-1.64-2.27-1.81-1.01-.3-2.48-.32-4.04-.34-1.55-.02-3.16-.05-4.33-.36l-.27-.07.05.28ZM18.2,71.92c-.7,0-1.22.14-1.61.42-.47.34-.62,1.53-.79,2.9-.11.84-.22,1.72-.4,2.24-.1.17-.25.34-.42.54-.49.56-.81.95-.8,1.23v.08s.1.13.1.13c.23.07.38.09.51.09.34,0,.6-.11.81-.29,1-.84,1.97-1.71,3.12-2.33,0,0,5.12-2.62,5.3-2.9.86-1.3-4.66-2.11-5.82-2.11ZM109.71,75.56c1.05.24,2.11.55,3.03,1.11.64.39,1.38.59,2.18.59,2.22,0,4.75-1.63,5.41-3.49.36-1,.11-1.91-.68-2.58-.8-.67-1.5-.99-2.13-.99-.87,0-1.45.61-1.97,1.15-.27.28-.52.54-.79.71-.32.2-.73.41-1.14.58-.16.07-.34.16-.52.26-.41.22-.83.44-1.23.44-.37,0-.68-.2-.95-.63l-.06-.09h-.11c-.3.04-.85.14-1.48.26-1.08.2-2.43.46-3.19.46-.37,0-.44-.06-.44-.07-.26-.27-.33-.54-.22-.81.19-.46.92-.83,1.62-.83.27,0,.52.05.73.16l.32.16-.06-.35c-.3-1.88-3.86-2.09-5.38-2.09-1.89,0-4.2.32-4.76.9-.1.1-.15.21-.14.33.05,1.45,7.83,3.86,11.96,4.8ZM122.43,63.5c6.34,0,8.61,2.99,11.01,6.16,1.43,1.89,2.91,3.84,5.3,5.36,1.08.69,2.05,1.02,2.96,1.02,2.12,0,3.5-1.88,4.83-3.69.88-1.2,1.8-2.44,2.93-3.18.83-.54,1.72-.77,2.51-.96,1.41-.35,2.63-.65,2.2-2.77-.36-1.79-1.62-2.82-3.46-2.82-1.05,0-2.17.33-3.18.94-1.92,1.17-1.88,2.53-1.85,3.73.02.68.04,1.33-.3,1.91-.53.93-2.31,1.56-4.43,1.56-2,0-4.52-.59-5.59-2.24-.65-1-.66-2.26-.03-3.72.32-.76,1.06-1.45,1.78-2.11.46-.43.9-.83,1.24-1.26l.1-.13-.11-.12c-1.2-1.24-2.88-1.58-4.51-1.91-1.23-.25-2.51-.51-3.53-1.16-.48-.3-.75-.75-1.02-1.19-.32-.53-.65-1.07-1.33-1.28-.86-.27-1.59-.4-2.23-.4-2.31,0-2.95,1.77-3.63,3.64-.49,1.34-.99,2.73-2.11,3.78-.18.17-.51.25-.82.33-.4.1-.77.19-.94.48-.09.15-.11.34-.05.55l.02.08.08.04c.2.09.42.14.65.14,1.17,0,2.23-.78,3.49-.78ZM113.84,63.71c-.26,0-.51.03-.77.09l-.12.03-.02.12c-.15.93.07,1.45.58,2.22,1.79,2.69,11.97,4.15,16.87,4.85.55.08,1.81.27,1.81.27l-.22-.35c-2.62-4.03-5.69-5.13-10.45-5.76-.07,0-.15-.01-.22-.01-.36,0-.73.09-1.12.19-.39.1-.8.2-1.19.2-.08,0-.16,0-.23-.01-.71-.09-1.39-.46-2.11-.86-.87-.48-1.77-.99-2.8-.99ZM131.64,56.39c.38.86,1.71.98,2.88,1.08.51.05,1,.09,1.32.19,1.58.49,3.76,1.31,4.41,2.77.3.67.25,1.43-.13,2.28-.19.41-.77.96-1.39,1.54-1.09,1.02-2.22,2.08-1.92,3.01.23.71,1.23,1.16,3.15,1.39.51.06.95.09,1.34.09,2.54,0,2.63-1.34,2.73-2.75.07-1,.14-2.13,1.03-3.09.4-.43,1.44-.94,2.44-1.44,1.64-.81,3.18-1.58,3.09-2.39-.06-.5-.72-.88-2.09-1.17-2.62-.58-6.9-1.2-10.1-1.2-.26,0-.51,0-.75.01-.27-.05-.52-.07-.75-.07l-5.38-.53.13.29ZM157.17,53.19c-2.39,1.47-4.77,3.37-4.57,6.38.1,1.47.83,2.11,1.54,2.72.4.35.81.71,1.13,1.22.35.56.6,1.2.85,1.82.31.78.77,2.33,2.84,2.88.13.03.25.02.23-.12-.2-1.44.03-3.82,1.08-5.33.8-1.14,1.42-2.05,1.37-2.65-.05-.51-.67-.91-1.38-1.38-.55-.35-1.12-.72-1.37-1.12-.18-.28-.41-1.17-.64-2.03-.5-1.89-.68-2.41-1-2.41h-.08ZM111.14,58.12c2.21,1.85,4.11,3.45,5.81,3.45,1.92,0,3.31-1.97,4.52-6.39,0,0,.12-.21.06-.23-4.22-1.67-14.12-1.35-16.39-1.4-3.43-.08-7.09-.18-10.55-.18s-7.18.46-9.83.64c-3.82.26-6.49.8-7.46,5.21l-.07.33.32-.12c1.16-.44,2.18-.93,3.17-1.4,2.02-.96,3.76-1.8,5.88-1.8,1.11,0,2.26.23,3.51.71.93.36,1.98,1.08,3.09,1.85,1.75,1.21,3.57,2.46,5.17,2.46.14,0,.27,0,.4-.03,1.27-.18,2.5-1.35,3.69-2.47.83-.79,1.69-1.61,2.52-2.02,1.05-.52,1.62-.57,2.35-.66,1.15-.14,2.94,1.33,3.81,2.07ZM91.76,3.33c-35.18,0-63.82,15.05-72.96,38.34-2.63,6.7-3.08,10.77-1.45,13.21,1.39,2.07,4.36,2.99,9.62,2.99,1.47,0,3.18-.07,5.25-.21,8.85-.61,17.88-1.67,26.61-2.69,13.81-1.62,28.08-3.29,42.28-3.29,5.15,0,9.93.21,14.63.65l35.92,3.46.05-.14c.63-1.86,3.6-4.36,5.78-4.36.81,0,1.45.34,1.88,1,.23.34.39.98.56,1.66.41,1.64.97,3.88,3.04,3.88.37,0,.79-.08,1.23-.22,2.96-.98.54-12,.07-13.63C156.12,15.91,121.98,3.33,91.76,3.33Z"/>
  <path class="st0" d="M26.38,54.43c-.41,0-.8-.01-1.16-.04-.81-.06-1.56-.17-1.82-.87,5.32-.38,10.66-1.33,15.83-2.26,3.66-.65,7.45-1.33,11.19-1.8,13.54-1.68,27.56-2.53,41.67-2.53,7.32,0,14.79.23,22.19.68h.28c1.38,0,2.92.21,3.47.78-.47-.03-.95-.04-1.44-.04-.91,0-1.84.04-2.78.09-.94.04-1.88.09-2.82.09-2.02,0-39.66-.48-58.28,1.74-2.65.32-6.16,1-9.87,1.73-5.77,1.13-12.31,2.41-16.46,2.41Z"/>
  <path class="st0" d="M147.3,52.1c-.26,0-.55-.04-.79-.07-.14-.02-.26-.03-.37-.04-3.52-.28-7.89-.98-11.74-1.6l-1.6-.26c-.29-.05-.63-.09-1.01-.13-1.46-.17-3.41-.4-4.27-1.18.36,0,.71,0,1.07,0,6.6,0,13.13.98,19.4,2.92,0,.09-.02.15-.07.2-.09.11-.3.17-.62.17Z"/>
  <g>
    <path class="st0" d="M73.76,41.26c-.34,0-.72-.07-1.12-.21-.96-.33-1-1.4-.86-2.24.33-2.02,2-4.51,3.04-4.51.8.06,1.43,1.77,1.36,3.6-.03.79-.28,3.36-2.41,3.36h0ZM74.44,36.32c-.54,0-1.52,1.9-1.52,2.95,0,.27.06.48.17.63.13.18.33.26.59.26h0c.19,0,.36-.09.5-.26.57-.7.63-2.71.5-3.42-.07-.12-.15-.17-.24-.17Z"/>
    <path class="st0" d="M98.95,38.58c-.29.06-.62.08-.99.04-.88-.1-1.11-1-1.14-1.74-.09-1.78.87-4.2,1.74-4.39.69-.1,1.53,1.23,1.81,2.79.12.67.38,2.9-1.42,3.3h0ZM98.62,34.27c-.46.1-.94,1.9-.74,2.78.05.22.14.39.26.5.14.12.33.16.55.11h0c.16-.04.29-.14.37-.31.36-.7.03-2.42-.2-2.99-.09-.09-.16-.11-.23-.1Z"/>
    <path class="st0" d="M64.54,26.38c-.38,0-.72-.09-1.02-.27-.86-.54-1.2-1.21-.98-1.96.38-1.35,2.48-2.68,4.24-2.68.94,0,2.06.21,2.06,1.21,0,1.43-2.35,3.71-4.3,3.71h0ZM66.8,22.84c-1.02.07-2.3.16-2.76.83-.19.28-.23.64-.11,1.07l.02.07h.07c.17.04.34.06.5.06,1.14,0,2.09-.7,2.56-1.88l.07-.18-.35.02Z"/>
    <path class="st0" d="M101.78,16.41c-2.09,0-4.26-1.94-4.29-3.34-.02-.76.66-1.21,1.9-1.26h0c1,0,3.96.91,4.17,1.27.35.58.36,1.49.03,2.22-.27.6-.74.98-1.32,1.07-.16.03-.33.04-.49.04h0ZM100.32,13.33c-.26,0-.5.02-.67.07l-.12.03.03.12c.21.89,1.42,1.61,2.28,1.61.54,0,.87-.29.87-.77,0-.73-1.4-1.06-2.39-1.06Z"/>
    <path class="st0" d="M114.65,14.2c-1.6,0-2.94-.4-3.19-.77-.22-.33-.22-.7,0-1.11.61-1.14,2.79-2.22,4.5-2.22.85,0,1.93.26,2.23,1.47.16.62.07,1.14-.24,1.55-.53.68-1.73,1.07-3.29,1.07h0ZM112.63,12.84c.04.55,2.74.12,2.74.12,1.59.25,1.65-.38,1.59-1.12,0,0-.25-.66-.36-.73-.83-.48-4.06.36-3.97,1.73Z"/>
    <path class="st0" d="M131.8,19.26c-1.88,0-4.32-1.6-4.35-2.86-.02-.84,1.07-1.35,3.07-1.46h.16c1.04,0,2.47.58,3.05,1.55.32.54.33,1.1.04,1.68-.46.9-1.32,1.09-1.97,1.09h0ZM129.22,16.65l.16.18c.53.61,1.45,1.06,2.17,1.06.38,0,.68-.12.85-.35.2-.26.23-.63.1-1.1l-.03-.1-3.26.31Z"/>
    <path class="st0" d="M31.68,37.99c-.51,0-.94-.18-1.28-.53-.61-.62-.76-1.31-.46-2.04.63-1.51,3.06-2.81,4.61-2.81.36,0,.85.07,1.09.43.3.73.11,1.72-.54,2.71-.87,1.33-2.28,2.25-3.42,2.25h0ZM33.97,33.99c-.9,0-2.52,1.1-2.84,1.93-.13.35-.01.57.12.68.19.17.4.25.64.25,1.05,0,2.33-1.69,2.48-2.67v-.09s-.07-.04-.07-.04c-.09-.04-.21-.06-.33-.06Z"/>
    <path class="st0" d="M124.75,37.99c-.9,0-2.06-.83-2.96-2.11-.88-1.25-1.26-2.61-.97-3.45.2,0,.5-.05.83-.05,1.9,0,4.14,1.4,4.7,2.94.31.86.06,1.67-.72,2.34-.25.22-.55.33-.88.33h0ZM123.07,33.84c-.25,0-.48.07-.68.22-.1.07-.05.22-.03.28.16.51,1.28,2.44,2.12,2.44.16,0,.3-.06.41-.19.28-.31.31-.78.08-1.29-.31-.72-1.11-1.46-1.9-1.46Z"/>
    <path class="st0" d="M58.64,17.05c-1.44,0-2.12-.8-2.16-1.6-.06-1.18,1.15-2.58,3.96-2.89.22-.02.43-.03.61-.03.69,0,1.55.16,1.66.93.16,1.09-1.28,2.94-2.61,3.36-.52.16-1.01.24-1.46.24h0ZM60.49,13.85c-1.01,0-2.27.66-2.54,1.32-.12.28-.06.55.17.78.08.08.19.12.34.12.8,0,2.64-1.24,2.81-1.77.05-.17-.04-.26-.08-.29-.2-.11-.43-.16-.71-.16Z"/>
    <path class="st0" d="M74.74,13.42c-1.54,0-2.89-.41-3.01-.92-.23-1-.15-1.76.26-2.28.5-.64,1.41-.77,2.08-.77,1.65,0,3.5.77,3.8,1.26.37.61.43,1.14.19,1.56-.47.85-2.02,1.15-3.32,1.15h0ZM74.23,10.6c-.96,0-1.54.42-1.54,1.13v.08s.07.03.07.03c.55.29,1.56.51,2.3.51.59,0,.95-.13,1.07-.39.11-.23,0-.53-.29-.89-.22-.26-.93-.47-1.59-.47Z"/>
    <path class="st0" d="M53,36.61c-.99,1.19-2.17,1.97-2.63,1.74-.91-.46-1.43-1.02-1.56-1.66-.16-.8.32-1.58.75-2.1,1.06-1.28,2.84-2.22,3.39-2.13.7.11,1.14.4,1.31.85.34.91-.43,2.3-1.26,3.31h0ZM50.53,35.2c-.62.74-.67,1.46-.14,1.92l.06.05.07-.03c.57-.24,1.39-.87,1.87-1.45.38-.45.51-.82.39-1.08-.11-.23-.4-.35-.86-.34-.34,0-.95.42-1.38.93Z"/>
    <path class="st0" d="M145.81,38.29c-.86,0-1.42-.68-1.73-1.25-.87-1.58-.97-4.21-.42-5.1.19-.31.45-.47.76-.47.96,0,2.35,1.45,2.97,3.09.54,1.43.38,2.66-.42,3.39-.4.22-.79.34-1.16.34h0ZM145.16,37.27l.14-.06c.8-.32,1.24-.85,1.25-1.5,0-.86-.76-1.82-1.83-2.27l-.2-.09.65,3.91Z"/>
    <path class="st0" d="M130.33,28.75c-.85,0-1.7-.42-2.37-1.18-.92-1.04-1.42-2.57-1.29-3.93.23-.08.5-.12.8-.12,1.73,0,3.96,1.31,4.69,2.75.36.71.33,1.37-.1,1.96-.55.34-1.14.53-1.72.53h0ZM128.91,24.99c-.25,0-.48.07-.68.22-.1.07-.05.22-.03.28.16.51,1.28,2.44,2.12,2.44.16,0,.3-.06.41-.19.28-.31.31-.78.08-1.3-.31-.72-1.11-1.46-1.9-1.46Z"/>
    <path class="st0" d="M109.15,28.25c-.71.02-1.43-.32-2.01-.95-.79-.85-1.24-2.13-1.16-3.27.19-.07.42-.11.67-.11,1.45-.03,3.34,1.02,3.98,2.21.31.59.3,1.14-.04,1.64-.45.3-.94.47-1.43.48h0ZM107.89,25.13c-.21,0-.4.07-.57.2-.08.06-.04.18-.02.24.14.42,1.12,2.02,1.83,2.01.13,0,.25-.06.34-.17.23-.26.24-.66.05-1.09-.28-.59-.96-1.2-1.62-1.19Z"/>
    <path class="st0" d="M87.87,10.5c-1.22,0-2.04-.56-2.18-1.51-.12-.86.39-1.97,1.58-2.33.73-.22,1.42-.33,2.05-.33,1.67,0,2.54.77,2.66,1.53.14.92-.74,1.83-2.23,2.3-.69.22-1.32.33-1.88.33h0ZM89.49,7.43c-.28,0-2.76.03-2.77,1.06,0,.55.39.86,1.08.86,1,0,2.59-.74,2.66-1.72v-.11s-.1-.02-.1-.02c-.21-.04-.52-.07-.87-.07Z"/>
    <path class="st0" d="M85.7,32.58c-1.25,0-2.17-1.7-2.29-3.27-.09-1.16.24-2.47,1.47-2.67.06,0,.11-.01.16-.01.9,0,1.61,1.24,1.94,2.3.39,1.27.43,2.82-.27,3.3-.34.23-.68.35-1.01.35h0ZM85.3,28.15c-.66.48-.97.98-.91,1.45.06.46.49.85,1.23,1.13l.19.07-.34-2.77-.17.12Z"/>
    <path class="st0" d="M91.45,24.1c-1.43,0-2.1-1.49-2.24-2.88-.15-1.45.24-2.74.87-2.88h0c1.12,0,2.78,2.2,3.04,3.86.1.64.03,1.46-.86,1.75-.29.09-.56.14-.82.14h0ZM90.22,19.97c-.13.9-.14,2.13,1.25,2.5l.13.03.02-.14c.13-.89.14-2.11-1.24-2.5l-.13-.04-.02.14Z"/>
    <path class="st0" d="M145.55,26.46c-1.88,0-3.23-.96-3.69-2.64.56-.67,1.46-1.12,2.45-1.12,1.05,0,2.03.5,2.51,1.27.3.48.54,1.29,0,2.4-.38.04-.84.09-1.28.09h0ZM144.09,23.96c-.2,0-.41.02-.62.05-.16.07-.23.18-.2.31.1.47,1.58,1.13,2.31,1.13.11,0,.2-.01.28-.04l.11-.03-.03-.11c-.21-.86-.85-1.31-1.86-1.31Z"/>
    <path class="st0" d="M40.44,23.02c1.19-1.48,2.78-1.93,4.36-1.23.16.86-.06,1.85-.69,2.63-.66.82-1.66,1.28-2.56,1.16-.56-.07-1.33-.39-1.85-1.51.21-.32.46-.71.74-1.06h0ZM43.27,23.45c.13-.16.24-.33.35-.52.05-.17,0-.29-.11-.35-.42-.21-1.87.53-2.33,1.1-.07.08-.12.17-.15.24l-.04.11.11.05c.79.37,1.54.16,2.18-.63Z"/>
  </g>
  <path class="st0" d="M111.18,150.96c2.03-.23,4.25-.43,6.58-.65,13.89-1.3,31.17-2.91,40.49-11.54.56-.52,1.02-1.19,1.46-1.84.61-.9,1.24-1.83,2.18-2.38-1.89,5.56-7.78,9.68-17.98,12.6-12.25,3.5-26.19,4.3-36.28,4.51l3.57-.7Z"/>
  <path class="st0" d="M74.63,151.8c-8.25.54-42.81-3.78-50.17-12.72-.15-.19-.33-.34-.5-.5-.37-.33-.68-.6-.67-1.11l4.21,2.38c2.39,1.68,4.95,3.11,7.68,4.11,11.99,4.4,24.56,5.73,37.12,6.71l2.82.22h.61c.31-.02.61-.02.92-.02.64,0,1.13.03,1.59.09l2.69.67h-.2c-1,0-2.01.04-3.03.09-1.02.04-2.05.09-3.07.09Z"/>
  <path class="st0" d="M144.03,109.61c-2.95-1.06-4.52-3.98-6.03-6.82-.92-1.72-1.87-3.49-3.12-4.85-.44-.47-1.01-.75-1.51-1-.76-.37-1.37-.67-1.38-1.46,3.95,1.19,5.97,4.68,8.11,8.37,1.17,2.02,2.37,4.09,3.92,5.76Z"/>
  <path class="st0" d="M47.41,111.87c-.48-.42-.97-.84-1.46-1.26-3.67-3.16-7.47-6.43-9.08-11.11-.03-.08-.08-.19-.14-.33-.17-.35-.48-1.01-.33-1.26.05-.08.17-.12.35-.12.49.09,1.94,2.61,2.8,4.11.66,1.15,1.24,2.15,1.57,2.58.69.89,1.63,1.73,2.53,2.54,1.62,1.45,3.28,2.95,3.75,4.83Z"/>
  <path class="st0" d="M59.11,105.04c2.01-3.84,6.4-6.84,10.63-7.23.06.36.06.6-.01.71-.06.08-.18.11-.38.15-.2.04-.45.09-.7.24-.62.37-1.29.68-1.95.98-.78.36-1.6.73-2.33,1.21-.27.17-.85.64-1.59,1.23-1.13.91-2.94,2.36-3.66,2.7Z"/>
  <path class="st0" d="M53.05,133.27l.08-3.57c.39.25.65,1.38.72,2.51.23,2.78.19,6.05-2.11,7.01l1.3-5.95Z"/>
  <path class="st0" d="M98.58,103.41c-.4,0-.51-.26-.68-.72-.14-.4-.32-.89-.87-1.05-1.56-.47-4.46-.86-6.35-.86-.29,0-.56,0-.8.03-.13.01-.26.02-.37.02-.65,0-.8-.17-.83-.23-.05-.09,0-.23.05-.32.33-.58,1.65-1.39,3.04-1.39.77.01,6.29,1.7,6.65,2.03.56.7.54,1.61.48,2.44-.13.03-.24.05-.34.05Z"/>
  <path class="st0" d="M126.26,107.03c-.78-.01-1.13-3.72-2.21-4.52-.82-.59-6.3-.8-3.18-2.11,4.72-1.98,8.2,6.71,5.39,6.64Z"/>
  <path class="st0" d="M107.29,109.47c-.18,0-.34-.07-.48-.2-.09-.11.13-.79.26-1.2.22-.69.46-1.4.32-1.87-.05-.17-.28-.35-.91-.85-.69-.54-1.96-1.55-1.85-1.98.04-.13.25-.23.62-.28h0c.93,0,3.86,1.81,4.09,2.65.26.94-.18,2.09-.73,2.82-.43.57-.93.91-1.34.91Z"/>
  <path class="st0" d="M68.49,117.41c-1.82,0-4.99-1.27-5.47-2.82-.19-.61.06-1.21.74-1.79-.02.29.03.57.16.83.53,1.09,2.23,1.64,3.73,2.14.95.31,2.04.67,2.05,1.01,0,.14-.03.25-.12.34-.18.19-.56.29-1.08.29Z"/>
  <path class="st0" d="M84.72,118.16c-1.48,0-2.62-.56-2.97-1.45-.05-.13-.1-.31-.04-.41.06-.09.24-.14.51-.14.49,0,1.18.16,1.78.3.51.12.95.22,1.23.22.66-.06,1.19-.34,1.7-.61.57-.3,1.15-.61,1.78-.61.08,0,.16,0,.24.02-.19,1.69-2.27,2.69-4.25,2.69Z"/>
  <path class="st0" d="M81.74,112.78c-1.41,0-3.5-.7-4.39-1.75-.75-.89-1.01-2.04-.78-2.55.08-.19.23-.28.43-.28.22,0,.52.11.85.31.04.04.12.25.18.4.16.4.37.96.76,1.24.35.26.81.45,1.25.63,1,.41,1.95.8,1.94,1.99-.08,0-.16,0-.24,0Z"/>
  <path class="st0" d="M133.74,115.48c-1.15,0-2.05-.27-2.52-.77-.22-.23-.35-.52-.39-.85.32.13.71.2,1.18.2,1.17,0,2.6-.42,3.45-.68.32-.09.65-.19.73-.19.15.02.47.36.66.79.12.28.15.53.07.63-.3.41-1.68.88-3.18.88Z"/>
  <path class="st0" d="M114.83,115.79c-.9,0-1.71-.32-1.88-.74-.09-.23,0-.49.3-.78-.01.02.11.02.23.02.03,0,.06,0,.09,0,.53,0,1.41,0,1.97-.28.58-.3.79-.82.97-1.28.21-.55.35-.83.82-.83.08,0,.18,0,.28.03.02,1.55-.21,2.65-.67,3.11-.48.48-1.25.75-2.11.75Z"/>
  <path class="st0" d="M71.18,107.32c-.17-.88.12-1.51.41-1.89.51-.68,1.41-1.12,2.29-1.12,1.17,0,1.98.69,2.2,1.86-.64-.23-1.18-.35-1.69-.35-1.19,0-2.11.65-3.22,1.49Z"/>
  <path class="st0" d="M88.9,68.25c.79-2.69,2.67-4,5.73-4,1.87,0,3.93.48,5.9,1.02-.48.56-1.11.81-1.98.81-.59,0-1.24-.11-1.92-.23-.77-.13-1.56-.27-2.37-.27-.43,0-.82.04-1.2.12-1.3.27-2.31,1.09-3.29,1.88-.29.23-.58.47-.87.68Z"/>
  <path class="st0" d="M30.05,104.96c-.26,0-.61-.04-1.05-.12-2-.36-2.39-1.6-2.8-2.91-.48-1.52-.97-3.1-3.91-3.33-.01-.03,0-.09,0-.12.03-.25.5-.61.68-.67.55-.15,1.05-.23,1.49-.23,2.05,0,2.5,1.63,2.94,3.2.17.6.33,1.17.58,1.61.05.09.2.21.63.54.5.39,2.03,1.58,1.92,1.92,0,0-.04.11-.47.11Z"/>
  <path class="st0" d="M24.2,112.03c-1.79,0-4.28-2.66-4.53-4.82-.09-.81.11-1.85,1.55-2.28,0,.15-.01.31-.02.46-.05,1.12-.1,2.18.6,3.29.37.59,1.35,1.01,2.29,1.41.8.34,1.71.73,1.71,1.07,0,.11-.12.36-.94.74-.2.09-.42.14-.66.14Z"/>
  <path class="st0" d="M36.73,115.76c-1.82,0-4.33-.51-5.41-1.96-.49-.65-.63-1.44-.44-2.33.45.32.89.68,1.31,1.03,1.24,1.02,2.52,2.08,4.14,2.08h0c.41,0,.83-.07,1.26-.2v1.34c-.27.02-.56.04-.85.04Z"/>
  <path class="st0" d="M157.09,110.99c-.04-.99.61-1.18,1.64-1.41.56-.12,1.15-.25,1.54-.62.52-.47.71-1.48.83-2.09.03-.14.06-.29.07-.33.13-.08.29-.15.43-.15.3,0,.47.32.54.5.31.79.2,2.4-.82,3.4-.65.62-1.98.7-3.07.7h-1.16Z"/>
  <path class="st0" d="M162.51,102.68c.46-1.27-.65-3.51-1.4-5.03-.24-.48-.51-1.03-.51-1.16.12-.07.3-.15.51-.15,1.16,0,2.75,2.4,2.84,4.28.04.81-.19,1.8-1.43,2.06Z"/>
  <path class="st0" d="M37.89,79.12c-.54,0-.91-.26-1.11-.76-.12-.31-.1-.59.08-.86.69-1.04,3.39-1.58,4.2-1.58.1,0,.13,0,.13,0,.15.18.17.48,0,.86-.43,1.02-2.07,2.33-3.3,2.33Z"/>
  <path class="st0" d="M41.97,80.36c-.22-.64-.12-1.38.32-2.03.46-.68,1.24-1.13,1.92-1.13.41,0,.76.17,1,.48.03.04.11.15-.02.42-.45.93-2.56,2.27-3.18,2.27h-.04Z"/>
  <path class="st0" d="M133.14,77.51c-.67,0-1.87-.79-2.51-1.66-.32-.43-.46-.82-.41-1.12.17-.08.35-.12.56-.12,1.07,0,2.37,1.05,2.73,1.92.16.38.13.67-.07.88-.06.06-.16.09-.29.09Z"/>
  <path class="st0" d="M113.25,75.56c-.23-.97.16-1.24.72-1.63.33-.23.69-.48.98-.91.82.16,1.28.43,1.28.76-.01.65-1.52,1.54-2.98,1.78Z"/>
</svg>