<?xml version="1.0" encoding="UTF-8"?>
<svg id="Layer_1" xmlns="http://www.w3.org/2000/svg" version="1.1" viewBox="0 0 180.48 158.86">
  <!-- Generator: Adobe Illustrator 29.4.0, SVG Export Plug-In . SVG Version: 2.1.0 Build 152)  -->
  <defs>
    <style>
      .st0 {
        fill: #003677;
      }
    </style>
  </defs>
  <path class="st0" d="M87.74,158.61c-.62,0-1.25-.06-1.76-.1l-.37-.03c-10.21-.87-19.85-3.72-29.17-6.48-1.53-.46-3.06-.91-4.59-1.36-8.01-2.31-19.78-5.89-29.42-10.28-4.15-1.88-6.82-3.67-9.07-7.74l-.25-.45c-.82-1.45-1.59-2.83-1.7-4.48-.06,0-.11,0-.17,0-1.47,0-2.75-.56-3.73-1.63-1.25-1.38-1.78-3.4-1.42-5.42.04-.24.57-1.35.89-1.88-.1-.1-.23-.22-.36-.33l-.08-.07c-.35-.31-.71-.64-.87-.87-1.21-1.85-2.18-3.87-2.97-6.19-.05-.16-.13-.37-.22-.62-.54-1.5-1.68-4.62-1.83-7.88-.08-1.65.72-2.43,1.56-3.26l.3-.3c.62-.62,1.23-1.26,1.83-1.9l.17-.17c.93-.98,1.89-2,2.91-2.94,3.16-2.85,6.51-5.08,10.06-7.45l.51-.34c1.44-.96,2.93-1.95,4.39-2.99,1.39-1,2.73-2.01,3.99-3.01,2.83-2.24,9.14-7.76,11.84-10.12l1.03-.9c2.71-2.36,4.65-4,6.48-5.47.85-.68,1.75-1.31,2.61-1.93.71-.5,1.42-1.01,2.11-1.54.08-.06.18-.13.28-.2.51-.35,1.14-.79.93-1.36-.21-.54-1.13-1.05-1.71-1.18-3.55-.79-7.22-1.35-10.78-1.89l-2.27-.34-1.19-.19c-1.71-.29-3.25-.53-4.81-.6h-.31c-1.92-.09-3.88-.18-5.59-1.15-2-1.15-2.62-4.02-2.95-6.4-.38-2.98-.1-5.58.83-7.73l.17-.39c.6-1.33.81-1.77-.39-2.7-2.32-1.78-2.98-4.69-3.29-7.03-.43-3.21-.1-7.93,2.27-10.68.62-.72,1.41-1.3,2.49-1.84,4.46-2.28,9.43-3.63,14.23-4.93l1.6-.44c3.9-1.07,7.85-2.06,11.57-2.98l.98-.24c1.39-.35,2.79-.69,4.19-1.05,1.7-.43,3.42-.89,5.15-1.34l.59-.16c9.23-2.44,18.77-4.97,28.56-4.97,3.73,0,7.21.36,10.64,1.09,5.11,1.08,9.98,2.91,15.13,4.85,3.69,1.39,7.48,2.82,11.38,3.95,4.07,1.19,8.64,2.09,13.05,2.97l.79.16c2.77.55,5.64,1.12,8.3,1.77.64.15,1.31.31,2.01.47l.97.22c7.1,1.64,15.91,3.69,21.22,7.68,1.25.95,2.12,2.45,2.89,3.77l.08.14c.54.96.7,2.05.85,3.11.1.73.19,1.39.38,2.01.37,1.22.22,2.45.07,3.65l-.04.37c-.04.32-.08.65-.1.97l-.06,1.1c-.07,1.38-.14,2.76-.46,4.13-.11.51-.27,1.02-.42,1.52l-.2.65c-.04.11-.11.3-.19.51-.15.38-.53,1.31-.5,1.47.22.36.54.77.85,1.16l.21.27c.13.16.25.32.36.47.98,1.31,1.47,2.15,1.83,3.69.15.68.34,1.53.05,2.3-.14.38-.38.7-.61,1.01-.23.3-.44.57-.57.87-.31.63-.5,1.39-.56,2.26-.04.55,0,1.17.07,1.87.1,1.24.21,2.46-.21,3.46-.82,2.01-1.9,4.31-3.68,6.13-1.69,1.72-3.75,3.05-5.55,4.12-.69.41-1.63.6-2.88.6h0c-.67,0-1.35-.06-1.94-.11-5.59-.54-11.38-1.72-16.97-2.86l-.11-.02c-.9-.18-1.81-.37-2.7-.54-1.05-.21-2.09-.5-3.1-.78l-.1-.13-.03.1c-.89-.25-1.8-.5-2.71-.7,0,0-.54-.11-.75-.16-.26-.06-.54-.12-.83-.19-1.19-.27-2.53-.59-3.67-.59-.42,0-.78.04-1.08.13-1.35.39-3.17,2.12-3.84,2.89-4.93,5.73-9.24,13.49-11.99,19-1.91,3.83-3.63,8.01-5.14,11.7-3.39,8.21-6.88,16.68-12.72,23.58-1.41,1.67-3.01,3.07-4.43,4.3l-.32.28c-.81.71-1.64,1.45-2.42,2.22l.03.25s0,0,0,0c.01,0,.08.16.17.36.17.39.45,1.05.55,1.18l.14.18c.32.43.53.71.6.9.29.77.42,1.7.39,2.78-.04.98-.56,1.69-1.05,2.38-.43.58-.85,1.14-.94,1.8-.15,1.02.28,2.56.65,3.92.19.67.36,1.27.47,1.8l-.08.13.1-.02c.51,2.52,1.2,5.98-.9,8.12-1.11,1.13-2.58,1.26-3.58,1.26ZM56.13,149.96l.27.08c3.54,1.1,12.26,3.78,16.68,4.83,2.8.68,5.59,1.19,8.07,1.5l.79.1c1.51.19,3.79.48,5.24.48.49,0,.85-.03,1.05-.1h.17s.03-.13.03-.13c.13-.67-.1-1.72-.29-2.22l-.04-.1c-.06-.15-.12-.3-.17-.47-.15-.48-.34-.95-.52-1.41-.31-.79-.58-1.48-.75-2.2-.11-.47-.16-.95-.21-1.41l-.02-.22c-.13-1.34-.26-2.72-1.5-3.63-.95-.7-2.21-.88-3.32-1.04-.45-.06-.87-.12-1.26-.21l-1.47-.34c-2.85-.64-5.79-1.31-8.66-1.63-.37-.04-.77-.06-1.2-.06-1.1,0-3.87.17-5.78,1.75-.91.74-1.82,1.54-2.69,2.31l-.12.1c-.41.36-.81.71-1.21,1.07-.24.21-.45.39-.64.57-.72.67-2.15,1.76-3.49,2.14.27.07.65.16,1.01.23ZM86.73,144.28c.32.43.86,1.19.94,1.42.36,1,.51,2.19.67,3.45.17,1.29.35,2.7.78,3.89.42,1.14,1.08,2.56,1.28,2.62.08-.14.03-1.48,0-2.29-.02-.48-.03-.91-.02-1.12.04-.71.08-1.51,0-2.22-.11-.87-.52-2.06-.88-3.11l-.06-.18c-.2-.6-.39-1.16-.51-1.63-.05-.15-.02-.38,0-.59.02-.2.03-.41,0-.61l-.02-.15-2.33.29.15.22ZM28.8,140.58c.16.28.61.88,1.77,1.31.68.25,1.47.56,2.33.9,2.45.97,5.51,2.17,8.02,2.8.32.08.98.29,1.81.56,2.2.71,5.48,1.77,7.25,1.95-.12-.13-.36-.34-.57-.52-1.96-2.16-3.42-4.86-4.96-7.73l-.75-1.39c-1.22-2.3-2.61-4.9-5.4-5.47-.26-.06-.52-.09-.77-.09-1.85,0-3.06,1.56-4.13,2.94l-.2.26c-1.91,2.52-3.45,4.45-4.41,4.48ZM38.11,131.23c1.96,0,3.75.86,4.8,2.29,1.03,1.42,1.92,3.4,2.63,4.99l.06.14c.66,1.46,1.34,2.97,2.12,4.16,2.21,3.41,4.35,5.07,6.54,5.07.47,0,.95-.06,1.42-.19,1.53-.4,2.88-1.93,3.95-3.16l.45-.51c.45-.49.93-1.01,1.42-1.46,1.64-1.52,3.52-2.05,6-2.42.18-.03.36-.04.55-.04.46,0,.93.07,1.39.15.14.02,11.14,1.85,11.61,1.93,1.29.18,3.06.43,4.73.43,2.06,0,3.55-.38,4.41-1.14.92-.8,1.14-2.04.66-3.66-.04-.14-.85-1.75-.98-1.99-.33-.59-.81-1.1-1.27-1.6-.59-.63-1.2-1.28-1.48-2.1-.22-.62-.21-1.27-.2-1.96.03-1.09.06-2.13-.64-3.03-.48-.63-1.01-1.14-1.52-1.63-1.26-1.2-2.35-2.23-2.12-4.45.06-.55.13-1,.2-1.41.26-1.58.38-2.38-1.08-4.16-.08-.1-.17-.2-.25-.3l-.13-.15c-.47-.54-.95-1.09-1.11-1.77-.12-.5,0-.92.14-1.37.15-.49.31-1.04.12-1.67-.24-.79-.75-1.33-1.2-1.8-.53-.57-1.02-1.1-1.18-1.96-.14-.68-.03-1.39.07-2.07.09-.64.2-1.36.08-2.05-.18-.99-.67-1.48-1.3-2.09l-.55-.56c0,.33-.07.87-.2,1.63-.04.21-.06.37-.07.45-.1,1.13.21,2.14.54,3.21.08.26.16.53.24.8.25.88,1.03,3.59,1.03,3.59.66,2.29,1.34,4.65,1.97,7,.62,2.33,1.37,4.68,2.02,6.76l.13.41c.78,2.48,1.59,5.04,2.18,7.5.06.28.15.63.25.99l.13.51c.26.99.52,1.93.57,2.4.37,2.59.06,4.19-2.61,4.68-.61.11-1.25.17-1.99.17-1.08,0-2.18-.12-3.15-.23-.5-.06-.99-.11-1.48-.15-3.42-.28-6.99-1.18-10.45-2.06l-.18-.05c-1.12-.3-2.24-.57-3.31-.82-1.09-.25-2.2-.51-3.3-.75-5.33-1.18-10.84-2.39-15.93-5.1-3.07-1.63-7.11-2.17-11.02-2.69-1.73-.22-3.37-.44-4.91-.76-4.91-.96-10.17-2.88-15.21-5.55-.04-.02-.12-.07-.22-.14-.52-.34-1.75-1.14-2.76-1.14-.14,0-.27.01-.39.04-.32.08-.59.34-.83.78-.45.84-.19,2.69.46,3.35.67.68,1.61,1.47,2.9,1.59.14.01.28.02.41.02.67,0,1.33-.14,1.97-.27.66-.14,1.34-.27,2.04-.27.15,0,.29,0,.44.02,2.23.2,3.55,1.18,4.03,3,.81,3.07,2.62,8.37,5.74,9.77.56.25,1.15.38,1.74.38.76,0,1.55-.21,2.33-.63.87-.45,1.58-1.52,2.21-2.45.29-.44.57-.85.85-1.19,1.21-1.44,2.3-2.74,4.11-3.09.45-.09.9-.13,1.35-.13ZM12.91,127.35c-.23,2.33,2.72,6.99,5.01,8.67.72.53,3.19,2.28,4.87,2.78.33.1.67.15.94.15.34,0,.44-.08.45-.1,0,0,0-.04-.07-.1-2.4-2.14-3.94-5.81-5.07-8.49-.31-.73-.58-1.38-.83-1.89-.47-.98-1.37-1.43-2.82-1.43-.63,0-1.26.08-1.83.16l-.7.08.04.17ZM36.75,117.3c.35,0,.75.43,1,1.06.23.6.37,1.23.5,1.85.06.29.12.57.2.86.07.27.13.5.16.61,1.74,6.04,6.31,8.24,10.54,9.6,2.06.66,4.19,1.2,6.25,1.72l1.29.33c.66.17,1.31.33,1.97.5l1.23.33c5.84,1.55,11.86,3.15,18.04,3.59.09,0,.22.02.39.03,1.23.11,2.13.16,2.83.16,1.01,0,1.65-.11,1.89-.33l.15-.03-.08-.06c1.15-1.79-.44-5.35-1.3-7.26-.16-.33-.28-.59-.36-.81-.9-2.18-2.13-2.9-4.55-3.7-1.32-.43-2.75-.59-4.01-.74-.7-.08-1.44-.17-2.14-.3-4.9-.85-17.38-3.26-27.42-7.32-1.02-.42-2.16-1-3.14-1.52-2.07-1.08-4.18-2.17-6.05-2.4-1.67-.21-3.38-.27-5.28-.33-2.28-.07-4.87-.14-7.23-.64-3.4-.73-6.92-2.02-10.47-3.86-.24-.12-.6-.29-1.05-.51-.99-.48-2.53-1.21-3.84-1.98l-.24-.14c-.8-.46-2.47-1.42-3.02-2.04-.22-.25-.33-.28-.37-.28-.14.15-.29.74.34,3.57l.02.11c.34,1.57.97,3.07,1.58,4.53,1.18,2.84,2.41,5.03,4.65,6.74,2.14,1.65,8.13,3.86,11.34,4.92,2.95.96,6.15,1.71,10.38,2.43.66.11,1.34.2,2,.3l.29.04c.89.12,1.91.27,2.89.46.24.04.56.16.9.29.56.21,1.21.46,1.74.46.17,0,.33-.03.45-.08l.09-.05v-.04c.03-.13-.08-.43-.86-2.03-.27-.55-.45-.91-.48-1.03-.51-1.57-.95-3.21-1.38-4.89l-.18-.69c-.16-.59-.16-1.03.01-1.26.08-.1.18-.16.31-.16ZM72.48,67.44c-1.27,1.22-.35,7.01.27,9.47l.07.26c.11.44.21.84.27,1.16l.27,1.36c.45,2.23.92,4.54.52,6.76-.32,1.84.43,3.53,1.15,5.16.12.26.22.49.32.73.3.69.51,1.43.71,2.15l.04.15c.26.97.53,1.92.97,2.78.17.32.46.62.74.9.19.2.38.39.52.58.55.75,1.11,1.53,1.29,2.67.1.65.09,1.37.08,2,0,.83-.02,1.69.19,2.47.19.77.7,1.32,1.2,1.85.44.48.83.9,1.04,1.43.26.68.25,1.4.24,2.17-.02.68-.04,1.5.23,2.27.18.52.5.97.81,1.4.42.59.79,1.11.92,1.78.19,1.01.11,1.96.03,2.8-.14,1.54-.27,2.99,1.11,4.57.36.4.71.77,1.03,1.09l.17.17c1.45,1.46,2.41,2.43,2.06,5-.13.96.02,1.6.43,1.85.09.06.24.13.45.13.34,0,.74-.16,1.19-.48,7.28-5.13,11.83-13.71,14.98-20.6,1.27-2.81,2.55-5.78,3.73-8.57,1.54-3.62,3.14-7.37,4.88-11.03,2.03-4.26,3.88-7.66,5.82-10.71,7.04-11.09,14.28-17.67,22.78-20.72l9.97-2.97v-.1c.04-.31-.32-.64-5.2-1.67l-.52-.11c-1.56-.37-2.59-.97-3.55-2.07-.19-.21-.36-.42-.53-.64-.61-.78-1.15-1.47-2.22-1.78-.59-.18-1.23-.26-2.09-.26-.36,0-.72.01-1.08.03-.32,0-.64.02-.97.02-.37,0-.73-.01-1.08-.05-.32-.03-.85-.18-1.48-.35l-.12-.03c-1.2-.33-2.84-.78-4.17-.78s-2.14.44-2.44,1.35c-.23.75-1.19,1.3-2.03,1.78-.34.19-.69.39-.96.59-4.33,3.11-7.88,7.29-10.27,12.1l-.3.6c-.55,1.11-1.11,2.25-1.91,3.15l-.17-.1c2.52-7.06,7.24-13.3,13.3-17.57.17-.12.26-.33.24-.55-.03-.2-.16-.37-.36-.45-.85-.3-1.68-.72-2.47-1.13l-.09-.05c-1.53-.78-3.11-1.59-4.89-1.59-.68,0-1.34.11-2.01.35-1.23.43-2.27.63-3.27.63-1.31,0-2.53-.34-3.95-.86-1.5-.56-2.43-.77-3.4-.77-.61,0-1.27.08-2.2.26-.5.1-1.04.15-1.6.15-1.51,0-2.95-.37-3.91-.65-1.42-.4-2.71-1.14-3.96-1.85-1.9-1.08-3.87-2.2-6.26-2.2h-.13c-.68.01-1.3.31-1.9.6-.48.24-.89.42-1.3.52-.47.1-.95.15-1.49.15-1.28,0-2.57-.29-3.82-.58-1.26-.29-2.56-.59-3.85-.59h-.18c-.51.01-.76.14-1.05.32l-.1.05c-.12.07-.25.14-.42.21-.22.09-.49.13-.84.13-.2,0-.39-.01-.59-.02h-.1c-.96-.1-1.84-.34-2.68-.57l-.51-.13c-1.13-.3-2.24-.68-3.32-1.04l-.28-.1c-.78-.27-1.58-.54-2.37-.77-.69-.19-1.37-.48-1.96-.74-1.18-.49-2.36-.99-3.64-.99-.45,0-.88.06-1.31.18-.37.1-.73.22-1.1.35-.59.19-1.12.37-1.64.48-.41.08-.82.12-1.24.12-1.21,0-2.33-.34-3.41-.66-.28-.08-.56-.17-.84-.25-.35-.1-.72-.14-1.08-.19-.39-.05-.79-.1-1.17-.21-.21-.06-.41-.14-.62-.22-.46-.18-.89-.34-1.37-.34-.64,0-2.09.08-2.58.1.4.68.4.68.4.72.5.53,1.12,1.06,1.72,1.58l.08.07c.67.56,1.42,1.2,2.03,1.95,1.37,1.73,2.43,3.83,3.45,5.87,1.95,3.87,3.96,7.88,8.15,9.54,1.14.45,2.53.71,3.83.71,1.4,0,2.66-.29,3.62-.85.92-.52,1.7-1.25,2.46-1.95.79-.73,1.57-1.44,2.46-1.95,2.15-1.23,4.4-1.88,6.5-1.88h.24c3.06.03,6.57,2.12,8.17,4.85,1.47,2.5,2.24,5.77,2.12,8.95-.15,3.85-1.05,7.4-2.84,11.17-1.04,2.18-3.22,5.42-4.98,5.42-.72-.01-1.33-.56-1.81-1.62-.79-1.68-1.59-4.47-1.75-6.09-.03-.28-.04-.59-.06-.92v-.28c-.06-1.27-.73-5.75-1.23-6.54l-.09-.15-.13.13ZM54.61,59.86c-.33,0-.63.04-.93.12-.82.21-1.53.76-2.1,1.2-4.06,3.11-7.98,6.56-11.76,9.89l-.39.34c-4.14,3.66-8.83,7.82-13.67,11.39-2.05,1.51-4.21,2.99-6.06,4.25-5.09,3.48-10.33,7.07-14.59,11.69-.57.63-1.14,1.33-1.2,2.19-.11,1.48,1.28,2.54,2.33,3.21,6.79,4.28,14.59,6.81,22.56,7.33.36.03.72.04,1.08.06l.57.03c1.62.08,3.46.16,5.2.55,2.27.52,4.42,1.58,6.5,2.6l.43.21c.6.29,1.19.59,1.8.87,5.15,2.39,10.59,3.82,17.16,5.23,2.26.5,4.76,1.01,8.13,1.65.75.14,1.51.25,2.25.37l.21.03c3.61.53,7.03,1.03,9.33,4.11l.52.69-.25-.82c-1.89-6.14-3.77-12.3-5.65-18.44-.45-1.45-.95-3.08-1.14-4.76-.13-1.25-.09-2.53-.05-3.77.07-1.79.14-3.82-.43-5.69-.2-.64-.46-1.24-.71-1.83l-.16-.38c-.13-.31-.27-.62-.39-.94-.7-1.93-.89-4.04-1.07-6.09-.58-6.72-1.16-13.41-1.73-20.09-.15-1.73-.43-3.66-1.82-4.64-.57-.41-1.22-.61-1.99-.61-1.01,0-2.08.34-3.11.67-.97.32-2.18.71-3.29.71h-.21c-.84-.04-1.68-.34-2.5-.63-.96-.34-1.93-.69-2.88-.69ZM72.09,60.88c-.14.15-.06.88.58,2,1.92,3.37,2.83,13.07,2.84,13.17.02.1.13.72.17,1.01.19,1.73.93,3.16,1.87,3.65.11.05.22.08.35.08.15,0,.32-.05.48-.14.45-.25.85-.84,1.17-1.31l.21-.31c.84-1.2,1.43-2.51,1.94-3.74.87-2.13,2.04-5.35,2.06-8.66,0-.23,0-.49.02-.74.01-.33.02-.63.02-.91,0-.56-.26-1.45-.37-1.84-.2-.73-.95-.83-1.65-.83,0,0-.61.01-.72.01-.17,0-.3,0-.4-.03-.78-.14-1.66-.4-2.57-.67-1.13-.34-2.23-.65-3.22-.79-.2-.03-.4-.03-.61-.03-.22,0-.44,0-.67.02h-.14c-.25.02-.5.04-.75.04-.17,0-.33,0-.49-.02h-.07s-.06.05-.06.05ZM156.42,57.26c-.87,0-1.28.27-1.85.65-.55.36-1.23.82-2.56,1.16-6.01,1.53-11.12,3.57-15.17,6.06l-.23.14c-1.75,1.05-2.74,1.93-2.66,2.35.04.22.41.31.72.35,1.15.15,3.83.75,4.19.85,1.41.4,6.27,1.39,9.18,1.98,1.26.26,2.21.45,2.45.51,5.57,1.33,10.29,2.22,15.16,2.22h.83c.55,0,1-.21,1.35-.62.97-1.15.4-4.17.06-5.98-.08-.42-.15-.79-.19-1.07l-.03-.2c-.29-2.08-.87-3.79-1.74-5.07-1.02-1.53-2.44-1.8-3.95-2.08-.48-.09-.99-.19-1.48-.33-.26-.07-.51-.15-.76-.23l-.25-.08c-.97-.3-1.97-.62-3.02-.64l-.05-.1v.1ZM173.29,57.31c-.24,0-.5.01-.77.04-.57.06-1.11.15-1.6.27-.34.08-.67.16-1,.22l-.13.03c-.73.1-1.93.27-2.18,1.18-.17.61.03,1.19.23,1.76l.3.89c.45,1.32.97,2.81,1.23,4.35.05.29.12.65.2,1.05.35,1.72.82,4.07.17,5.07l.16.29s.03-.03.06-.03c.03,0,.06,0,.09,0,.34,0,1.35-.9,1.68-1.2l.15-.13c.28-.24.57-.5.84-.75,1.18-1.09,2.07-2.14,2.73-3.23.55-.93.95-1.9,1.18-2.9.3-1.26.33-2.6.09-3.87-.34-1.83-1.06-3.05-3.42-3.05ZM68.32,58.92c1.26.19,2.47.33,3.67.48,1.78.21,3.45.41,5.24.75l1.07.21c1.98.38,3.51.68,3.68.75.21.08.62.18.83.22,0-.45-.01-1.08-.05-1.2-.62-1.89-2.64-6.24-8.13-6.24-.69,0-1.42.07-2.17.2-1.53.28-4.28,1.1-5.49,3.48-.15.29-.17.51-.06.67.23.36.79.7,1.16.7.08,0,.14-.01.19-.01h.06ZM132.96,48.68c.98,0,1.8.08,2.53.24.74.17,1.56.26,2.43.34h.12c1.44.16,3.07.32,4.36.93.83.39,1.48,1.02,2.17,1.68.54.53,1.05,1.02,1.63,1.42,1.4.95,3.02,1.47,5.08,1.64.64.05,1.28.08,1.92.11,1.48.07,2.96.15,4.38.47.46.11,1.05.37,1.62.62,1.05.45,2.19.94,3.19.94.74,0,1.31-.26,1.74-.81.44-.58.61-1.3.74-1.92.61-2.76,1.23-6.36.62-9.75-.03-.14-.05-.31-.07-.47-.08-.66-.17-1.44-.67-1.83-.09-.08-.19-.14-.34-.2-.27-.09-.61-.13-1.05-.13-.36,0-.73.03-1.08.06-.31.02-.61.04-.86.04h-2.33c-.6,0-1.2.01-1.82.04h-.13c-.25.01-.51.02-.77.02-.31,0-.61-.01-.89-.05-1.03-.15-1.9-.7-2.75-1.23-.78-.5-1.58-1.01-2.53-1.21-.44-.1-.88-.14-1.35-.14-1.43,0-2.81.47-4.03.89-1.38.46-2.61.86-3.93.86-.44,0-.86-.04-1.28-.14-.78-.17-1.44-.69-2.08-1.19-.65-.5-1.33-1.02-2.13-1.21-.28-.07-.58-.1-.93-.1-.25,0-.5.02-.74.03-.25.02-.49.03-.73.03-.16,0-.32,0-.48-.02-.54-.05-1.09-.18-1.56-.29-.73-.16-1.44-.31-2.16-.31-1.89,0-3.88.14-5.48.24l-1.43.09c-1.44.09-2.99.18-4.55.18-2.48,0-4.52-.22-6.42-.7-1.32-.34-2.48-1.13-3.5-1.82-1.12-.76-2.26-1.53-3.59-1.84-.53-.13-1.07-.19-1.67-.19-1.41,0-2.82.35-4.18.69l-.82.2c-.51.12-1.03.18-1.58.18-1.64,0-3.26-.52-4.84-1.03-.89-.3-1.78-.59-2.65-.77-2.65-.6-5.45-.67-8.16-.74h-.18c-4.52-.11-9.18-.21-13.28-2.68-.26-.15-.85-.52-.85-.52-1.37-.85-2.54-1.58-3.99-1.58-.63,0-1.27.14-1.96.43-.9.37-2.1.8-3.39.8-1.1,0-2.11-.3-3.08-.92-.39-.25-.77-.56-1.13-.86l-.15-.12c-.97-.81-1.95-1.63-3.37-1.64-1.09,0-2.1.25-3.21.56-1.01.27-2.05.54-3.12.54-1.41-.02-2.3-.65-3.24-1.32l-.28-.19c-.27-.19-.55-.38-.85-.56-1.66-.98-3.63-1.02-5.53-1.07-1.56-.03-3.14-.06-4.56-.59-.22-.09-.44-.13-.63-.13-.38,0-.7.16-.95.47-1.61,2.02.06,10.31.84,11.56.46.74,1.07.84,1.61.84.19,0,.38-.01.58-.03.19-.02.39-.03.58-.03.16,0,.31,0,.46.03,1.25.19,2.53.49,3.65.77,1.8.44,3.42.82,5.08.94.45.04.88.05,1.29.05.47,0,.93-.02,1.37-.03h.18c.48-.03.95-.05,1.41-.05,1.22,0,2.57.12,4.18.97.91.49,2,.98,3.21.98.29,0,.58-.03.86-.08.79-.16,1.51-.44,2.21-.7,1.13-.41,2.11-.77,3.32-.8h.15c1.55,0,3.21.76,4.82,1.49l.14.07c.96.45,2.16,1.02,3.25,1.29.62.16,1.25.36,1.9.57,1.51.48,3,.95,4.52.95.28,0,.57-.02.86-.05.4-.05.77-.11,1.12-.17l.28-.05c.86-.14,1.58-.25,2.34-.25s1.51.13,2.28.4c.79.27,1.56.41,2.36.41,1.24,0,2.46-.33,3.6-.66.69-.2,1.43-.3,2.18-.3,1.24,0,2.56.26,4.04.79,1.14.4,2.28.95,3.38,1.47,2.47,1.17,4.95,2.34,7.63,2.34.38,0,.75-.02,1.12-.07.35-.04.66-.09.95-.14.52-.09.97-.16,1.48-.16.56,0,1.15.09,1.85.3.74.21,1.33.47,1.9.73l.06.14.04-.09c.98.43,1.82.8,3.01.8.4,0,.82-.04,1.27-.13.49-.1.99-.22,1.49-.36,1.07-.27,2.14-.53,3.18-.53.6,0,1.13.09,1.63.27.7.26,1.34.63,2.04,1.06.72.43,1.54.91,2.46,1.19.39.12.87.17,1.47.17.42,0,.85-.03,1.25-.05.27-.02.54-.03.78-.04.76-.02,1.53-.07,2.28-.13h.17c.88-.07,1.78-.13,2.67-.13ZM175.08,48.97c-.27.35-1.34,1.72-1.6,2.07-.83,1.08-1.97,2.4-3.06,3.68-.55.64-1.08,1.25-1.54,1.81.7-.19,2.36-.63,2.92-.63h.01c.18,0,.36,0,.49,0l.4-.02c.41-.03.77-.05,1.13-.05.63,0,1.13.08,1.58.24.12.05.22.1.32.15l.11.05c.24.13.49.25.75.25.28,0,.54-.14.79-.42.4-.44.66-1.18.64-1.84-.04-1.1-.72-2.51-1.3-3.61-.22-.4-.49-.69-.8-.99-.21-.21-.41-.4-.59-.64l-.12-.16-.13.16ZM27.41,39.55c-.8,2.96-1.68,10.46.93,13.5.15.06,2.42.33,4.81.61,2.83.34,6.36.75,8.2,1.06,2.12.36,4.17.72,6.22,1.08.05,0,.18.05.36.11.39.13,1.03.34,1.35.34.09,0,.11-.02.11-.02.28-.3-.11-1.7-1.02-2.99-.18-.27-1.33-2.34-1.79-3.29l-.05-.1c-.61-1.25-1.25-2.54-1.93-3.57-.34-.5-1.15-1.58-1.46-1.97l-.07-.08c-3.51-4.32-4.68-5.49-5.04-5.7l-.15-.08c-.68-.34-1.22-.36-1.84-.38-.33,0-.67-.02-1.06-.08-.69-.11-1.38-.28-2.05-.44l-.63-.15-.43-.1c-1.18-.27-2.39-.55-3.52-.75-.18-.03-.35-.04-.52-.04-1.45,0-2.55.99-3.27,2.95-.15.4-.92,2.71-.97,2.95-.46,2.22-.48,4.21-.07,6.07.35,1.59,1.02,3.74,2.84,4.35-.37-1.11-2.08-6.88.16-11.94.04-.1.09-.21.13-.32.13-.34.3-.76.56-1.12l.18.09ZM176.37,29.87c-2.21,5.28-8.05,9.6-8.31,9.79-.58.43-1.16.85-1.41,1.55-.45,1.21-.19,2.5.05,3.76l.03.15c.07.38.14.74.18,1.09.23,1.94.18,3.96-.15,5.84-.03.17-.07.38-.12.62-.19.87-.45,2.06-.33,2.69.09.49.28.76.56.83h.11c.58,0,1.31-.86,2.02-1.8l.12-.16c.49-.65,1.01-1.31,1.53-1.94.03-.04,3.16-4.01,4.05-6.01,1.36-3.11,1.81-7.18,1.78-9.95v-.68c-.01-1.25-.03-4.71-.11-5.77ZM148.94,37.77c.35,0,.7.03,1.02.1,1.03.19,1.94.67,2.91,1.18,1.06.57,2.21,1.18,3.53,1.38.88.13,2.25.28,3.77.28,2.54,0,4.6-.44,5.96-1.28,2.98-1.82,8.59-6.83,8.71-10.73.03-.9-.49-2.45-1.05-3.14-.12-.15-.45-.54-.45-.54-6.47-4.09-14.09-6.18-20.72-7.82-3.88-.96-7.86-1.72-11.71-2.45l-.13-.02c-6.59-1.25-13.39-2.54-19.93-4.86-1.75-.62-3.52-1.29-5.23-1.94l-.37-.14c-3.45-1.31-7.01-2.66-10.78-3.79-4.38-1.31-8.74-1.94-13.31-1.94-7.94,0-15.28,1.9-23.06,3.92l-2.32.6c-1.24.32-2.49.64-3.76.95l-.76.18c-5.86,1.44-12.5,3.07-18.96,4.9-3.44.99-6.56,1.95-9.54,2.93-.14.05-.48.18-.94.35l-.92.35c-.66.25-1.35.47-2.04.7-1.74.56-3.54,1.15-4.98,2.23-.07.05-.1.12-.1.2,0,.08.03.15.09.19.31.24,1.56.72,2.3,1.01.35.13.6.24.65.26l.17-.11,2.82-1.34c19.34-5.95,34.33-9.87,48.64-12.71,1.03-.21,2.13-.48,3.35-.78,2.03-.52,4-1,5.78-1.17,1-.09,2.02-.14,3.02-.14,4.03,0,8.26.75,12.92,2.3.26.09.53.16.8.24l.35.1c.98.27,1.99.54,2.78,1.15l-.08.18c-1.47-.31-3-.69-4.23-1-2.58-.65-5.25-1.32-7.95-1.62-1.41-.15-2.89-.23-4.39-.23-2.57,0-5.28.22-8.07.67-2.22.37-4.49.93-7.01,1.57l-.59.15c-1.03.26-2.02.51-3.01.74-7.7,1.76-15.32,3.65-22.67,5.62-3.8,1.01-7.64,2.08-11.41,3.18-1.94.55-3.76,1.09-5.56,1.63-.89.32-3.74,1.54-3.8,1.86v.11s.11.03.11.03c1.52.47,3.34.5,5.1.52.76,0,1.46.02,2.14.06,1.12.07,2.21.76,3.27,1.42,1.14.69,2.24,1.37,3.43,1.52.2.02.41.04.61.04,1.03,0,2.04-.3,2.92-.57,1.01-.3,1.9-.55,2.81-.55.32,0,.62.03.91.09,1.27.29,2.2,1.03,3.09,1.74,1.09.88,2.16,1.74,3.73,1.74.51,0,1.06-.09,1.63-.27,1.13-.35,2.91-.73,4.51-.73.23,0,.46,0,.68.02,1.12.08,2.06.65,3.06,1.25.19.12.73.44.73.44,2.63,1.51,5.25,2.89,8.28,3.1.67.05,1.38.07,2.19.07,1,0,2-.04,2.98-.07.82-.03,1.64-.06,2.45-.07.28,0,.57,0,.86,0,1.98,0,4.3.12,6.41.97,1.64.68,3.12,1.29,4.88,1.29.16,0,.32,0,.49-.01.81-.05,1.62-.19,2.4-.33l.11-.02c1.03-.18,2.09-.36,3.14-.36.31,0,.61.01.92.05,1.87.2,3.38,1.08,4.83,1.92l.1.17.05-.09c1.4.81,2.85,1.65,4.6,1.91,1.41.21,3.02.31,4.93.31s3.98-.1,5.94-.21c2.07-.11,4.13-.21,6.12-.21,2.66,0,4.76.19,6.6.59.7.17,1.27.6,1.86,1.05.44.34.93.72,1.48.95.65.28,1.36.41,2.17.41.55,0,1.14-.06,1.77-.19.79-.17,1.59-.42,2.28-.65,1.29-.41,2.46-.79,3.68-.79ZM22.96,21.07c-2.33,1.55-3.24,7.11-1.68,10.27l.59,1.26c.79,1.7,1.15,2.47,2.28,2.47.09,0,.19,0,.3-.02h1.94s-1.02-3.37-1.02-3.37c-.48-1.56-.45-3.53-.36-5.24.06-1.37.31-3.19.82-4.18l.09-.16-2.88-1.06-.07.04Z"/>
  <path class="st0" d="M179.89,52.86c-.35-1.51-.84-2.35-1.82-3.66-.16-.22-.35-.46-.53-.69-.32-.41-.66-.84-.9-1.25-.04-.2.34-1.13.5-1.53.09-.22.16-.42.19-.5l.11-.35c.18-.59.38-1.2.51-1.81.32-1.38.39-2.77.46-4.12.02-.37.04-.73.06-1.1.03-.44.09-.88.14-1.31.15-1.19.31-2.42-.06-3.64-.19-.63-.28-1.3-.37-1.97-.15-1.06-.3-2.17-.84-3.13l-.06-.1c-.77-1.32-1.65-2.83-2.89-3.78-5.3-3.98-14.1-6.02-21.19-7.66-1.05-.24-2.05-.47-2.98-.69-2.9-.7-6.03-1.31-9.05-1.92-4.42-.88-9.01-1.78-13.09-2.98-3.87-1.12-7.68-2.56-11.36-3.94-5.17-1.95-10.03-3.78-15.15-4.86-13.57-2.89-26.57.55-39.15,3.88-1.93.51-3.84,1.02-5.74,1.5-1.73.44-3.45.87-5.17,1.29-3.8.94-7.72,1.92-11.57,2.98l-1.61.44c-4.82,1.3-9.79,2.66-14.21,4.92-1.08.54-1.86,1.12-2.46,1.81-2.35,2.72-2.68,7.41-2.25,10.6.31,2.32.96,5.21,3.25,6.96,1.25.97,1.03,1.48.42,2.82l-.17.39c-.92,2.12-1.2,4.71-.82,7.67.32,2.35.93,5.2,2.9,6.33,1.7.97,3.65,1.05,5.55,1.13h.31c1.62.08,3.25.35,4.83.61.4.06.79.13,1.19.19l1.3.19c3.87.59,7.88,1.18,11.76,2.04.57.13,1.55.65,1.78,1.24.29.76-.73,1.29-1.24,1.68-1.55,1.19-3.19,2.25-4.72,3.47-1.91,1.54-3.9,3.23-6.48,5.47-1.01.88-9.49,8.35-12.87,11.02-1.34,1.07-2.69,2.08-3.99,3.02-1.64,1.16-3.3,2.26-4.91,3.33-3.55,2.36-6.9,4.6-10.05,7.44-1.07.99-2.09,2.07-3.07,3.11-.6.64-1.21,1.28-1.84,1.91-.95.97-1.91,1.69-1.83,3.48.18,3.8,1.69,7.39,2.05,8.48.87,2.55,1.88,4.5,2.96,6.16.15.22.5.54.85.86.17.15.39.35.5.47-.31.5-.87,1.69-.91,1.92-.35,1.98.17,3.97,1.39,5.33,1,1.1,2.38,1.66,3.91,1.59.08,1.66.86,3.06,1.7,4.53l.25.45c2.24,4.03,4.9,5.82,9.03,7.69,9.54,4.35,21.35,7.96,29.4,10.28,1.53.45,3.06.9,4.59,1.36,9.32,2.76,18.95,5.61,29.15,6.48l.37.03c.57.05,1.16.1,1.76.1,1.26,0,2.53-.23,3.51-1.23,2.07-2.11,1.37-5.54.87-8.05l-.02-.09c-.1-.5-.26-1.08-.44-1.7-.39-1.41-.84-3-.68-4.05.1-.67.5-1.22.93-1.8.5-.69,1.02-1.4,1.06-2.36.02-.71-.02-1.77-.38-2.74-.07-.19-.34-.54-.72-1.05-.16-.2-.68-1.5-.74-1.6v-.33c.88-.88,1.84-1.7,2.75-2.51,1.49-1.3,3.04-2.66,4.41-4.29,5.83-6.9,9.32-15.36,12.7-23.56,1.61-3.9,3.27-7.94,5.15-11.71,2.75-5.5,7.06-13.28,12.01-19.02.64-.74,2.47-2.51,3.89-2.92,1.49-.43,3.97.28,5.62.64.26.06.51.11.75.16.93.2,1.88.47,2.79.72,1.02.29,2.08.58,3.14.79.89.17,1.8.36,2.7.54,5.64,1.15,11.46,2.34,17.07,2.88,1.65.15,3.5.25,4.75-.48,1.79-1.07,3.84-2.39,5.53-4.11,1.79-1.82,2.85-4.11,3.66-6.09.41-1,.3-2.22.2-3.41-.06-.68-.11-1.32-.07-1.88.06-.88.25-1.65.57-2.29.13-.29.32-.55.53-.82.24-.33.5-.66.65-1.06.28-.73.11-1.53-.05-2.24ZM177.46,56.14c-.3.35-.59.46-.86.46s-.54-.12-.79-.25c-.13-.06-.27-.13-.42-.19-.85-.31-1.74-.24-2.68-.18l-.4.02c-.14.01-.32.01-.51.01-.69,0-3.2.71-3.2.71,1.38-1.67,3.49-4.03,4.81-5.73.53-.69,1.07-1.38,1.61-2.07l.21-.25.19.26c.18.23.37.43.58.63.29.29.59.59.82,1.02.63,1.19,1.27,2.56,1.31,3.66.02.69-.24,1.46-.66,1.92ZM172.78,70.43c-.27.25-.56.51-.84.75-.25.21-1.46,1.36-1.9,1.36-.08,0-.16-.02-.24-.04l-.15-.39c.78-1.2-.16-4.61-.39-6.05-.25-1.49-.74-2.93-1.22-4.33l-.29-.85c-.2-.59-.42-1.21-.24-1.86.26-.96,1.45-1.14,2.26-1.25l.14-.03c.33-.05.66-.13.99-.21.52-.13,1.07-.22,1.62-.28,3.22-.32,3.96,1.27,4.3,3.09.24,1.28.21,2.63-.09,3.91-.23,1.01-.63,2-1.19,2.93-.66,1.09-1.55,2.15-2.75,3.25ZM167.91,72.99c-.36.43-.84.65-1.42.65h-.83c-4.87,0-9.6-.89-15.19-2.22-.81-.19-9.63-1.92-11.64-2.49-.34-.1-3.01-.7-4.18-.85-2.28-.3.88-2.28,1.9-2.9,1.03-.62,5.76-3.76,15.43-6.22,2.68-.68,2.68-1.81,4.44-1.81h.05c1.07.02,2.08.34,3.05.64.33.1.67.21,1.01.31.49.13.99.23,1.47.33,1.53.29,2.98.56,4.01,2.12.87,1.29,1.46,3.02,1.76,5.11l.03.2c.21,1.52,1.32,5.68.1,7.12ZM105.86,111.53c-3.16,6.91-7.72,15.5-15.02,20.64-.53.38-.93.5-1.24.5-.21,0-.38-.06-.5-.14-.45-.28-.62-.94-.48-1.96.34-2.51-.6-3.46-2.04-4.91-.36-.37-.78-.78-1.2-1.26-1.4-1.61-1.27-3.09-1.13-4.65.08-.88.16-1.78-.03-2.77-.12-.65-.49-1.17-.88-1.72-.32-.45-.65-.91-.84-1.45-.27-.75-.26-1.54-.24-2.29.01-.76.02-1.48-.23-2.14-.21-.53-.6-.95-1.01-1.4-.5-.54-1.02-1.1-1.22-1.9-.21-.79-.2-1.66-.19-2.5.01-.66.02-1.36-.08-1.99-.17-1.1-.7-1.84-1.27-2.63-.33-.46-.97-.94-1.26-1.5-.45-.9-.72-1.86-.97-2.8-.21-.76-.42-1.56-.74-2.29-.1-.23-.2-.47-.31-.71-.73-1.65-1.49-3.36-1.16-5.24.39-2.2-.07-4.49-.52-6.72-.09-.46-.18-.92-.27-1.37-.06-.39-.19-.87-.33-1.42-.54-2.16-1.59-8.26-.24-9.57l.22-.21.16.25c.53.85,1.18,5.38,1.23,6.59.02.43.03.85.07,1.2.16,1.6.95,4.37,1.75,6.06.46,1.03,1.03,1.55,1.72,1.56,1.71,0,3.89-3.28,4.89-5.36,1.78-3.75,2.68-7.28,2.83-11.13.12-3.16-.64-6.4-2.11-8.89-1.58-2.71-5.06-4.77-8.09-4.8-2.21-.05-4.5.62-6.68,1.86-.89.51-1.68,1.23-2.43,1.93-.77.71-1.56,1.45-2.5,1.98-2.23,1.27-5.47.97-7.54.14-4.22-1.67-6.25-5.7-8.21-9.59-1.02-2.04-2.09-4.15-3.44-5.85-.59-.73-1.31-1.34-2.02-1.94-.63-.54-1.28-1.09-1.84-1.72,0-.01-.47-.81-.47-.81,0,0,1.98-.1,2.73-.11.73,0,1.36.36,2.04.56.73.22,1.51.19,2.25.4,1.75.49,3.42,1.19,5.44.79.54-.12,1.09-.31,1.63-.48.37-.13.73-.25,1.1-.36,1.86-.52,3.46.16,5.02.82.63.28,1.29.55,1.95.73.89.25,1.8.57,2.66.87,1.08.37,2.2.74,3.31,1.04l.48.12c.85.23,1.74.48,2.62.56h.08c.49.04,1.05.09,1.48-.08.2-.08.35-.17.5-.25.28-.17.55-.33,1.1-.34,1.35-.03,2.73.29,4.05.59,1.74.4,3.53.8,5.26.43.42-.1.84-.3,1.27-.51.61-.3,1.24-.6,1.95-.61,2.47-.04,4.48,1.1,6.44,2.21,1.25.71,2.55,1.45,3.94,1.84,1.38.41,3.45.91,5.47.5,2.28-.45,3.33-.36,5.66.51,2.59.94,4.31,1.22,7.15.22,2.71-.94,4.88.17,6.98,1.25.82.42,1.68.86,2.56,1.17.23.09.39.3.42.53.03.25-.08.5-.28.64-6.08,4.29-10.75,10.49-13.26,17.52.79-.89,1.35-2.03,1.9-3.13l.3-.6c2.4-4.82,5.96-9.02,10.3-12.13.27-.2.61-.4.97-.6.82-.47,1.77-1.01,1.99-1.72.73-2.27,4.34-1.29,6.73-.64.67.18,1.25.35,1.59.38.66.07,1.36.05,2.04.03,1.06-.04,2.16-.08,3.2.23,1.11.33,1.67,1.05,2.26,1.8.17.21.34.43.53.64.94,1.08,1.96,1.67,3.49,2.04.1.02.28.06.52.11,5,1.06,5.33,1.38,5.29,1.78l-.02.16-10.03,2.99c-8.47,3.04-15.7,9.61-22.73,20.68-2.19,3.42-4.07,7.03-5.82,10.7-1.74,3.66-3.32,7.38-4.88,11.02-1.2,2.83-2.46,5.76-3.73,8.57ZM81.15,156.47c-2.69-.33-5.48-.87-8.09-1.5-5.36-1.27-16.84-4.88-16.95-4.91,0,0-1.47-.33-1.38-.35,1.4-.25,3.03-1.47,3.77-2.16.21-.19.43-.4.69-.62.4-.36.8-.71,1.21-1.07.91-.8,1.86-1.64,2.81-2.41,1.96-1.62,5.03-1.94,7.05-1.71,2.95.33,5.97,1.02,8.9,1.68l1.23.29c.39.08.8.14,1.24.2,1.12.16,2.4.35,3.37,1.06,1.27.93,1.41,2.33,1.54,3.7.06.54.11,1.09.23,1.62.17.71.44,1.42.71,2.1.19.49.39,1,.55,1.51.06.2.13.38.2.56.2.53.42,1.59.29,2.28l-.05.22-.22-.02c-1.08.35-5.49-.28-7.12-.47ZM89.02,153.08c-.43-1.18-.61-2.55-.78-3.87-.16-1.26-.31-2.47-.67-3.47-.05-.15-.36-.63-.92-1.4l-.25-.36,2.6-.33.03.25c.02.2.01.43-.01.63-.02.2-.04.42,0,.55.14.52.35,1.14.57,1.8.38,1.11.77,2.26.88,3.13.09.71.05,1.49.01,2.24-.03.64.17,3.33-.05,3.49-.27.19-1.16-2-1.4-2.67ZM90.25,141.53c-1.01.89-2.71,1.16-4.47,1.16s-3.43-.24-4.74-.43c0,0-11.47-1.91-11.61-1.93-.65-.1-1.31-.2-1.91-.1-2.47.37-4.32.9-5.95,2.39-.49.45-.96.96-1.41,1.46-1.16,1.29-2.67,3.23-4.45,3.7-.49.13-.97.19-1.44.19-2.92,0-5.19-2.9-6.62-5.11-.8-1.23-1.5-2.8-2.19-4.31-.79-1.77-1.63-3.61-2.62-4.97-1.28-1.76-3.66-2.6-6.05-2.12-1.8.35-2.89,1.67-4.05,3.06-.89,1.08-1.81,3-3.09,3.67-1.43.76-2.84.85-4.16.25-3.66-1.64-5.48-8.62-5.8-9.83-.47-1.77-1.77-2.73-3.94-2.92-1.7-.15-3.2.65-4.87.51-1.21-.11-2.12-.77-2.96-1.62-.69-.7-.95-2.59-.48-3.47.25-.47.54-.74.89-.83,1.29-.33,3.17,1.1,3.44,1.24,5.01,2.65,10.25,4.57,15.19,5.54,1.53.32,3.18.53,4.91.75,3.91.52,7.97,1.06,11.05,2.7,5.04,2.68,10.55,3.91,15.9,5.09,1.1.24,2.21.5,3.3.75,1.07.25,2.19.53,3.31.83,3.51.89,7.14,1.81,10.61,2.1.49.04.98.09,1.48.15,1.69.18,3.44.37,5.11.06,2.61-.48,2.9-1.98,2.53-4.56-.06-.48-.32-1.45-.57-2.38-.14-.55-.29-1.1-.38-1.51-.62-2.6-1.48-5.3-2.31-7.91-.7-2.21-1.42-4.49-2.03-6.77-.62-2.34-1.3-4.71-1.97-7-.35-1.2-.69-2.39-1.03-3.59-.39-1.36-.91-2.61-.78-4.05.03-.32.42-2.16.21-2.38l.38.39c.14.14.27.28.4.41.64.63,1.14,1.13,1.32,2.15.12.68.02,1.4-.08,2.08-.1.68-.2,1.38-.07,2.04.15.83.63,1.34,1.15,1.91.48.51.98,1.05,1.22,1.84.2.66.03,1.23-.12,1.73-.13.44-.25.85-.14,1.31.15.65.63,1.2,1.08,1.72.13.15.26.3.38.45,1.49,1.82,1.36,2.64,1.1,4.25-.07.41-.14.86-.2,1.41-.23,2.16.84,3.18,2.09,4.36.52.5,1.05,1.01,1.53,1.64.72.94.69,1.99.66,3.01-.01.71-.03,1.39.19,2.02.27.78.84,1.41,1.45,2.06.47.51.95,1.03,1.29,1.63.08.15.94,1.85.98,2.01.49,1.67.26,2.93-.69,3.77ZM40.89,145.69c-3.39-.86-7.71-2.72-10.36-3.71-1.6-.6-1.9-1.52-1.9-1.52.89.24,2.6-1.93,4.49-4.42l.19-.25c1.23-1.59,2.64-3.4,5.01-2.89,2.83.58,4.23,3.21,5.47,5.52l.22.42c1.78,3.28,3.3,6.3,5.46,8.67,0,0,.89.73.65.71-2.39-.18-8.04-2.22-9.23-2.52ZM17.86,136.1c-2.28-1.67-5.28-6.34-5.04-8.72l-.07-.29.28-.03c1.63-.18,4.3-.78,5.28,1.27,1.14,2.37,2.82,7.63,5.87,10.34.4.36-.39.53-1.41.22-1.53-.46-3.79-1.98-4.9-2.79ZM4.54,112.01c-.63-1.5-1.27-3.02-1.62-4.62-.09-.43-1.18-5.02.17-3.49.6.68,2.61,1.8,3.23,2.16,1.34.78,2.9,1.53,3.83,1.98.45.21.81.39,1.05.51,3.54,1.83,7.05,3.13,10.44,3.85,2.31.49,4.81.57,7.21.64,1.75.05,3.55.11,5.29.33,1.9.23,4.02,1.34,6.08,2.41,1.1.58,2.16,1.12,3.13,1.52,10.04,4.07,22.51,6.47,27.4,7.32.7.12,1.43.21,2.14.3,1.33.15,2.72.32,4.03.74,2.45.8,3.7,1.54,4.61,3.76.08.21.2.48.35.79.86,1.93,2.48,5.52,1.29,7.37-.05.06-.06.08-.08.1-.29.26-1.01.36-1.96.36-.82,0-1.83-.07-2.84-.16-.17-.01-.3-.02-.39-.03-6.19-.45-12.22-2.05-18.06-3.6l-1.23-.33c-.96-.25-1.92-.49-2.88-.73-2.19-.55-4.45-1.11-6.64-1.81-4.26-1.37-8.85-3.59-10.6-9.67-.03-.11-.09-.34-.16-.61-.23-.9-.36-1.82-.69-2.69-.51-1.34-1.59-1.42-1.12.29l.18.69c.42,1.62.86,3.29,1.38,4.89.03.11.25.56.47,1.01.85,1.74.91,1.95.85,2.11l-.03.1-.1.06c-.58.25-1.46-.07-2.24-.37-.35-.13-.67-.25-.91-.3-.95-.18-1.94-.33-2.89-.46-.76-.11-1.53-.22-2.3-.35-4.26-.72-7.46-1.48-10.39-2.44-2.98-.98-9.14-3.22-11.37-4.93-2.25-1.71-3.49-3.91-4.65-6.7ZM5.02,98.68h.01c4.27-4.65,9.53-8.24,14.61-11.72,2.01-1.37,4.08-2.79,6.06-4.25,4.76-3.52,9.29-7.51,13.66-11.38,3.91-3.44,7.96-7.02,12.16-10.24.61-.47,1.31-1,2.14-1.21,1.28-.35,2.56.1,3.78.54.84.3,1.72.61,2.57.65,1.12.05,2.32-.33,3.47-.7,1.79-.57,3.64-1.16,5.19-.05,1.44,1.02,1.72,2.98,1.87,4.72.57,6.68,1.14,13.37,1.73,20.05.18,2.07.36,4.18,1.06,6.1.16.44.35.86.53,1.28.26.6.53,1.22.73,1.87.56,1.85.5,3.82.43,5.73-.04,1.24-.08,2.53.05,3.76.18,1.62.66,3.21,1.13,4.74,1.88,6.14,3.76,12.3,5.65,18.44l.42,1.38-.86-1.15c-2.28-3.04-5.68-3.55-9.27-4.08-.81-.12-1.65-.24-2.47-.4-3-.57-5.66-1.1-8.14-1.65-6.59-1.42-12.04-2.85-17.18-5.24-.71-.33-1.4-.67-2.11-1.02-2.12-1.04-4.29-2.12-6.6-2.65-1.7-.38-3.47-.47-5.19-.55-.55-.03-1.1-.05-1.66-.09-7.98-.52-15.8-3.06-22.61-7.35-1.07-.68-2.49-1.76-2.38-3.3.06-.9.63-1.6,1.17-2.2l.04-.04ZM82.91,61.45s-.67-.14-.96-.25c-.23-.09-3.32-.67-4.73-.95-3.01-.57-5.82-.76-8.91-1.22-.05,0-.12,0-.2.01-.43.02-1.04-.37-1.28-.74-.13-.2-.1-.46.06-.78,1.06-2.11,3.41-3.15,5.56-3.54,7.98-1.44,10.09,5.12,10.41,6.1.07.2.06,1.37.06,1.37ZM83.52,63.12c.14.49.37,1.32.37,1.86,0,.29-.01.58-.02.88-.01.26-.02.53-.02.77-.02,3.36-1.19,6.57-2.07,8.7-.51,1.24-1.1,2.56-1.95,3.76l-.17.25c-.34.5-.75,1.12-1.24,1.4-.2.11-.38.15-.53.15-.16,0-.29-.04-.39-.09-.89-.46-1.71-1.84-1.92-3.72-.04-.3-.15-.91-.17-1.02,0,0-.89-9.74-2.83-13.13-.64-1.12-.76-1.92-.56-2.13l.09-.08h.11c.39.05.81.03,1.22,0,.48-.02.97-.05,1.43.01,1,.14,2.14.47,3.23.79.91.28,1.79.53,2.56.67.19.04.46.03.75.02.77-.02,1.84-.04,2.1.9ZM49.47,56.31c-.22.22-1.73-.38-1.92-.41-2.07-.37-4.14-.72-6.22-1.08-3.51-.59-12.93-1.55-13.07-1.71-2.62-3.06-1.78-10.52-.95-13.59-.34.47-.51,1.05-.68,1.43-2.49,5.63-.09,12.06-.09,12.06-1.89-.51-2.68-2.58-3.09-4.48-.46-2.07-.35-4.09.07-6.12.05-.24.81-2.54.97-2.96.57-1.55,1.7-3.31,3.9-2.98,1.26.21,2.63.54,3.95.85.88.21,1.77.46,2.67.59,1.11.17,1.87-.07,2.93.47l.15.08c.83.5,4.37,4.87,5.14,5.81.3.38,1.11,1.47,1.46,1.98.7,1.06,1.35,2.39,1.99,3.68.47.97,1.62,3.03,1.79,3.28.85,1.2,1.38,2.73,1.01,3.12ZM21.19,31.38c-1.59-3.2-.65-8.83,1.72-10.4l.11-.07,3.04,1.12-.14.26c-.51.98-.75,2.78-.81,4.14-.09,1.7-.12,3.66.35,5.21l1.06,3.5h-2.05c-.11.01-.22.02-.32.02-1.19,0-1.59-.85-2.37-2.53-.17-.37-.37-.78-.59-1.25ZM23.83,19.08c2.03-1.53,4.7-2.05,7.04-2.94.91-.35,1.64-.63,1.86-.7,3.02-1,6.14-1.96,9.54-2.93,6.28-1.78,12.73-3.37,18.96-4.9l.76-.18c1.91-.47,3.77-.96,5.62-1.43,11.99-3.11,23.31-6.14,36.89-2.1,3.75,1.12,7.32,2.48,10.78,3.79,1.83.69,3.72,1.42,5.6,2.08,6.48,2.3,13.31,3.61,19.91,4.86,3.9.74,7.92,1.51,11.85,2.48,6.64,1.64,14.27,3.74,20.78,7.86,0,0,.33.39.45.54.56.69,1.1,2.26,1.07,3.21-.12,3.93-5.77,8.99-8.76,10.81-1.66,1.02-3.99,1.29-6.01,1.29-1.65,0-3.09-.18-3.78-.29-1.3-.19-2.43-.78-3.51-1.37-.97-.51-1.9-1-2.93-1.19-1.57-.31-3.07.18-4.65.69-.74.24-1.51.49-2.29.65-1.57.32-2.89.24-4-.22-.55-.23-1.03-.6-1.49-.96-.59-.45-1.15-.88-1.84-1.04-3.82-.84-8.32-.6-12.65-.38-3.72.19-7.57.4-10.93-.1-1.8-.26-3.27-1.13-4.69-1.96-1.47-.86-2.99-1.75-4.88-1.96-1.35-.15-2.72.08-4.03.31-.82.14-1.68.3-2.53.35-1.99.12-3.54-.51-5.34-1.25l-.07-.03c-2.32-.94-4.85-.99-7.23-.96-.81.01-1.63.04-2.45.07-1.7.06-3.45.12-5.18,0-3.07-.21-5.69-1.6-8.33-3.12-.24-.14-.47-.28-.7-.42-1-.6-1.95-1.17-3.05-1.25-1.72-.13-3.84.3-5.15.7-2.6.83-4.03-.34-5.41-1.45-.9-.72-1.83-1.48-3.1-1.76-1.24-.26-2.42.09-3.67.46-1.14.35-2.33.69-3.57.54-1.23-.16-2.37-.87-3.47-1.54-1.1-.69-2.15-1.33-3.22-1.41-.67-.04-1.37-.05-2.13-.06-1.78-.02-3.6-.04-5.14-.52l-.18-.05v-.19c0-.46,3.84-1.95,3.87-1.96,1.8-.54,3.62-1.08,5.56-1.63,3.77-1.1,7.61-2.17,11.42-3.18,7.25-1.95,14.88-3.84,22.67-5.62,1.17-.26,2.35-.57,3.59-.89,2.33-.59,4.73-1.19,7.02-1.57,4.42-.7,8.63-.86,12.49-.44,2.71.3,5.38.97,7.97,1.62,1.37.35,2.8.7,4.22,1-.77-.59-1.78-.87-2.75-1.13-.39-.11-.78-.21-1.15-.34-5.83-1.94-10.87-2.62-15.9-2.16-1.8.17-3.82.67-5.77,1.17-1.18.3-2.3.57-3.35.78-14.36,2.85-29.34,6.78-48.61,12.71l-2.82,1.34-.26.11c-.15-.09-2.5-.93-2.96-1.28-.18-.14-.18-.42,0-.56ZM174.79,46.32c-.9,2.04-4.06,6.03-4.06,6.03-.51.63-1.03,1.28-1.52,1.94l-.12.16c-.72.96-1.46,1.84-2.1,1.84-.04,0-.09-.01-.13-.01-.33-.07-.54-.38-.64-.91-.12-.65.14-1.85.33-2.73.05-.24.09-.45.12-.62.33-1.87.38-3.88.15-5.81-.05-.4-.13-.8-.21-1.23-.25-1.27-.5-2.59-.05-3.81.26-.73.86-1.17,1.44-1.6.18-.13,6.27-4.6,8.39-10.04.17-.42.18,6.03.19,6.79.03,2.79-.43,6.89-1.79,9.99ZM164.96,54.37c-.14.68-.32,1.39-.76,1.97-.49.62-1.12.85-1.82.85-1.03,0-2.21-.51-3.23-.95-.6-.26-1.16-.51-1.61-.61-1.42-.33-2.92-.4-4.36-.47-.64-.03-1.28-.06-1.93-.11-2.09-.17-3.71-.7-5.13-1.66-.59-.41-1.1-.91-1.61-1.4-.69-.67-1.34-1.31-2.18-1.7-1.25-.59-2.81-.75-4.32-.91-.91-.09-1.78-.17-2.56-.36-1.68-.37-3.54-.22-5.34-.1-.74.06-1.51.11-2.26.13-.25.01-.52.02-.8.04-.9.06-1.94.12-2.76-.12-.9-.28-1.71-.74-2.48-1.2-.64-.39-1.31-.78-2.03-1.05-1.49-.55-3.15-.13-4.74.26-.5.13-1,.25-1.49.36-1.97.38-3.08-.12-4.37-.69-.59-.26-1.19-.54-1.96-.75-1.49-.43-2.24-.31-3.28-.13-.29.05-.6.1-.95.14-3.16.4-6.01-.96-8.77-2.26-1.11-.53-2.27-1.08-3.41-1.49-2.37-.86-4.37-1.01-6.16-.49-2.09.61-3.85,1.01-6.02.25-1.71-.6-2.97-.4-4.57-.14-.44.07-.9.15-1.4.21-1.87.23-3.67-.35-5.42-.9-.65-.21-1.27-.41-1.9-.57-1.06-.26-2.19-.78-3.27-1.29-1.7-.77-3.45-1.6-5.07-1.55-1.22.03-2.23.41-3.29.79-.7.26-1.43.54-2.23.7-1.56.31-2.92-.25-4.14-.91-2-1.06-3.64-1-5.54-.92-.89.03-1.83.07-2.86-.01-1.74-.13-3.44-.54-5.1-.95-1.18-.29-2.42-.58-3.64-.76-.33-.05-.68-.03-1.02,0-.82.06-1.68.11-2.28-.86-.78-1.25-2.46-9.63-.83-11.68.29-.36.81-.71,1.7-.38,1.4.52,2.99.55,4.51.58,1.92.04,3.9.08,5.59,1.08.4.24.77.51,1.13.75.97.69,1.82,1.28,3.12,1.3,1.06.01,2.08-.25,3.15-.54,1.04-.29,2.11-.56,3.24-.56,1.46.01,2.47.86,3.43,1.66.41.34.83.69,1.27.98,2.31,1.47,4.51.89,6.38.11,2.5-1.05,4.14-.02,6.04,1.16.28.17.56.35.85.52,4.06,2.45,8.73,2.56,13.23,2.66,2.77.07,5.64.13,8.36.74.86.18,1.75.47,2.6.75,2.1.67,4.25,1.38,6.42.87.27-.07.55-.13.82-.2,1.94-.48,3.93-.97,5.9-.5,1.35.32,2.51,1.1,3.62,1.85,1.07.72,2.19,1.47,3.47,1.8,3.54.9,7.19.76,10.93.52.48-.03.95-.06,1.43-.09,1.8-.12,3.65-.24,5.49-.24.75,0,1.48.16,2.19.32.51.12,1.03.23,1.54.29.39.04.78.02,1.19-.01.56-.04,1.13-.07,1.71.07.81.19,1.5.72,2.17,1.23.66.52,1.29,1.01,2.04,1.17,1.82.4,3.44-.15,5.17-.72,1.71-.58,3.48-1.17,5.43-.74.96.2,1.78.72,2.56,1.22.87.55,1.71,1.07,2.71,1.21.56.08,1.18.05,1.78.03.87-.04,1.7-.03,2.53-.04h1.63c.25,0,.55-.02.85-.04.74-.06,1.56-.12,2.18.08.15.06.26.12.36.21.54.42.63,1.23.71,1.9.02.16.04.33.07.47.61,3.4-.01,7.02-.62,9.79Z"/>
  <path class="st0" d="M105.2,99.44c-.29-.09-.56-.36-.78-.79-.48-.96-.68-2.75-.03-4.57.16-.43.29-.87.43-1.31.14-.45.28-.89.43-1.33.68-1.89,1.48-3.82,2.44-5.9,1.64-3.54,3.5-7.24,6.03-10.38.63-.78,2.75-3.35,3.65-3.7.47-.18.91-.28,1.29-.28.58,0,1.06.21,1.41.62.64.75.69,2,.62,2.48-.01.07-.02.13-.02.18,0,.09-.01.17-.04.29-.53,2.46-2.06,4.81-3.55,7.09-.93,1.42-1.8,2.76-2.42,4.09-2.28,4.92-8.26,13.5-9.41,13.5h-.07ZM118.54,73.13c-.99,0-3.72,2.69-4.53,3.79-4.2,5.68-9.62,18.74-8.4,20.25.49-.04,3.39-4.95,5.12-7.88.72-1.23,1.35-2.29,1.7-2.83,1.57-2.4,3.53-5.5,4.75-8.14.14-.29.38-.67.66-1.11.66-1.04,1.57-2.46,1.36-3.38-.06-.28-.22-.5-.49-.67-.04-.03-.1-.04-.16-.04Z"/>
  <path class="st0" d="M117.42,71.57c-.86.33-2.95,2.85-3.61,3.67-2.49,3.09-4.35,6.76-6.02,10.35-.89,1.93-1.72,3.89-2.44,5.89-.31.87-.55,1.77-.86,2.64-.9,2.51-.18,4.96.74,5.22.93.27,6.98-8.3,9.36-13.43,1.62-3.5,5.12-7.22,5.96-11.17.04-.19.03-.28.06-.46.11-.75-.07-3.92-3.19-2.72ZM113.92,76.86c.85-1.15,4.02-4.28,4.83-3.77,1.71,1.06-.91,4.04-1.49,5.28-1.22,2.64-3.17,5.72-4.76,8.15-1.28,1.97-6.12,10.72-6.98,10.72-1.34-1.66,4.42-15,8.4-20.38Z"/>
  <path class="st0" d="M82.89,86.89c-.32,0-.61-.14-.85-.42-.31-.36-.41-.84-.46-1.18-.33-2.19.6-4.29,1.49-6.32.23-.52.46-1.04.66-1.55.16-.41.32-.82.47-1.24.61-1.65,1.23-3.36,2.52-4.56.15-.14.31-.27.48-.37.22-.13.43-.21.64-.23.04,0,.09,0,.13,0,.93,0,1.57,1.01,1.71,1.97.2,1.35-.21,2.71-.57,3.92-.55,1.86-1.13,3.78-2.02,5.54-.48.94-2.6,4.46-4.2,4.46h0ZM87.94,73.02c-1.47.49-2.2,2.66-2.64,3.96-.06.18-.12.34-.17.48-.15.41-.33.88-.52,1.38-.71,1.85-1.6,4.14-1.72,5.88,0,.15.05.26.11.32.08.09.21.15.33.15.08,0,.2-.02.3-.13.64-.68,1.76-2.39,2.13-2.96.76-1.17,1.12-2.29,1.49-3.47.12-.37.24-.74.37-1.12.32-.91.97-3.14.32-4.49Z"/>
  <path class="st0" d="M87.26,71.34c-.17.1-.32.23-.46.36-1.58,1.48-2.15,3.73-2.96,5.76-1.02,2.54-2.56,5.11-2.15,7.82.06.4.17.82.44,1.13,1.5,1.74,4.35-2.97,4.88-4.02.89-1.74,1.46-3.64,2.02-5.52.38-1.26.76-2.57.57-3.87-.14-.94-.81-1.97-1.74-1.87-.21.02-.41.1-.6.22ZM83.7,85.12c-.34.35-.94.08-.91-.41.15-2.23,1.56-5.38,2.25-7.29.44-1.23,1.17-4.02,2.95-4.53.72,1.36.06,3.68-.28,4.64-.55,1.58-.87,3.08-1.83,4.55-.35.53-1.51,2.33-2.18,3.04Z"/>
  <path class="st0" d="M91.66,84.51c.1-.46.27-.95.43-1.42.19-.54.38-1.1.46-1.6.07-.44.26-.89.44-1.33.09-.21.17-.41.24-.6.44-1.25.9-2.54,1.22-3.85.59-2.41,1.06-4.91,1.5-7.33.81-4.4,1.65-8.95,3.32-13.22,1.01-2.6,2.28-4.53,3.88-5.91l.15-.13c.37-.32.82-.73,1.32-.73.19,0,.37.06.54.17l.07.05-.03.08c-.26.68-.84,1.19-1.4,1.68-.37.32-.72.63-.97.98-3.05,4.14-4.08,9.72-4.99,14.64l-.46,2.52c-.49,2.7-1,5.5-1.74,8.18-.33,1.21-.78,2.28-1.25,3.41l-.31.74c-.12.29-.23.59-.34.89-.17.48-.35.97-.58,1.44-.23.46-.46.81-.71,1.1-.19.21-.41.34-.66.38l-.14.02.03-.14Z"/>
  <path class="st0" d="M105.1,48.64c-.7-.47-1.38.25-1.88.68-1.86,1.61-3.02,3.74-3.85,5.87-2.58,6.61-3.15,13.76-4.82,20.54-.32,1.31-.77,2.59-1.22,3.86-.21.6-.58,1.29-.68,1.92-.15.96-.68,2.04-.89,3.03.23-.03.43-.16.6-.34.29-.32.51-.69.7-1.07.37-.74.6-1.55.91-2.32.57-1.38,1.15-2.67,1.56-4.13.9-3.24,1.44-6.57,2.05-9.87.98-5.25,1.93-11.13,5.16-15.51.66-.9,1.94-1.54,2.36-2.63Z"/>
  <path class="st0" d="M78.96,97.64c-.13,0-.24-.05-.32-.13-.1-.12-.13-.32-.07-.58.11-.48.5-.81.85-1.1l.14-.12c2.57-2.24,4.89-5.22,6.9-8.85,1.74-3.14,3.13-6.57,4.13-10.17.48-1.73.85-3.46,1.11-5.15.06-.36.09-.73.12-1.1.04-.45.08-.9.16-1.33.07-.39.21-.77.44-1.15.09-.16.21-.3.34-.44.08-.09.16-.18.23-.28l.13-.18.05.22c.28,1.24.15,3.08.05,4.06-.11,1.08-.65,3.53-.96,4.9-.33,1.43-.79,2.95-1.42,4.63-1.26,3.38-2.82,6.51-4.65,9.32-1.01,1.55-2,2.85-3.05,3.98-.56.61-1.2,1.15-1.81,1.67-.51.44-1.05.89-1.53,1.39-.24.24-.58.41-.84.41h0Z"/>
  <path class="st0" d="M78.72,97.44c.19.23.7.02,1-.28,1.06-1.08,2.3-1.94,3.33-3.06,1.13-1.22,2.13-2.57,3.03-3.96,1.89-2.9,3.43-6.05,4.64-9.3.56-1.51,1.06-3.05,1.41-4.62.29-1.29.85-3.8.96-4.89.12-1.19.21-2.88-.05-4.02-.17.24-.41.45-.56.71-.21.35-.35.71-.42,1.11-.14.79-.16,1.63-.29,2.43-.27,1.74-.64,3.46-1.11,5.16-.98,3.54-2.36,6.98-4.13,10.2-1.82,3.3-4.09,6.4-6.92,8.87-.36.32-.84.66-.95,1.17-.06.25-.03.4.05.49Z"/>
  <path class="st0" d="M85.13,120.1c-.07,0-.15,0-.23-.02h-.07s-.01-.08-.01-.08c-.15-.74.24-1.09.62-1.44.12-.11.25-.23.37-.36.87-1,1.76-1.98,2.65-2.96,1.71-1.88,3.49-3.82,5.04-5.89,2.24-2.98,4-6.44,5.7-9.79.14-.28.26-.54.38-.8.39-.87.79-1.78,1.66-2.34l.26-.17-2.04,5.42c-.07.19-.14.39-.22.61-.23.64-.48,1.36-.75,1.85-1.59,2.92-5.87,10.17-11.34,14.46-.2.16-.38.37-.56.58-.39.45-.79.93-1.46.93h0Z"/>
  <path class="st0" d="M84.92,119.98c1.07.16,1.47-.93,2.17-1.47,4.44-3.47,8.54-9.33,11.32-14.43.35-.64.69-1.71.96-2.45,0,0,1.93-5.13,1.93-5.13-1.1.71-1.42,1.98-1.98,3.08-1.69,3.33-3.47,6.83-5.73,9.83-2.36,3.13-5.14,5.9-7.7,8.86-.48.55-1.15.81-.96,1.71Z"/>
  <path class="st0" d="M103.8,86.04c.27-1.58,1.21-3.22,2.03-4.67.15-.27.3-.53.43-.77.42-.77.8-1.58,1.16-2.37.32-.7.64-1.39,1-2.07.29-.55.69-1.25,1.22-1.74l.14.15c-.16.15-.26.75-.33,1.15-.03.18-.06.34-.08.44-.23.86-.56,1.63-.9,2.45l-.28.67c-.83,1.98-1.69,4.02-2.96,5.79-.4.55-.82.9-1.29,1.08l-.16.06.03-.17Z"/>
  <path class="st0" d="M103.9,86.06c.51-.19.91-.58,1.25-1.04,1.39-1.92,2.27-4.16,3.19-6.34.36-.85.7-1.65.94-2.54.09-.34.18-1.4.44-1.64-.5.46-.89,1.12-1.2,1.71-.77,1.46-1.37,3-2.17,4.44-.86,1.57-2.13,3.55-2.45,5.41Z"/>
  <path class="st0" d="M144.14,18.85c-5.61-.57-10.92-1.88-15.83-3.21-.78-.21-1.58-.4-2.38-.59-3.1-.74-6.3-1.51-8.81-3.55l.13-.16c.39.31,1.32.39,2.15.46.54.05,1.06.09,1.41.19,1.07.32,2.14.7,3.18,1.07,1.24.44,2.52.89,3.81,1.25,2.15.59,4.49,1.14,7.16,1.68.62.13,1.39.2,2.21.29,1.57.16,3.34.34,4.39.92l2.65,1.47-.06.19Z"/>
  <path class="st0" d="M144.15,18.75l-2.65-1.47c-1.55-.86-4.72-.82-6.57-1.2-2.4-.48-4.8-1.03-7.16-1.68s-4.64-1.61-6.99-2.31c-.88-.26-2.93-.13-3.59-.67,3.14,2.55,7.38,3.1,11.16,4.13,5.23,1.42,10.42,2.66,15.81,3.21Z"/>
  <path class="st0" d="M167.38,32.91v-.11c.09-.63.39-1.18.68-1.71.38-.7.74-1.35.63-2.2-.15-1.12-1-1.9-1.73-2.45-1.44-1.09-3.25-1.67-4.99-2.24-.34-.11-.68-.22-1.01-.33-.88-.3-1.85-.5-2.78-.69-1.28-.26-2.6-.53-3.77-1.08-.45-.21-.89-.53-1.36-.87-.83-.6-1.68-1.22-2.59-1.22-.07,0-.14,0-.21.01l-.02-.2c.18-.02.36-.03.55-.03,1.48,0,3.3.54,4.92,1.02.45.13.88.26,1.27.37.5.14,1.01.27,1.52.4,1.34.35,2.73.71,4.07,1.16,1.46.49,6.3,2.31,7.3,5.34.37,1.14.15,2.31-.67,3.49-.1.15-1.55,1.32-1.68,1.32,0,0-.11,0-.11,0Z"/>
  <path class="st0" d="M167.5,32.82s1.43-1.03,1.6-1.28c3.11-4.51-3.38-7.61-6.58-8.68-1.83-.61-3.72-1.05-5.58-1.56-1.93-.52-4.78-1.57-6.69-1.36,1.54-.17,2.92,1.48,4.21,2.08,2.01.93,4.44,1.05,6.54,1.76,2,.68,4.29,1.27,6.03,2.59.83.63,1.62,1.42,1.76,2.51.2,1.54-1.12,2.5-1.29,3.93Z"/>
  <path class="st0" d="M159.96,38.74c.75-.84,1.82-1.83,2.66-2.46l.03-.02.12-.02c.05,0,.11.01.17.02.05,0,.1.02.14.02.19-.12.34-.3.49-.47.16-.19.32-.38.51-.51.07-.05.14-.1.23-.17.35-.27.84-.64,1.26-.64.11,0,.21.03.3.08l.12.07-.42.43c-1.59,1.65-3.24,3.36-5.51,3.85l-.3.07.21-.23Z"/>
  <path class="st0" d="M160.04,38.8c2.39-.52,4.1-2.42,5.78-4.16-.51-.28-1.3.47-1.69.73-.34.24-.62.72-.96.98-.11.08-.38-.08-.48,0-.86.64-1.93,1.63-2.65,2.45Z"/>
  <path class="st0" d="M26,108.79c-1.49,0-2.62-.34-3.53-.61-.3-.09-.57-.17-.82-.23-1.21-.28-2.39-.74-3.58-1.22-2.46-1-5.25-2.25-7.23-4.34-.5-.53-.73-1.14-.71-1.82.08-2.05,2.51-4.24,3.68-5.29.15-.13,2.13-1.31,2.26-1.31h.17l-.08.15c-.65,1.22-2.45,3.17-3.13,3.9-.14.15-.23.25-.25.27l-.1.14c-1.05,1.52-1.57,2.28-.09,3.73,1.01.99,2.48,1.58,3.78,2.1.25.1.5.2.74.3,1.07.45,2.55.93,3.98,1.39,3.6,1.17,5.78,1.93,5.8,2.72v.1s-.09,0-.09,0c-.27.02-.54.03-.79.03h0Z"/>
  <path class="st0" d="M16.06,94.07s-1.96,1.07-2.19,1.29c-1.62,1.46-5.12,4.68-2.97,6.96,1.94,2.06,4.64,3.28,7.2,4.32,1.17.48,2.34.94,3.56,1.22,1.1.25,2.72,1.01,5.12.81-.03-1.16-6.52-2.68-9.71-4.01-1.47-.61-3.33-1.22-4.55-2.42-1.59-1.56-.94-2.39.17-4,.08-.12,2.59-2.68,3.37-4.16Z"/>
  <path class="st0" d="M57.89,118.2c-.23,0-.45-.03-.67-.07-3.2-.56-8.37-2.61-12.06-4.41-.81-.39-1.61-.84-2.39-1.27-1.47-.81-2.99-1.65-4.6-2.18-.8-.26-1.58-.34-2.41-.43-.33-.04-.67-.07-1.01-.12-.02,0-1.88-.43-1.91-.65v-.08s.07-.04.07-.04c.63-.29,1.37-.32,2.13-.32h.26c1.78,0,2.79.45,4.19,1.06.29.13.61.27.95.41,2.01.85,4.01,1.82,5.94,2.76,1.17.57,2.33,1.14,3.51,1.68,1.68.78,3.42,1.32,4.89,1.75.27.08.64.15,1.05.23,1.13.22,2.53.48,2.99,1.12.03.05.06.09.09.14l.04.08-.07.05c-.28.19-.6.29-.98.29h0Z"/>
  <path class="st0" d="M58.73,117.7c-.61-.83-2.99-1.02-3.99-1.31-1.67-.49-3.33-1.02-4.91-1.76-3.16-1.46-6.24-3.09-9.45-4.44-1.97-.83-2.98-1.47-5.1-1.47-.8,0-1.64-.02-2.35.31-.16.08,1.67.56,1.82.58,1.17.16,2.3.18,3.44.55,2.48.8,4.67,2.32,7.01,3.45,3.21,1.56,8.57,3.8,12.04,4.4.51.09,1.07.15,1.57-.2-.02-.04-.05-.09-.08-.13Z"/>
  <path class="st0" d="M75.91,121.64c-.36,0-.72-.06-.88-.09-.57-.1-1.15-.22-1.73-.34-1.55-.32-3.15-.64-4.79-.64h-.2s-1.27-1-1.27-1l-.26-.21,2.75.28,3.13.24,4.17.99v.06c.05.18.02.32-.08.44-.14.18-.41.26-.83.26h0Z"/>
  <path class="st0" d="M76.73,120.96l-4.09-.98-3.13-.24-2.41-.24,1.2.98c2.34-.04,4.59.6,6.74.98.43.07,1.84.31,1.69-.49Z"/>
  <path class="st0" d="M23.41,88.32c.32-.76,1.26-1.33,2.1-1.83.41-.25.79-.48,1.09-.71,1.4-1.14,2.79-2.29,4.18-3.45,3.02-2.53,5.99-5.09,8.24-7.04,1.61-1.4,3.22-2.8,4.82-4.2l2.33-2.03c.55-.48,1.09-1.02,1.66-1.6,1.32-1.33,2.69-2.71,4.26-3.36l.33-.14-.21.29c-1.23,1.68-2.71,3.3-4.53,4.95-2.44,2.21-4.98,4.38-7.44,6.48-1.65,1.41-3.29,2.82-4.92,4.24-.92.8-1.81,1.64-2.7,2.47-.98.92-1.99,1.87-3.03,2.76-.89.77-1.91,1.46-3.03,2.05-.16.08-.55.22-1.01.38-.65.23-1.87.64-1.95.82l-.19-.08Z"/>
  <path class="st0" d="M52.12,64.19c-2.23.92-4.08,3.36-5.89,4.94-2.38,2.08-4.76,4.16-7.15,6.23-2.73,2.37-5.47,4.73-8.24,7.05-1.38,1.16-2.78,2.31-4.18,3.45-.91.74-2.7,1.42-3.15,2.5.13-.32,2.58-1.02,3.01-1.25,1.07-.57,2.09-1.24,3.01-2.03,1.95-1.68,3.78-3.53,5.72-5.23,4.1-3.6,8.31-7.07,12.36-10.73,1.66-1.5,3.19-3.12,4.51-4.93Z"/>
  <path class="st0" d="M92.66,99.15c-.44,0-.72-.2-.87-.37-.7-.77-.36-2.39.37-4.6l.08-.25c.66-2.08,1.6-3.97,2.8-5.62.56-.77,1.2-1.2,1.79-1.2.26,0,.51.08.74.24.6.41.75,1.2.81,1.75.17,1.59-.47,2.49-1.15,3.45-.27.38-.54.76-.79,1.22-.18.34-.38.84-.6,1.37-.69,1.71-1.47,3.63-2.76,3.95-.15.04-.29.06-.43.06ZM96.83,88.34c-.19,0-.53.29-.82.69-1.12,1.54-2,3.32-2.63,5.27l-.08.26c-.93,2.84-.69,3.31-.63,3.38.02-.02.06-.02.13-.04.7-.17,1.47-2.08,1.93-3.21.23-.58.45-1.11.66-1.5.28-.53.59-.97.87-1.35.61-.86,1.05-1.48.93-2.6-.07-.68-.24-.84-.29-.87l-.06-.02Z"/>
  <path class="st0" d="M92.66,99.04c-.4,0-.65-.17-.8-.34-.66-.73-.32-2.32.39-4.49l.08-.25c.66-2.07,1.6-3.95,2.79-5.59h0c.78-1.08,1.68-1.43,2.39-.94.56.39.71,1.14.76,1.68.17,1.55-.46,2.44-1.13,3.38-.27.38-.55.77-.79,1.23-.18.35-.39.86-.61,1.39-.68,1.67-1.45,3.57-2.68,3.88-.15.04-.28.05-.4.05ZM96.83,88.24c-.24,0-.62.34-.9.73h0c-1.13,1.55-2.02,3.34-2.64,5.3l-.08.26c-.9,2.75-.72,3.35-.6,3.48,0,0,.08.02.23-.01.74-.19,1.5-2.05,2-3.27.23-.56.45-1.1.65-1.49.28-.52.59-.96.86-1.34.62-.88,1.07-1.51.95-2.67-.07-.68-.24-.88-.33-.95-.03-.02-.07-.03-.12-.03Z"/>
  <path class="st0" d="M56.11,55.15c-1.9,0-3.61-1.89-4.39-3.65-.29-.55-.54-1.12-.8-1.69-.66-1.48-1.29-2.88-2.45-3.98l-.07-.06.18-.23.08.06c1.38,1.03,2.26,2.53,3.11,3.99.79,1.36,1.61,2.76,2.83,3.75.9.82,1.71,1.21,2.65,1.25h.08s.05.26.05.26l-.07.03c-.39.17-.8.26-1.2.26Z"/>
  <path class="st0" d="M48.61,45.69c2.65,1.97,3.39,5.67,5.93,7.74.75.69,1.59,1.22,2.71,1.27l.02.1c-2.35,1.04-4.58-1.35-5.46-3.34-1.02-1.97-1.64-4.15-3.27-5.69,0,0,.06-.08.06-.08h0Z"/>
  <path class="st0" d="M82.8,52.47c-.88-1.54-1.82-1.75-2.71-1.75-.34,0-.68.03-1.04.07-.4.04-.81.08-1.24.08s-.82-.04-1.19-.12c-2.58-.59-4.44-2.44-6.13-4.28l-.07-.07.2-.21.07.06c1.84,1.58,3.82,3.15,6.09,3.48.18.03.34.04.51.04.42,0,.82-.08,1.23-.16.42-.08.86-.17,1.33-.17.18,0,.36.01.55.04.74.11,1.44.5,1.88,1.03.42.49.69,1.11.79,1.85v.08s-.24.09-.24.09l-.04-.07Z"/>
  <path class="st0" d="M70.64,46.33c1.78,1.53,3.81,3.17,6.14,3.51,1.26.22,2.29-.45,3.62-.25.69.1,1.38.45,1.82.99.45.53.68,1.17.76,1.8l-.09.03c-1.72-2.99-3.67-1.21-6.24-1.77-2.52-.58-4.39-2.41-6.08-4.25,0,0,.07-.07.07-.07h0Z"/>
  <path class="st0" d="M30.34,98.15c-.35,0-.96-.53-1.02-.77-.19-.31-.14-.69-.09-1.04l.02-.14c.1-.79.46-1.5.98-1.95l.03-.02.08-.02h.05l.09.07s.04.1.02.15c-.16.58-.18,1.18-.04,1.73.3.65.33.99.14,1.82-.05.09-.12.16-.25.16Z"/>
  <path class="st0" d="M30.4,94.41c-.18.63-.18,1.24-.05,1.78.3.65.32.97.14,1.78-.2.3-1.02-.38-1.08-.62-.21-.34-.11-.77-.07-1.13.1-.74.42-1.43.94-1.88.05-.04.12,0,.1.07h0Z"/>
  <path class="st0" d="M37.07,89.49c-.28,0-.59-.16-.78-.4-.29-.35-.19-.8-.11-1.12.13-.62.64-1.26,1.27-1.26.04,0,.09,0,.14,0h.07s.07.13.07.13c.02.07-.01.14-.07.18-.41.3-.33.78-.28.98.02.06.06.12.1.17.06.07.13.17.1.29,0,.01,0,.05-.01.09-.02.12-.05.27.02.57.03.08,0,.18-.08.23-.13.09-.28.14-.44.14Z"/>
  <path class="st0" d="M37.6,86.94c-.37.27-.43.7-.32,1.09.05.18.24.27.2.4-.01.14-.1.3,0,.71.01.05,0,.1-.04.12-.37.26-.84.06-1.08-.24-.26-.32-.16-.73-.09-1.05.13-.6.66-1.25,1.29-1.16.06,0,.08.09.03.12h0Z"/>
  <path class="st0" d="M45.94,78.68c-.09,0-.19,0-.3-.03-.37-.25-.09-1.13-.09-1.14.08-.16.25-.31.46-.5.31-.28.69-.63,1.01-1.12l.03-.05.11-.03c.09,0,.16.07.17.16.04.7-.13,1.93-.64,2.45-.25.17-.49.25-.75.25Z"/>
  <path class="st0" d="M47.23,75.98c.04.68-.13,1.88-.61,2.38-.24.16-.53.27-.95.19-.23-.16-.05-.9-.01-1,.17-.31.91-.75,1.46-1.6.03-.05.12-.02.12.04h0Z"/>
  <path class="st0" d="M68.68,38.09c-.39-.08-.7-.28-.89-.59-.21-.34-.27-.77-.17-1.23.06-.72.3-1.38.69-1.88l.03-.04.1-.03s.09.02.13.06l.03.03v.09c0,.6.06,1.17.22,1.67.34.63.36,1.01.08,1.78-.03.08-.1.13-.19.13h-.03Z"/>
  <path class="st0" d="M68.51,34.5c-.02.62.05,1.19.21,1.71.32.61.35.96.09,1.72-.01.05-.06.07-.11.06-.86-.18-1.15-.94-.98-1.69.06-.68.28-1.33.67-1.84.04-.05.12-.02.12.04h0Z"/>
  <path class="st0" d="M75.18,38.51c-.56-.25-.7-1.02-.48-1.55.01-.05.04-.11.06-.17v-.13c.02-.06.08-.1.15-.1.2-.28.61-.51.98-.51s.62.2.73.56c.14.68-.15,1.33-.7,1.58-.02,0-.04,0-.06,0-.05,0-.09,0-.12-.02v.02c-.06.2-.24.34-.44.34h-.01l-.1-.02Z"/>
  <path class="st0" d="M74.93,36.66c.5.19.88.83.7,1.5-.05.19-.24.3-.43.25-.51-.23-.6-.96-.42-1.41.22-.8,1.46-1.26,1.73-.36.11.57-.1,1.2-.64,1.46-.04.02-.09,0-.11-.04-.21-.52-.37-.8-.49-1.04-.02-.02.73.61.59.44-.15-.05-.31.22-.28.33,0,0-.65.09-.65.09.19-.24.23-.74-.07-1.11-.05-.05,0-.13.07-.11h0Z"/>
  <path class="st0" d="M82.3,38.56c-.35,0-.66-.21-.8-.54-.05-.12-.05-.25.01-.37.18-.45.62-.8,1.03-.8.25,0,.47.12.63.35.1.12.18.37.13.57-.03.12-.09.2-.19.25-.04,0-.07.01-.1.02v.02c-.1.31-.37.5-.7.5Z"/>
  <path class="st0" d="M82.91,38.04c-.18.56-1.05.57-1.32-.06-.04-.09-.04-.2,0-.28.24-.61,1.02-1.08,1.49-.44.13.15.21.56-.02.66-.2.02-.34.12-.4.18-.11.08-.09.25-.16.1-.03-.04-.06-.06-.09-.07l.07-.4c-.23-.02.1.37.32.23.05-.03.11.02.1.07h0Z"/>
  <path class="st0" d="M101.14,39.53c-.1,0-.15-.09-.19-.15-.07-.11-.11-.15-.15-.2-.16-.17-.37-.41-.26-.62.22-.21.4-.32.56-.41.11-.09.17-.14.24-.14h.06l.08.09c.06.07.19.5.12.8-.15.39-.26.51-.35.58l-.03.02-.08.02Z"/>
  <path class="st0" d="M100.63,38.61c.18-.17.35-.27.52-.36.08-.04.18-.19.24-.09.05.06.18.45.11.73-.13.33-.23.46-.32.53-.09.08-.14-.1-.2-.16-.08-.13-.46-.44-.35-.64h0Z"/>
  <path class="st0" d="M93.02,40.68c-.18,0-.2-.19-.21-.27l-.02-.11s-.02-.09-.04-.15c-.08-.3-.19-.7.06-.78h.13c.24,0,.44.03.64.07.18,0,.37,0,.38.2.03.11-.05.57-.28.8-.28.18-.47.25-.65.25h-.02Z"/>
  <path class="st0" d="M92.84,39.46c.27-.01.5.03.72.07.11.03.29-.03.3.11.02.09-.04.51-.25.72-.3.19-.47.23-.6.22-.13,0-.09-.19-.13-.29-.02-.15-.26-.76-.05-.82h0Z"/>
  <path class="st0" d="M121.9,46.12c-.5,0-1.08-.3-1.25-.96-.07-.33.01-.67.23-.94.21-.26.51-.42.8-.42.22,0,.42.09.58.25l.03.04v.11s-.02.09-.06.12c-.15.08-.2.29-.2.4h.06l.03.11v.07s.05.03.07.03h.15s-.02.05-.02.05c.02,0,.04,0,.06,0,.21,0,.4.1.49.26.08.14.07.31-.02.47-.26.27-.6.4-.95.4Z"/>
  <path class="st0" d="M122.77,45.67c-.62.62-1.77.41-2.02-.53-.19-.87.85-1.62,1.44-1.01.03.04.02.09-.02.12-.3.16-.28.75-.15.61,0-.07-.08.01-.02.09.05.07.12.1.18.1l-.17.33c.12-.52,1.06-.25.75.3Z"/>
  <path class="st0" d="M140,46.77c-.09,0-.17,0-.26-.03-.56-.14-.83-.65-.84-1.08-.02-.42.2-.76.57-.88,0,0,.01,0,.02,0,.12,0,.19.06.21.14,0,.17.16.3.26.36v-.03s.1,0,.1,0l.04.02.04.03c.06-.02.08-.04.09-.05.03-.05.3-.48.62-.48.14,0,.26.07.36.22.14.43.07.89-.18,1.25-.24.34-.61.54-1.02.54Z"/>
  <path class="st0" d="M141.11,45.04c.27.84-.42,1.8-1.36,1.6-.85-.21-1.06-1.49-.26-1.76.04,0,.09.02.1.06,0,.34.54.59.47.41-.06-.02-.02.08.07.05.08-.02.14-.07.17-.12,0,0,.46-.77.81-.26Z"/>
  <path class="st0" d="M108.09,42.86c-.06,0-.12-.02-.16-.06-.28-.46-.38-.72-.45-.95,0-.2,0-.35,0-.49.02-.65.04-1.08-.4-1.9l-.03-.05.03-.11c.03-.05.09-.09.15-.09.91.45,1.78,1.64,1.7,2.66,0,.17-.22.55-.43.76-.15.15-.29.23-.41.23Z"/>
  <path class="st0" d="M107.26,39.32c.81.41,1.65,1.56,1.57,2.54,0,.23-.56,1.08-.84.86-.24-.39-.34-.65-.41-.9,0-.95.14-1.38-.4-2.41-.03-.05.03-.12.09-.09h0Z"/>
  <path class="st0" d="M152.99,51.67l-.11-.11c-.4-.84-.37-1.31-.17-2.05.07-.59.02-1.25-.14-1.93v-.05s.03-.09.03-.09c.03-.04.08-.07.14-.07h.04l.07.05c.7.77,1.33,2.06,1.15,3.21-.18.5-.46.83-.87,1.02l-.08.02h-.06Z"/>
  <path class="st0" d="M152.78,47.49c.71.77,1.29,2.03,1.12,3.12-.13.37-.37.73-.81.94-.04.02-.1,0-.12-.05-.37-.79-.37-1.24-.16-1.98.07-.63.02-1.29-.14-1.98-.02-.06.07-.11.11-.06h0Z"/>
  <path class="st0" d="M157.37,46.47l-.12-.05c-.3-.42-.42-.65-.52-.88l-.04-.43c-.04-.66-.07-1.06-.62-1.79l-.04-.05.02-.12c.03-.06.09-.1.15-.1.95.27,1.97,1.34,1.97,2.38.02.19-.19.59-.39.82-.14.15-.26.23-.39.23h-.03Z"/>
  <path class="st0" d="M156.23,43.16c.86.25,1.85,1.29,1.85,2.27.02.24-.47,1.11-.77.91-.26-.37-.38-.6-.48-.83-.08-.92,0-1.35-.67-2.25-.04-.05,0-.13.07-.11h0Z"/>
  <path class="st0" d="M157.27,52.44c-.38-.07-.5-.97-.5-.98.02-.19.09-.37.18-.58.15-.35.33-.79.38-1.48v-.09s.17-.06.17-.06c.06,0,.11.03.14.07.39.58.79,1.81.54,2.48-.21.36-.48.55-.87.63h-.02s-.02,0-.02,0Z"/>
  <path class="st0" d="M157.56,49.38c.37.55.77,1.74.53,2.39-.15.25-.38.48-.79.57-.27-.05-.41-.8-.42-.89.04-.42.47-.92.56-2.04,0-.06.09-.08.12-.03h0Z"/>
  <path class="st0" d="M47.65,33.8c-.06,0-.12,0-.17-.03-.37-.28-.46-.49-.5-.66-.05-.17.07-.3.16-.4.03-.03.06-.07.09-.1.18-.25.38-.54.66-.81l.03-.03.09-.02c.08,0,.14.05.17.12.12.37.17.73.21,1.03,0,.05.02.09.03.14.03.13.08.3-.05.43-.07.09-.38.33-.71.33Z"/>
  <path class="st0" d="M48.07,31.89c.11.35.16.68.2,1.01.02.16.14.36.01.48-.09.1-.47.38-.78.28-.3-.24-.39-.42-.44-.59-.05-.17.14-.28.23-.42.19-.27.39-.54.65-.8.04-.04.11-.02.12.03h0Z"/>
  <path class="st0" d="M38.67,34.91c-.11,0-.21-.01-.3-.04-.46-.16-.76-.5-.87-.97-.2-.8.17-1.75.61-2.25l.03-.03.09-.03s.09.02.12.05l.03.03v.09c0,.55-.03,1.23.21,1.55.03.03.09.05.15.07.08.03.19.06.24.17.02,0,.04.05.07.1.07.11.14.24.43.29.09.02.15.09.16.18,0,.19-.06.36-.19.49-.18.19-.48.3-.78.3Z"/>
  <path class="st0" d="M38.3,31.76c-.02.63-.04,1.28.21,1.61.11.13.32.1.38.23.1.1.13.36.57.43.04,0,.07.04.07.09.01.55-.7.79-1.14.65-1.28-.45-.93-2.26-.22-3.05.04-.05.12-.02.12.04h0Z"/>
  <path class="st0" d="M30.18,28.29c-.53,0-1.02-.42-1.11-.93-.09-.72.06-1.34.43-1.79.25-.13.5-.16.73-.18.11-.01.22-.02.32-.04h.07l.11.11c.02.07,0,.14-.04.18-.17.16-.34.31-.52.46-.04.27.04.56.23.74.14.16.16.32.19.55.02.15.04.34.1.59.02.09-.02.19-.11.23-.13.06-.27.09-.42.09Z"/>
  <path class="st0" d="M30.63,25.55c-.23.22-.47.42-.7.62l.15-.15c-.05.33.04.67.26.89.2.22.11.48.26,1.09.01.05-.01.09-.05.11-.62.27-1.29-.19-1.38-.77-.08-.63.04-1.25.41-1.71.3-.14.67-.13,1-.19.06,0,.1.07.05.12h0Z"/>
  <path class="st0" d="M42.35,30.79c-.07,0-.14-.01-.2-.04-.35-.33-.42-.56-.44-.75-.03-.18.09-.31.19-.41.04-.04.07-.07.1-.11.2-.27.44-.57.74-.85l.03-.03.09-.02c.08,0,.16.06.17.14.08.41.1.8.11,1.13,0,.05,0,.1.02.15.02.14.05.32-.08.45-.1.1-.41.33-.71.33Z"/>
  <path class="st0" d="M42.92,28.74c.08.39.1.75.11,1.11,0,.18.1.39-.04.53-.1.11-.5.4-.81.27-.28-.27-.35-.48-.38-.67-.04-.19.17-.3.28-.45.22-.29.44-.57.73-.84.04-.04.11-.01.12.04h0Z"/>
  <path class="st0" d="M56.76,33.76c-.19,0-.36-.06-.52-.16-.26-.31-.33-.7-.21-1.09.14-.46.52-.83.95-.94.07-.02.15-.03.23-.03.33,0,.68.18.89.46.36.49-.15,1.07-.57,1.47l-.03.03-.1.02c-.16.15-.41.24-.65.24Z"/>
  <path class="st0" d="M57.78,32.49c.17.72-.8,1.5-1.48,1.02-.54-.64-.05-1.65.71-1.84.35-.11.79.09,1.02.4.31.42-.18.97-.56,1.33-.04.03-.09.03-.12-.01-.29-.36-.4-.71-.45-1.04l.24.56c.04.14.2.03.01.02-.08.02-.15.04-.2.09,0,0-.19-.17-.19-.17.12.19.74.13.9-.36.02-.06.11-.06.13,0h0Z"/>
  <path class="st0" d="M29.83,44.2c-.34-.24-.52-.52-.55-.81-.03-.29.07-.59.31-.87.28-.48.63-.87,1.03-1.14h.05l.18.04s.04.09.03.14c-.1.57-.14.97-.15,1.34,0,.07,0,.14.02.21.02.15.05.32-.06.47,0,0-.41.62-.79.62h-.06Z"/>
  <path class="st0" d="M30.78,41.54c-.08.49-.15.93-.16,1.36-.01.22.1.45-.02.62-.06.09-.46.63-.75.58-.6-.45-.61-1.01-.19-1.51.26-.45.59-.84,1.01-1.12.05-.03.12.01.1.07h0Z"/>
  <path class="st0" d="M32.51,51.04c-.41-.05-.81-.27-1.14-.64l-.09-.09c-.14-.14-.32-.31-.28-.56.01-.25.27-.76.69-.76.4.18.57.28.69.4.12.09.09.23.07.34-.01.05-.02.1-.02.14.02.3.1.6.25.94l.02.05-.03.11c-.03.05-.09.09-.15.09h-.02Z"/>
  <path class="st0" d="M32.53,50.94c-.41-.05-.78-.28-1.08-.61-.14-.16-.38-.32-.35-.57.01-.21.23-.69.6-.68.34.17.5.27.61.37.12.09,0,.26.02.41.02.3.1.62.26.97.03.05-.02.11-.07.1h0Z"/>
  <path class="st0" d="M36.13,44.82c-.32,0-.75-.2-.91-.49-.26-.35-.15-.8-.07-1.12.16-.68.69-1.36,1.4-1.36h.07s.09.11.09.11c.02.07,0,.14-.05.19-.4.37-.37.86-.31,1.12.02.07.06.14.1.2.06.09.13.19.1.32,0,.03,0,.08-.01.14-.02.14-.04.31,0,.61-.03.2-.18.29-.4.29Z"/>
  <path class="st0" d="M36.59,42.07c-.39.36-.43.84-.34,1.22.04.2.23.32.2.48,0,.17-.07.35-.02.78-.07.36-.91.14-1.12-.26-.24-.33-.14-.75-.06-1.07.15-.63.65-1.26,1.3-1.27.06,0,.09.08.04.12h0Z"/>
  <path class="st0" d="M41.42,50.87l-.09-.09-.03-.05.03-.12c.22-.44.2-.83.15-1.09-.01-.06-.04-.11-.07-.17-.05-.09-.12-.21-.06-.35.03-.1.08-.21.15-.38l.14-.33c.1-.11.19-.14.3-.14.33,0,.74.36.81.58.15.28.04.59-.06.85-.24.68-.68,1.13-1.18,1.27h-.04s-.06,0-.06,0Z"/>
  <path class="st0" d="M41.41,50.67c.21-.42.23-.82.16-1.16-.03-.18-.2-.31-.14-.45.05-.16.14-.33.3-.7.28-.28.85.2.93.43.16.29,0,.61-.09.87-.19.54-.59.98-1.08,1.12-.06.02-.11-.05-.08-.1h0Z"/>
  <path class="st0" d="M36.51,49.93c-.15,0-.3-.05-.43-.14-.22-.14-.38-.41-.4-.68-.02-.19.04-.36.15-.47.1-.13.31-.23.52-.23.15,0,.28.05.37.14.08.08.12.18.12.31h0s.01.02.02.02c.04.02.09.04.13.08l.07.02s.06.1.06.1h0c.08.16.08.33,0,.49-.11.23-.35.37-.61.37ZM36.87,49.21s.05.02.07.02h0s0-.03-.02-.06c-.02.01-.03.03-.05.04Z"/>
  <path class="st0" d="M37,49.05c.32.44-.29,1.05-.86.66-.34-.23-.47-.76-.23-.99.2-.28.84-.31.84.14-.17.36.13.52.26.47.13-.03,0-.29-.18-.35-.19-.07-.25.07-.19.11.06.06.16.1.24,0,.03-.04.08-.07.12-.03h0Z"/>
  <path class="st0" d="M51,84.07c-.09,0-.17-.06-.19-.15-.15-.87.24-1.58,1.1-2,.65-.43,1.31-.73,1.96-.89h.07l.12.1c.02.06,0,.13-.04.18-.49.45-.87.96-1.24,1.45-.21.29-.43.58-.66.85-.28.2-.6.38-1.1.46h-.03Z"/>
  <path class="st0" d="M53.96,81.24c-.77.71-1.27,1.57-1.9,2.31-.27.19-.57.35-1.04.43-.05,0-.09-.02-.1-.07-.16-.91.31-1.53,1.04-1.89.61-.4,1.25-.72,1.94-.89.06-.02.11.07.06.11h0Z"/>
  <path class="st0" d="M45.86,93.44c-.63,0-1.24-.28-1.6-.72-.46-.58.16-1.86.58-2.71.07-.15.14-.28.18-.39l.03-.06.13-.04c.05,0,.1.02.13.06l.03.04v.09c-.41,1.94.37,2.37.99,2.72.19.11.38.21.5.35.03.03.1.12.09.22-.01.13-.14.2-.18.22-.25.13-.56.21-.88.21Z"/>
  <path class="st0" d="M45.24,89.7c-.55,2.63,1.06,2.63,1.51,3.16.04.04.07.09.07.15,0,.07-.07.11-.13.14-.73.39-1.82.18-2.35-.49-.5-.63.5-2.36.77-2.99.02-.06.14-.04.12.02Z"/>
  <path class="st0" d="M40.16,100.47c-.34,0-.72-.3-.82-.65-.07-.31,0-.61.19-.86.29-.37.84-.61,1.37-.61.11,0,.21.01.3.03.26.06.45.25.53.52.09.32,0,.69-.21.91-.16.22-.46.36-.77.36-.05,0-.09,0-.13,0,0,.02,0,.03-.01.05-.1.17-.26.27-.44.27Z"/>
  <path class="st0" d="M40.51,100.16c-.28.46-.96.06-1.07-.37-.22-.94,1-1.48,1.74-1.32.56.14.61.91.26,1.26-.32.44-1.17.47-1.32-.1,0-.05.03-.09.07-.1.26-.09.28-.29.28-.38,0-.13-.12-.11-.12,0,0,0,.49.6.49.6-.2-.08-.5-.26-.71-.13-.22.03.02.61.27.45.05-.03.12.03.09.08h0Z"/>
  <path class="st0" d="M50.42,103.02c-.32,0-.76-.18-.87-.33-.24-.18-.3-.5-.35-.78l-.03-.15c-.14-.67-.07-1.34.19-1.86l.03-.06.12-.04c.08,0,.15.06.17.14.12.52.32.97.6,1.35.05.07.11.12.18.18.12.1.23.2.27.37.06.2.11.45.1.93-.05.13-.15.25-.41.25Z"/>
  <path class="st0" d="M49.57,99.96c.12.55.34,1.01.62,1.39.14.2.38.29.43.51.06.23.11.47.1.91-.14.33-.97.02-1.1-.14-.27-.21-.3-.59-.36-.89-.13-.62-.08-1.27.18-1.8.03-.06.11-.04.12.02h0Z"/>
  <path class="st0" d="M56.72,109.35c-.21,0-.39-.13-.46-.34-.02-.09-.05-.17-.08-.26-.09-.26-.2-.56-.08-.85.02-.07.33-.82.7-.82l.1.03c.4.33.61.67.63,1.03.35.05.69.12,1.04.21l.07.02.05.13c0,.07-.03.14-.1.17-.46.22-.94.38-1.39.54l-.33.11c-.05.02-.11.03-.16.03Z"/>
  <path class="st0" d="M58.57,108.58c-.57.27-1.14.45-1.71.65-.2.07-.42-.04-.49-.24-.09-.33-.31-.7-.17-1.04.04-.14.36-.82.65-.75.52.43.73.89.5,1.48,0,0-.59-.54-.59-.54.6.09,1.2.16,1.8.32.06.01.07.1.01.13h0Z"/>
  <path class="st0" d="M59.83,100.73c-.34,0-.64-.19-.9-.37l-.09-.06c-.68-.44-1.14-1.08-1.27-1.77v-.05s.03-.09.03-.09c.03-.04.08-.06.13-.06h.04l.07.05c.69.7,1.21.75,1.99.84l.22.02c.26.11.5.23.91.5.09.12.09.23.03.34-.16.31-.78.63-1.03.63-.06,0-.1,0-.14,0Z"/>
  <path class="st0" d="M57.78,98.46c.79.79,1.37.79,2.27.89.24.1.48.23.86.49.21.3-.7.82-.97.78-.4.06-.75-.21-1.05-.4-.62-.4-1.1-1.02-1.22-1.7-.01-.06.07-.11.11-.06h0Z"/>
  <path class="st0" d="M63.74,88.91l-.09-.05c-.67-.6-.78-1.45-.32-2.34.28-.76.67-1.42,1.16-1.94l.03-.03.09-.02c.05,0,.1.02.13.07l.03.04v.1c-.17.76-.25,1.43-.27,2.04.09.77.03,1.34-.58,2.06l-.03.04-.11.03h-.04Z"/>
  <path class="st0" d="M64.67,84.71c-.15.71-.25,1.39-.27,2.06.09.79.02,1.32-.56,2-.03.04-.09.04-.12.01-.7-.63-.69-1.47-.3-2.22.27-.71.64-1.37,1.14-1.91.04-.05.13,0,.11.06h0Z"/>
  <path class="st0" d="M62.05,74.01c-.08,0-.16-.01-.23-.04-.07-.02-.11-.08-.13-.14-.17-.03-.35-.07-.52-.12-.19-.05-.36-.09-.5-.11-.3,0-.49-.15-.55-.42-.03-.33.24-.51.51-.54.14-.02.32-.07.52-.12.32-.09.65-.18.9-.18.1,0,.18.01.24.04.18.05.78.22.68.75-.08.49-.48.87-.92.87Z"/>
  <path class="st0" d="M61.82,73.33c-.46,0-1.47.49-1.6-.16-.02-.25.2-.39.42-.41.42-.06,1.29-.41,1.61-.27.3.09.7.24.62.64-.09.53-.58.9-1.02.75-.04-.01-.07-.06-.06-.1.07-.41-.07-.63-.14-.69,0,0,.62.64.62.64-.31.15-1.2-.18-1.62-.22,0,0,.04-.75.04-.75.38.12.77.28,1.15.45.06.02.05.12-.01.13h0Z"/>
  <path class="st0" d="M58.74,70.33l-.1-.03c-.31-.26-.44-.55-.41-.83.03-.27.22-.51.53-.67.35-.27.76-.42,1.15-.42.05,0,.2.01.2.01l.08.1c.02.06.01.13-.03.18-.23.29-.39.58-.48.88-.01.05-.02.1-.02.15,0,.11,0,.25-.14.33h0s-.48.28-.76.28h-.02Z"/>
  <path class="st0" d="M60.07,68.62c-.25.31-.41.62-.5.92-.05.15.03.34-.11.42-.03.02-.6.35-.79.25-.55-.47-.43-1.03.12-1.31.37-.28.81-.44,1.23-.4.06,0,.08.08.05.12h0Z"/>
  <path class="st0" d="M160.26,69.35c-.05,0-.11,0-.17-.01-.43-.1-.85-.46-.83-.98,0-.09.07-.16.15-.18.31-.08.47-.17.59-.25l.09-.05s.08-.04.14-.04c.05,0,.09.01.13.02.04,0,.07.02.1.02.26-.06.54-.44.46-.91v-.04s.03-.09.03-.09c.03-.04.08-.07.14-.07h.04l.07.04c.4.3.53.88.34,1.48-.17.54-.63,1.08-1.28,1.08Z"/>
  <path class="st0" d="M161.14,66.88c.87.65.17,2.54-1.03,2.36-.39-.08-.77-.41-.74-.87,0-.04.03-.08.07-.09.4-.1.57-.24.7-.31.11-.09.25.04.39,0,.27-.06.59-.5.5-1.02-.02-.06.06-.11.11-.07h0Z"/>
  <path class="st0" d="M144.81,66.63c-.12,0-.12-.14-.12-.2,0-.11-.01-.15-.02-.19-.02-.16-.06-.38.04-.55.15-.18.26-.28.38-.37.09-.09.13-.14.19-.14l.12.14c.05.25-.28,1.11-.49,1.27l-.09.04Z"/>
  <path class="st0" d="M144.79,65.75c.13-.16.24-.25.35-.34.05-.04.14-.18.14-.08.04.23-.27,1.05-.45,1.19-.07.07-.04-.09-.05-.16,0-.14-.1-.43,0-.61h0Z"/>
  <path class="st0" d="M150.07,64.65c-.2,0-.38-.06-.55-.19-.25-.19-.5-.37-.54-.63-.02-.12.02-.25.11-.37.13-.11.28-.17.45-.19.16-.12.33-.18.53-.18.1,0,.2.01.33.04.1.03.44.18.65.38,0,0,.01-.01.03-.01s.15.01.15.01l.06.14c0,.05-.01.11-.05.14.01.05.02.1,0,.15-.31.44-.6.57-.85.65-.13.03-.23.04-.33.04Z"/>
  <path class="st0" d="M151.15,63.74c-.5.25-1,.46-1.5.63l-.06-1.02c.26-.2.52-.19.78-.12.15.04.83.37.78.7-.26.35-.52.49-.78.57-.26.06-.52.07-.78-.13-.27-.2-.7-.48-.42-.85.48-.39,1.37.04,1.97.09.06.01.07.1.01.13h0Z"/>
  <path class="st0" d="M155.89,63.37c-.28,0-.53-.2-.6-.38-.15-.26.03-.51.14-.68.19-.29.51-.55.85-.55.09,0,.18.02.26.05l.05.02.05.1c.01.06,0,.12-.04.16-.13.19-.08.36-.02.47l.07.03.08.13v.08s-.11.02-.11.02c-.13.04-.25.16-.35.36-.12.13-.25.18-.39.18Z"/>
  <path class="st0" d="M156.53,62.04c-.16.24-.1.46-.03.58.04.08.2.1.11.11-.07.02-.26.09-.42.41-.28.28-.72.04-.81-.19-.13-.23.05-.46.16-.63.2-.31.61-.57.96-.41.05.02.06.09.03.12h0Z"/>
  <path class="st0" d="M152.85,68.28c-.18,0-.91-.28-.92-.72.26-.57.53-.79.93-.79.07,0,.14,0,.21.02.03-.17.07-.35.12-.52l.02-.08.14-.05c.06,0,.12.03.14.08.05.12.13.25.21.39.19.32.41.68.35.97-.03.12-.1.22-.22.29-.15.05-.28.12-.4.18-.18.1-.37.2-.57.22h-.02Z"/>
  <path class="st0" d="M153.41,66.29c.16.41.89,1.19.38,1.51-.31.09-.61.35-.93.39-.15,0-.82-.25-.82-.62.38-.8.76-.74,1.42-.59,0,0-.39.52-.39.52.05-.39.12-.79.23-1.19.01-.06.1-.07.12-.02h0Z"/>
  <path class="st0" d="M73.71,15.65l-.08-.11-.02-.07.06-.12c.65-.6,1.74-1.31,2.69-1.31.3.06.7.19,1.02.65.1.45-.93.82-.94.83-.14.01-.25.01-.36.01-.17,0-.34,0-.5-.01-.16,0-.32-.01-.49-.01-.3,0-.72.02-1.28.14h-.03s-.07,0-.07,0Z"/>
  <path class="st0" d="M73.73,15.44c.65-.61,1.72-1.28,2.62-1.29.34.07.67.22.94.6.06.28-.78.63-.89.67-.88.04-1.49-.12-2.62.13-.06.01-.1-.07-.06-.11h0Z"/>
  <path class="st0" d="M75.89,25.98c-.13,0-.24-.02-.32-.07-.28-.33-.37-.6-.32-.82.05-.19.21-.34.47-.45.34-.22.7-.34,1.05-.36h.06s.1.08.1.08c.03.05.04.11.01.17-.13.32-.24.61-.31.88-.01.04-.01.08-.02.13,0,.11,0,.27-.16.32-.05.02-.3.11-.56.11Z"/>
  <path class="st0" d="M76.85,24.49c-.13.33-.24.62-.32.9-.04.14.02.33-.12.39-.09.04-.53.19-.8.05-.41-.5-.38-.88.15-1.08.31-.2.65-.33,1.02-.35.05,0,.09.06.07.1h0Z"/>
  <path class="st0" d="M63.79,18.49c-.08,0-.15-.03-.22-.06-.04-.02-.08-.03-.12-.04-.27-.06-.59-.14-.92-.3l-.05-.02-.05-.11c-.01-.06,0-.12.05-.16.26-.26.52-.45.75-.6.04-.02.07-.05.1-.08.08-.07.16-.15.28-.15h.02l.08.02c.15.05.55.33.59.7-.09.45-.22.62-.34.73-.05.05-.11.07-.18.07Z"/>
  <path class="st0" d="M62.55,17.87c.24-.24.49-.42.74-.59.13-.08.23-.27.39-.2.12.04.5.29.53.61-.07.37-.19.53-.31.64-.12.12-.29-.02-.43-.05-.29-.07-.59-.15-.9-.29-.05-.02-.06-.09-.02-.13h0Z"/>
  <path class="st0" d="M86.14,27.36c-.09,0-.15-.06-.21-.11l-.09-.07s-.08-.06-.15-.1c-.25-.15-.59-.36-.47-.6.21-.22.41-.35.63-.49.13-.11.2-.17.29-.17h.04l.09.06c.1.07.35.45.33.78-.12.42-.23.56-.33.64l-.03.02-.1.03Z"/>
  <path class="st0" d="M85.31,26.53c.2-.2.4-.33.59-.45.1-.06.2-.22.3-.13.08.05.32.4.3.7-.1.35-.2.49-.3.57-.1.09-.2-.07-.3-.13-.12-.1-.7-.36-.59-.57h0Z"/>
  <path class="st0" d="M97.62,16.4c-.12,0-.23-.02-.34-.06-.17-.06-.21-.23-.24-.37-.01-.05-.02-.1-.04-.14-.11-.3-.24-.64-.31-1.04v-.05s.04-.1.04-.1c.03-.04.08-.07.13-.07.43.13.75.29,1.03.44.04.02.09.04.13.06.13.05.29.11.33.29.04.16.07.68-.24.93-.21.07-.36.1-.49.1Z"/>
  <path class="st0" d="M96.88,14.69c.35.11.66.27.96.43.15.08.37.09.41.28.04.13.06.62-.2.83-.36.11-.57.08-.74.02-.17-.06-.16-.29-.22-.45-.12-.32-.24-.65-.3-1.02-.01-.05.04-.1.09-.08h0Z"/>
  <path class="st0" d="M113.63,18.65c-.08,0-.15,0-.22-.01-.15,0-.26-.11-.36-.21-.06-.05-.11-.11-.17-.14-.36-.22-.78-.35-1.25-.4h-.07s-.08-.12-.08-.12c-.02-.07,0-.14.06-.19.37-.3,1.01-.5,1.59-.5.39,0,.73.09.96.26.15.11.38.53.38.86,0,.2-.09.31-.17.36-.33.07-.52.09-.68.09Z"/>
  <path class="st0" d="M111.61,17.67c.56-.45,1.8-.69,2.43-.24.17.13.52.83.21,1.05-.41.07-.63.08-.84.06-.2,0-.3-.23-.48-.34-.35-.22-.78-.36-1.29-.41-.06,0-.08-.09-.04-.12h0Z"/>
  <path class="st0" d="M135.57,26.85l-.1-.12c-.37-.84-.47-1.14-.55-1.94-.19-.63-.62-1.16-1.2-1.46l-.07-.04-.02-.15c.02-.08.08-.13.16-.13h0c1.34,0,2.65,1.26,2.71,2.54-.05.6-.33,1.06-.78,1.28l-.08.02h-.07Z"/>
  <path class="st0" d="M133.8,23.11c1.19-.04,2.55,1.17,2.61,2.45-.04.47-.25.95-.72,1.19-.04.02-.1,0-.12-.05-.37-.83-.46-1.12-.54-1.92-.18-.6-.59-1.19-1.25-1.54-.06-.03-.04-.12.03-.12h0Z"/>
  <path class="st0" d="M129.39,32.14s-.08,0-.12-.01c-.4-.16-.52-.3-.59-.41-.11-.15.03-.28.09-.34l.08-.08s.06-.08.11-.14c.18-.25.35-.45.52-.45h.03l.09.03c.21.27.32.5.41.7.1.16.21.31.07.43-.06.08-.39.26-.68.26Z"/>
  <path class="st0" d="M129.54,30.83c.17.22.28.44.37.65.04.11.2.22.09.32-.06.07-.43.28-.72.23-.33-.14-.46-.25-.53-.36-.08-.11.09-.19.16-.29.11-.11.43-.67.62-.54h0Z"/>
  <path class="st0" d="M121.94,33.04c-.14,0-.29-.04-.41-.13-.06-.04-.09-.1-.1-.18-.01,0-.03,0-.04,0-.13,0-.27-.07-.38-.18-.11-.12-.17-.26-.17-.39.02-.35.24-.77,1.2-.77h.19c.2,0,.37.14.41.34l.08.34c.05.23,0,.46-.15.65-.15.2-.38.31-.62.31Z"/>
  <path class="st0" d="M121.6,32.49c-.15.35-.66,0-.66-.32.03-.66.82-.68,1.28-.66.15,0,.28.11.32.25l.08.34c.13.56-.52,1.07-1.03.73-.03-.02-.05-.06-.05-.1.02-.55-.29-.66-.15-.65,0,0,.39.59.39.59-.09-.14-.2-.19-.23-.32-.03,0,.04-.1,0-.12-.06-.05-.08.09-.08.12,0,.02-.02.08.04.06.05-.02.1.02.1.07h0Z"/>
  <path class="st0" d="M142.75,34.86c-.16-.01-.3-.09-.41-.23-.15-.18-.21-.43-.19-.57,0-.23.21-.35.36-.43l.09-.05c.26-.17.55-.26.82-.26.1,0,.2.01.3.04h.05s.07.11.07.11c.02.06,0,.12-.03.17-.16.23-.26.46-.29.69v.1c.02.07.05.23-.11.28-.07.03-.18.05-.38.09l-.27.06h-.01Z"/>
  <path class="st0" d="M143.73,33.58c-.19.27-.28.52-.31.74-.02.12.08.27-.04.29-.11.04-.27.07-.63.14-.36-.02-.54-.49-.51-.68,0-.23.25-.31.41-.41.32-.21.7-.3,1.04-.21.05.01.07.08.04.12h0Z"/>
  <path class="st0" d="M147.83,30.44c-.43-.1-.6-.27-.72-.42-.12-.14-.08-.32-.05-.46.01-.05.02-.1.03-.15.03-.34.08-.74.19-1.16l.02-.07.15-.05s.1.02.13.06c.28.32.5.65.68.95.03.05.06.09.09.13.09.11.21.25.16.44-.03.14-.22.68-.63.75h-.02s-.02,0-.02,0Z"/>
  <path class="st0" d="M147.5,28.24c.27.3.47.62.67.93.09.16.29.29.24.49-.03.15-.21.62-.55.68-.38-.09-.55-.23-.67-.39-.13-.15-.01-.36,0-.55.04-.37.08-.75.19-1.14.01-.05.09-.07.12-.03h0Z"/>
  <path class="st0" d="M119.48,24.36c-.47,0-.8-.29-1.07-.52-.67-.58-1-1.38-.87-2.09l.02-.08.15-.05c.07,0,.13.04.15.1.29.67.84.95,1.15,1.05.1.04.21.04.31.05.14,0,.28.01.41.09l.81.47c.1.11.11.22.06.34-.13.3-.69.64-1.05.64,0,0-.07,0-.07,0Z"/>
  <path class="st0" d="M117.77,21.76c.26.59.73.94,1.21,1.11.25.09.51,0,.7.13l.82.47c.23.27-.6.84-.99.79-.43.03-.77-.28-1.05-.52-.58-.5-.94-1.27-.8-1.96.01-.06.1-.07.12-.01h0Z"/>
  <path class="st0" d="M52.06,20.67l-.09-.08-.03-.05.02-.11c.55-1.34,2.09-2.78,3.5-2.78.52,0,1,.19,1.41.56l.04.04.02.12c0,.06-.04.11-.09.13-.91.55-1.53.68-2.46.82-.78.23-1.53.68-2.15,1.29l-.03.03-.08.02h-.05Z"/>
  <path class="st0" d="M52.05,20.47c.67-1.64,3.06-3.72,4.75-2.19.04.04.03.1-.02.13-.89.54-1.5.67-2.43.81-.79.23-1.55.68-2.2,1.32-.05.05-.13,0-.1-.07h0Z"/>
  <path class="st0" d="M86.31,13.98l-.08-.12-.02-.07.09-.11c.19-.11.39-.24.59-.37.63-.4,1.28-.82,1.9-1,0,0,.02,0,.03,0,.32,0,1.15.1,1.18.49-.22.52-.51.75-.76.91-.64.21-1.41.23-2.15.25-.24,0-.48.01-.7.02h0s-.08,0-.08,0Z"/>
  <path class="st0" d="M86.35,13.75c.76-.45,1.66-1.12,2.47-1.36.16-.02,1.06.07,1.08.4-.19.43-.45.65-.72.82-.8.26-1.92.21-2.8.26-.06,0-.09-.09-.04-.12h0Z"/>
  <path class="st0" d="M105.34,17.46c-.3,0-.69-.14-.81-.44v-.03s0-.1,0-.1c.02-.05.05-.09.1-.11-.07-.12-.13-.35-.18-.56-.05-.2-.09-.39-.18-.57-.22-.51-.46-.96-.72-1.4l-.03-.05.02-.11c.03-.06.09-.09.15-.09,1.02.58,2.19,1.47,2.39,2.56l.02.33c-.03.36-.32.58-.74.58Z"/>
  <path class="st0" d="M103.7,14.1c.88.52,2.06,1.39,2.26,2.46,0,0,.01.32.01.32-.06.66-1.16.58-1.35.1-.02-.04,0-.1.04-.12.32-.2.39-.44.39-.54l-.17.66c-.35-.38-.3-.94-.54-1.38-.2-.47-.44-.94-.72-1.4-.04-.05.03-.13.08-.09h0Z"/>
  <path class="st0" d="M104.32,28.99c-.13,0-.26-.02-.39-.05-.49-.11-.79-.55-1.02-.9-.52-.77-.62-1.74-.26-2.43l.03-.05.11-.03c.09,0,.17.07.17.16.09,1.09.72,1.49,1.53,1.89l.25.22c.14.13.3.28.54.47l.03.02.04.1c0,.05,0,.1-.04.15-.23.29-.59.45-.99.45Z"/>
  <path class="st0" d="M102.87,25.69c.09,1.16.76,1.57,1.59,1.98.2.18.39.37.76.68.04.03.04.09.02.13-.32.4-.84.47-1.28.36-.46-.1-.73-.52-.96-.86-.47-.7-.62-1.63-.25-2.31.03-.06.12-.04.12.03h0Z"/>
  <path class="st0" d="M69.17,106.5c-.16,0-.24-.13-.3-.23-.02-.04-.04-.07-.07-.1-.18-.22-.39-.47-.57-.79l-.03-.05.02-.12c.03-.05.08-.09.13-.1.2-.03.38-.04.57-.04.13,0,.26,0,.39.01,0,0,.21-.01.24-.01.05,0,.19,0,.26.14.09.13.25.6.07.92-.33.31-.54.36-.7.38h-.03Z"/>
  <path class="st0" d="M68.38,105.21c.33-.05.64-.04.94-.03.15.01.34-.07.43.07.07.1.23.53.07.81-.28.25-.46.31-.62.33-.16.02-.22-.19-.32-.3-.2-.23-.39-.47-.55-.77-.03-.05,0-.11.06-.11h0Z"/>
  <path class="st0" d="M69.89,113.59c-.33,0-.65-.15-.94-.42-.52-.36-.94-.83-1.19-1.33l-.02-.05.03-.11c.03-.05.09-.09.14-.09.77.35,1.2.4,1.59.44.22.03.42.05.63.12.03.02.82.55.71.92-.29.35-.61.51-.95.51Z"/>
  <path class="st0" d="M67.93,111.71c1.09.52,1.57.37,2.17.55.08.06.72.52.64.79-.53.62-1.22.54-1.73.05-.49-.34-.91-.78-1.17-1.3-.03-.05.03-.12.09-.09h0Z"/>
  <path class="st0" d="M162.28,54.53l-.06-.03-.05-.03v-.06c.28-2.86.58-6.61.38-10.29v-.05s.05-.08.05-.08l.03-.03.08-.02c.08,0,.14.05.16.13,1.2,2.15,1.46,4.95.72,7.85-.28,1.03-.65,1.83-1.15,2.54l-.03.04-.1.02h-.03Z"/>
  <path class="st0" d="M162.78,44.1c1.33,2.39,1.38,5.21.72,7.8-.24.86-.57,1.72-1.14,2.51-.02.03-.06.03-.08.01.33-3.4.56-6.87.38-10.31,0-.08.11-.08.13,0h0Z"/>
</svg>