<?xml version="1.0" encoding="UTF-8"?>
<svg id="Layer_1" xmlns="http://www.w3.org/2000/svg" version="1.1" viewBox="0 0 311.15 286.86">
  <!-- Generator: Adobe Illustrator 29.4.0, SVG Export Plug-In . SVG Version: 2.1.0 Build 152)  -->
  <defs>
    <style>
      .st0 {
        fill: #fff;
      }

      .st1 {
        display: none;
      }
    </style>
  </defs>
  <g>
    <path class="st0" d="M279.83,90.43c2.15.06,4.05,1.92,5.88,2.98,7.36,4.27,15.05,9.22,19.78,16.4,1.8,2.74,2.32,4.62,3.21,7.95.11.4,1,.62,1.07.99.34,1.78-.26,4.09,0,5.97.31,2.29,1.49,4.35,1.07,7.95-3.35,28.99-8.19,53.33-26.73,78.54-12.64,17.19-29.31,30.29-48.11,40.76.33,8.38-7.08,15.84-14.43,20.38-9.64,5.95-22.1,9.11-33.14,10.94-30.81,5.09-67.83,5-95.15-9.94-5.49-3-9.84-6.11-13.36-11.43-.66-1-3.06-4.32-3.21-4.97-.27-1.17.32-2.91,0-3.98-.65-2.18-5.45-3.55-6.95-4.47C22.33,219.15-1.25,171.22,1.86,118.77c1.63-.8.74-2.15,1.07-2.98.59-1.49,3.3-5.62,4.28-6.96,4.57-6.27,11.18-10.58,17.64-14.42,11.89-7.05,24.75-12.28,37.42-15.91,17-4.87,34.65-6.68,52.39-9.94,1.1-.2,2.54.13,3.74,0l-4.28-8.45c-2.5-4.79-4.93-9.38-6.41-14.91-.11-.4-1-.62-1.07-.99-.18-.91-.18-3.07,0-3.98.07-.37.93-.58,1.07-.99.2-.59-.19-1.37,0-1.99.05-.18,2.26-2.25,2.67-2.49.23-.13.74.14,1.07,0,.46-.2.69-.92,1.07-.99,1.67-.35,8.79-.26,10.69,0,.4.05.65.92,1.07.99,8.66,1.61,17.23,3.36,25.66,4.97,1.09.21,2.55-.13,3.74,0-.16-1.44.24-3.11,0-4.47-.91-5.25-3.68-11.57-4.28-16.9-.25-2.29-.4-7.85,0-9.94.06-.29,1.82-1.42,1.07-2.98l3.74-3.48c2.89-.36,5.2-1.46,8.55-.99.4.05.65.92,1.07.99,6.24,1.17,11.74,2.27,18.17,3.98,1.28.34,4.07,1.65,5.35,1.99,20.42,5.34,40.05,9.47,59.87,14.91,2.98.82,7.05,1.4,9.62,2.98.56.34,3.67,3.24,3.74,3.48.3.98-.53,2.16,1.07,2.98l-1.07,4.97-13.9,13.92,4.81,2.49c10.42,4.44,25.27,7.74,35.28,13.92.79.49,4.37,3.79,4.81,4.47.14.21-.15.69,0,.99.21.43.98.64,1.07.99.21.87.21,4.11,0,4.97-.09.35-.86.56-1.07.99-.15.31.14.78,0,.99-2.64,4.13-9.26,5.47-11.76,9.44ZM254.17,30.78c-1.76.53-2.04-.78-2.67-.99-5.83-1.95-12.13-2.51-18.17-3.98-21.75-5.26-42.6-11.5-65.22-16.9-2.05-.49-3.1-.62-5.35-.99-.5-.08-1.73-1.65-4.28-.99-.18.05-2.62,2.32-2.67,2.49-.34,1.15-.2,6.45,0,7.95.88,6.63,3.94,14.31,5.35,20.88.22,1.02-.14,2.37,0,3.48,1.55.14,3.34-.22,4.81,0s6.19,1.86,7.48,1.99c2.9.28,6.14-.2,9.09,0-2.62-3.53.05-6.79,0-10.44,2.16-4.14,5.89-6.35,11.23-5.47.4.07.64.9,1.07.99,13.51,3.11,23.73,11.9,36.35,16.9l8.55,2.98,15.5-15.41-1.07-2.49ZM285.18,79.5l1.07-4.47c-.94-.67-1.75-1.94-2.67-2.49-.24-.14-.8.15-1.07,0-16.53-9.25-34.32-12.78-51.32-19.88-12.01-5.02-22.65-12.6-34.21-16.9-.62-.23-2.81-1.91-3.21-1.99-5.28-1.09-6.52,4.46-5.88,8.45,3.08,19.29,2.12,41.7,3.21,61.64.26,4.78-.19,9.64,0,14.42,1.72-1.4,3.2-.67,4.81-.99.42-.08.67-.94,1.07-.99,6.45-.88,12.56.85,18.17,1.99l6.41,2.98c.54-1.12,1.83-.82,2.14-.99,1.07-.6,2.08-2.23,3.21-2.98,17.62-11.73,34.36-23.27,52.39-34.8,1.28-.81,3.33-2.49,4.28-2.98.51-.26,1.4.19,1.6,0ZM182.54,50.67c-1.72.55-2.25-.93-2.67-.99-4.06-.66-9.63-.33-13.9-.99-14.13-2.21-28.41-5.58-42.76-7.95-.41-.07-.68-.95-1.07-.99-4.88-.56-10.72-.94-8.55,4.97,2.22,6.04,6.04,11.36,9.09,17.4,6.75,13.39,12.01,29.06,18.17,42.75.6,1.33,2.55,2.81,2.14,4.47,1.19-.13,2.65.21,3.74,0,3.02-.58,7.3-2.59,10.69-2.98,3.57-.41,5.39.7,7.48.99,2.24.31,4.99-.82,6.41.99h2.14l10.16-11.43v-42.75l-1.07-3.48ZM121.6,74.53c-1.2.13-2.65-.21-3.74,0-14.19,2.72-28.83,3.67-42.76,6.96-8.94,2.11-18.9,5.3-27.8,8.95-12.24,5.02-24.75,10.59-32.61,20.38-3.36,4.18-3.96,4.73-5.35,9.94-.11.4-1,.62-1.07.99-.34,1.77.23,4.08,0,5.97,1.62,2.22,2.76,4.66,4.28,6.96,9.77,14.78,38.54,24.98,55.06,29.33,3.45.91,7.28,1.19,10.69,1.99.59.14,1.79,1.75,3.74.99l-5.88-6.96c-13.28-2.73-27.16-7.14-39.56-13.92-6.54-3.57-14.88-10.42-17.64-17.4-.22-.56.2-1.35,0-1.99-.12-.4-1-.63-1.07-.99-.23-1.22-.23-4.74,0-5.97.07-.37.95-.59,1.07-.99.19-.64-.22-1.43,0-1.99,7.24-18.3,37.88-27.08,55.06-31.32,14.22-3.5,28.98-5.79,43.83-7.95,1.48-.22,3.26.14,4.81,0l-1.07-2.98ZM106.1,91.43c6.93-.67,14.87.49,21.92,0l-3.21-8.95c-1.2.13-2.65-.21-3.74,0-13.03,2.49-26.66,3.17-39.56,5.97-14.22,3.08-29.47,8.02-42.76,15.91-.79.47-3.65,1.54-4.28,1.99-4.41,3.18-7.06,6.7-9.09,11.43-.18.42-.98.63-1.07.99-.52,2.19.37,5.55,0,7.95l3.21,4.47c-.28-1.64.45-3.02,1.07-4.47.93-2.17,1.87-3.14,3.21-4.97,6.12-8.37,11.81-11.75,21.92-14.42,6.91-1.82,14.59-2.05,21.38-3.98,5.65-1.6,12.17-6.74,18.17-8.95,4.02-1.48,7.72-1.42,11.76-1.99.4-.06.68-.96,1.07-.99ZM186.82,172.95c1.9-.16,4.04.23,5.88,0,17.19-2.16,35-4.69,51.32-8.95,14.74-3.85,30.68-9.71,43.83-18.89,5.2-3.63,10.53-7.56,13.36-13.42.2-.41.92-.61,1.07-.99.33-.84-.56-2.19,1.07-2.98.72-5.98-1.02-9.98-4.28-14.91-4.81-7.28-12.54-11.43-19.78-16.4l-6.41-2.98-2.67,2.49c1.01,1.09,2.45,1.76,3.74,2.49,2.1,1.17,5.69,2.68,7.48,3.98,3.77,2.72,9.7,9.57,11.23,13.42.33.84-.56,2.19,1.07,2.98.54,5.78-.21,9.2-3.21,13.92-9.75,15.34-34.25,22.27-50.78,26.35-11.4,2.81-24.35,5.79-36.35,6.96-2.89.28-6.62-.88-8.55.99l-8.02,5.97ZM184.68,120.26v-13.92l-9.09,7.95c-2.09.59-2.91-.94-3.21-.99-4.16-.69-11.78-1.48-16.04-.99-2.98.34-7.7,2.26-10.69,2.98s-5.57.57-8.55.99c-.4.06-.67.94-1.07.99-3.36.46-5.67-.63-8.55-.99l-4.81-3.48c1.31-1.82,3.89-1.84,5.88-1.49.41.07.66.92,1.07.99,2.69.46,4.49-.56,6.95-.99.26-1.62-.41-3.04-1.07-4.47-.32-.71-1.78-2.25-2.14-2.98-.3-.61-.37-2.88-1.07-3.98-.53-.83-1.98-1.61-2.67-2.49-7.23.5-15.36-.68-22.45,0-.39.04-.67.94-1.07.99-5.76.81-10.7,1.14-16.04,3.98-.75.4-1.4,1.6-2.14,1.99-11.49,6-20.44,5.77-32.07,8.95-3.29.9-6.75,1.46-9.62,2.98-.61.33-2.8,1.71-3.21,1.99-3.4,2.37-6.61,6.84-8.02,10.44-.71,1.82-.64,2.29-1.07,3.98-.1.39-.97.61-1.07.99-.69,2.76,1.45,4.88,3.74,6.46,8.42,5.81,21.44,9.17,31,11.93.67.19,1.68,1.7,3.74.99l-1.07-2.98c5.45.05,8.9,4.03,11.76,7.46.17.2-.17.78,0,.99,4.51,5.5,12.28,9.95,16.04,15.91,2.16,7.31,3.99,13.9,3.21,21.87-.36,3.73-1.46,8.76-2.14,12.92-.06.37-1.03.63-1.07.99-.21,1.91-.34,6.2,0,7.95.07.37.95.59,1.07.99.19.64-.22,1.43,0,1.99.25.62,1.84,2.32,2.14,2.98.24.54-.19,1.32,0,1.49.2.19,1.1-.26,1.6,0,.74.38,1.59,1.84,2.14,1.99.67.18,1.5-.19,2.14,0,.44.13.66.91,1.07.99,2.42.52,2.99-.45,4.28-.99.33-.14.84.13,1.07,0,2.1-1.16,3.54-3.88,4.81-5.47-.89-1.84,1.02-3.68,1.07-3.98.31-1.97.21-5.88,0-7.95-.15-1.43-2-6.53-2.14-7.95-.33-3.38-.5-10.72,0-13.92.06-.37.98-.6,1.07-.99.21-.9-.24-2.15,0-2.98.06-.22,2-3.79,2.14-3.98.58-.82,5.07-5.02,5.88-5.47.23-.13.74.14,1.07,0,.46-.2.69-.92,1.07-.99,1.12-.23,6.36-.23,7.48,0,.38.08.61.8,1.07.99.33.14.84-.13,1.07,0,2.52,1.4,3.8,4.09,4.81,6.46s.64,2.73,1.07,4.97c.07.38,1,.62,1.07.99.27,1.52-.33,3.55,0,4.97.22.93,2.75,2.95,2.14,4.47,2.34.37,4.12,1.47,6.95.99.42-.07.95-1.54,2.67-.99-.47-1.65,1.64-3.22,2.14-4.47.9-2.27,1.48-5.58,2.14-7.95.39-1.43.63-3.59,1.07-4.97.15-.47,1.64-1.31,2.14-1.99.17-.24-.16-.79,0-.99.7-.9,2.77-2.81,3.74-3.48.51-.35,2.44-1.56,3.21-1.99,2.5-1.4,5.94-1.33,8.55-1.99,7.91-2.01,13.47-11.91,21.38-13.92.9-.23,2.26.21,3.21,0,.42-.09.65-.9,1.07-.99,1.83-.41,3.68-.07,4.81,1.49l-4.28,3.48c2.6-.18,5.47.26,8.02,0,15.62-1.61,42.86-8.94,57.73-16.9,2.05-1.1,4.45-4.13,6.95-3.98-.34-2.27.48-5.38,0-7.46-.36-1.56-3.25-4.6-4.28-5.97-3.6-4.78-12.34-9.95-18.71-12.43-.6-.23-1.5.22-2.14,0-.6-.21-2.81-1.91-3.21-1.99-.93-.19-2.18.13-3.21,0l-17.64,13.42,3.74,1.49c3.43.41,7.17-2.95,10.16.5-1.44.64-.58,2.16-1.6,2.49-1.24.4-1.72.85-2.14.99-.91.31-2.35-.52-3.21.99-14.38,1.59-23.81-9.95-38.49-7.95-2.43.33-7.05,2.48-9.62,2.98-1.44.28-4.61.91-5.35.99-3.01.35-6.52-.24-9.62,0l-5.88-1.99c.2-5.1,9.06-2.39,13.36-2.98.31-.04,1.8-1.75,3.74-.99ZM286.24,130.2c.56-3.3,2.8-6.04,2.14-9.44-.07-.37-.95-.59-1.07-.99-.19-.64.22-1.43,0-1.99-1.06-2.67-3.78-5.68-5.35-7.95-.44-.64-10.56-7.52-12.29-8.45-1.17-.62-3.42-.76-4.28-1.99-3.96,1.21-7.3,3.64-10.16,6.46l14.43,6.46c6.61,4.42,10.92,8.28,14.43,15.41.42.86.35,2.37,2.14,2.49ZM9.34,142.13c.17,2.1-.25,4.41,0,6.46.63,5.08,2.94,11.01,4.28,15.91,22.15,80.89,106.33,112.96,187.63,92.95,47.75-11.75,81.57-42.79,95.69-86.99,3.02-9.44,3.77-15.82,5.35-25.85.03-.19,2.49-2.45.53-3.48l-8.55,7.95c-26.36,20.06-79.39,28.75-112.26,30.82-3.87.24-7.87-.17-11.76,0l-2.67,3.48c-.64,4.47-2.19,8.61-3.21,12.92-1.37,1.81-3.6,5.2-5.88,6.46-.23.13-.74-.14-1.07,0-.46.2-.69.92-1.07.99-1.2.25-7.35.25-8.55,0-.38-.08-.61-.8-1.07-.99-.33-.14-.84.13-1.07,0-.65-.36-4.42-3.87-4.81-4.47-.73-1.14-.73-2.86-1.07-3.98-.46-1.5-1.84-4.56-2.14-5.97-.25-1.19.28-2.83,0-3.98-.09-.35-.86-.56-1.07-.99-.15-.31.14-.78,0-.99-2.27-3.55-7.24-3.47-9.62,0-1.23,1.79-1.58,4.16-2.14,5.97-.12.4-1,.63-1.07.99-.51,2.67-.29,9.97,0,12.92.14,1.41,2,6.54,2.14,7.95.23,2.31.34,6.76,0,8.95-.06.37-.98.6-1.07.99-.21.9.24,2.15,0,2.98-.1.33-2.97,5.64-3.21,5.97-1.72,2.41-4.22,3.47-6.95,4.47-.46.17-.68.91-1.07.99-1.25.26-6.14.22-7.48,0-.4-.07-.63-.88-1.07-.99-.69-.18-1.56.21-2.14,0-.42-.16-.63-.8-1.07-.99-.33-.14-.84.13-1.07,0-2.79-1.54-5.86-5.67-6.95-8.45-.16-.41-.96-.61-1.07-.99-.24-.83.21-2.08,0-2.98-.09-.39-1.01-.63-1.07-.99-.37-2.34-.27-7.5,0-9.94.45-4.02,2.8-9.79,3.21-13.92.61-6.19-.3-9.78-2.14-14.91-.22-.61.24-1.43,0-1.99-.17-.39-.86-.58-1.07-.99-.16-.31.14-.8,0-.99-1.35-1.97-2.47-1.11-3.74-1.49-.44-.13-.67-.92-1.07-.99-1.27-.24-3.04.26-4.28,0-19.04-3.94-39.55-10.29-57.73-19.88l-15.5-11.93ZM204.46,159.03c-.69,0-.69.99,0,.99s.69-.99,0-.99ZM228.51,255.46c-2.07.22-3.96,1.27-5.88,1.99-41.76,15.69-92.51,16.03-134.71,0-.73-.28-2.42-1.43-3.21-1.99-.8-.15-.74,1.06-.53,1.49,2.2,4.59,6.14,7.21,10.16,10.44,31.74,15.34,71.17,16.18,104.77,6.96,10.1-2.77,21.83-7.28,27.26-15.41.47-.7,2.4-3.27,2.14-3.48Z"/>
    <path class="st0" d="M25.38,164l1.07,4.47c12.08,28.65,31.88,54.78,61.47,70.09l4.81,4.97-6.95-1.99c-.76-.5-1.43-1.63-2.14-1.99-31-15.77-51.47-40.94-60.4-72.08-.51-1.76-.56-4.28,2.14-3.48Z"/>
    <path class="st0" d="M234.93,236.57l9.09-8.95c18.1-13.28,31.36-33.58,39.02-53.19l4.81-10.44.53,6.46c-7.08,25.24-23.52,48.16-47.58,64.12l-5.88,1.99Z"/>
    <path class="st0" d="M110.91,106.34l-4.81,2.98-7.48,1.99c-1.74,1.92-4.18,2.38-5.88,4.47-.16.19.18.75,0,.99-.49.68-2,1.53-2.14,1.99-.72,2.44.33,5.17,2.67,6.46.23.13.74-.14,1.07,0,.46.2.69.92,1.07.99,1.23.26,2.97-.22,4.28,0,.41.07.68.95,1.07.99,3.63.42,8.34-.57,11.76,0,.4.07.63.88,1.07.99,6.4,1.7,6.63,4.14,11.76,6.96,4.45,2.45,10.19,4.57,14.97,1.99l10.16.5-3.74,2.49c-2.24-.25-5.84,1.77-7.48,1.99-2.28.31-9.59.36-11.76,0-.39-.07-.63-.86-1.07-.99-.64-.19-1.47.18-2.14,0-.5-.13-1.41-1.53-2.14-1.99-2.35-1.48-8.05-6.63-9.62-6.96-3.11-.65-8.24.4-11.76,0-.39-.04-.66-.93-1.07-.99-1.31-.22-3.02.24-4.28,0-.4-.08-.64-.88-1.07-.99-1.2-.32-3.05-.32-4.28-.99-.59-.32-3.39-2.94-3.74-3.48-.14-.21.15-.69,0-.99-.21-.43-.98-.64-1.07-.99-.23-.96-.23-5,0-5.97.09-.36.89-.57,1.07-.99.99-2.32,1.44-3.85,3.74-5.47,1.06-.75,6.04-3.48,7.48-3.98,2.48-.85,5.73-1.17,8.55-1.99,1.97-.57,2.96,1.29,4.81.99Z"/>
    <path class="st0" d="M230.65,147.1c-.35-3.32,2.24-2.47,3.74-2.98,5.62-1.92,11.16-3.29,17.11-5.97l4.81-4.47c-.32-2.12.46-5.03,0-6.96-.12-.5-3.02-3.65-2.14-4.47,2.25-.46,4.2.8,5.35,2.49.15.23-.16.74,0,.99,1.57,2.47,2.77,3.73,2.14,6.96-.06.3-1.81,1.42-1.07,2.98-1.43,1.96-3.5,4.99-5.88,6.46-.51.31-8.09,3.86-8.55,3.98-3.06.78-6.63,1.33-9.62,1.99-2.42.54-3.77-.91-5.88-.99Z"/>
    <path class="st0" d="M152.61,150.08c-1.45-1.15-.13-1.91,1.6-1.99,2.88-.13,6.84-.28,9.62,0,.39.04.67.94,1.07.99,4.01.55,7.42-.88,10.69-1.99,4.51-1.52,7.9-3.96,12.83-3.98,2.09,0,3.44-.39,4.81,1.49l-4.81,2.49c-4.27-.26-10.39,5.26-13.9,5.97-3.21.65-8.26-.46-11.76,0l-10.16-2.98Z"/>
    <path class="st0" d="M103.43,177.92c-.18-1.42.26-3.14,0-4.47-.07-.37-.94-.59-1.07-.99-1.11-3.61-2.45-6.55-5.88-9.44-1.99-.3-10.78-6.94-11.23-8.45-.42-1.4.28-3.84,0-5.47,1.17.33,2.45,1.6,3.21,2.49,4.55,5.32,6.19,4.91,11.23,8.45.75.53,4.7,5.12,4.81,5.47.19.62-.2,1.4,0,1.99.57,1.67,1.73,4.34,2.14,5.97.57,2.27-.26,4.76-3.21,4.47Z"/>
    <path class="st0" d="M179.33,161.02l-3.74,3.98c-3.99,1.44-8.17,2.85-11.76,4.97-2.11,1.24-3.15,5.96-5.88,6.96l1.07-6.46c1.93-1.05,2.08-3.49,3.74-4.47,2.66-1.56,5.77-2.1,8.55-3.98l8.02-.99Z"/>
    <path class="st0" d="M222.1,135.17c-1.82-.23-4.22.33-5.88,0-.93-.19-4.3-2.72-5.35-2.98-1.61-.41-4.58-.69-6.41-.99s-3.41.65-4.81-1.49c1.4-1.97,2.76-1.39,4.81-1.49,5.59-.26,5.4.42,9.62,1.99.89.33,1.68.35,3.21.99,1.82.77,5.15.98,4.81,3.98Z"/>
    <path class="st0" d="M64.94,117.27c-.49,2.18-3.5,2.27-4.81,2.98-1.53.83-4.34,2.27-5.35,2.98-1.91,1.35-2.5,2.93-3.74,4.47l.53,7.46-3.74-4.47v-2.49l2.14,1.99-1.07-4.47c.12-.38.89-.58,1.07-.99.29-.68.76-2.54,1.07-2.98,1.81-2.64,6.5-3.96,9.62-4.97l4.28.5Z"/>
    <path class="st0" d="M110.91,223.65c-3.28.24-5.6.25-7.48-2.49-.15-.22.16-.74,0-.99-.41-.64-2.06-2.66-2.14-2.98-.76-3.28-.28-9.16,2.67-11.43,1.22,1.25.27,3.83.53,5.47.06.37,1,.61,1.07.99.54,2.81.13,5.1,2.14,7.95.82,1.16,2.85,1.98,3.21,3.48Z"/>
    <polygon class="st0" points="67.08 142.13 65.47 144.12 61.73 143.12 64.4 141.13 67.08 142.13"/>
    <path class="st0" d="M260.59,82.48l2.14-4.47c-1.31-1.76-4.69-1.48-4.28-4.47,7.3-1.06,11.36,2.61,6.41,8.45l-4.28.5Z"/>
    <path class="st0" d="M203.92,53.65c-.14.14.32,1.96-1.07,2.49,1.42.83.98,1.67,1.07,2.98.06.89.43,3.45-1.6,2.49-1.86-.88-2.53-3.27-3.74-4.47v-1.99c1.79-3.12,4.6-6.8,8.55-2.98-.6,1.55-3.09,1.37-3.21,1.49Z"/>
    <path class="st0" d="M218.89,107.33h2.14c-.12-1.53-.29-4.41,1.6-4.97,2.07-.61,2.6,2.63,3.74,3.48l-2.67,4.47c-2.78.34-5.07-.21-4.81-2.98Z"/>
    <path class="st0" d="M237.07,91.43h3.21v-3.98c3.66-.71,5.58,2.18,3.74,4.97-1.06,1.61-2.97,1.81-4.28,2.98l-2.67-3.98Z"/>
    <path class="st0" d="M209.8,78.5l2.14,1.99c.89-1.44,3.14-2.69,3.74-.5,1.07,3.91-2.4,5.98-5.88,3.48-2.19-1.58-2.38-3.26,0-4.97Z"/>
    <polygon class="st0" points="229.58 66.57 234.39 66.57 236 70.05 230.12 71.54 228.51 69.06 229.58 66.57"/>
    <polygon class="st0" points="202.85 99.38 203.92 101.87 202.32 103.36 199.65 103.36 199.65 100.87 202.85 99.38"/>
    <path class="st0" d="M142.45,76.51c1.53,1.19,2.53,2.08.53,3.48l2.67,2.49c1.5-1.85,2.46-.92,3.74.5.85,2.82-5.01,2.73-6.95,2.49-2.68-.34-3.7-3.18-3.74-5.47l3.74-3.48Z"/>
    <path class="st0" d="M165.43,95.4l4.28-.99v-3.98c1.96-.22,3.1-.05,4.28,1.49v3.98l-2.67,2.49h-4.28l-1.6-2.98Z"/>
    <path class="st0" d="M128.55,48.68c1.85-.69,8.84,1.01,8.02,3.48-.95,2.86-4.2.04-5.88.5-.79.22-1.63,2.46-3.21,1.99l-1.6-2.49,2.67-3.48Z"/>
    <path class="st0" d="M156.88,62.6l-1.07,3.98c4.83-.24,1.19,3.94-2.67,2.98-3.7-.92-.88-8.42,3.74-6.96Z"/>
    <path class="st0" d="M171.31,55.64l3.74,3.48c-3.34,3.76-7.79-.38-3.74-3.48Z"/>
    <path class="st0" d="M179.33,79.5h-3.21v-3.98c2.7-.24,3.6,1.59,3.21,3.98Z"/>
    <path class="st0" d="M175.06,17.86c.28,3.22-1.98,2.51-3.74,2.98-1.46.39-1.68,3.33-3.21,3.98l-2.67-2.49c-.31-1.01,2.68-5.19,3.74-5.47,2.33-.6,3.81.96,5.88.99Z"/>
    <path class="st0" d="M233.86,31.78c3.1-.44,4.56.28,6.41,2.49.04,1.62.47,4.82-1.6,5.47-2.94.92-2.38-3.56-2.67-4.47-.26-.84-2.87-1.55-2.14-3.48Z"/>
    <polygon class="st0" points="208.2 24.82 208.2 27.3 206.6 28.79 203.92 27.3 205.53 24.82 208.2 24.82"/>
  </g>
  <g class="st1">
    <path class="st0" d="M326.85,160.16c-.4,3.91-2.46,10.09-3.46,14.06-6.31,24.91-26.11,52.89-52.52,59.16-1.14.27-2.76-.17-4.04,0-.6,2.28,1.46,2.74,2.31,4.1,5.73,9.15,12.17,21.55,15.01,31.63.13.48,1.08.74,1.15,1.17.17.96.22,3.88,0,4.69-.15.54-3.68,2.85-4.04,2.93-3.72.81-9.7-.52-13.85,0-1.99.25-6.67,1.71-9.24,2.34-7.56,1.85-16.36,5.13-24.24,5.86-21.63,2-46.54-6.51-57.14-26.36-3.09-5.42-6.52-11.16-6.93-16.99h-17.32l-1.15-9.37c-2.36.33-4.52-.77-6.35-2.34l-13.85-4.69,2.89,5.27c-.3,2.16.43,5.08,0,7.03-.1.44-.98.68-1.15,1.17-1.98,5.62-3.48,6.23-6.93,10.54-5.01,6.26-10.03,11.4-16.74,15.81-4.93,3.24-9.32,4.6-15.01,5.86-.45.1-.72,1.1-1.15,1.17-1.76.3-3.97-.27-5.77,0-.43.06-.71,1.09-1.15,1.17-3.22.6-4.94-1.07-5.77-1.17-6.26-.78-9.09-.85-15.01-2.34-13.09-3.3-26.63-8.15-39.25-14.06-9.2-4.3-19.62-11.66-24.82-20.5-1.6-2.72-2.51-6.47-3.46-9.37-8.35-25.45-1.08-52.19,19.05-70.87l8.66-6.44c-.21-6.62.29-13.3,0-19.92-.02-.41-1.14-.77-1.15-1.17-.39-9.87-1.31-28.39,0-37.49.06-.43,1.06-.71,1.15-1.17.23-1.06-.26-2.54,0-3.51.4-1.48,2.64-3.48,3.46-4.69,3.62-5.27,6.01-7.35,10.97-11.13,10.27-7.82,22.04-13.36,33.48-19.92,25.8-14.79,50.86-29.87,77.34-42.17,4.47-2.07,5.29-2.48,10.39-3.51.45-.09.73-1.11,1.15-1.17,1.95-.29,6.08-.25,8.08,0,.42.05.71,1.09,1.15,1.17,4.25.77,7.61,1.37,11.54,2.34,26.23,6.5,52.64,13.58,78.5,21.09,8.93,2.59,24.79,5.97,32.32,11.71,2.21,1.69,4.14,4.6,6.35,6.44l2.31,7.03c.24,4.22-.34,8.72,0,12.89,1.42,17.33-.3,39.34-1.15,57.4-.29,6.03.21,12.14,0,18.16,1.85.65,2.44-1.09,2.89-1.17,5.54-.96,10.75-1.23,16.16-2.34.43-.09.69-1.03,1.15-1.17l5.19,2.93c-.47,6.43.64,13.61,0,19.92ZM184.86,143.76v69.7c2.62-2.19,5.52-3.35,8.66-4.69,3.97-1.7,9.97-4.2,13.85-4.69,2.04-.26,10.58.39,10.97,0,.15-1.31-.24-2.89,0-4.1.74-3.74,2.27-8.09,3.46-11.71,4.31-13.15,10.46-21.59,21.36-29.87,1.95-1.48,3.97-3.02,5.77-4.69l11.54-5.86c.67-.25,1.6.24,2.31,0,8.6-2.91,17.35-4.38,26.55-5.86,1.59-.26,3.53.17,5.19,0,.18-2.47-.27-5.19,0-7.61,1.37-12.45,1.99-28.49,2.31-41,.25-9.79.96-23.39,0-32.8-.04-.42-1.09-.73-1.15-1.17-.27-1.81.36-4.19,0-5.86-.08-.38-1.87-2.76-2.31-3.51-.18-.3.17-.91,0-1.17-.4-.64-2.26-2.52-2.89-2.93-6.96-4.54-17.98-7.11-25.4-9.37-28.36-8.67-57.64-16.29-86.58-23.43-1.38-.34-5.81-2.2-6.93-2.34-2.3-.29-8.25-.39-10.39,0-.43.08-.7,1.06-1.15,1.17-6.88,1.73-10.06,3.84-16.16,7.03-30.39,15.86-61.79,33.35-91.2,51.54-2,1.24-5.07,2.25-6.93,3.51l-10.97,10.54c4.29.32,9.05-.44,13.28,0,17.94,1.88,40.76,12.85,58.87,18.74,17.8,5.79,36.55,9.24,54.26,15.23,5.37,1.82,6.89,2.54,11.54,5.86.27.19.92-.18,1.15,0,4.35,3.31,6.83,8.36,8.66,13.47.76,2.13.7,2.58,1.15,4.69.1.46,1.09.74,1.15,1.17ZM31.33,91.04v51.54c0,.21,2.06,2.08,1.15,4.1,2.05.91,3.58-1.09,4.04-1.17,1.83-.34,4.86-1.06,5.77-1.17,6.49-.83,13.86,2.09,19.62,3.51,14.97,3.7,31.06,9.24,45.02,17.57,9.54,5.69,15.6,12.04,19.05,22.84.15.48,1.06.73,1.15,1.17.3,1.35-.25,3.25,0,4.69.08.45,1.1.74,1.15,1.17.69,5.68.04,14.79-1.15,19.92-.13.54-1.78,1.02-1.15,2.93l30.59,10.54c6.54-.19,12.51,1.57,16.74-4.1.21-.28-.17-.97,0-1.17,1.77-2.07,3.96-3.82,5.77-5.86v-71.46l-2.31-8.2-8.66-9.96c-14.78-6.93-29.95-8.59-45.02-12.89-25.39-7.24-50.41-19.37-76.19-24.6-.45-.09-.73-1.11-1.15-1.17-3.85-.57-8.69.41-12.7,0l-1.73,1.76ZM261.05,200.58h24.82c.6,0,6.78-2.42,8.66-2.93,1.16-.31,3.46-1.29,2.31,1.17-1.01,2.15-6.92,3.27-8.66,5.27-8.15,1.05-18.97,2.12-27.71,1.17-.42-.05-.72-1.11-1.15-1.17-1.78-.27-3.91.18-5.77,0-1.84,3.05-7.21,4.48-8.66,7.61-1.08,2.33,2.55,1.58,2.89,2.93,4.6,1.67,20.82,1.89,26.55,1.17.42-.05.72-1.1,1.15-1.17,2.08-.35,4.45.87,5.77-1.17l1.73,2.34c-2.28.21-4.2,1.55-6.35,2.34-1.18.43-4.96,2.22-5.77,2.34-2.51.37-13.89-.5-14.43,0-.47,2.01.76,2.32,1.73,3.51,2.42,2.95,4.06,4.26,8.08,3.51.44-.08.7-1.07,1.15-1.17,5.15-1.15,11.52-3.05,16.16-5.86,17.87-10.81,31.26-34.1,35.21-53.3,1.19-5.77.82-11.41,1.15-17.57.08-1.5-.4-2.51,1.15-3.51-1.53-2.19-4.87.54-5.19.59-12.19,1.87-24.64,1.81-36.94,3.51-3.27.45-8.26,2.54-11.54,3.51-22.23,6.63-36.4,21.05-40.98,43.93-.09.46-1.09.73-1.15,1.17-.3,1.97.2,4.38,0,6.44l8.08,2.34c.3-3.57-.42-7.65,0-11.13.05-.43,1.08-.72,1.15-1.17,1.28-7.32,2.48-13.88,6.93-19.92,1.03-1.4,3.04-3.3,4.62-4.1.28,1.91-.45,3.58-1.15,5.27-2.8,6.7-5.46,11.93-6.93,18.74l.58,14.64c2.63-3.81,8.74-6.15,10.97-9.96.14-.23,1.12-2.2,1.15-2.34.43-1.95-.31-4.87,0-7.03.51-3.51,3.43-8.75,3.46-12.89,3.4-6.06,5.99-12,10.97-16.99,1.51.03,4.37-3.12,4.04.59-2.97,2.89-5.71,6.63-6.93,10.54l-5.77,15.23-.58,8.79c1.75-.72,3.14-2.63,4.62-3.51,4.04-2.41,7.81-4.61,11.54-7.03,3.02-1.96,3.04-7.9,4.04-11.13,1.02-3.31,3.58-6.97,4.62-10.54l9.81-9.96c1.7,1.14.3,2.93-.58,4.1-3.23,4.29-5.7,8.18-8.08,12.89l-1.73,8.79,32.9-26.94c.52,2.7-.33,3.02-1.73,4.69-5.44,6.49-12.62,12.27-18.47,17.57-1.82,1.65-3.4,3.59-5.19,5.27l9.81-.59c2.32-1.45,5.43-2.34,8.08-3.51.65-.29,7.07-4.63,5.19-.59-1.44,3.11-8.79,6.39-12.12,7.61-7.19,2.64-12.9,1.65-19.62,3.51-1.4.39-12.27,8.08-13.85,9.37-1.41,1.15-3.24,3.03-4.04,4.69ZM47.49,151.37h-8.66C7.78,161.79-6.15,197.32,3.63,226.93l5.77,10.54,6.35,6.44-1.73-5.27c-5.1-10.1-7.28-23.94-5.77-36.32.05-.43,1.08-.72,1.15-1.17.77-4.42.92-6.32,2.31-10.54,5.37-16.36,16.6-32.02,32.9-36.9l2.89-2.34ZM65.96,154.89c-2.41.77-4.28-1.83-6.35-1.17-3.97,1.26-7.85,1.28-11.54,2.34-9.98,2.88-21.5,13.27-27.13,22.84-1.85,3.14-6.33,13.46-6.93,16.4-.28,1.38.25,3.25,0,4.69-.08.45-1.1.74-1.15,1.17-.57,4.69-.57,16.39,0,21.09.05.43,1.08.72,1.15,1.17.45,2.56.23,5.64,1.15,8.2,1.21,3.34,7.77,14.44,10.39,16.4,1.23.92,3.05,1.17,4.04,2.93l-2.89-6.44c-7.11-13.53-7.21-29.7-3.46-44.52,1.5-5.94,2.6-9.53,5.77-15.23,6.88-12.36,19.22-25.38,32.9-28.7,1.43-.35,4.27,1.09,4.04-1.17ZM79.82,159.57c-3.1.1-5.3-1.8-8.66-1.17-.44.08-.73,1.11-1.15,1.17-4.35.64-8.4.59-12.7,2.34-11.57,4.73-23.78,20.68-28.28,32.22-1.48,3.79-1.66,8.03-2.31,11.71-.08.45-1.1.74-1.15,1.17-.57,4.69-.57,16.39,0,21.09.05.43,1.08.72,1.15,1.17.25,1.43-.28,3.31,0,4.69.09.44,1.02.7,1.15,1.17,2.35,8.4,5.85,14.14,12.7,19.92,1.34,1.13,2.64,1.92,4.04,2.93l-6.35-12.3c-4.25-13.5-5.91-27.27-2.31-41,2.64-10.08,12.27-26.84,20.2-33.39,4.7-3.88,13.96-9.17,19.62-10.54,1.43-.35,4.27,1.09,4.04-1.17ZM95.98,165.43c-2.26.63-3.37-.98-5.19-1.17-2.82-.3-8.84-.4-11.54,0-.43.06-.71,1.08-1.15,1.17-2.2.45-4.7.58-6.93,1.17-24.67,13.29-35.6,40.62-31.75,67.36.06.43,1.06.72,1.15,1.17.98,4.96,2.16,8.26,3.46,12.89.26.93,7.19,10.02,8.66,11.13.24.18.89-.19,1.15,0,1.55,1.11,4.55,4.74,6.35,2.93-3.63-3.55-6.37-7.89-8.08-12.89-6.78-13.55-5.44-29.71-1.15-43.34,1.77-5.64,3.65-11.29,6.93-16.4,4.46-6.96,12.76-14.74,20.2-18.16,3.89-1.79,8.54-3.95,12.7-4.69,1.57-.28,5.29,1.12,5.19-1.17ZM86.74,205.26c-1.68,3.42-3.46,6.73-4.62,9.96-.77,2.14-.7,2.58-1.15,4.69-.1.46-1.09.74-1.15,1.17-.3,2.11-.3,7.27,0,9.37.05.35,2.11,2.52,1.15,4.69,3.11,6.29,8.29,8.94,15.58,7.61.43-.08.68-1.04,1.15-1.17.74-.21,1.66.24,2.31,0,10.24-3.84,17.7-17.26,20.2-27.53.11-.47,1.08-.73,1.15-1.17.31-1.77-.27-4.04,0-5.86.07-.44,1.09-.73,1.15-1.17.21-1.44.21-4.42,0-5.86-.06-.44-1.09-.73-1.15-1.17-.27-1.82.31-4.09,0-5.86-.08-.43-1.02-.69-1.15-1.17-.21-.75.24-1.69,0-2.34-.36-.99-3.01-6.34-3.46-7.03-.8-1.22-6.31-6.81-7.5-7.61-.47-.32-2.67-.88-3.46-1.17-.48-.18-.71-1.05-1.15-1.17-.96-.27-2.42.23-3.46,0-.45-.1-.73-1.11-1.15-1.17-2.07-.31-7.16-.31-9.24,0-.43.06-.71,1.08-1.15,1.17-2.2.45-4.7.58-6.93,1.17-23.96,12.43-34.74,41.38-29.44,67.36.09.44,1.02.7,1.15,1.17,1.2,4.29,2.25,6.52,4.62,10.54,2.12,3.6,3.08,5.27,6.35,7.61,1.23.88,2.25,2.69,3.46,3.51.43.29,4.21,2.19,4.62,2.34.97.36,2.54-.62,3.46,1.17,20.79,2.53,38.88-10.49,49.06-27.53.9-1.5,4.41-5.7.58-5.27-1.19,1.73-2.93,3.64-4.04,5.27-5.88,8.65-9.19,14.11-20.2,18.16-.48.18-.71,1.05-1.15,1.17-.96.27-2.42-.23-3.46,0-.45.1-.73,1.11-1.15,1.17-1.66.25-5.27.25-6.93,0-.43-.06-.71-1.08-1.15-1.17-2.2-.45-4.7-.58-6.93-1.17-.74-1.72-2.99-1.99-3.46-2.34-2.6-1.91-7.14-7.4-8.66-9.96-1.19-2.01-1.71-5.76-2.31-8.2-.11-.47-1.08-.73-1.15-1.17-.55-3.14-.48-15.44,0-18.74.06-.43,1.06-.72,1.15-1.17,1.94-9.83,5.66-16.69,11.54-24.6,1.61-2.17,9.79-7.91,12.12-8.79.97-.36,2.54.62,3.46-1.17h11.54c5.72,3.21,8.77,6.16,10.97,12.3.17.48,1.03.72,1.15,1.17.26.98-.23,2.45,0,3.51.1.46,1.09.74,1.15,1.17.38,2.64.33,9.01,0,11.71-.05.43-1.08.72-1.15,1.17-.25,1.44.29,3.33,0,4.69-.09.42-1.97,2.78-2.31,3.51-.27.58.22,1.57,0,2.34-.12.43-4.11,6.36-4.62,7.03-1.09,1.43-5.01,5.54-6.35,6.44-.48.32-2.69.86-3.46,1.17-.49.2-.73,1.08-1.15,1.17-1.22.27-6.86.28-8.08,0-.41-.09-.65-.94-1.15-1.17-.36-.17-.91.15-1.15,0-2.72-1.65-4.1-4.82-5.19-7.61-.2-.5-1.06-.74-1.15-1.17-.32-1.48-.28-7.77,0-9.37.08-.43,1.02-.69,1.15-1.17.21-.76-.25-1.71,0-2.34.18-.46.93-.69,1.15-1.17.16-.36-.15-.92,0-1.17,1.35-2.3,4.5-3.88,6.35-5.27,3.94-.51,6.71,1.77,9.24,4.69,1.33-1.04,2.29-2.33,1.73-4.1-.15-.47-1-.7-1.15-1.17-.22-.69.21-1.61,0-2.34-.53-1.87-5.23-3.32-6.35-5.27l-10.39-3.51h-2.31c-3.59,3.43-5.67,7.78-7.5,12.3-1.4,3.46-1.57,4.46-2.31,8.2-.09.45-1.09.74-1.15,1.17-.32,2.19-.45,13.57,0,15.23.41,1.51,4.93,4.2,6.35,5.27l-2.89-9.96c.18-1.89-.26-4.05,0-5.86.06-.44,1.08-.72,1.15-1.17.25-1.44-.29-3.33,0-4.69.08-.39,3.18-6.6,3.46-7.03.72-1.11,5.78-6.37,6.93-5.27ZM91.36,214.63c.57,1.91-2.1,4.31-2.31,5.27-.74,3.41-.23,11.46,2.89,13.47.23.15.79-.17,1.15,0,.5.23.74,1.08,1.15,1.17.88.2,3.74.2,4.62,0,.41-.09.65-.94,1.15-1.17.36-.17.91.15,1.15,0,.96-.58,6.81-6.55,7.5-7.61.55-.84,4.51-8.86,4.62-9.37.29-1.35-.25-3.25,0-4.69.08-.45,1.1-.74,1.15-1.17.23-1.83.23-5.2,0-7.03-.05-.43-1.08-.72-1.15-1.17-.25-1.44.29-3.33,0-4.69-.08-.38-1.87-2.76-2.31-3.51-.18-.31.16-.92,0-1.17-.5-.76-3.34-3.68-4.04-4.1-.25-.15-.8.17-1.15,0-.48-.22-.7-.99-1.15-1.17-.91-.37-2.55.62-3.46-1.17l-6.93,1.17-6.35,3.51c.14,1.95,1.88,1.88,2.89,2.34,3.48,1.61,7.65,2.66,10.39,4.69.77.57,5.09,4.91,5.19,5.27.21.73-.22,1.65,0,2.34.15.49,1.08.74,1.15,1.17.22,1.23.27,6.02,0,7.03-.08.28-3.76,4.02-4.04,4.1-.77.22-5,.22-5.77,0-1.37-.38-3.02-4.95-6.35-3.51ZM277.22,270.86c.33-1.97-.52-3.53-1.15-5.27-4.74-12.92-16.59-32.6-27.13-41.59-4.17-3.56-12.17-8.61-17.32-10.54-1.93-.72-4.91-.76-6.93-1.17-.45-.09-.73-1.11-1.15-1.17-3.42-.51-12.64-.44-16.16,0-.42.05-.71,1.09-1.15,1.17-2.52.46-5.56.23-8.08,1.17-6.38,2.38-15.27,8.75-19.62,14.06-.97,1.19-2.2,1.51-1.73,3.51h9.81c1.62-1.34,3-3.47,4.62-4.69,6.01-4.52,12.54-6.76,19.62-8.2.45-.09.73-1.11,1.15-1.17,3.85-.57,8.69.41,12.7,0l1.73,2.34c-2.25-.61-3.35.92-5.19,1.17-8.48,1.14-12.81,1.62-20.78,5.86-1.78.95-3.96,2.05-5.77,3.51-1.21.98-2.07,1.79-1.73,3.51,2.04.2,4.39-.29,6.35,0,1.17.18,3.84.81,5.77,1.17.44.08.71,1.09,1.15,1.17,5.5,1.02,8.37-3.07,12.7-4.69,1.36-.51,7.11-2.2,8.08-2.34,5.02-.75,14.05-.11,18.47,1.17.41.12,1.78,1.6,1.73,2.34-.61.5-11.87-.32-14.43,0-4.01.5-9.45,3.23-13.85,3.51l-2.89,2.34,17.89,5.86c8.07-1.36,17.74-4.67,25.4,0,.45.27.72.86,1.15,1.17l-1.15,2.34-3.46-1.17-13.28.59,21.36,12.3,6.35,7.03-22.51-11.71-15.01-5.86,2.89,7.61c3.39,3.41,5.39,7.29,9.24,10.54.96.82,2.67.76,3.46,2.34,1.04,2.09-1.81,2.08-2.89,1.76-8.02-2.37-14.49-14.25-17.89-21.67-.37-.81-1.73-1-1.15-2.93l-9.81-3.51-8.66-1.17c1.2,5.64,3.93,10.87,6.93,15.81,2.17,3.59,5.73,7.58,9.24,10.54.96.81,2.73.79,3.46,2.34,1.16,2.45-1.15,1.48-2.31,1.17-9.57-2.58-17.15-14.5-20.78-23.43-.48-1.18-.74-4.45-1.15-5.86-1-3.42-5.33-2.53-7.5-2.93-.44-.08-.73-1.11-1.15-1.17-1.98-.27-4.3.18-6.35,0-.44,5.48,3.04,9.94,4.62,14.64,2.48,4.52,7.35,7.68,10.39,11.71.88,1.17,2.28,2.96.58,4.1-3.91-2.75-7.99-4.85-10.97-8.79-4.89-6.46-6.74-12.93-9.24-19.92-.25-.69-1.76-1-1.15-2.93-4.25.62-7.29-1.8-11.54-1.17-.11,1.9,2.13.81,3.46,2.93,3.22,5.12,4.35,12.9,8.08,18.74,5.35,8.38,13.65,14.88,22.51,18.16,1.93.71,5.17,1.93,6.93,2.34,1.32.31,3.2-.25,4.62,0,.44.08.73,1.12,1.15,1.17,14.39,1.8,30.83-3.11,43.87-5.86,1.8-.38,6.45-2.14,8.08-2.34,2.36-.3,5.08.21,7.5,0ZM125.99,229.86l-4.04-1.17-9.24,11.71c-3.55,1.6-6.33,5.51-10.39,7.03-.97.36-2.54-.62-3.46,1.17-3.66-.37-8.03.52-11.54,0-1.08-.16-6.54-1.8-8.08-2.34-.68-.24-2.89-2.64-4.04-1.76,1.49,2.3,2.95,4.79,5.19,6.44.24.18.88-.19,1.15,0,.79.54,1.77,2.19,2.31,2.34.72.21,1.62-.22,2.31,0,.48.16.73,1.09,1.15,1.17,1.95.35,10.89.4,12.7,0,.82-.18,4.54-2.81,5.77-3.51,7.88-4.52,12.58-10.39,18.47-17.57.98-1.19,2.2-1.51,1.73-3.51Z"/>
    <path class="st0" d="M189.48,127.95c-.45-2.16,1.17-2.78,2.31-4.1,6.05-6.98,12.23-11.09,19.05-15.81,23.38-16.2,50.31-30.4,72.73-46.86.84-.62,7.01-6.43,7.5-5.86l-2.31,6.44c-3.55,4.25-8.13,6.91-12.12,9.96-23.88,18.27-51.97,33.64-77.34,50.37-1.3.86-8.44,7.17-9.81,5.86Z"/>
    <path class="st0" d="M61.34,72.89l4.04-4.69c23.56-13.7,47.3-27.52,71.57-41l14.43-7.03c.37,2.78-2.15,3.53-4.04,4.69-23.17,14.16-47.69,27.49-71.57,41l-14.43,7.03Z"/>
    <path class="st0" d="M229.89,89.29c-.35-1.81,1.01-3.14,2.31-4.1,11.27-8.38,23.92-15.41,35.21-24.02.25-.19.92.18,1.15,0,1.14-.9,8.49-8.19,8.66-8.79.7-2.56-1.11-4.18-1.15-6.44,4.97.39,4.97,4.75,4.62,8.79l-12.12,11.13-38.67,23.43Z"/>
    <path class="st0" d="M291.07,72.89c-.9,2.05,1.1,3.73,1.15,4.1,1.08,7.57.3,22.26,0,30.46-.01.4-1.14.77-1.15,1.17-.25,6.14.48,12.72,0,18.74-.16,1.99.15,3.44-2.31,4.1l-.58-5.86c-2.09-7.87.33-17.81.58-25.19.29-8.56-.41-17.22,0-25.77.09-1.9.96-3.34,2.31-1.76Z"/>
    <path class="st0" d="M104.06,96.32l-10.97-2.34c-10.38-4.3-21.04-7.68-32.32-10.54l-4.04-4.69,10.97,2.34c10.14,4.21,20.94,7.06,31.17,11.71,1.65.75,4.59,1.05,5.19,3.51Z"/>
    <path class="st0" d="M197.56,130.29c.83,2.81-1.66,4.67-2.31,6.44-1.72,4.73-3.02,14.7-3.46,19.92-.26,3.02.15,6.29,0,9.37-.09,1.9-.99,3.36-2.31,1.76-.35-3.52.49-7.74,0-11.13-.06-.43-1.05-.71-1.15-1.17-.67-2.91,1.09-4.22,1.15-4.69.86-5.98-.21-10.72,3.46-16.4l4.62-4.1Z"/>
    <path class="st0" d="M190.64,116.23c.43,2.71-1.06,2.74-2.89,3.51-2.88,1.23-8.25,2.61-10.97-.59-.54-2.83,2.26-1.74,4.04-1.76,1.51-.02,3.16.16,4.62,0,1.83-.2,2.94-1.8,5.19-1.17Z"/>
    <path class="st0" d="M173.32,183c-1.32,1.6-2.22.15-2.31-1.76-.24-5.05.31-10.19,0-15.23-.03-.41-1.12-.75-1.15-1.17-.47-6.35-.08-12.61-1.15-18.74-.08-.43-1-.69-1.15-1.17-.22-.7.21-1.61,0-2.34-.12-.43-3.43-4.17-4.04-5.27l-3.46-2.34c-2.53-1.16-7.67-2.03-7.5-5.86l7.5,1.17c1.41,1.49,4.59,2.6,5.77,3.51,3.33,2.56,3.85,6.62,6.35,9.96,2.08,7.03.38,14.86,1.15,22.26.04.43,1.09.73,1.15,1.17.52,3.55-1.01,5.66-1.15,7.03-.3,2.8.21,5.94,0,8.79Z"/>
    <path class="st0" d="M35.95,102.76c.09-.42.93-.66,1.15-1.17.16-.36-.15-.92,0-1.17.32-.54,3.77-4.02,4.04-4.1,1.13-.33,2.51.59,3.46-1.17h2.31l5.19,2.93c-1.41,1.42-4.55.18-6.35.59-.41.09-.65.94-1.15,1.17-.36.17-.91-.15-1.15,0-.45.27-2.83,2.72-2.89,2.93-.21.73.22,1.65,0,2.34-.15.49-1.08.74-1.15,1.17-1.24,7.05,1.24,17.55,0,24.6-.08.44-1.03.7-1.15,1.17-.55,2.09,1.52,4.87-2.31,4.1v-33.39Z"/>
    <path class="st0" d="M173.32,200.58c-3.04-.9-2.4-3.92-2.31-6.44.08-2.27-.53-3.75,1.73-5.27l1.73,4.1-1.15,7.61Z"/>
    <path class="st0" d="M64.81,207.61l-2.31,9.96c-.55,12.43-.41,22.15,5.77,32.8,1.83,2.03,3.98,3.8,5.77,5.86,1.14,1.32,2.76,1.94,2.31,4.1-2.23.58-2.7-1.41-4.04-2.34-3.48-2.42-6.43-4.82-8.66-8.79-1.22-2.17-1.61-4.91-2.31-7.03-.16-.48-1.03-.72-1.15-1.17-.27-.95.21-2.43,0-3.51-.09-.45-1.09-.74-1.15-1.17-1.24-8.57.76-18.18,2.31-25.77l3.46-2.93Z"/>
  </g>
  <g class="st1">
    <path d="M91.72,42.4c3.24-.92,5.76-3.84,9.14-5.42,3.76-1.76,5.57-2.28,9.67-3.25,5.98-1.42,12.37-2.73,18.27-5.42,2.88-1.31,5.68-2.6,8.06-4.88-.6-1.5,1.91-2.41,2.15-3.25.19-.68-.2-1.52,0-2.17.14-.45,1-.69,1.07-1.08.79-4.48-1.64-7.66-2.15-11.93l2.69-2.71c3.4.34,7.48-.48,10.75,0,.76.11,4.28,1.77,5.37,2.17,8.42,3.07,12.7,6.78,17.74,13.55,3.36,4.51,5.78,9.56,10.21,13.55,1.88-.13,5.08,2.95,6.45,3.25,4.31.94,9.77.96,13.97,2.17,1.83.53,9.85,4.1,11.82,5.42,4.4,2.95,7.58,8.96,10.75,13.01,1.89.6,4.75.63,6.45,1.08,3.1.84,6.59,2.26,9.67,3.25,21.45,6.91,52.07,16.2,63.95,37.41,1.69,3.02,3.09,5.82,4.3,8.67-.62,9.48.84,19.93,0,29.27-.82,9.04-4,19.62-6.45,28.19-10.63,37.17-33.86,67.99-67.72,87.82-1.37,15.44-14.34,22.29-27.41,28.73-9.91,2.39-19.49,6.6-29.02,7.59-21.6,2.25-48.17,1.57-67.72-4.34-8.2-2.48-19.96-7.41-26.87-13.01-2.19-1.77-5.74-5.93-6.99-8.13-2.13-3.77-2.22-7.15-3.22-10.84-.3-1.1-4.92-3.17-5.91-3.79-30.69-19.17-51.53-48.61-61.81-84.03-3.71-12.78-6.48-26.22-7.52-40.12-.23-3.08-.31-7.82,0-10.84.04-.39,1.01-.68,1.07-1.08.25-1.69-.29-3.79,0-5.42.07-.41.97-.65,1.07-1.08,1.08-4.39,2.73-8.5,5.37-11.93,6-7.77,15.11-13.39,23.11-17.89,15.38-8.66,30.81-12.84,46.22-17.35.89-.26,2.31.25,3.22,0,.41-.11,3.61-2.19,3.76-2.71,1.54-5.42,4.19-7.65,6.45-12.47ZM217.48,84.69l5.37-11.38c-.5-3.55.7-8.67,0-11.93-.17-.77-2.57-4.26-3.22-5.42s-1.51-3.32-2.15-4.34c-1.01-1.6-2.35-1.38-2.69-1.63-1.14-.81-2.1-2.49-3.22-3.25-.45-.3-2.55-.78-3.22-1.08-6.03-2.74-13-3.28-19.35-5.42-.66-.22-1.53.23-2.15,0-2.15-.8-8.76-5.1-10.21-7.05-2.37-3.17-4.28-7.61-6.45-10.84-3.86-5.75-9.36-9.17-15.59-12.47l-5.91-1.08,5.37,9.22c1.09,5.53,1.3,11.27,1.07,17.35-1.64.87-.74,2.34-1.07,3.25-.81,2.22-6.06,9.86-8.06,11.38-.21.16-.82-.18-1.07,0-2.77,1.95-5.19,4.69-8.6,5.42l-10.75,4.34c-.8.17-.74-1.15-.54-1.63,1.11-2.54,10.57-7.45,13.44-9.22.27-.17.84.16,1.07,0,1.22-.82,7.26-6.91,8.06-8.13.28-.42,2-3.94,2.15-4.34.33-.91-.56-2.38,1.07-3.25v-10.84l-1.07-3.25-3.22-3.79c-.41,5.87-4.25,12.99-9.14,16.26-8.08,5.42-20.56,6.9-29.02,9.76-.66.22-1.53-.23-2.15,0-2.3.86-4.58,3.01-6.45,4.34-.25.18-.85-.17-1.07,0-2.05,1.53-5.95,6.83-6.99,9.22-.27.62.28,1.6,0,2.17-.86,1.74-2.27,3.69-3.22,5.42-.34.62-.06,1.71-1.61,2.71-.21.14-.73-.16-1.07,0-.46.21-.68.97-1.07,1.08-.9.25-2.27-.23-3.22,0-4.18,1-8.52,2.62-12.9,3.25-3.05,2.31-7.85,4.55-10.21,8.13-.51.78-2.93,5.71-3.22,6.51-.33.91.56,2.38-1.07,3.25v8.13c1.11-.33,1.21-.91,2.69-1.08,7.11-.84,10.28.9,16.12,3.25,8.69,3.5,16.36,10.26,25.8,13.01l4.84,3.25c-2.23-.22-4.84.32-6.99,0-4.61-.68-11.84-5.33-16.12-7.59-2.38-1.26-5.15-3.28-7.52-4.34-2.11-.94-3.49-.67-5.37-1.08-.42-.09-.68-1.03-1.07-1.08-2.29-.34-9.63-.39-11.82,0-1.2.22-4.38,2.67-6.45,2.17l-10.21,7.05c.6,1.51-1.9,2.4-2.15,3.25-.44,1.51-.69,3.85-1.07,5.42-.11.43-1,.68-1.07,1.08-.34,1.93.23,4.45,0,6.51,1.69,1.4,3.14,3.6,4.84,4.88,9.82,7.44,29.4,12.37,40.85,15.18,45.39,11.12,98.77,11.3,145.11,2.17,15.45-3.04,29.34-6.52,44.07-13.01,1.3-.57,6.05-3.35,7.52-4.34.56-.37,3.69-3.54,3.76-3.79.19-.68-.2-1.52,0-2.17.14-.45,1-.69,1.07-1.08.18-.99.18-3.35,0-4.34-.07-.41-.98-.66-1.07-1.08-.21-.98.24-2.35,0-3.25-.07-.24-2.01-4.13-2.15-4.34-.74-1.13-5.87-6.3-6.99-7.05-1.77-1.18-4.36-1.16-5.91-3.79s-1.21-8.51-2.15-11.93c-.09-.33-2.83-4.89-3.22-5.42-2.54-3.42-9.77-10.02-13.44-11.38-.9-.34-2.36.57-3.22-1.08h-12.9c-2.07,1.02-1.23,2.94-1.61,3.79-.68,1.51-2.57,5.51-3.22,6.51-.85,1.29-5.8,6.42-7.52,4.88ZM51.94,77.1c.2-.2-.28-1.11,0-1.63.59-1.08,3.45-2.29,2.69-3.79l-19.35,8.67c-7.99,5.19-16.36,10.55-22.03,18.97-.5.74-2.01,1.66-2.15,2.17-.2.72.25,1.63,0,2.17-.33.7-2.06,2.85-2.15,3.25-.3,1.36-.26,7.2,0,8.67.07.4.95.64,1.07,1.08.7,2.49.67,2.9,2.15,5.42,11.24,19.18,42.51,29.11,61.81,34.15,11.53,3.01,24.44,6.31,36.55,7.59,52.36,5.55,109.47,2.92,155.86-16.26,8.15-3.37,17.82-7.4,24.72-13.01,3.83-3.11,7.64-7.66,10.21-11.38.91-1.32,2.58-2.7,3.22-4.34.34-.86-.57-2.39,1.07-3.25v-7.59c-1.47-1.98-1.94-5.31-3.22-7.59-8.03-14.21-37.64-28.4-52.13-33.07-4.37-1.41-10.62-3.66-15.05-4.34-8.97-1.36-8.42,4.63-1.07,3.25,3.91-.73,6.27-.98,10.75,0,1.97.43,5.1,2.32,7.52,2.17,4,2.08,7.79,6.79,11.82,8.67,5.21,2.43,10.1,5.17,15.05,8.67,5.03,3.56,9.91,7.13,13.44,12.47.25.38,2.09,4.1,2.15,4.34.24.9-.21,2.27,0,3.25.09.43,1.02.68,1.07,1.08.24,1.66.28,6.01,0,7.59-.07.4-.95.64-1.07,1.08-.2.7.22,1.56,0,2.17-2.58,7.02-10.45,13.89-16.66,17.89-24.45,15.75-61.62,20.39-90.29,22.77-39.74,3.3-78.35,1.38-115.01-8.67-10.66-2.92-19.73-5.34-30.1-10.84-4.33-2.3-10.1-5.53-13.97-8.67-3.07-2.49-7.86-8.96-9.14-12.47-.22-.61.2-1.47,0-2.17-.12-.44-1-.68-1.07-1.08-.28-1.61-.32-8.26,0-9.76.08-.36,2.86-5.88,3.22-6.51,4.17-7.04,15.66-15.64,23.11-18.97.59-.27,1.53.26,2.15,0,.74-.31,2.48-1.86,3.22-2.17.58-.24,1.42.19,1.61,0ZM48.72,84.69c-4.61.83-7.91,3.95-11.29,6.51-.24.18-.86-.17-1.07,0-3.47,2.72-9.88,9.72-11.29,13.55-.22.61.2,1.47,0,2.17-.12.44-1,.68-1.07,1.08-.56,3.09.96,4.93,1.07,7.59l2.69,3.79,1.61-8.13c2.55-3.64,5.34-8.84,9.14-11.38,1.76-1.18,5.72-2.08,7.52-3.25.57-.37,1.03-1.17,1.61-1.63.27-3.44-.86-7.22,1.07-10.3ZM286.27,119.39l3.22-3.79c.12-2.66,1.63-4.5,1.07-7.59-.07-.4-.95-.64-1.07-1.08-.2-.7.22-1.56,0-2.17-2.37-6.46-11.76-13.96-17.2-17.35-.99-.62-2.18-1.06-3.22-1.63l1.07,9.22c3.57,3.74,8.53,5.32,11.82,9.76,1.78,2.4,2.43,4.78,3.22,7.59.13.44,1,.68,1.07,1.08.31,1.78-.21,4.08,0,5.96ZM304.54,131.31l-12.36,10.84c-10.42,6.15-21.68,12.25-33.32,16.26-56.98,19.66-146.11,19.29-203.15,0-10.58-3.58-28.22-11.68-36.55-18.43-3.59-2.91-6.23-7.25-10.21-9.76-.31,1.71.88,2.11,1.07,3.79,1.21,10.56,2.56,17.41,5.37,27.11,13.99,48.23,46.01,81.2,92.98,94.87,12.36,3.6,26.37,6.76,39.77,7.59,11.36.71,21.87-.84,32.25-2.17,14.63-1.87,26.6-4.94,40.85-9.76,23.62-11.5,44.09-26.88,58.58-48.25,11.62-17.14,22.59-44.51,24.72-63.97.28-2.58-.2-5.5,0-8.13ZM230.37,254.92c-.93-.85-3.94,1.81-4.84,2.17-42.79,17.06-95.36,17.75-137.58-1.08l-3.76-.54c1.36.82,1.52,3.39,2.15,4.34,5.05,7.61,24.74,15.97,32.78,17.89,8.72,2.08,16.49,2.48,25.8,3.25.39.03.69,1.06,1.07,1.08,11.63.79,22.75-.56,33.32-2.17,9.99-1.52,19.73-2.59,29.02-6.51,7.48-3.15,15.85-8.09,19.89-14.64.47-.76,2.41-3.56,2.15-3.79Z"/>
    <path d="M93.86,239.74l-.54,2.17h-2.15c-5.52-3.02-10.89-6.3-16.12-9.76-23.32-15.41-39.02-38.24-48.91-63.43l-2.15-13.55,4.3,5.96c10.21,33.56,33.21,58.21,61.81,76.44,1.24.79,1.67,2.74,3.76,2.17Z"/>
    <path d="M236.82,234.32c-.32-1.68.94-2.9,2.15-3.79,22-16.26,39.25-42.52,47.29-68.31l4.3-7.05c-.19,1.91.28,4.14,0,5.96-.06.41-.99.67-1.07,1.08-5.02,26.27-24.1,54.48-46.76,68.85-1.74,1.1-3.3,3.56-5.91,3.25Z"/>
    <path d="M258.32,104.21c-1.93.11-3.48.11-5.37-.54-3.07-1.05-7.57-4.15-10.21-4.88-4.16-1.14-12.5-1.67-17.2-1.08-.39.05-.66,1.01-1.07,1.08-2.32.42-3.15.45-5.37,1.08-15.23,4.36-26.94,14.39-42.99,18.43-8.43,2.12-19.37,3.37-29.02,2.17-3.37-.42-12.73-3.04-16.12-4.34-1.3-.5-2.98-2.59-4.84-2.17-.26-1.88,2.48-1.08,3.76-1.08,3.44,0,7.43.49,10.75,1.08,2.33.42,7.52,1.99,9.67,2.17,23.59,1.94,41.11-9.57,61.27-19.52,6.22-4.21,13.7-3.13,20.42-4.34.3-.05,1.13-1.73,3.22-1.08.44.14.68,1.01,1.07,1.08,1.31.24,3.03-.26,4.3,0,.41.08.65.97,1.07,1.08,5.24,1.36,10.72,2.89,14.51,7.05,1.09,1.2,2.55,1.82,2.15,3.79Z"/>
    <path d="M43.35,119.39l3.76-4.34c2.17-1.37,4.27-.68,6.45-1.08.41-.08.66-1.01,1.07-1.08,3-.55,4.27.88,5.37,1.08,1.3.24,3.03-.27,4.3,0,.41.09.64.96,1.07,1.08,7.02,2.02,9.35,4.95,15.05,8.67,9.31,6.08,19.43,11.72,30.1,14.1,8.36,1.86,18.32,2.18,26.87,3.25,3.81.48,5.81-.64,8.6-1.08,2-.32,3.6-.17,4.84,1.63-1.41,2.34-3.01,1.29-4.84,1.63-9.31,1.7-25.11,1.95-34.4,0-8.31-1.75-21.2-6.83-29.02-11.93-3.47-2.27-7.27-6.31-10.75-8.67-5.8-3.95-13.16-6.06-20.42-5.42l-8.06,2.17Z"/>
    <path d="M156.21,98.78l-2.69,3.25c-5.04.33-9.61,1.65-15.05,1.08-.39-.04-.67-1.02-1.07-1.08-5.42-.82-10.77-1.11-16.12-3.25-9.66-3.86-19.24-12.63-29.02-16.26-2.35-.87-5.18-.66-7.52-1.08-.41-.07-.67-1.02-1.07-1.08-1.32-.2-4.05-.2-5.37,0-.4.06-.66,1.01-1.07,1.08-2.46.44-4.98.35-7.52,1.08-.93.27-3.66,4-5.91,3.25-.63-.64,1.63-4.74,2.69-5.42.28-.18.86.16,1.07,0,.72-.52,1.66-2.03,2.15-2.17.67-.19,1.51.21,2.15,0,.44-.14.67-1,1.07-1.08,1.26-.26,2.98.24,4.3,0,.41-.07.68-1.03,1.07-1.08,1.68-.21,4.77-.21,6.45,0,.39.05.66,1.01,1.07,1.08,1.32.24,3.03-.26,4.3,0,1.67.34,8.95,3.3,10.75,4.34,9.3,5.36,18.55,11.96,29.02,15.18,1.41.43,9.07,2.17,9.67,2.17h16.66Z"/>
    <path d="M122.89,72.76l4.84,1.08c1.54.91,3.88,2.65,5.37,3.25,12.98,5.24,33.06,4.14,45.14-1.08,3.04-.17,4.48-2.94,6.45-4.34.34-.24,1.67-.03,2.69-1.63.15-.24-.16-.79,0-1.08,1.48-2.68,2.83-4.06,2.15-7.59-1.29-.95-2.53-3.05-3.76-3.79-.19-.11-2.03-1.05-2.15-1.08-1.82-.57-4.49,1.47-3.76-2.17,4.84-.33,10.4-.2,11.82,4.88,1.43,1.38,1.53,6.59,1.07,8.67-.09.4-.89.62-1.07,1.08-.29.73-.78,2.8-1.07,3.25-.67,1.02-4.9,5.29-5.91,5.96-.51.34-8.13,4.21-8.6,4.34-.9.25-2.27-.23-3.22,0-.42.1-.66.99-1.07,1.08-1.23.28-2.98-.24-4.3,0-.41.07-.68,1.04-1.07,1.08-11.56,1.44-23.92-.28-34.4-3.25-3.56-2.63-7.73-3.95-9.14-8.67Z"/>
    <path d="M185.77,132.4c.74-.11,4.33-1.83,5.37-2.17,4.63-1.49,8.74-2.7,12.9-5.42,7.2-4.72,10.45-7.85,19.35-10.84,5.02-1.68,10.02-3.07,16.12-2.17.4.06.65.99,1.07,1.08,1.52.35,3.19-.74,4.3,1.08l-1.07,2.17c-.92-1.45-1.84-1.02-3.22-1.08-5.11-.23-9.53.89-13.97,2.17-11.89,3.42-21.67,14-33.32,17.35-.79.23-4.06,1.05-4.3,1.08-6.96,1.03-12.28.28-19.35,0l-2.69-3.25c5.87-.61,13.15.84,18.81,0Z"/>
    <path d="M266.92,111.8c-.26,2.21.37,4.96,0,7.05-.03.18-.76,2.15-1.07,3.25-.14.51-1.65,1.43-2.15,2.17-.17.26.16.86,0,1.08-2.71,3.76-7.59,5.6-11.29,8.13-5.83,1.77-12.15.45-18.27,1.08-1.57.16-8,1.55-9.67,2.17-2.89,1.07-6.71,4.16-9.67,5.42-1.55.66-3.08,1.35-4.84,1.08-.3-1.83,1.41-3.36,2.69-4.34.51-.39,2.31-1.57,3.22-2.17,4.51-2.95,8.53-4.23,13.97-5.42,5.27-1.15,10.82-1.1,16.12-2.17,2.42-.49,5.66-.29,7.52-2.17,2.68-.56,5.36-2.67,6.99-4.88,1.33-1.82,3.23-5.22,3.22-7.59l3.22-2.71Z"/>
    <path d="M180.93,93.36l4.84-3.25c3.5.2,6.78-1.93,9.67-3.25,6.77-3.09,11.12-7.2,14.51-13.55l1.07-10.84-2.15-4.34-4.3-6.51c0-.93,2.14-.71,2.69-.54.33.1,4.42,4.24,4.84,4.88.14.21,2.08,4.1,2.15,4.34.24.9-.21,2.27,0,3.25.09.43,1.02.68,1.07,1.08.2,1.33.2,4.09,0,5.42-.06.4-.98.66-1.07,1.08-.21.98.24,2.35,0,3.25-.11.41-.91.64-1.07,1.08-1.41,3.92-4.65,8.8-8.06,11.38-.41.31-2.61,1.81-3.22,2.17-3.21,1.85-7.63,2.39-10.75,4.34h-10.21Z"/>
    <path d="M137.93,40.23c1.05.95-2.95,4.88-3.76,5.42-1.15.77-8.72,4.14-9.67,4.34-4.15.87-9.01.72-12.9,2.17-.42.15-.63.88-1.07,1.08-.69.32-2.73.77-3.22,1.08-2.25,1.44-2.75,4.38-4.84,5.96.68,1.89-.84,2.6-1.07,3.25-.58,1.59.34,4.17-3.22,3.79.3-2.15-.43-5.08,0-7.05.09-.4.89-.62,1.07-1.08,1.35-3.41,2.75-7.1,5.91-9.22.23-.15.79.17,1.07,0,.82-.49,2.54-1.91,3.22-2.17.6-.22,1.46.2,2.15,0,6.95-1.99,13.71-2.71,20.42-5.42,1.22-.49,5.43-2.6,5.91-2.17Z"/>
    <path d="M161.58,58.67c-1.31-1.32,3.19-7.2,4.3-8.13,1.37-4.82,1.14-9.77,1.07-15.18l-3.22-7.59c1.17-1.55,3.45-.26,4.3,1.08.15.24-.16.79,0,1.08.45.82,1.9,2.56,2.15,3.25.2.54,1.04,3.07,1.07,3.25.32,1.81.36,10.26,0,11.93-.09.4-.89.62-1.07,1.08-1.72,4.35-3.2,8.76-8.6,9.22Z"/>
  </g>
  <g class="st1">
    <path d="M5.56,288.98c.61-1.77-1.03-2.33-1.11-2.76-.92-5.38.26-13.9,0-19.87-.02-.38-1.09-.72-1.11-1.1-.45-12.11.33-24.31,0-36.43,2.83-2.19,6.5-4.59,8.85-7.73,2.13-2.83,3.42-6.41,4.43-9.93.13-.45,1.02-.69,1.11-1.1.27-1.3-.24-3.06,0-4.42.08-.42,1.06-.7,1.11-1.1.22-1.73.22-4.9,0-6.62-.05-.41-1.03-.68-1.11-1.1-.24-1.35.28-3.14,0-4.42-.09-.4-.92-.63-1.11-1.1-.32-.8-.75-2.69-1.11-3.31-.43-.74-1.66-1.41-2.21-2.21-.18-.26.17-.88,0-1.1-1.82-2.4-4.93-3.69-7.19-4.97-.86-.49-.97-1.62-2.77-1.1.84-2-1.06-3.54-1.11-3.86-1.07-7.22.71-16.7,0-24.28-.04-.4-1.06-.7-1.11-1.1-.26-2.08.18-4.47,0-6.62,2-1.16,2.15-3.88,3.87-4.97,8.61-5.44,20.82-19.11,28.77-26.49,3.52-3.27,9.92-11.21,13.28-13.25.36-.22,2.96-1.21,3.32-1.1,1.07,1.83,2.85.76,4.43,1.1.43.1.69,1.03,1.11,1.1,1.32.24,3.01-.16,4.43,0,.74-.98,2.16-1.81,2.77-2.76.16-.25-.17-.82,0-1.1,3.14-5.27,3.68-10.2,3.32-16.56l29.32-27.04,13.28,3.31,7.19-8.28c1.33-5.69,2.88-11.12,2.21-17.66L147.73,1.98c7.58.45,15.74-.61,23.23,0,.4.03.7,1.06,1.11,1.1,36.78,3.86,79.86,15.3,110.64,38.63,3.65,2.76,16.06,13.43,18.25,17.11.14.24-.16.77,0,1.1.21.46.93.67,1.11,1.1-.5,2.17,1.9,5.13,2.21,6.62.27,1.31-.3,3.16,0,4.42,10.53,44.42,8.2,90.54-3.32,133.56-.25.95.27,2.4,0,3.31-.13.43-.96.66-1.11,1.1-.42,1.31.53,2.46-1.66,3.86-.22.14-.76-.16-1.11,0-.46.21-.68.93-1.11,1.1-1.18.47-4.22.67-5.53,1.1-20.67,6.85-41.78,12.19-63.06,17.66-.95.24-4.82,2.1-5.53,2.21-7.22,1.05-7.72-2.1-12.17-3.31-.92-.25-4.14-1.06-4.43-1.1-6.38-.93-12.14,1.07-17.7,2.21-1.76.84-3.05,2.35-4.43,3.31-.26.18-.89-.17-1.11,0-3.33,2.51-3.18,5.49-4.98,8.28-.75,1.16-4.03,3.6-4.98,3.86s-2.4-.27-3.32,0c-2.53.73-5.08,1.48-7.74,2.21-49.43,13.44-99.15,25.94-149.36,37.53-.42.1-1.12,1.74-3.32,1.1l-2.77-1.1ZM292.11,60.49c-2.72-3.34-6.13-7.17-9.4-9.93-29.49-24.93-82.88-39.44-119.49-41.95-4.01-.27-8.15.2-12.17,0l-23.79,21.52c2.99,2.42,4.16,4.29,5.53,7.73.19.47,1.02.7,1.11,1.1.28,1.28.28,7.54,0,8.83-.08.36-1.79,2.6-2.21,3.31-.17.29.16.87,0,1.1-1.76,2.65-6.3,6.45-9.4,7.17-5.12,3.49-12.33,1.87-18.81,2.21l-6.64-2.21-21.57,20.42c-.39,1.99,3.14,4.86,3.32,5.52.41,1.49-.77,3.4,1.11,4.42l-4.43,10.49c-2.29-.4-3.32,1.9-4.98,3.31-4.77.85-8.15,2.96-13.28,2.21-.41-.06-.68-1.02-1.11-1.1-1.61-.32-3.34.72-4.43-1.1l-33.74,32.56,13.83-2.76c16.74-6.28,34.76-9.23,52-14.35.58-.17.95-1.7,2.77-1.1-.04-3.34,2.28-7.89,4.98-9.93.4-.3,2.63-.6,3.32-2.21l6.64-2.21h9.96l8.85,4.42c9.43-1.8,18.47-4.15,27.66-6.62,9.41-2.53,19.34-4.93,28.77-7.73.58-.17.95-1.7,2.77-1.1v-8.28l10.51-8.28c5.81-1.27,12.13-3.18,18.81-2.21.41.06.68,1.02,1.11,1.1,3.95.79,7.35,1.23,11.06,3.31.74.41,1.43,1.64,2.21,2.21.92-1.65,2.19-.8,3.32-1.1,18.36-4.89,35.84-11.59,54.21-15.45l11.62-3.31ZM126.15,37.31c-1.28-1.5-2.12-.13-2.21,1.66s.32,4.05,0,5.52c-.17.81-1.63,3.47-2.21,5.52-.26.92-2.97,1.73-2.21,3.86.34.36,7.47-5.11,7.74-6.07.31-1.08-.55-2.4,1.11-3.31l-2.21-7.17ZM220.19,228.27c1.24-.15,2.74.23,3.87,0,.29-.06,2.05-.76,3.32-1.1,20.97-5.67,41.56-12.06,63.06-17.66l3.87-2.76c.15-1.06-.22-2.37,0-3.31.37-1.59,1.86-5.05,2.21-6.62,9.03-40.51,10.11-85.95,1.11-126.94-.12-.53-1.96-1.87-1.11-3.86-1.45,1.24-2.66.77-3.87,1.1-19.27,5.25-39.08,12-58.64,16.56l-6.64,2.21c-3.03,2.08-1.09,6.17-1.66,9.38-.07.41-.98.65-1.11,1.1-.55,1.93-1.05,4.88-2.21,6.62-2.83,4.26-8.09,7.54-12.72,9.38-.47.19-.7,1.01-1.11,1.1-1.53.34-10.63.33-12.17,0-.73-.16-4.42-2.63-5.53-3.31-.28-.17-.86.16-1.11,0-1.85-1.22-6.63-6.61-7.19-8.28-.23-.68.13-1.88,0-2.76-2.13-.79-3.18.89-3.87,1.1-4.61,1.42-9.69,2.04-14.38,3.31-12.22,3.32-25.33,7.12-37.62,11.04-.66.21-1.52-.2-2.21,0-2.68.77-1.25,5.99-1.66,8.28-.03.19-.94,2.88-1.11,3.31-.66,1.65-2.36,3.04-3.32,4.42-.18.26.17.88,0,1.1-2.07,2.79-4.14,3.76-7.19,4.97-.47.19-.7,1.01-1.11,1.1-1.42.31-9.65.32-11.06,0-.39-.09-.63-.89-1.11-1.1-.35-.16-.87.14-1.11,0-.76-.46-1.42-1.65-2.21-2.21-.26-.18-.88.17-1.11,0-2.98-2.2-3.57-4.14-4.98-7.17-.35-.76-1.66-.94-1.11-2.76h-.55c-.91,1.66-2.23.79-3.32,1.1-23.09,6.62-46.26,12.78-69.7,18.77-.44.11-.68,1-1.11,1.1-1.08.26-2.65-.16-3.87,0v27.6c2.26.26,5.06-.38,7.19,0,1.38.24,4.52,2.74,6.64,2.21,2.33.93,3.63,2.94,5.53,4.42.24.19.9-.17,1.11,0,3.52,2.88,5.38,6.47,7.19,10.49.7,1.56.67,1.78,1.11,3.31.13.45,1.03.69,1.11,1.1.3,1.66-.26,3.8,0,5.52.07.45,1.75,1.67,1.11,4.42-.1.44-1.05.7-1.11,1.1-.26,1.72.3,3.86,0,5.52-.07.41-.98.65-1.11,1.1-.61,2.13-1.05,4.59-2.21,6.62-.64,1.11-2.68,1.71-2.21,3.31l-10.51,8.28c-2.84.39-6.42,2.74-8.85,3.31-1.08.26-2.65-.16-3.87,0l1.11,48.57c1.8.6,2.26-.99,2.77-1.1,49.86-11.6,99.1-24.43,148.25-37.53.95-.25,2.41.27,3.32,0,.44-.13.66-.96,1.11-1.1.93-.3,3.32.25,3.87-1.66.2-.69-.21-1.55,0-2.21.15-.45,1.02-.69,1.11-1.1.27-1.31-.28-3.12,0-4.42.23-1.04,3.53-6.27,4.43-7.73,1.69-2.75,6.49-8.56,9.4-10.49.43-.28,4.02-2.06,4.43-2.21.93-.34,2.43.58,3.32-1.1h11.06l5.53,2.21c4.28,4.42,9.61,8.24,10.51,14.35ZM219.09,93.6l1.11-6.07-2.77-3.86-4.43-2.21-9.4-1.1,6.08,3.31,7.19,7.17,2.21,2.76ZM189.77,83.67l-4.98,4.97c.57.76,1.99,2.69,2.21,3.31.65,1.85.64,4.95,1.11,6.62.04.13.98,2,1.11,2.21,1.55,2.61,4.55,3.92,7.19,4.97.47.19.7,1.01,1.11,1.1,1.37.3,8.58.3,9.96,0,.36-.08,2.61-1.79,3.32-2.21.29-.17.87.16,1.11,0,3.02-2,4.53-4.67,3.87-8.28-.07-.41-.96-.65-1.11-1.1-.21-.66.2-1.52,0-2.21-.21-.73-5.87-6.17-7.19-6.07-2.29-2.24-5.93-1.69-8.85-2.21-.42-.08-.7-1.05-1.11-1.1-2.43-.3-5.24.21-7.74,0ZM71.94,88.08l-1.66,7.73c.75-.68,2.62-3.25,2.77-3.86.2-.84.67-4.25-1.11-3.86ZM103.47,109.06c-.44.08-2.32,2.01-4.43,1.1l-7.19,7.17c1.98,1.23.7,3.63,1.11,5.52.08.36,1.79,2.6,2.21,3.31.17.28-.16.85,0,1.1,1.45,2.26,3.76,2.94,6.08,3.86.47.19.7,1.01,1.11,1.1,3.41.75,5.13-.65,7.74-2.21.28-.17.86.16,1.11,0,2.4-1.53,2.84-3.77,3.87-6.07.7-1.56.67-1.78,1.11-3.31.13-.45,1.03-.69,1.11-1.1.57-3.2.14-6.55-2.77-8.28-.33-.2-1.65.14-2.21-1.1-3.23.32-5.39-1.74-8.85-1.1ZM19.94,181.91c-.9.97,2.83,4.83,3.32,6.07.92,2.31.69,5.37,1.11,7.73.08.42,1.06.7,1.11,1.1.27,2.22.27,6.61,0,8.83-.05.4-1.03.68-1.11,1.1-.66,3.73-.92,7.13-2.21,11.04l-4.98,8.28,10.51-7.17c.96-2.3,2.31-3.86,3.32-6.62.17-.46.99-.68,1.11-1.1.25-.92-.22-2.31,0-3.31.09-.43,1.05-.7,1.11-1.1.26-1.79.26-5.94,0-7.73-.06-.41-1.01-.67-1.11-1.1-.22-1,.25-2.39,0-3.31-.13-.48-1.77-2.56-2.21-3.31-.17-.29.16-.87,0-1.1-.88-1.33-9.16-9.13-9.96-8.28ZM212.45,227.17c.45-1.89-.72-2.19-1.66-3.31-.87-1.05-3.47-3.85-4.43-4.42-.24-.14-.76.16-1.11,0-.48-.22-.71-1.02-1.11-1.1-1.43-.32-9.61-.31-11.06,0-.36.08-2.61,1.79-3.32,2.21-.29.17-.87-.16-1.11,0-2.87,1.9-6.29,6.51-8.3,9.38l8.3-3.86c5.44-.34,10.73-1.83,16.6-1.1.41.05.68,1.03,1.11,1.1,2.09.35,4.01-.63,6.08,1.1Z"/>
    <path d="M110.11,175.29c2.19-.39,11.09-.39,13.28,0,.41.07.65.96,1.11,1.1.66.21,1.52-.2,2.21,0,.52.15,1.46,1.7,2.21,2.21.26.18.88-.17,1.11,0,2.8,2.03,3.76,4.96,6.08,7.17l2.21,5.52v13.25c-1.69.89-.76,2.38-1.11,3.31-.84,2.27-3.06,4.68-4.43,6.62-.18.26.17.88,0,1.1-1.83,2.43-7.03,6.93-9.4,8.28-5.52,3.14-12.18,3.57-18.81,3.31l-11.06-5.52-4.98-7.17c-.57-4.78-1.88-10.2-1.11-15.45.06-.41,1.01-.67,1.11-1.1.22-1-.25-2.39,0-3.31.52-1.91,3.23-4.92,4.43-6.62,3.36-4.78,5.45-6.4,10.51-9.38,2.57-1.52,2.99-1.49,5.53-2.21.45-.13.7-1.03,1.11-1.1ZM115.64,179.7c-1.23,1.98-3.64.69-5.53,1.1-.51.11-7.13,3.96-7.74,4.42-4.21,3.15-5.76,7.38-8.3,11.59.77,1.73-1.05,2.99-1.11,3.31-.24,1.36-.3,7.73,0,8.83.07.26,3.36,3.56,3.87,3.86.24.14.76-.16,1.11,0,.48.22.71,1.02,1.11,1.1,1.58.35,9.34.31,11.06,0,.41-.07.65-.96,1.11-1.1.66-.21,1.52.2,2.21,0,.52-.15,1.46-1.7,2.21-2.21.26-.18.88.17,1.11,0,1.23-.89,5.3-4.89,6.08-6.07,1.54-2.31,2.62-6.4,3.32-8.83.13-.45,1.03-.69,1.11-1.1.24-1.36.24-5.26,0-6.62-.07-.4-.96-.65-1.11-1.1-.21-.66.2-1.52,0-2.21-.08-.26-3.61-3.79-3.87-3.86-1.49-.41-3.4.76-4.43-1.1h-2.21ZM97.39,217.23c1.17,3.28,5.33,2.62,7.19,4.42l13.28-1.1c1.73-.82,2.98-2.3,4.43-3.31,1.61-1.12,3.32-1.65,4.98-3.86.18-.23-.18-.86,0-1.1.75-1.02,4.28-5,4.43-5.52.2-.69-.21-1.55,0-2.21.15-.46,1.03-.7,1.11-1.1.4-2.24.2-7.45,0-9.93-.18-2.14-.91-3.07-1.11-4.97-1.95-.25-1.05,2.5-1.11,3.86-.13,3.1-.1,6.11-1.11,8.83-.19.51-2.03,4.15-2.21,4.42-.78,1.16-2.49,2.14-3.32,3.31-.16.23.18.82,0,1.1-1.04,1.63-2.42,1.41-2.77,1.66-2.02,1.42-3.51,4.24-6.64,4.42-3.3,2.32-7.77,2.52-12.17,2.21-2.17-.15-3.06-.92-4.98-1.1Z"/>
    <path d="M190.88,130.03c2.06-.37,10.11-.37,12.17,0,.41.07.65.96,1.11,1.1.66.21,1.52-.2,2.21,0,.52.15,1.46,1.7,2.21,2.21.26.18.88-.17,1.11,0,.9.65,3.3,3,3.87,3.86.16.24-.17.81,0,1.1.44.75,2.08,2.83,2.21,3.31.25.92-.22,2.31,0,3.31.09.43,1.05.7,1.11,1.1.2,1.36.2,4.16,0,5.52-.06.41-1.02.68-1.11,1.1-.42,2.09-.55,4.5-1.11,6.62-3.81,5-6.76,10.28-12.72,12.69l-4.43,2.21c-3.92-.57-9.7.79-13.28,0-.4-.09-.64-.92-1.11-1.1-3.36-1.33-6.08-3.03-8.3-6.07-.17-.23.18-.84,0-1.1-.51-.75-2.06-1.69-2.21-2.21-.2-.69.21-1.55,0-2.21-.15-.46-1.03-.7-1.11-1.1-.32-1.8-.32-8.14,0-9.93.06-.32,1.88-1.58,1.11-3.31,2.6-4.67,4.86-9.31,9.4-12.69.22-.17.84.18,1.11,0,1.37-.95,2.77-2.65,4.43-3.31.6-.24,1.5.2,2.21,0,.45-.13.7-1.03,1.11-1.1ZM200.28,136.65c-2.57-.54-5.26-1.76-8.3-1.1-.25.05-3.95,1.94-4.43,2.21-1.12.63-1.72,2.67-3.32,2.21l-6.08,8.28c.77,1.73-1.05,2.99-1.11,3.31-.25,1.4-.28,6.41,0,7.73.17.8,2.58,3.12,2.21,4.42,3.77,4.91,7.73,5.52,13.83,4.97,3.75-3.41,6.59-6.91,8.3-11.59.17-.46.99-.68,1.11-1.1.25-.92-.22-2.31,0-3.31.09-.43,1.05-.7,1.11-1.1.22-1.5.26-5.18,0-6.62-.07-.41-.98-.65-1.11-1.1-.2-.71.23-1.59,0-2.21-.52-1.4-2.7-3.14-2.21-4.97ZM204.71,164.25c-.45-2.52,2.25-3.36,3.32-4.97.28-.42,2.06-4.01,2.21-4.42.23-.62-.2-1.5,0-2.21.13-.45,1.03-.69,1.11-1.1.61-3.39-.77-5.91-1.11-8.83l-4.98-4.97,1.66,4.97v13.25l-2.21,4.42v3.86Z"/>
    <path d="M247.3,160.94c1.36-.24,5.28-.24,6.64,0,.32.06,1.58,1.87,3.32,1.1,1.62,2.14,4.61,2.66,6.08,4.97.16.25-.17.82,0,1.1.42.71,2.14,2.95,2.21,3.31.35,1.63.31,9.28,0,11.04-.07.4-.96.65-1.11,1.1-.21.66.2,1.52,0,2.21-.15.52-1.7,1.46-2.21,2.21-.18.26.17.87,0,1.1-1.53,2.1-4.39,3.96-6.08,6.07-4.19,1.7-8.15,2.71-13.28,2.21-.88-1.69-2.44-.76-3.32-1.1-.43-.17-.65-.89-1.11-1.1-.34-.16-.87.14-1.11,0-2.36-1.4-4.67-5.17-6.08-7.17.63-2.91-1.78-4.85-1.11-7.73.14-.61,1.99-2.24,1.11-4.42,3.09-6.36,6.77-10.37,12.72-13.8,1.74.77,3-1.05,3.32-1.1ZM248.96,185.22c-.17-2.39,2.49-3.99,3.32-6.07.24-.6-.2-1.49,0-2.21.13-.45,1.03-.69,1.11-1.1.24-1.32-.16-3,0-4.42-1.61-1-.75-4.43-2.77-4.97-3.46-.93-5.38,1.66-7.74,3.31-.26.18-.89-.17-1.11,0-2.3,1.74-2.94,3.5-3.87,6.07-.17.46-.99.68-1.11,1.1-.41,1.49.76,3.39-1.11,4.42.55,1.8,1.76,6.59,3.87,7.17.9.25,2.27-.17,3.32,0l6.08-3.31ZM245.64,191.84c5.68.4,9.73-3.29,13.28-7.17l2.21-8.83c-1.7-1.99-1.31-5.31-3.87-7.17l.55,8.28c-1.69.88-.76,2.39-1.11,3.31-.26.7-1.72,2.47-2.21,3.31-1.3,2.2-3.14,5.57-6.08,6.07l-2.77,2.21Z"/>
    <path d="M62.54,155.42c1.29-.28,7.58-.28,8.85,0,.39.09.63.89,1.11,1.1.34.16.87-.14,1.11,0,.61.36,3.51,3.26,3.87,3.86.14.24-.16.76,0,1.1.22.48,1.02.71,1.11,1.1.31,1.38.27,7.33,0,8.83-.06.32-1.88,1.58-1.11,3.31-2.15,1.62-2.66,4.6-4.98,6.07-.25.16-.82-.17-1.11,0-.71.42-2.96,2.13-3.32,2.21-1.29.28-7.58.28-8.85,0-.39-.09-.63-.89-1.11-1.1-.34-.16-.87.14-1.11,0-.61-.36-3.51-3.26-3.87-3.86-.14-.24.16-.76,0-1.1-.22-.47-.99-.7-1.11-1.1-.41-1.48.77-3.4-1.11-4.42l2.21-8.83c1.72-1.31,3.29-3.85,4.98-4.97.24-.16.81.17,1.11,0,.71-.42,2.96-2.13,3.32-2.21ZM67.52,160.94c-2.8-1.08-9.33,2.79-9.96,4.97-.2.69.21,1.55,0,2.21-.14.45-1.01.68-1.11,1.1-.58,2.49.5,3.09,1.11,4.42.16.34-.14.87,0,1.1,1.49,2.5,3.85,3.19,6.64,2.76-.81-2.09,1.93-2.9,2.21-3.86.32-1.12,1.07-3.13,1.11-3.31.49-2.75-.35-6.47,0-9.38ZM65.3,177.49c4.36-.07,5.23-3.44,7.74-6.07-.39-3.1,1.28-7.15-1.66-9.38l-.55,8.28-5.53,7.17Z"/>
    <path d="M262.79,104.64c2.42-.54,6.18.38,8.85,0l4.98,4.97c.34,2.93,1.71,5.44,1.11,8.83-.07.4-.96.65-1.11,1.1-.21.66.2,1.52,0,2.21-.12.41-5.43,5.68-6.08,6.07-.24.14-.76-.16-1.11,0-.48.22-.71,1.02-1.11,1.1-8.78,1.96-15.44-5.16-13.83-13.8,1.69-.88.76-2.44,1.11-3.31.17-.43.9-.65,1.11-1.1.16-.34-.14-.86,0-1.1.36-.6,3.27-3.5,3.87-3.86.24-.14.76.16,1.11,0,.48-.22.71-1.02,1.11-1.1ZM268.87,112.37l-1.66-3.31c-1.97,1.56-4.42,1.07-6.08,3.86-.14.24.16.77,0,1.1-.21.46-.94.68-1.11,1.1-.35.9.58,2.43-1.11,3.31,2.06,3.63,3.39,5.8,8.3,4.97.82-1.3,4.72-4.04,4.98-4.97.43-1.56-.29-4.26,0-6.07h-3.32Z"/>
    <path d="M67.52,244.83c-.21.21-1.14-.29-1.66,0-.76.42-1.65,2.05-2.21,2.21-.9.25-2.27-.18-3.32,0-.43.07-.74,1.1-1.11,1.1s-.68-1.03-1.11-1.1c-2.36-.4-5.51-.11-7.19-2.76-.14-.22.16-.76,0-1.1-.21-.46-.93-.67-1.11-1.1-.35-.87.59-2.44-1.11-3.31l2.21-6.62c1.24-4.45,6.22-5.94,10.51-7.17,1.02,1.87,2.94.69,4.43,1.1.26.07,3.56,3.35,3.87,3.86.14.24-.16.76,0,1.1.22.48,1.02.71,1.11,1.1.41,1.84-.29,4.59,0,6.62-.64,1.64-2.59,3.11-3.32,4.42-.29.52.21,1.45,0,1.66ZM60.33,230.48l-6.08,4.97c-.4,3.42.01,5.13,2.77,7.17,5.99.51,9.05-3.86,8.3-9.38l-4.98-2.76Z"/>
    <path d="M159.34,198.47l7.19,2.21c2.92-2.17,6.18-6.41,2.21-8.83-1.07-.65-2.29,1.13-1.66-3.31,3.94-.8,5.35,1.32,7.74,3.86v6.62c-3.13,3.19-5.81,6.68-10.51,6.07-2.73-1.46-4.74-3.01-4.98-6.62Z"/>
    <path d="M152.71,144.38l-3.32-4.42c-1.08-.96-4.98,2.94-5.53,3.86-.14.24.16.76,0,1.1-.22.47-.99.7-1.11,1.1-.25.91.21,2.29,0,3.31-.09.43-1.51.75-1.11,2.21.12.44,1.01.68,1.11,1.1.42,1.8.84,6.06-2.21,4.97.55-1.8-2.01-4.06-2.21-4.97-.24-1.08-.24-5.54,0-6.62.09-.4.92-.63,1.11-1.1,1.49-3.74,2.93-5.61,6.08-8.28h5.53l1.66,7.73Z"/>
    <path d="M201.39,35.1c.21.21-.29,1.13,0,1.66.42.76,2.06,1.65,2.21,2.21.26.93.24,6.68,0,7.73-.09.39-.89.63-1.11,1.1-.16.34.14.87,0,1.1-.44.74-3.05,3.27-3.87,3.86-.29.21-3.12,2.15-3.32,2.21-1.54.45-3.93.71-5.53,1.1-.44.11-.69,1.03-1.11,1.1-2.57.45-14.03.46-16.6,0-.41-.07-.65-.96-1.11-1.1-.66-.21-1.52.2-2.21,0-.52-.15-1.46-1.7-2.21-2.21-.26-.18-.88.17-1.11,0-.82-.59-3.43-3.12-3.87-3.86-.14-.24.16-.76,0-1.1-.22-.48-1.02-.71-1.11-1.1-.22-.97-.22-4.55,0-5.52.09-.4.92-.63,1.11-1.1,1.12-2.81,2.3-5.4,4.98-7.17.29-.19,3.9-2.01,4.43-2.21,2.41-.89,5.33-.68,7.74-1.1.42-.08.7-1.05,1.11-1.1,1.73-.22,4.91-.22,6.64,0,.41.05.68,1.03,1.11,1.1,1.35.24,3.12-.27,4.43,0,.42.09.66.98,1.11,1.1.72.2,1.61-.24,2.21,0,1.67.66,3.31,2.69,4.43,3.31.52.29,1.45-.21,1.66,0ZM180.92,33.99c-.41.06-.68,1.03-1.11,1.1-1.36.24-3.14-.28-4.43,0-.8.17-3.12,2.57-4.43,2.21l-4.43,5.52,9.96-5.52h13.28l8.3,2.76-7.19-4.97c-3.52.04-6.06-1.68-9.96-1.1ZM178.71,41.72c-.41.06-.67,1.01-1.11,1.1-1.78.39-3.64-.03-5.53,1.1-1.36.81-3.43,2.88-4.98,3.86.86.54,2.13,2.58,2.77,2.76.69.2,1.55-.21,2.21,0,2.47.79,3.14.66,5.53,1.1,1.14.21,2.44,1.67,5.53,1.1.42-.08.68-1.03,1.11-1.1,2.5-.46,5.14-.36,7.74-1.1.41-.12,3.94-3.28,4.98-3.86.24-2.3-1.7-2.27-2.77-2.76-2.27-1.04-2.42-.66-4.43-1.1-.43-.1-.7-1.04-1.11-1.1-2.18-.32-7.78-.32-9.96,0Z"/>
    <path d="M126.71,71.53c1.26-.23,5.46-.26,6.64,0,.4.09.64.92,1.11,1.1.76.3,2.82.79,3.32,1.1,2.53,1.61,4.29,5.35,3.87,8.28l-7.19,7.17c-2.05-.92-4.09,1.06-4.43,1.1-1.51.22-5.2.26-6.64,0-.41-.07-.66-.98-1.11-1.1-.72-.2-1.61.24-2.21,0-.43-.17-.65-.89-1.11-1.1-.35-.16-.89.14-1.11,0-1.55-.99-1.28-1.93-1.66-2.76-.62-1.34-1.68-1.92-1.11-4.42.09-.39.89-.63,1.11-1.1.16-.34-.14-.87,0-1.1.4-.67,4.3-4.57,4.98-4.97.24-.14.77.16,1.11,0,.46-.21.67-.93,1.11-1.1.6-.24,1.5.2,2.21,0,.45-.13.7-1.03,1.11-1.1ZM136.11,82.56l-.55-3.31c-4.7-4.1-10.56-2.18-14.94,1.66-1.22,4.84,7.44,4.54,10.51,3.86.91-.2,3.18-2.75,4.98-2.21Z"/>
    <path d="M239.56,50.55l5.53,1.1c2.26,2.3,4.7,3.58,3.87,7.17-.09.39-.89.63-1.11,1.1-.16.35.14.88,0,1.1-.42.67-3.44,2.67-3.87,2.76-1.29.28-9.96.3-11.06,0-.26-.07-3.8-3.6-3.87-3.86-.66-2.38.53-3.15,1.11-4.42.16-.35-.14-.88,0-1.1.42-.67,3.44-2.67,3.87-2.76,1.9-.41,4.3.87,5.53-1.1ZM233.47,59.38c2.01-.83,3.84,1.43,4.98,1.1.45-.13.69-1.02,1.11-1.1,1.82-.37,3.53.75,4.98-1.66-2-2.78-5.45-1.36-8.3-1.66l-2.77,3.31Z"/>
  </g>
  <g class="st1">
    <path d="M344.86,271.5c.09-.09.49.13.72,0,.31-.17,3.4-3.26,3.6-3.6.09-.14-.06-.72.48-.96-.04-1.52.77-2.68.48-4.32-.03-.18-.43-.29-.48-.48-.17-.7-.28-1.73-.48-2.4-.04-.15-2.01-2.12-2.16-2.16-.41-.11-1.03.11-1.44,0-.11-.03-1.65-1.57-1.68-1.68-.29-1.04.1-3.45,0-4.8-.14-1.84-.86-4.89-.96-6.72-.14-2.55.1-5.13,0-7.68,7.04-6.88,13.81-14.03,20.88-20.88,4.17-4.04,9.13-8.57,13.44-12.48,1.04-.94,4.61-5.13,5.76-4.8.38.74,1.07.33,1.44.48.28.11,1.27.92,1.44.96.47.1,2.95.11,3.36,0,.11-.03,1.65-1.57,1.68-1.68.09-.3-.09-.67,0-.96.06-.2.45-.3.48-.48.16-.91.14-3.85,0-4.8-.03-.17-.79-.78-.48-1.92,3.39-2.98,6.42-6.97,9.84-9.84.09-.08.38.08.48,0,.48-.39,1.64-1.84,1.92-1.92.3-.09.67.09.96,0,.2-.06.3-.45.48-.48.65-.12,2.19-.09,2.88,0,8.27,1.03,16.55,1.52,24.48,3.36,10.87,2.53,26.54,8.49,35.52,15.84.9.74,4.58,4.26,5.04,5.04.06.1-.07.33,0,.48.09.21.44.31.48.48.12.55-.1,1.33,0,1.92.03.18.46.3.48.48.17,1.35-.11,2.93,0,4.32.95,11.55,1.37,23.17.48,35.04-.38,5.02-1.84,10.56-2.4,15.36-.12,1.03.2,2.45,0,3.36-.04.17-.39.27-.48.48-.07.15.06.38,0,.48-.13.23-.97,1.07-1.2,1.2-.1.06-.33-.07-.48,0-.2.09-.29.41-.48.48-1.03.41-2.73.6-3.84.96-5.53,1.78-11.33,3.7-16.8,5.28-1.5.43-2.92.63-4.32.96-.19.04-.29.44-.48.48-1.62.38-3.13-1.11-4.32-1.44-.9-.25-2.41-.27-3.36-.48-.19-.04-.3-.45-.48-.48-.44-.08-1.48-.08-1.92,0-.18.03-.3.45-.48.48-.58.11-1.36-.12-1.92,0-.18.04-.28.4-.48.48-1.17.46-2.96,1.08-3.6,2.16s-.25,2.04-.48,2.88c-.18.66-1.73,1.23-2.16,1.68-5.98,1.42-11.87,3.18-17.76,4.8-17.49,4.8-34.98,9.4-52.8,13.44-1.34.3-3.63,1.27-4.8,1.44-.89.13-1.96-.09-2.88,0l-1.2-1.68c-.29-6.31.39-12.94,0-19.2-.01-.17-.47-.31-.48-.48-.09-1.21-.19-3.71,0-4.8.03-.17.39-.27.48-.48.11-.26-.08-.64,0-.72ZM467.74,202.86c-.5-.83-1.41-1.8-2.16-2.4-15.6-12.53-37.93-16.66-57.12-18.72-1.07-.11-2.27.08-3.36,0l-8.88,8.4,1.92,2.88.96,3.36c-.73.38-.33,1.04-.48,1.44-.11.31-.74,1.07-.96,1.44-.08.13.07.38,0,.48-.49.73-1.59,1.41-2.16,2.16l-4.32,1.92c-2.53.1-4.9-.02-7.2-.48-.18-.04-.29-.43-.48-.48h-.48c-2.13,2.03-4.1,4.23-6.24,6.24-4.41,4.13-9.6,8.75-13.92,12.96s-8.31,8.19-12.24,12.48l71.28-18.72.72-.72c-.57-.37-.63-1.27-.48-1.92.04-.18.42-.28.48-.48.09-.29-.09-.66,0-.96.05-.18,2.31-2.42,2.64-2.64,1.09-.72,3-1.11,4.32-1.44.19-.05.3-.45.48-.48,1-.18,2.32.15,3.36,0,.19-.03.73-.76,1.92-.48.19.04.3.45.48.48,1.56.23,3.26.06,4.8.48.55.15,3.13,1.92,3.36,1.92,2.09-.99,4.48-1.29,6.72-1.92,3.5-.99,7.14-2.15,10.56-3.36l6.48-1.44ZM395.26,198.06l.48-3.84-.48,1.68v2.16ZM348.7,276.06v18.48c.54-.06,1.19.1,1.68,0,15.21-3.13,31.11-7.97,46.08-12,8.02-2.16,16.57-4.85,24.48-6.72.47-.11,1.15.07,1.68,0l.96-4.56c1.69-3.37,3.03-4.93,6.48-6.48.2-.09.29-.41.48-.48.4-.15,1.06.25,1.44-.48h4.8c.38.73,1.06.33,1.44.48.99.4,4,2.69,4.56,3.6.07.11-.07.35,0,.48.21.37.7.42.48,1.2.91.35,1.44-.42,1.68-.48.73-.18,1.21-.27,1.92-.48,6.49-1.9,12.99-3.78,19.2-5.76.29-.09.66.09.96,0,1.09-.31.59-2.22.72-3.12.34-2.26,1.1-4.94,1.44-7.2,2.06-13.7,1.85-29.31.48-43.2-.09-.92.04-1.93,0-2.88-.02-.53.02-1.06-.72-.72-1.31.61-3.08,1.1-4.32,1.44-6.06,1.67-12.23,2.99-18.24,4.8-.29.09-.76.82-1.68.48.26,1.56-.65,2.8-1.44,4.08-.93,1.51-2.02,2.66-3.6,3.6-.36.22-2.72,1.4-2.88,1.44-.4.11-1-.1-1.44,0-.19.04-.3.45-.48.48-2.19.32-4.26-.27-6.24-.48l-4.8-3.36c-.44.82-1.29.29-1.92.48-18.97,5.59-37.61,10.46-56.64,15.36-5.38,1.38-10.89,3.04-16.32,4.32-.41.1-.98-.06-1.44,0l-.72.72c.09,1.59-.12,3.22,0,4.8.13,1.71.81,4.52.96,6.24.11,1.33-.08,2.74,0,4.08,2.76-.31,4.67.51,6.96,1.92.12.07.37-.07.48,0,1.56,1.04,2.5,2.85,3.12,4.56.07.2.43.3.48.48.11.4-.1,1,0,1.44.04.19.45.3.48.48.09.59.09,1.81,0,2.4-.03.18-.44.29-.48.48-.18.91-.24,1.96-.48,2.88-1.06,1.05-1.77,2.7-3.12,3.6-.35.23-3.63,1.87-3.84,1.92-.68.15-1.65-.1-2.4,0l-.72,1.2c.05.19.44.3.48.48ZM426.94,217.26c.94-.29,1.12.65,1.68.96.33.18,1.81.94,1.92.96.66.15,3.1.11,3.84,0,.18-.03.29-.44.48-.48.44-.09,1.04.11,1.44,0,.61-.17,1.43-1.1,1.92-1.44.11-.08.38.07.48,0,.92-.69,1.72-1.89,2.64-2.64-.11-1.04.79-1.76.48-2.88-.19-.69-2.16-1.03-2.64-1.68-2.12-.07-3.96-.76-6.24-.48-.18.02-.3.45-.48.48-.59.1-1.37-.13-1.92,0-.19.04-.29.44-.48.48-.43.1-1.04-.11-1.44,0-.11.03-1.81.89-1.92.96-.87.55-1.11,1.48-1.68,2.16v.96l1.44.72.48,1.92ZM354.46,259.02l-1.92-.96.96,2.64c.52,2.94.53,5.4-.48,8.16-.1.28-1.11,1.54-.96,1.68.88.19,1.14-.48,1.68-.96.96-.84,1.57-1.64,2.16-2.64.15-1.27.74-2.37.48-3.84-.03-.18-.42-.28-.48-.48-.09-.31.1-.7,0-.96-.28-.71-1.15-1.4-1.44-1.92-.13-.23.09-.62,0-.72ZM431.02,268.14c2.25-.26,4.89.19,7.2,0l.48-.48-2.4-.96h-3.36l-3.6,1.44c.12,1.33,1.56.01,1.68,0Z"/>
    <path d="M415.66,231.18h3.84c.38.73,1.06.33,1.44.48.19.07.28.39.48.48.15.07.38-.06.48,0,.32.19,2.45,2.32,2.64,2.64.06.1-.07.33,0,.48.09.21.43.3.48.48.11.4-.1,1,0,1.44.04.19.45.3.48.48.11.73.13,2.66,0,3.36-.03.18-.42.28-.48.48-.09.31.1.69,0,.96-.64,1.73-2.54,4.37-4.08,5.52-.1.07-.37-.08-.48,0-.6.41-1.2,1.15-1.92,1.44-.26.1-.65-.09-.96,0-.2.06-.3.45-.48.48-.75.13-4.11.15-4.8,0-.18-.04-.28-.4-.48-.48-.32-.13-1.24-.35-1.44-.48-.45-.3-2.34-2.19-2.64-2.64-.07-.1.08-.35,0-.48-.18-.31-.93-1.28-.96-1.44-.14-.67-.13-3.61,0-4.32.02-.14.82-.69.48-1.44,1.1-1.83,1.77-3.67,3.6-5.04.1-.07.37.08.48,0,.34-.24.64-.78.96-.96,1.01-.57,2.48-.78,3.36-1.44ZM415.66,234.06c-.18.03-.28.42-.48.48-.29.09-.66-.09-.96,0-.22.06-.63.74-.96.96-.11.08-.38-.07-.48,0-1.28.93-2.12,2.16-2.64,3.6-.07.2-.43.3-.48.48-.11.4.1,1.01,0,1.44-.08.33-.76.73-.48,1.92.04.18.42.29.48.48.09.31-.1.7,0,.96.07.19.39.28.48.48.07.15-.06.38,0,.48.24.4.89.78,1.2,1.2,1.79.27,2.45-.14,3.84-.96.13-.08.38.07.48,0,.5-.33,2.79-2.62,3.12-3.12.13-.2.35-1.12.48-1.44.08-.2.44-.3.48-.48.13-.58.13-3.74,0-4.32-.04-.17-.39-.27-.48-.48-.07-.15.06-.38,0-.48-.75-1.26-2.21-1.45-3.6-1.2ZM413.98,247.5c1.94.25,3.44-.4,5.04-.96,1.45-1.37,2.43-2.19,3.12-4.08.07-.2.43-.3.48-.48.11-.4-.1-1.01,0-1.44.04-.19.44-.29.48-.48.28-1.19-.58-1.82-.48-2.88l-1.68-2.16.24,5.52c-.72.4-.34.97-.48,1.44-.06.22-.74.63-.96.96-.08.11.07.38,0,.48-.78,1.07-2.85,3.19-4.08,3.12l-1.68.96Z"/>
    <path d="M448.78,221.58c.55-.1,2.37-.11,2.88,0,.18.04.28.4.48.48,1.34.53,2.7.99,3.6,2.16-.16.56.88,1.57.96,1.92.14.67.13,3.61,0,4.32-.03.18-.42.28-.48.48-.09.31.1.7,0,.96-.07.19-.39.28-.48.48-.07.15.06.38,0,.48-.22.37-2.24,2.38-2.64,2.64-.13.08-1.69.88-1.92.96-.27.1-.65-.09-.96,0-.2.06-.3.45-.48.48-1.47.26-2.57-.33-3.84-.48-.64-.39-3.41-2.47-3.6-3.12-.09-.3.09-.67,0-.96-.06-.2-.45-.3-.48-.48-.12-.66-.13-3.23,0-3.84.04-.18.4-.28.48-.48.14-.35.33-1.17.48-1.44.16-.29,1.51-2.05,1.68-2.16.14-.09.4.06.48,0,.81-.67,1.42-1.53,2.4-1.92.26-.1.65.09.96,0,.2-.06.3-.45.48-.48ZM450.94,224.46l-1.2-.48-2.4.96-2.64,2.64c-.11,1.25-.8,2.42-.48,3.84.04.17.39.27.48.48.07.15-.06.38,0,.48.52.87,1.51,1.11,2.16,1.68h.48c.4-.72.97-.34,1.44-.48.15-.04,2.01-1.9,2.16-2.16.06-.1-.07-.33,0-.48.09-.2.41-.29.48-.48.1-.26-.09-.65,0-.96.06-.2.45-.3.48-.48.09-.49.1-1.95,0-2.4-.09-.39-1.2-1.38-.96-2.16ZM449.98,234.06c1.26-.04,3.24-1.63,3.84-2.64.06-.1-.07-.33,0-.48.09-.21.44-.31.48-.48.12-.51.12-3.87,0-4.32-.09-.34-1.38-1.21-1.68-1.68-.38.45.68,1.49.72,1.68.11.52.1,2.33,0,2.88-.03.18-.42.28-.48.48-.09.31.1.69,0,.96-.18.5-1.06,1.29-.96,1.92l-1.92,1.68Z"/>
    <path d="M376.78,266.22c.57-.13,3.75-.13,4.32,0,.17.04.27.39.48.48.15.07.38-.06.48,0,.29.17,1.99,1.87,2.16,2.16.06.1-.07.33,0,.48.09.21.43.3.48.48.11.4-.1,1.01,0,1.44.04.18.77.5.48,1.44-.06.2-.44.3-.48.48-.1.43.11,1.04,0,1.44-.05.18-.39.27-.48.48-.07.15.06.38,0,.48-.19.32-2.32,2.45-2.64,2.64-.1.06-.33-.07-.48,0-.2.09-.29.41-.48.48-.26.1-.65-.09-.96,0-.2.06-.3.45-.48.48-1.47.26-2.57-.33-3.84-.48-.77-.57-2.08-1.22-2.64-2.16-.06-.1.07-.33,0-.48-.09-.2-.41-.29-.48-.48-.1-.26.09-.65,0-.96-.06-.19-.44-.3-.48-.48-.32-1.35.98-2.86.96-4.32,1.03-.74,2.14-2.53,3.12-3.12.1-.06.33.07.48,0,.21-.09.31-.44.48-.48ZM379.42,268.62c-.66.1-1.6-.15-2.16,0-.15.04-2.01,1.91-2.16,2.16-.06.1.07.33,0,.48-.09.2-.4.29-.48.48-.15.38.26,1.06-.48,1.44l.48,1.92,1.68,1.2c1.79-.37,2.79-1.72,3.6-3.12l.48-2.4-.96-2.16ZM379.42,276.3c.47.43,2.8-1.87,2.88-2.16.14-.47-.24-1.04.48-1.44v-.96l-1.2-2.16-.24,4.08-1.92,2.64Z"/>
    <path d="M384.46,241.74c.57-.12,2.75-.11,3.36,0,.18.03.28.42.48.48.29.09.66-.09.96,0,.67.19,1.75,2.12,2.16,2.64.05,1.18.73,1.99.48,3.36-.03.18-.42.28-.48.48-.09.31.1.69,0,.96-.07.19-.39.28-.48.48-.14.3-.35,1.24-.48,1.44-.23.34-1.34,1.45-1.68,1.68-.1.07-.35-.08-.48,0-.31.18-1.28.93-1.44.96-.56.12-3.29.12-3.84,0-.17-.04-.27-.39-.48-.48-.15-.07-.38.06-.48,0-.29-.17-1.99-1.87-2.16-2.16-.06-.1.07-.33,0-.48-.09-.21-.44-.31-.48-.48-.12-.55-.11-2.76,0-3.36.03-.18.42-.28.48-.48.09-.29-.09-.66,0-.96.06-.22.74-.63.96-.96.08-.11-.07-.38,0-.48.28-.39,1.3-1.43,1.68-1.68.1-.07.35.08.48,0,.31-.18,1.28-.93,1.44-.96ZM385.9,244.14c-.4.72-.97.34-1.44.48-.11.03-1.55,1.46-1.68,1.68-.06.1.07.33,0,.48-.09.21-.44.31-.48.48-.25,1.13.13,4.24,1.2,4.56.45.13,1.03-.25,1.44.48,3.51-.96,4.52-2.92,4.08-6.48l-2.16-1.68h-.96Z"/>
    <path d="M443.5,248.46c1.79-.49,5.19.16,5.52,2.16.64.53.67,2.52.48,3.36-.04.17-.39.27-.48.48-.07.15.06.38,0,.48-.17.29-1.87,1.99-2.16,2.16-.1.06-.33-.07-.48,0-.21.09-.31.44-.48.48-1.83.41-4.65-.24-5.04-2.16-.64-.53-.67-2.51-.48-3.36.07-.3,1.07-1.29.96-1.92l2.16-1.68ZM443.26,255.18l1.68.48c.48-.48,1.97-1.02,2.16-1.68.13-.47-.24-1.04.48-1.44l-2.16-2.16c-.63.77-1.51.18-2.16,1.2-.06.1.07.33,0,.48-.1.21-.44.31-.48.48-.25,1.08.42,1.66.48,2.64Z"/>
    <path d="M407.5,258.54l2.4.48c1.34,1.11,2.43,3.1,1.2,4.56-.58,1.89-3.34,3.54-5.04,2.16-1.75-.39-2.92-3.14-1.68-4.56-.14-.47,1.4-2.08,1.68-2.16.47-.14,1.04.24,1.44-.48ZM409.18,260.94c-1.87-.41-4,1.28-2.16,2.88l1.68-.24.48-.48v-2.16Z"/>
    <path d="M467.26,210.06l.96,4.56-.96,1.44.96,2.88c-1.48,2.21,1.34,4.92-.96,7.2l.48,3.12h-1.44c-.08-.69.12-1.52,0-2.16-.03-.14-.75-.48-.48-1.44.08-.27.89-.7.96-.96.37-1.33-.8-3.02-.48-4.8.26-1.47.31-4.88,0-6.24-.17-.74.11-1.83,0-2.64l-1.44.48v-1.2l.72-.72,1.68.48Z"/>
    <path d="M462.94,260.94v.96c-1.22-.13-2.13.06-3.12.48-1.09-.75-1.47-.25-1.2-1.92l2.16.48c.71-.72,2.63-1.39,3.12-2.16.06-.1-.07-.33,0-.48.1-.21.44-.31.48-.48.4-1.77-.45-5.09,0-6.72.09-.34,1.33-1.09,1.44-1.44.18-.59-.19-1.45.96-1.68-.13.79.19,1.96,0,2.64-.14.5-1.27.57-.96,2.4.03.18.48.32.48.48s-.45.3-.48.48c-.21,1.28.27,3.14,0,4.32-.04.17-.39.27-.48.48-.07.15.06.38,0,.48-.38.64-1.67,1.83-2.4,1.68Z"/>
    <path d="M351.58,283.98l.96,2.16c-1.14.86-.21,1.74,0,2.4.28.89-.62,1.33-.48,2.16.62.63,2.55-1.09,2.88-1.68.13-.23-.09-.63,0-.72s.49.13.72,0c.34-.19,1.56-1.44,1.92-1.44l.96.96,1.68.72c-.95,1.25-1.84.8-2.64-.24l-.96.48c-1.49,1.57-2.17,3.68-4.8,3.36l-1.2-1.68.48-1.92c-.72-.55-.65-1.91-.24-2.64l-.24-1.68.96-.24Z"/>
    <path d="M350.62,251.34l-.96-.72c.32-.62.33-1.39.48-1.92.06-.2.45-.3.48-.48.39-2.17-.8-2.28-.96-2.88-.18-.65.33-1.48-.48-1.92l.48-1.68c2.07-.02,1.24,1.8,1.44,3.12.03.18.46.31.48.48.12,1.07-.08,2.27,0,3.36l-.96,2.64Z"/>
    <path d="M464.38,211.5c-1,.32-1.78-.75-2.64-.48-.2.06-.3.44-.48.48-.43.1-1.04-.11-1.44,0-.26.07-.69.88-.96.96-.29.08-.72.12-1.2.24-.99.26-1.21.48-1.92-.48l6-2.64c1.25-.29,2.62.46,2.64,1.92Z"/>
    <path d="M363.58,236.94c.36,1.79-1.75.33-2.4,1.68.85.66.62,1.54-.24,2.16l-1.68-.96v1.44l-2.4.48.96-.96c.05-1.28,1.53-2.67,2.88-2.4l.72-1.44h2.16Z"/>
    <path d="M458.14,260.46l-.48,1.92c-.09.09-.49-.13-.72,0-.42.23-1.35,1.32-1.92,1.44-.85.18-1.75-.3-2.64.48l1.2-2.4,1.44.48c.64-.79,1.1-1.15,2.16-.96l.96-.96Z"/>
    <path d="M376.06,234.06c.39,1.67-1.61.77-2.64.96-.17.03-.8.84-1.68.48v1.2l-1.44,1.2v-2.16c1.48-1.95,3.42-1.76,5.76-1.68Z"/>
    <path d="M369.82,284.94v.96l2.4-.48c.06,1.76-1.12,1.26-2.16,1.44-.18.03-.32.48-.48.48-.14,0-1.65-1.24-2.4,0l-1.2-1.2,3.84-1.2Z"/>
    <path d="M464.86,217.26l.96.24-.72.72-1.68-.48c-.41-1.38,1.17-2.58,0-3.6l1.2-1.68.24,1.68-.48.48.96.96-.48,1.68Z"/>
    <path d="M361.18,246.54l-1.2,2.88c-1.17-.82-.62-2.18-.72-3.36h1.2l.72-1.44h1.68c.26.3-.29,1.16-.48,1.44-.09.14-.34.4-.48.48-.23.13-.63-.09-.72,0Z"/>
    <path d="M356.38,238.86l-1.2,1.44c-.96-.2-1.33.3-1.92.96l-2.16.48.24-1.44c1.76.01,3.07-1.84,5.04-1.44Z"/>
    <path d="M463.42,249.42c-2.21,0-2.06,3.33-4.32,2.88l.96-.96c.02-.73.56-2.01,1.2-2.4.35-.22.98.42.72-.96l1.44,1.44Z"/>
    <polygon points="354.46 277.26 353.98 279.42 354.94 280.38 352.78 281.1 352.06 279.9 352.78 278.7 354.46 277.26"/>
    <path d="M359.26,280.62l-1.44,2.64v1.2h-2.4l1.44-.96c-.34-1.51.57-3.16,2.4-2.88Z"/>
    <path d="M463.42,254.22l-.48,2.16c-.93,1.31-1.84,1.34-3.36,1.2.16-.53.77-1.09,1.2-1.44.08-.06.34.09.48,0,.87-.55.69-2.13,2.16-1.92Z"/>
    <path d="M365.02,286.86c.17,2.42-1.62,2.48-2.88.72l2.88-.72Z"/>
    <path d="M467.26,242.22l-1.2,2.88c-1.09-.87-.69-.79-.24-1.68.34-.67.28-1.41,1.44-1.2Z"/>
    <path d="M365.98,239.34l-2.4,2.88c-.63-.99,1.82-3.41,2.4-2.88Z"/>
    <path d="M367.42,236.94v.96h-2.4v-1.44c1.04-.26,1.51.53,2.4.48Z"/>
    <path d="M458.14,259.98l-2.4-.48c.12-2.36,2.28-1.38,2.4.48Z"/>
    <path d="M355.42,245.58c-1.07.27-1.24-.39-.96-1.2.1-.3,1.45-1.49,1.92-1.68l-.96,2.88Z"/>
    <path d="M451.42,264.3l-2.4-.48,1.2-1.44c.57.64,1.38,1.01,1.2,1.92Z"/>
    <path d="M354.46,247.02l-.48,2.4-1.44-1.2c.64-.57,1.01-1.38,1.92-1.2Z"/>
    <polygon points="362.14 282.54 361.42 283.98 360.22 283.26 360.94 282.54 362.14 282.54"/>
    <path d="M368.38,240.3l-.48,1.44h-.96c-.14-.91.53-1.58,1.44-1.44Z"/>
    <path d="M419.98,192.3c1.34-.24,1.91.39,2.4.48.58.11,1.35-.12,1.92,0,.27.06,1.51.78,1.92.96.97.44,2.04.67,2.64,1.68.06.1-.07.33,0,.48.09.21.44.31.48.48.1.46.1,2.42,0,2.88-.04.17-.39.27-.48.48-.07.15.06.38,0,.48-.17.29-1.37,1.47-1.68,1.68-.95.63-2.74,1.13-3.84,1.44-.19.06-.3.44-.48.48-.57.12-1.33-.1-1.92,0-.18.03-.3.46-.48.48-2.55.31-4.9-.62-7.2-.96-.54-.78-2.88-1.79-3.12-2.64-.14-.47.24-1.04-.48-1.44v-.96c.06-.18.4-.28.48-.48.49-1.22.99-2.34,2.16-3.12.28-.19,2.47-1.29,2.88-1.44.27-.1.65.09.96,0,.2-.06.3-.45.48-.48.86-.15,1.97.11,2.88,0,.18-.02.3-.45.48-.48ZM426.46,199.98c.09-.09-.13-.49,0-.72.25-.44,1.17-.76.96-1.44l-1.2-1.68c-.63.11-1.62-.89-1.92-.96-2.4-.53-6.35.26-8.64.48-1.4,1.04-2.85,1.47-3.6,3.12.64.31,1.21-.86,1.68-1.2.54-.39,2.28-1.26,2.88-1.44.38-.11,1,.09,1.44,0,.19-.04.3-.45.48-.48,1.72-.25,3.3.18,4.8.48l1.2.96c-2.88.16-6.11-.59-8.4.96l-2.64,2.16c.87,1.41,1.57.95,2.64,1.2.19.04.3.45.48.48.99.15,3.3.13,4.32,0,.18-.02.3-.45.48-.48.59-.1,1.36.12,1.92,0,.41-.09,1.84-1.21,2.4-1.44.26-.11.64.08.72,0Z"/>
    <path d="M381.1,211.02c1.17-.17,2.62.12,3.84,0l4.08,2.16.96,2.88c-.72.4-.34.97-.48,1.44-.03.11-1.43,1.51-1.68,1.68-.16.1-2.72,1.4-2.88,1.44-.4.11-1-.09-1.44,0-.19.04-.3.45-.48.48-.78.11-2.58.11-3.36,0-.14-.02-1.03-.88-1.92-.48-.77-.57-2.08-1.22-2.64-2.16-.06-.1.07-.33,0-.48-.26-.58-.73-.84-.48-1.92.04-.18.42-.28.48-.48.09-.29-.09-.66,0-.96.04-.15,1.87-1.97,2.16-2.16.1-.07.35.08.48,0,.33-.19,1.23-.9,1.44-.96.4-.11,1,.09,1.44,0,.19-.04.3-.45.48-.48ZM377.02,217.26l3.6-2.88c1.52.05,2.68-.78,4.32-.48l2.16.72c-1.57-1.75-3.85-1.1-6-1.2-.54.66-1.69.54-2.4.96-.86.51-1.93,1.76-1.68,2.88ZM387.1,216.3c-.76.14-.94-.39-1.68-.48-1.87-.22-3.64.1-5.28.48l-1.68,1.68c.63.95,1.24.67,2.16.72,2.27.12,2.91.15,4.8-.96.12-.07.37.07.48,0,.39-.24,1.05-.97,1.2-1.44Z"/>
    <path d="M461.5,201.42l-4.56-1.92c-6.75-4.36-14.28-7.04-22.08-9.6l-1.2-1.44,5.52.96c6.31,2.47,14.49,5.28,20.16,9.6.74.56,1.66,1.6,2.16,2.4Z"/>
    <path d="M425.98,186.54c.12.82-1.12.49-1.68.48-4.95-.1-10.18-2.11-15.36-1.92l-1.68-.72c.64-.94,2.13-.87,3.12-.72,4.35.66,9.27.79,13.44,1.92.48.13,1.36,1.19,2.16.96Z"/>
  </g>
</svg>