<?xml version="1.0" encoding="UTF-8"?>
<svg id="Layer_1" xmlns="http://www.w3.org/2000/svg" version="1.1" viewBox="0 0 1915.02 1142.05">
  <!-- Generator: Adobe Illustrator 29.4.0, SVG Export Plug-In . SVG Version: 2.1.0 Build 152)  -->
  <defs>
    <style>
      .st0 {
        fill: #d8e6fe;
        fill-rule: evenodd;
      }
    </style>
  </defs>
  <path class="st0" d="M1910.57,1125.33l3.39-.51v.27c-1.07.06-2.2.14-3.39.24Z"/>
  <path class="st0" d="M1913.96,1.89v1122.35c-16.14.44-46.87.12-58.87,3.02-2.42-.49-5.63-1.57.39-1.87-32.73-.49-72.86,3.44-98.3,1.44l2.49-.98c-6.09.3-10.64,1.83-18.27.85.39-.39,2.45-.95-.36-1.01-3.24.33-16.24,1.7-24.32,1.14l6.91-1.11c-31.92-1.28-49,2.68-75.75,3.37,0-2.91-25.07-3.83-37.61-4.29l.46-.43c-37.19-.36-63.18,2.39-97.58,3.54-21.38-3.14-72.41-1.31-106.75-3.08,5.27.52-.85,2.26-6.94,2.55-8.08-.59-22.29,2-21.02-.66l2.88.03c-6.09-2.59-22.65-1.9-35.58-1.96l-2.13,3.47c-33.81-5.04-88.64,1.83-107.1-2.65-8.15.85-18.27.85-26.35,1.7l.43-1.86c-11.59-.23-20.2-.43-29.59-.46-9.01.03-17.41.23-28.58.45l.43,1.86c-8.08-.85-18.2-.85-26.35-1.7-18.46,4.48-73.29-2.39-107.1,2.65l-2.13-3.47c-12.93.06-29.49-.63-35.58,1.96l2.88-.03c1.27,2.66-12.94.07-21.02.66-6.09-.29-12.21-2.03-6.94-2.55-34.34,1.77-85.37-.06-106.75,3.08-34.4-1.15-60.39-3.9-97.58-3.54l.46.43c-12.53.46-37.61,1.38-37.61,4.29-26.75-.69-43.83-4.65-75.75-3.37l6.91,1.11c-8.08.56-21.08-.81-24.32-1.14-2.82.06-.75.62-.36,1.01-7.63.98-12.18-.55-18.27-.85l2.49.98c-25.44,2-65.57-1.93-98.3-1.44,6.02.3,2.81,1.38.39,1.87-13.42-3.24-50.25-2.46-63.93-3.21l8.45,1.28c-26.71-2.13-23.11,3.37-49.59,1.24l15.22-1.86c-10.8.55-19.97-.07-17.38-1.51-12.54,1.08-1.54,2.45-20.49,2.78-.82.89,13.65.59,7.43,1.77l-26.02,2.36-.16.03h-.03c-.07.03-.13.03-.2.03-.33.06-.85.13-1.64.13-1.87.1-5.24.06-10.9-.1,2.29-3.99-21.74-.2-8.58-4.09-37.16-.29-68.52,2.32-100.4.49-13.1,3.9-63.28.13-60.07,5.14-18.03.03-32.63-.95-43.73-2.98,3.6-.39,8.18.23,11.85.49-4.71-1.27-26.42-1.5-35.45-1.47,11.85,1.15,31,2.13,40.26,4.03-16.37-.49-39.22-2.36-48.35-2.98l-4.16,2.59c-13.81-1.9-11.55,2.09-25.4-.46l2.62-.79c-25.31.19-25.63-2.39-49.17-2.72l1.02,1.02c-8.09.43-20.1-2-27.99.33l15.39.1c-1.31,1.49-9.63,2.31-15.45,3.07V1.89h1912.89Z"/>
</svg>