<?xml version="1.0" encoding="UTF-8"?>
<svg id="Layer_1" xmlns="http://www.w3.org/2000/svg" version="1.1" viewBox="0 0 172 295">
  <!-- Generator: Adobe Illustrator 29.4.0, SVG Export Plug-In . SVG Version: 2.1.0 Build 152)  -->
  <defs>
    <style>
      .st0 {
        fill: #f2d9af;
      }
    </style>
  </defs>
  <g>
    <circle class="st0" cx="101.95" cy="293.24" r=".78"/>
    <circle class="st0" cx="106.01" cy="292.55" r=".78"/>
    <circle class="st0" cx="110.08" cy="291.86" r=".78"/>
    <circle class="st0" cx="114.15" cy="291.17" r=".78"/>
    <circle class="st0" cx="118.18" cy="290.37" r=".78"/>
    <circle class="st0" cx="121.98" cy="288.76" r=".78"/>
    <circle class="st0" cx="125.78" cy="287.15" r=".78"/>
    <circle class="st0" cx="129.57" cy="285.54" r=".78"/>
    <circle class="st0" cx="133.37" cy="283.92" r=".78"/>
    <circle class="st0" cx="136.87" cy="281.79" r=".78"/>
    <circle class="st0" cx="140.17" cy="279.32" r=".78"/>
    <circle class="st0" cx="143.48" cy="276.86" r=".78"/>
    <circle class="st0" cx="146.79" cy="274.4" r=".78"/>
    <circle class="st0" cx="149.99" cy="271.82" r=".78"/>
    <circle class="st0" cx="152.52" cy="268.56" r=".78"/>
    <circle class="st0" cx="155.05" cy="265.3" r=".78"/>
    <circle class="st0" cx="157.58" cy="262.05" r=".78"/>
    <circle class="st0" cx="160.11" cy="258.79" r=".78"/>
    <circle class="st0" cx="161.81" cy="255.08" r=".78"/>
    <circle class="st0" cx="163.2" cy="251.19" r=".78"/>
    <circle class="st0" cx="164.59" cy="247.31" r=".78"/>
    <circle class="st0" cx="165.98" cy="243.42" r=".78"/>
    <circle class="st0" cx="166.8" cy="239.44" r=".78"/>
    <circle class="st0" cx="166.84" cy="235.32" r=".78"/>
    <circle class="st0" cx="166.87" cy="231.19" r=".78"/>
    <circle class="st0" cx="166.9" cy="227.07" r=".78"/>
    <circle class="st0" cx="166.6" cy="222.99" r=".78"/>
    <circle class="st0" cx="165.36" cy="219.06" r=".78"/>
    <circle class="st0" cx="164.12" cy="215.12" r=".78"/>
    <circle class="st0" cx="162.88" cy="211.19" r=".78"/>
    <circle class="st0" cx="161.56" cy="207.3" r=".78"/>
    <circle class="st0" cx="159.25" cy="203.88" r=".78"/>
    <circle class="st0" cx="156.93" cy="200.46" r=".78"/>
    <circle class="st0" cx="154.62" cy="197.05" r=".78"/>
    <circle class="st0" cx="152.31" cy="193.63" r=".78"/>
    <circle class="st0" cx="149.31" cy="190.86" r=".78"/>
    <circle class="st0" cx="146.08" cy="188.28" r=".78"/>
    <circle class="st0" cx="142.86" cy="185.71" r=".78"/>
    <circle class="st0" cx="139.29" cy="183.76" r=".78"/>
    <circle class="st0" cx="135.39" cy="182.43" r=".78"/>
    <circle class="st0" cx="131.48" cy="181.1" r=".78"/>
    <circle class="st0" cx="127.44" cy="180.48" r=".78"/>
    <circle class="st0" cx="123.32" cy="180.27" r=".78"/>
    <circle class="st0" cx="119.2" cy="180.06" r=".78"/>
    <circle class="st0" cx="115.1" cy="180.41" r=".78"/>
    <circle class="st0" cx="111" cy="180.89" r=".78"/>
    <circle class="st0" cx="106.91" cy="181.37" r=".78"/>
    <circle class="st0" cx="102.85" cy="182.09" r=".78"/>
    <circle class="st0" cx="98.78" cy="182.81" r=".78"/>
    <circle class="st0" cx="94.71" cy="183.47" r=".78"/>
    <circle class="st0" cx="90.62" cy="183.98" r=".78"/>
    <circle class="st0" cx="86.53" cy="184.49" r=".78"/>
    <circle class="st0" cx="82.42" cy="184.28" r=".78"/>
    <circle class="st0" cx="78.31" cy="183.93" r=".78"/>
    <circle class="st0" cx="74.56" cy="182.42" r=".78"/>
    <circle class="st0" cx="70.99" cy="180.37" r=".78"/>
    <circle class="st0" cx="68.47" cy="177.26" r=".78"/>
    <circle class="st0" cx="66.42" cy="173.68" r=".78"/>
    <circle class="st0" cx="64.78" cy="169.96" r=".78"/>
    <circle class="st0" cx="64.32" cy="165.86" r=".78"/>
    <circle class="st0" cx="64.12" cy="161.8" r=".78"/>
    <circle class="st0" cx="65.65" cy="157.97" r=".78"/>
    <circle class="st0" cx="67.54" cy="154.36" r=".78"/>
    <circle class="st0" cx="70.36" cy="151.35" r=".78"/>
    <circle class="st0" cx="73.33" cy="148.51" r=".78"/>
    <circle class="st0" cx="76.65" cy="146.07" r=".78"/>
    <circle class="st0" cx="79.99" cy="143.64" r=".78"/>
    <circle class="st0" cx="83.43" cy="141.37" r=".78"/>
    <circle class="st0" cx="86.88" cy="139.1" r=".78"/>
    <circle class="st0" cx="90.24" cy="136.72" r=".78"/>
    <circle class="st0" cx="93.56" cy="134.27" r=".78"/>
    <circle class="st0" cx="96.79" cy="131.72" r=".78"/>
    <circle class="st0" cx="99.69" cy="128.78" r=".78"/>
    <circle class="st0" cx="102.59" cy="125.85" r=".78"/>
    <circle class="st0" cx="104.73" cy="122.35" r=".78"/>
    <circle class="st0" cx="106.73" cy="118.74" r=".78"/>
    <circle class="st0" cx="108.07" cy="114.91" r=".78"/>
    <circle class="st0" cx="108.68" cy="110.83" r=".78"/>
    <circle class="st0" cx="109.28" cy="106.75" r=".78"/>
    <circle class="st0" cx="108.7" cy="102.69" r=".78"/>
    <circle class="st0" cx="107.92" cy="98.64" r=".78"/>
    <circle class="st0" cx="107.13" cy="94.59" r=".78"/>
    <circle class="st0" cx="105.71" cy="90.77" r=".78"/>
    <circle class="st0" cx="103.79" cy="87.11" r=".78"/>
    <circle class="st0" cx="101.88" cy="83.46" r=".78"/>
    <circle class="st0" cx="99.04" cy="80.53" r=".78"/>
    <circle class="st0" cx="95.95" cy="77.79" r=".78"/>
    <circle class="st0" cx="92.57" cy="75.54" r=".78"/>
    <circle class="st0" cx="88.74" cy="74.01" r=".78"/>
    <circle class="st0" cx="84.88" cy="72.58" r=".78"/>
    <circle class="st0" cx="80.78" cy="72.14" r=".78"/>
    <circle class="st0" cx="76.68" cy="71.7" r=".78"/>
    <circle class="st0" cx="72.57" cy="71.82" r=".78"/>
    <circle class="st0" cx="68.46" cy="72.18" r=".78"/>
    <circle class="st0" cx="64.36" cy="72.63" r=".78"/>
    <circle class="st0" cx="60.31" cy="73.38" r=".78"/>
    <circle class="st0" cx="56.25" cy="74.12" r=".78"/>
    <circle class="st0" cx="52.18" cy="74.77" r=".78"/>
    <circle class="st0" cx="48.09" cy="75.32" r=".78"/>
    <circle class="st0" cx="44" cy="75.87" r=".78"/>
    <circle class="st0" cx="39.89" cy="75.95" r=".78"/>
    <circle class="st0" cx="35.77" cy="75.79" r=".78"/>
    <circle class="st0" cx="31.65" cy="75.63" r=".78"/>
    <circle class="st0" cx="27.75" cy="74.31" r=".78"/>
    <circle class="st0" cx="23.87" cy="72.91" r=".78"/>
    <circle class="st0" cx="20.13" cy="71.28" r=".78"/>
    <circle class="st0" cx="16.94" cy="68.65" r=".78"/>
    <circle class="st0" cx="13.76" cy="66.02" r=".78"/>
    <circle class="st0" cx="11.14" cy="62.88" r=".78"/>
    <circle class="st0" cx="8.79" cy="59.49" r=".78"/>
    <circle class="st0" cx="6.54" cy="56.05" r=".78"/>
    <circle class="st0" cx="5.13" cy="52.18" r=".78"/>
    <circle class="st0" cx="3.71" cy="48.3" r=".78"/>
    <circle class="st0" cx="2.92" cy="44.29" r=".78"/>
    <circle class="st0" cx="2.64" cy="40.18" r=".78"/>
    <circle class="st0" cx="2.44" cy="36.07" r=".78"/>
    <circle class="st0" cx="3.67" cy="32.13" r=".78"/>
    <circle class="st0" cx="4.89" cy="28.2" r=".78"/>
    <circle class="st0" cx="6.12" cy="24.26" r=".78"/>
    <circle class="st0" cx="8.26" cy="20.79" r=".78"/>
    <circle class="st0" cx="10.77" cy="17.52" r=".78"/>
    <circle class="st0" cx="13.28" cy="14.24" r=".78"/>
    <circle class="st0" cx="16.03" cy="11.2" r=".78"/>
    <circle class="st0" cx="19.22" cy="8.59" r=".78"/>
    <circle class="st0" cx="22.41" cy="5.98" r=".78"/>
    <circle class="st0" cx="25.6" cy="3.36" r=".78"/>
  </g>
  <g>
    <path class="st0" d="M133.24,261.73c.43,0,.78.35.78.78s-.35.78-.78.78-.78-.35-.78-.78.35-.78.78-.78Z"/>
    <circle class="st0" cx="136.29" cy="259.74" r=".78"/>
    <circle class="st0" cx="139.34" cy="256.97" r=".78"/>
    <circle class="st0" cx="142.39" cy="254.19" r=".78"/>
    <circle class="st0" cx="144.75" cy="250.84" r=".78"/>
    <circle class="st0" cx="146.89" cy="247.32" r=".78"/>
    <circle class="st0" cx="149.04" cy="243.8" r=".78"/>
    <circle class="st0" cx="150.12" cy="239.84" r=".78"/>
    <circle class="st0" cx="151.05" cy="235.82" r=".78"/>
    <circle class="st0" cx="151.49" cy="231.76" r=".78"/>
    <circle class="st0" cx="151.18" cy="227.65" r=".78"/>
    <circle class="st0" cx="150.76" cy="223.56" r=".78"/>
    <circle class="st0" cx="149.43" cy="219.65" r=".78"/>
    <circle class="st0" cx="148.11" cy="215.75" r=".78"/>
    <circle class="st0" cx="146.02" cy="212.19" r=".78"/>
    <circle class="st0" cx="143.9" cy="208.66" r=".78"/>
    <circle class="st0" cx="141.16" cy="205.57" r=".78"/>
    <circle class="st0" cx="138.11" cy="202.86" r=".78"/>
    <circle class="st0" cx="134.58" cy="200.72" r=".78"/>
    <circle class="st0" cx="131.06" cy="198.58" r=".78"/>
    <circle class="st0" cx="127.27" cy="197.14" r=".78"/>
    <circle class="st0" cx="123.2" cy="196.5" r=".78"/>
    <circle class="st0" cx="119.12" cy="195.87" r=".78"/>
    <circle class="st0" cx="115.03" cy="196.09" r=".78"/>
    <circle class="st0" cx="110.92" cy="196.52" r=".78"/>
    <circle class="st0" cx="106.83" cy="196.99" r=".78"/>
    <circle class="st0" cx="102.79" cy="197.83" r=".78"/>
    <circle class="st0" cx="98.75" cy="198.66" r=".78"/>
    <circle class="st0" cx="94.7" cy="199.43" r=".78"/>
    <circle class="st0" cx="90.62" cy="200.06" r=".78"/>
    <circle class="st0" cx="86.55" cy="200.69" r=".78"/>
    <circle class="st0" cx="82.44" cy="200.71" r=".78"/>
    <circle class="st0" cx="78.33" cy="200.45" r=".78"/>
    <circle class="st0" cx="74.27" cy="199.95" r=".78"/>
    <circle class="st0" cx="70.48" cy="198.3" r=".78"/>
    <circle class="st0" cx="66.7" cy="196.65" r=".78"/>
    <circle class="st0" cx="63.13" cy="194.7" r=".78"/>
    <circle class="st0" cx="60.14" cy="191.86" r=".78"/>
    <circle class="st0" cx="57.15" cy="189.02" r=".78"/>
    <circle class="st0" cx="54.64" cy="185.81" r=".78"/>
    <circle class="st0" cx="52.73" cy="182.15" r=".78"/>
    <circle class="st0" cx="50.82" cy="178.5" r=".78"/>
    <circle class="st0" cx="49.69" cy="174.58" r=".78"/>
    <circle class="st0" cx="49.02" cy="170.51" r=".78"/>
    <circle class="st0" cx="48.34" cy="166.44" r=".78"/>
    <circle class="st0" cx="48.64" cy="162.36" r=".78"/>
    <circle class="st0" cx="49.26" cy="158.29" r=".78"/>
    <circle class="st0" cx="49.88" cy="154.21" r=".78"/>
    <circle class="st0" cx="51.41" cy="150.42" r=".78"/>
    <circle class="st0" cx="53.27" cy="146.74" r=".78"/>
    <circle class="st0" cx="55.14" cy="143.07" r=".78"/>
    <circle class="st0" cx="57.9" cy="140.04" r=".78"/>
    <circle class="st0" cx="60.85" cy="137.16" r=".78"/>
    <circle class="st0" cx="63.98" cy="134.51" r=".78"/>
    <circle class="st0" cx="67.51" cy="132.37" r=".78"/>
    <circle class="st0" cx="71.03" cy="130.22" r=".78"/>
    <circle class="st0" cx="74.68" cy="128.29" r=".78"/>
    <circle class="st0" cx="78.33" cy="126.38" r=".78"/>
    <circle class="st0" cx="81.79" cy="124.14" r=".78"/>
    <circle class="st0" cx="85.17" cy="121.78" r=".78"/>
    <circle class="st0" cx="87.86" cy="118.73" r=".78"/>
    <circle class="st0" cx="90.21" cy="115.34" r=".78"/>
    <circle class="st0" cx="91.36" cy="111.48" r=".78"/>
    <circle class="st0" cx="91.94" cy="107.39" r=".78"/>
    <circle class="st0" cx="92.22" cy="103.32" r=".78"/>
    <circle class="st0" cx="91.44" cy="99.27" r=".78"/>
    <circle class="st0" cx="89.74" cy="95.55" r=".78"/>
    <circle class="st0" cx="87.51" cy="92.14" r=".78"/>
    <circle class="st0" cx="84.31" cy="89.53" r=".78"/>
    <circle class="st0" cx="80.7" cy="87.73" r=".78"/>
    <circle class="st0" cx="76.72" cy="86.64" r=".78"/>
    <circle class="st0" cx="72.67" cy="86.4" r=".78"/>
    <circle class="st0" cx="68.56" cy="86.79" r=".78"/>
    <circle class="st0" cx="64.45" cy="87.18" r=".78"/>
  </g>
  <g>
    <circle class="st0" cx="127.64" cy="250.64" r=".78"/>
    <circle class="st0" cx="130.48" cy="247.65" r=".78"/>
    <circle class="st0" cx="132.93" cy="244.32" r=".78"/>
    <circle class="st0" cx="135.09" cy="240.84" r=".78"/>
    <circle class="st0" cx="136.81" cy="237.08" r=".78"/>
    <circle class="st0" cx="137.68" cy="233.11" r=".78"/>
    <circle class="st0" cx="138.08" cy="229" r=".78"/>
    <circle class="st0" cx="136.87" cy="225.12" r=".78"/>
    <circle class="st0" cx="135.37" cy="221.27" r=".78"/>
    <circle class="st0" cx="132.67" cy="218.21" r=".78"/>
    <circle class="st0" cx="129.77" cy="215.27" r=".78"/>
    <circle class="st0" cx="126.45" cy="213.01" r=".78"/>
    <circle class="st0" cx="122.55" cy="211.68" r=".78"/>
    <circle class="st0" cx="118.54" cy="211.11" r=".78"/>
    <circle class="st0" cx="114.43" cy="211.38" r=".78"/>
    <circle class="st0" cx="110.36" cy="211.97" r=".78"/>
    <circle class="st0" cx="106.35" cy="212.93" r=".78"/>
    <circle class="st0" cx="102.34" cy="213.88" r=".78"/>
    <circle class="st0" cx="98.31" cy="214.8" r=".78"/>
    <circle class="st0" cx="94.29" cy="215.73" r=".78"/>
    <circle class="st0" cx="90.2" cy="216.19" r=".78"/>
    <circle class="st0" cx="86.09" cy="216.53" r=".78"/>
    <circle class="st0" cx="81.99" cy="216.74" r=".78"/>
    <circle class="st0" cx="77.91" cy="216.08" r=".78"/>
    <circle class="st0" cx="73.84" cy="215.41" r=".78"/>
    <circle class="st0" cx="69.83" cy="214.58" r=".78"/>
    <circle class="st0" cx="66.1" cy="212.81" r=".78"/>
    <circle class="st0" cx="62.37" cy="211.05" r=".78"/>
    <circle class="st0" cx="58.64" cy="209.29" r=".78"/>
    <circle class="st0" cx="55.29" cy="206.96" r=".78"/>
    <circle class="st0" cx="52.22" cy="204.2" r=".78"/>
    <circle class="st0" cx="49.16" cy="201.44" r=".78"/>
    <circle class="st0" cx="46.45" cy="198.37" r=".78"/>
    <circle class="st0" cx="44.13" cy="194.96" r=".78"/>
    <circle class="st0" cx="41.82" cy="191.54" r=".78"/>
    <circle class="st0" cx="39.8" cy="187.95" r=".78"/>
    <circle class="st0" cx="38.04" cy="184.23" r=".78"/>
    <circle class="st0" cx="36.35" cy="180.47" r=".78"/>
    <circle class="st0" cx="35.03" cy="176.56" r=".78"/>
    <circle class="st0" cx="34.35" cy="172.5" r=".78"/>
    <circle class="st0" cx="33.82" cy="168.41" r=".78"/>
    <circle class="st0" cx="33.29" cy="164.32" r=".78"/>
    <circle class="st0" cx="33.37" cy="160.23" r=".78"/>
    <circle class="st0" cx="33.89" cy="156.14" r=".78"/>
    <circle class="st0" cx="34.41" cy="152.05" r=".78"/>
    <circle class="st0" cx="35.51" cy="148.12" r=".78"/>
    <circle class="st0" cx="37.2" cy="144.35" r=".78"/>
    <circle class="st0" cx="38.89" cy="140.59" r=".78"/>
    <circle class="st0" cx="40.84" cy="136.99" r=".78"/>
    <circle class="st0" cx="43.49" cy="133.84" r=".78"/>
    <circle class="st0" cx="46.15" cy="130.68" r=".78"/>
    <circle class="st0" cx="48.81" cy="127.52" r=".78"/>
    <circle class="st0" cx="51.8" cy="124.72" r=".78"/>
    <circle class="st0" cx="55.07" cy="122.21" r=".78"/>
    <circle class="st0" cx="58.34" cy="119.7" r=".78"/>
    <circle class="st0" cx="61.62" cy="117.19" r=".78"/>
    <circle class="st0" cx="64.89" cy="114.68" r=".78"/>
  </g>
</svg>