<?xml version="1.0" encoding="UTF-8"?>
<svg id="Layer_1" xmlns="http://www.w3.org/2000/svg" version="1.1" viewBox="0 0 730 523">
  <!-- Generator: Adobe Illustrator 29.4.0, SVG Export Plug-In . SVG Version: 2.1.0 Build 152)  -->
  <defs>
    <style>
      .st0 {
        fill: #82b2e0;
      }

      .st1 {
        fill: #fdfdfe;
      }

      .st2 {
        fill: #84b3e1;
      }

      .st3 {
        fill: #7fafdf;
      }

      .st4 {
        fill: #81b1e0;
      }
    </style>
  </defs>
  <path class="st2" d="M730,187v2c-.91,1.81-.91,3.17,0,5v2c-3.69,4.48-5.57-.98-6.5-.98-.78,0-2.04,3.81-4.5,2.54-4.77-2.46.98-5.45.98-6.05,0-.42-6.22-5.38-.35-6.43,1.74-.31,3.29,2.92,3.87,2.92.94,0,2.8-5.47,6.5-.98Z"/>
  <path class="st3" d="M693,523c-1.37-1.19-.72-5.71-1.01-5.99s-6.64.88-5.98-2.49c.43-2.19,5.75-1.26,5.99-1.52.27-.28-.89-6.65,2.49-5.99,2.2.43,1.26,5.73,1.52,5.99s5.57-.68,5.99,1.52c.65,3.37-5.7,2.21-5.98,2.49s.36,4.8-1.01,5.99h-2Z"/>
  <polygon class="st1" points="730 194 727.02 191.5 730 189 730 194"/>
  <path class="st2" d="M38.63,234.07c1.74-.31,3.29,2.92,3.87,2.92s3.6-5.75,6.05-.98c1.27,2.46-2.54,3.72-2.54,4.5,0,.6,5.75,3.6.98,6.05-2.46,1.27-3.72-2.54-4.5-2.54-.6,0-3.6,5.75-6.05.98-1.27-2.46,2.54-3.72,2.54-4.5,0-.42-6.22-5.38-.35-6.43Z"/>
  <path class="st0" d="M692.99,165c.9,1.63-1.22,5.78-1,5.99,1.14,1.08,6.74-.97,5.01,5.01-1.63.9-5.78-1.22-5.99-1-1.08,1.14.97,6.74-5.01,5.01-.9-1.63,1.22-5.78,1-5.99-1.14-1.08-6.74.97-5.01-5.01,1.63-.9,5.78,1.22,5.99,1,1.08-1.14-.97-6.74,5.01-5.01Z"/>
  <path class="st0" d="M11.99,214c.9,1.63-1.22,5.78-1,5.99,1.14,1.08,6.74-.97,5.01,5.01-1.63.9-5.78-1.22-5.99-1-1.08,1.14.97,6.74-5.01,5.01-.9-1.63,1.22-5.78,1-5.99-1.14-1.08-6.74.97-5.01-5.01,1.63-.9,5.78,1.22,5.99,1,1.08-1.14-.97-6.74,5.01-5.01Z"/>
  <path class="st4" d="M683.16,473.86c1.21.74,6-1.75,6.83-.86,2.35,2.5-2.77,5.09-2.92,5.6-.39,1.34,2.3,5.77-.59,6.39-2.42.51-3.14-3.61-3.58-3.92-1.14-.81-5.96,3.97-6.89.42-.88-3.34,3.83-3.82,3.94-4.97.04-.41-4.43-7.43,1.52-5.47,1.14.38,1.24,2.53,1.7,2.82Z"/>
  <path class="st3" d="M69,88c.26.26,6.65-.88,5.99,2.49-.43,2.19-5.75,1.26-5.99,1.52-.27.28.89,6.65-2.49,5.99-2.19-.43-1.26-5.75-1.52-5.99-.28-.27-6.65.89-5.99-2.49.43-2.2,5.73-1.26,5.99-1.52s-.68-5.57,1.52-5.99c3.37-.65,2.22,5.73,2.49,5.99Z"/>
</svg>