<?xml version="1.0" encoding="UTF-8"?>
<svg id="Layer_1" xmlns="http://www.w3.org/2000/svg" version="1.1" viewBox="0 0 107 141">
  <!-- Generator: Adobe Illustrator 29.4.0, SVG Export Plug-In . SVG Version: 2.1.0 Build 152)  -->
  <defs>
    <style>
      .st0 {
        fill: #ebb954;
      }
    </style>
  </defs>
  <path class="st0" d="M1.5,140.86l-1-2.98c3.58,1.34,3.22-1.27,4.77-2.95,7.16-7.73,11.6-12.54,14.99-22.75.94-2.82.89-6.53,2.11-9.37-8.06-3.01-13.78-10.52-12.36-19.35.72-4.51,5.8-3.68,8.72-1.78s5.57,7.17,6.35,10.57c.48,2.09.06,4.26.37,6.1.34,2.03,8.05.59,9.81.2,3.81-.85,7.37-2.59,10.53-4.86,6.56-4.7,11.53-11.49,15.18-18.62,1.19-2.32,4.6-10.84,4.37-13.07-.08-.78-3.22-1.51-4.47-1.93-12.33-4.13-15.4-31.57,1.93-21.06,3.34,2.2,5.49,8.61,6,12.5.17,1.27.91,5.42.88,5.75,22.01-.34,30.86-24.13,32.8-42.63.49-4.65.26-9.13-1.68-13.48,3.97-1.69,5.19,3.14,5.48,6.22,1.2,13.04-6.75,35.85-16.19,45-6.09,5.9-13.57,9.41-22.18,9.48-1.46,10.01-5.93,20.32-12.53,28.04-7.37,8.61-18.6,15.9-30.42,13.19-1.95,15.08-8.63,29.14-21.46,37.79h-2ZM65.86,56.82c.64-7.74-2.98-16.1-11.49-17.18-2.23,7.68,3.61,16.1,11.49,17.18ZM21.05,89.99c-.36-.94-.82-1.83-1.4-2.65-.78-1.09-1.7-2.08-2.88-2.74-.39-.22-4.15-1.53-4.29-.93-.77,3.33.43,6.91,2.44,9.57.92,1.21,2.02,2.27,3.33,3.05.39.23,4.19,1.61,4.2,1.81-.12-2.65-.41-5.55-1.4-8.1Z"/>
</svg>