<?xml version="1.0" encoding="UTF-8"?>
<svg id="Layer_1" xmlns="http://www.w3.org/2000/svg" version="1.1" viewBox="0 0 2879 84">
  <!-- Generator: Adobe Illustrator 29.4.0, SVG Export Plug-In . SVG Version: 2.1.0 Build 152)  -->
  <defs>
    <style>
      .st0 {
        fill: #fff;
        fill-rule: evenodd;
      }
    </style>
  </defs>
  <path class="st0" d="M2879,2.1v81.58h-1438.99s-1440.01.01-1440.01.01V2.1c11.29-.1,21.7.1,29.1,1.41,15.81-.43,34.83-.85,49.17-.92-.92.36-.03.62-2.75.49,19.8,1.21,12.18-3.7,34.7-2.36,11.49,2.1-11.98,1.11-4.78,1.9,3.11,4.26,27.17-.56,42.33,1.93l-3.67.23c11.55,1.44,28.25-1.61,47.17-1.31,0,0-.92.39-.1.65,12.93-2.16,37.41-2.88,55.65-3.5-5.66,1.67-8.28.88-4.81,2.59,8.15-.23-2.39-2.72,13.88-3.21,5.3.92,17.05,1.74,18.63,3.54l-15.39.1c7.89,2.33,19.9-.1,27.99.33l-1.02,1.02c23.54-.33,23.86-2.91,49.17-2.72l-2.62-.79c13.85-2.55,11.59,1.44,25.4-.46l4.16,2.59c9.13-.62,31.98-2.49,48.35-2.98-9.26,1.9-28.41,2.88-40.26,4.03,9.03.03,30.74-.2,35.45-1.47-3.67.26-8.25.88-11.85.49,11.1-2.03,25.7-3.01,43.73-2.98-3.21,5.01,46.97,1.24,60.07,5.14,31.88-1.83,63.24.78,100.4.49-13.16-3.89,10.87-.1,8.58-4.09,5.66-.16,9.03-.2,10.9-.1.79,0,1.31.07,1.64.13.07,0,.13,0,.2.03h.03l.16.03,26.02,2.36c6.22,1.18-8.25.88-7.43,1.77,18.95.33,7.95,1.7,20.49,2.78-2.59-1.44,6.58-2.06,17.38-1.51l-15.22-1.86c26.48-2.13,22.88,3.37,49.59,1.24l-8.45,1.28c13.68-.75,50.51.03,63.93-3.21,2.42.49,5.63,1.57-.39,1.87,32.73.49,72.86-3.44,98.3-1.44l-2.49.98c6.09-.3,10.64-1.83,18.27-.85-.39.39-2.46.95.36,1.01,3.24-.33,16.24-1.7,24.32-1.14l-6.91,1.11c31.92,1.28,49-2.68,75.75-3.37,0,2.91,25.08,3.83,37.61,4.29l-.46.43c37.19.36,63.18-2.39,97.58-3.54,21.38,3.14,72.41,1.31,106.75,3.08-5.27-.52.85-2.26,6.94-2.55,8.08.59,22.29-2,21.02.66l-2.88-.03c6.09,2.59,22.65,1.9,35.58,1.96l2.13-3.47c33.81,5.04,88.64-1.83,107.1,2.65,8.15-.85,18.27-.85,26.35-1.7l-.43,1.86c11.17.22,19.57.42,28.58.45,9.39-.03,18-.23,29.59-.46l-.43-1.86c8.08.85,18.2.85,26.35,1.7,18.46-4.48,73.29,2.39,107.1-2.65l2.13,3.47c12.93-.06,29.49.63,35.58-1.96l-2.88.03c-1.27-2.66,12.94-.07,21.02-.66,6.09.29,12.21,2.03,6.94,2.55,34.34-1.77,85.37.06,106.75-3.08,34.4,1.15,60.39,3.9,97.58,3.54l-.46-.43c12.54-.46,37.61-1.38,37.61-4.29,26.75.69,43.83,4.65,75.75,3.37l-6.91-1.11c8.08-.56,21.08.81,24.32,1.14,2.81-.06.75-.62.36-1.01,7.63-.98,12.18.55,18.27.85l-2.49-.98c25.44-2,65.57,1.93,98.3,1.44-6.02-.3-2.81-1.38-.39-1.87,13.42,3.24,50.25,2.46,63.93,3.21l-8.45-1.28c26.71,2.13,23.11-3.37,49.59-1.24l-15.22,1.87c10.8-.55,19.96.07,17.38,1.51,12.54-1.08,1.54-2.45,20.49-2.78.82-.89-13.65-.59-7.43-1.77l26.02-2.36.16-.03h.03c.07-.03.14-.03.2-.03.33-.06.85-.13,1.64-.13,1.87-.1,5.24-.06,10.9.1-2.29,3.99,21.74.2,8.58,4.09,37.16.29,68.52-2.32,100.4-.49,13.1-3.9,63.28-.13,60.07-5.14,18.03-.03,32.63.95,43.73,2.98-3.6.39-8.18-.23-11.85-.49,4.71,1.27,26.42,1.5,35.45,1.47-11.85-1.15-31-2.13-40.26-4.03,16.37.49,39.22,2.36,48.35,2.98l4.16-2.59c13.81,1.9,11.55-2.09,25.4.46l-2.62.79c25.31-.19,25.63,2.39,49.17,2.72l-1.01-1.02c8.09-.43,20.1,2,27.99-.33l-15.39-.1c1.57-1.8,13.32-2.62,18.62-3.54,16.27.49,5.73,2.98,13.88,3.21,3.47-1.71.85-.92-4.81-2.59,18.23.62,42.72,1.34,55.65,3.5.82-.26-.1-.65-.1-.65,18.92-.3,35.62,2.75,47.17,1.31l-3.67-.23c15.15-2.49,39.21,2.33,42.32-1.93,7.2-.79-16.27.2-4.78-1.9,22.52-1.34,14.9,3.57,34.7,2.36-2.72.13-1.83-.13-2.75-.49,14.34.07,33.36.49,49.17.92,7.4-1.31,17.81-1.51,29.1-1.41Z"/>
</svg>